<svg id="Layer_1" enable-background="new 0 0 512.05 512.05" height="512" viewBox="0 0 512.05 512.05" width="512" xmlns="http://www.w3.org/2000/svg"><g><g fill="#ffb185"><path d="m150.276 184.214c-5.379 5.445-8.29 12.66-8.195 20.313.189 15.472 12.932 28.06 28.406 28.06h3.5v-56.817h-3.5c-7.655 0-14.832 2.999-20.211 8.444z"/><path d="m363.534 184.214c-5.379-5.445-12.557-8.444-20.211-8.444h-3.5v56.817h3.5c15.473 0 28.216-12.588 28.406-28.06.095-7.653-2.816-14.867-8.195-20.313z"/></g><g><path d="m441.765 512.05h-371.48c-13.08 0-23.34-11.21-22.18-24.23l4.56-50.93c2.83-31.6 25.74-57.78 56.71-64.79l60.35-13.67 15-3.39 24.53-5.56 95.3.43 22.76 5.15 15 3.39 48.06 10.87 12.28 2.78c30.98 7.01 53.9 33.19 56.73 64.81l4.56 50.91c1.16 13.02-9.1 24.23-22.18 24.23z" fill="#ff755a"/><path d="m463.945 487.82c1.16 13.02-9.1 24.23-22.18 24.23h-24c13.08 0 23.34-11.21 22.18-24.23l-4.56-50.91c-2.46-27.51-20.07-56.02-45.01-67.59l12.28 2.78c30.98 7.01 53.9 33.19 56.73 64.81z" fill="#f43838"/><g fill="#f43838"><path d="m132.865 432.48v79.57h-15v-79.57c0-4.14 3.35-7.5 7.5-7.5 4.14 0 7.5 3.36 7.5 7.5z"/><path d="m394.185 432.48v79.57h-15v-79.57c0-4.14 3.36-7.5 7.5-7.5s7.5 3.36 7.5 7.5z"/></g><path d="m379.185 450.63v61.42h-246.32v-61.42c0-4.16 3.4-7.49 7.57-7.5 15.34-.05 29.29-15.59 29.29-32.66v-52.04l15-3.39v47.93h142.59v-47.91l15 3.39v52.02c0 12.23 7.17 23.68 16.87 29.2 3.84 2.19 8.08 3.45 12.43 3.46 4.16.01 7.57 3.34 7.57 7.5z" fill="#5cd9ff"/><path d="m379.185 450.63v61.42h-246.32v-20h226.32v-52.38c3.84 2.19 8.08 3.45 12.43 3.46 4.16.01 7.57 3.34 7.57 7.5z" fill="#5ab1ff"/><path d="m350.805 68.67v68.27c0 4.14-3.36 7.5-7.5 7.5h-174.56c-4.14 0-7.5-3.36-7.5-7.5v-68.27c0-12.2 4.7-23.72 13.22-32.44 8.52-8.71 19.9-13.67 32.07-13.97.06-.01.12-.01.18-.01h98.78c12.17.3 23.56 5.26 32.08 13.97 8.53 8.72 13.23 20.25 13.23 32.45z" fill="#fff24a"/><path d="m337.575 36.22c8.53 8.72 13.23 20.25 13.23 32.45v68.27c0 4.14-3.36 7.5-7.5 7.5h-19.35c4.14 0 7.5-3.36 7.5-7.5v-68.27c0-12.2-4.7-23.73-13.23-32.45-8.52-8.71-19.92-13.67-32.08-13.97h19.35c12.17.3 23.56 5.26 32.08 13.97z" fill="#ffbe2c"/><g><g><g><path d="m312.825 7.5v129.44c0 4.14-3.36 7.5-7.5 7.5h-25.64c-4.14 0-7.5-3.36-7.5-7.5v-129.44c0-4.14 3.36-7.5 7.5-7.5h25.64c4.14 0 7.5 3.36 7.5 7.5z" fill="#ffbe2c"/></g><path d="m312.825 7.5v129.44c0 4.14-3.36 7.5-7.5 7.5h-17c4.14 0 7.5-3.36 7.5-7.5v-129.44c0-4.14-3.36-7.5-7.5-7.5h17c4.14 0 7.5 3.36 7.5 7.5z" fill="#ffa02e"/></g><g><path d="m239.867 7.5v129.44c0 4.14-3.36 7.5-7.5 7.5h-25.64c-4.14 0-7.5-3.36-7.5-7.5v-129.44c0-4.14 3.36-7.5 7.5-7.5h25.64c4.14 0 7.5 3.36 7.5 7.5z" fill="#ffbe2c"/><path d="m239.865 7.5v129.44c0 4.14-3.36 7.5-7.5 7.5h-17c4.14 0 7.5-3.36 7.5-7.5v-129.44c0-4.14-3.36-7.5-7.5-7.5h17c4.14 0 7.5 3.36 7.5 7.5z" fill="#ffa02e"/></g></g><path d="m304.375 349.25.18.66c-2.74 2.35-5.59 4.72-8.54 7.12-10.98 8.92-24.7 13.78-38.86 13.75-14.16.03-27.9-4.84-38.89-13.78-3.13-2.53-6.13-5.04-9.01-7.52 2.04-7.71 3.22-15.61 3.52-23.55.06-1.42.09-2.83.09-4.25 0-5.36-.39-10.72-1.19-16.05l-2.42-16.21h95.3l-2.46 16.48c-1.01 6.73-1.38 13.52-1.12 20.29.3 7.77 1.44 15.5 3.4 23.06z" fill="#ffd6ae"/><path d="m302.095 305.9c-1.01 6.73-1.38 13.52-1.12 20.29-2.23 1.91-4.54 3.83-6.94 5.77-10.39 8.44-23.49 13.1-36.9 13.1h-.23c-13.4 0-26.52-4.66-36.93-13.14-2.49-2.02-4.89-4.01-7.2-5.99.06-1.42.09-2.83.09-4.25 0-5.36-.39-10.72-1.19-16.05l-2.42-16.21h95.3z" fill="#ffb185"/><path d="m344.913 157.741c-1.422-1.575-3.445-2.475-5.567-2.475h-164.644c-2.123 0-4.146.899-5.567 2.475-1.422 1.576-2.11 3.68-1.894 5.791 2.137 20.82 2.679 47.421 1.253 61.955-.186 2.127-.28 4.398-.28 6.749 0 22.077 16.936 46.511 51.76 74.686 10.414 8.475 23.535 13.138 36.932 13.137h.23c13.408 0 26.513-4.654 36.901-13.101 34.854-28.201 51.796-52.643 51.796-74.72 0-2.336-.094-4.619-.288-6.877-1.417-14.442-.875-41.022 1.261-61.828.218-2.112-.47-4.216-1.893-5.792z" fill="#ffd6ae"/><path d="m277.21 256.799h-40.372c-4.142 0-7.5 3.358-7.5 7.5s3.358 7.5 7.5 7.5h40.372c4.142 0 7.5-3.358 7.5-7.5s-3.358-7.5-7.5-7.5z" fill="#ffb185"/><path d="m369.245 149.73v21.04c0 2.76-2.24 5-5 5h-216.44c-2.76 0-5-2.24-5-5v-21.04c0-9.81 7.98-17.79 17.79-17.79h190.86c9.81 0 17.79 7.98 17.79 17.79z" fill="#ffbe2c"/><path d="m369.245 149.73v21.04c0 2.76-2.24 5-5 5h-216.44c-2.76 0-5-2.24-5-5v-13h201.44c2.76 0 5-2.24 5-5v-3.04c0-9.81-7.98-17.79-17.79-17.79h20c9.81 0 17.79 7.98 17.79 17.79z" fill="#ffa02e"/></g></g></svg>