<svg id="Layer_1" enable-background="new 0 0 512.05 512.05" height="512" viewBox="0 0 512.05 512.05" width="512" xmlns="http://www.w3.org/2000/svg"><g><g><g><path d="m201.59 289.509c-6.305 5.772-14.705 9.294-23.927 9.294-19.576 0-35.445-15.869-35.445-35.445 0-4.159.716-8.15 2.032-11.858l40.109-23.576 19.342 33.098z" fill="#49525e"/><path d="m130.93 210.112c-8.79-4.775-14.757-14.087-14.757-24.794 0-11.141 6.462-20.773 15.842-25.353l49.797-.624-3.726 53.652z" fill="#49525e"/><path d="m150.993 197.921-6.694 1.615c-13.494 3.254-23.634 14.867-24.269 28.733 0 17.985 14.545 34.079 32.529 34.079 5.104 0 13.978 1.016 23.135-6.907l4.767-27.564z" fill="#31353a"/></g><g><path d="m312.462 289.509c6.305 5.772 14.705 9.294 23.927 9.294 19.576 0 35.445-15.869 35.445-35.445 0-4.159-.716-8.15-2.032-11.858l-40.109-23.576-19.342 33.098z" fill="#49525e"/><path d="m383.121 210.112c8.79-4.775 14.757-14.087 14.757-24.794 0-11.141-6.462-20.773-15.842-25.353l-49.797-.624 3.726 53.652z" fill="#49525e"/><path d="m363.058 197.921 6.694 1.615c13.494 3.254 23.634 14.867 24.269 28.733 0 17.985-14.545 34.079-32.529 34.079-5.104 0-13.978 1.016-23.135-6.907l-4.767-27.564z" fill="#31353a"/></g></g><g><g><g fill="#ffb185"><path d="m150.277 184.209c-5.379 5.445-8.29 12.66-8.195 20.313.189 15.472 12.932 28.06 28.406 28.06h3.5v-56.817h-3.5c-7.655 0-14.832 2.999-20.211 8.444z"/><path d="m363.535 184.209c-5.379-5.445-12.557-8.444-20.211-8.444h-3.5v56.817h3.5c15.473 0 28.216-12.588 28.406-28.06.095-7.653-2.816-14.867-8.195-20.313z"/></g><g><path d="m441.766 512.045h-371.48c-13.08 0-23.34-11.21-22.18-24.23l4.56-50.93c2.83-31.6 25.74-57.78 56.71-64.79l60.35-13.67 15-3.39 24.53-5.56 95.3.43 22.76 5.15 15 3.39 48.06 10.87 12.28 2.78c30.98 7.01 53.9 33.19 56.73 64.81l4.56 50.91c1.16 13.02-9.1 24.23-22.18 24.23z" fill="#e6f3ff"/><path d="m463.946 487.815c1.16 13.02-9.1 24.23-22.18 24.23h-24c13.08 0 23.34-11.21 22.18-24.23l-4.56-50.91c-2.46-27.51-20.07-56.02-45.01-67.59l12.28 2.78c30.98 7.01 53.9 33.19 56.73 64.81z" fill="#d6dced"/><g fill="#d6dced"><path d="m132.866 432.475v79.57h-15v-79.57c0-4.14 3.35-7.5 7.5-7.5 4.14 0 7.5 3.36 7.5 7.5z"/><path d="m394.186 432.475v79.57h-15v-79.57c0-4.14 3.36-7.5 7.5-7.5s7.5 3.36 7.5 7.5z"/></g><path d="m379.186 450.625v61.42h-246.32v-61.42c0-4.16 3.4-7.49 7.57-7.5 15.34-.05 29.29-15.59 29.29-32.66v-52.04l15-3.39v47.93h142.59v-47.91l15 3.39v52.02c0 12.23 7.17 23.68 16.87 29.2 3.84 2.19 8.08 3.45 12.43 3.46 4.16.01 7.57 3.34 7.57 7.5z" fill="#37d149"/><path d="m379.186 450.625v61.42h-246.32v-20h226.32v-52.38c3.84 2.19 8.08 3.45 12.43 3.46 4.16.01 7.57 3.34 7.57 7.5z" fill="#00b265"/><path d="m304.376 349.245.18.66c-2.74 2.35-5.59 4.72-8.54 7.12-10.98 8.92-24.7 13.78-38.86 13.75-14.16.03-27.9-4.84-38.89-13.78-3.13-2.53-6.13-5.04-9.01-7.52 2.04-7.71 3.22-15.61 3.52-23.55.06-1.42.09-2.83.09-4.25 0-5.36-.39-10.72-1.19-16.05l-2.42-16.21h95.3l-2.46 16.48c-1.01 6.73-1.38 13.52-1.12 20.29.3 7.77 1.44 15.5 3.4 23.06z" fill="#ffd6ae"/><path d="m302.096 305.895c-1.01 6.73-1.38 13.52-1.12 20.29-2.23 1.91-4.54 3.83-6.94 5.77-10.39 8.44-23.49 13.1-36.9 13.1h-.23c-13.4 0-26.52-4.66-36.93-13.14-2.49-2.02-4.89-4.01-7.2-5.99.06-1.42.09-2.83.09-4.25 0-5.36-.39-10.72-1.19-16.05l-2.42-16.21h95.3z" fill="#ffb185"/><path d="m344.914 157.736c-1.422-1.575-3.445-2.475-5.567-2.475h-164.644c-2.123 0-4.146.899-5.567 2.475-1.422 1.576-2.11 3.68-1.894 5.791 2.137 20.82 2.679 47.421 1.253 61.955-.186 2.127-.28 4.398-.28 6.749 0 22.077 16.936 46.511 51.76 74.686 10.414 8.475 23.535 13.138 36.932 13.137h.23c13.408 0 26.513-4.654 36.901-13.101 34.854-28.201 51.796-52.643 51.796-74.72 0-2.336-.094-4.619-.288-6.877-1.417-14.442-.875-41.022 1.261-61.828.217-2.112-.471-4.216-1.893-5.792z" fill="#ffd6ae"/><path d="m277.21 256.794h-40.372c-4.142 0-7.5 3.358-7.5 7.5s3.358 7.5 7.5 7.5h40.372c4.142 0 7.5-3.358 7.5-7.5s-3.357-7.5-7.5-7.5z" fill="#ffb185"/></g></g><path d="m383.376 126.36c0 3.9-2.98 7.15-6.87 7.47-9.54.8-19.1 1.51-28.68 2.12-30.18 1.93-60.49 2.89-90.8 2.89-39.92 0-79.84-1.67-119.48-5.01-3.89-.32-6.88-3.57-6.88-7.47 0-64.01 47.86-117.07 109.67-125.26 5.46-.73 11.03-1.1 16.69-1.1 69.67 0 126.35 56.69 126.35 126.36z" fill="#fff24a"/><path d="m383.376 126.36c0 3.9-2.98 7.15-6.87 7.47-9.54.8-19.1 1.51-28.68 2.12 1.35-3.46 2.18-7.54 2.18-9.59 0-64.01-47.85-117.07-109.67-125.26 5.46-.73 11.03-1.1 16.69-1.1 69.67 0 126.35 56.69 126.35 126.36z" fill="#ffbe2c"/><path d="m420.906 148.17c-3.01 4.41-7.56 7.39-12.81 8.38-17.71 3.35-35.55 6.11-53.44 8.27-32.48 3.94-65.15 5.93-97.63 5.93-50.36 0-101.19-4.78-151.07-14.2-5.25-.99-9.8-3.97-12.81-8.38s-4.12-9.73-3.13-14.98 3.96-9.8 8.38-12.81c4.41-3.02 9.73-4.13 14.98-3.13 78.47 14.82 157.84 17.44 236.63 7.86 16.92-2.06 33.82-4.68 50.67-7.86 5.25-1 10.57.12 14.98 3.13s7.39 7.56 8.38 12.81-.12 10.57-3.13 14.98z" fill="#ffbe2c"/><path d="m420.906 148.17c-3.01 4.41-7.56 7.39-12.81 8.38-17.71 3.35-35.55 6.11-53.44 8.27 4.2-1.34 7.81-4.04 10.34-7.74 3.01-4.42 4.12-9.74 3.13-14.99s-3.97-9.8-8.38-12.81c-2.94-2.01-6.29-3.62-9.74-4.17 16.92-2.06 33.82-4.68 50.67-7.86 5.25-1 10.57.12 14.98 3.13s7.39 7.56 8.38 12.81-.12 10.57-3.13 14.98z" fill="#ffa02e"/></g><path d="m132.866 464.011h-90.892c-3.883 0-7.124 2.964-7.47 6.832l-2.938 32.832c-.115 1.284.027 2.594.534 3.779 1.226 2.865 3.977 4.591 6.918 4.591h93.847v-48.034z" fill="#5cd9ff"/><path d="m479.956 507.45c-1.23 2.87-3.98 4.6-6.92 4.6h-93.85v-48.04h90.89c3.88 0 7.13 2.97 7.47 6.83l2.94 32.83c.11 1.29-.03 2.6-.53 3.78z" fill="#5cd9ff"/><path d="m479.956 507.45c-1.23 2.87-3.98 4.6-6.92 4.6h-55.27c13.08 0 23.34-11.21 22.18-24.23l-2.13-23.81h32.26c3.88 0 7.13 2.97 7.47 6.83l2.94 32.83c.11 1.29-.03 2.6-.53 3.78z" fill="#5ab1ff"/></g></svg>