<svg id="Layer_1" enable-background="new 0 0 512.012 512.012" height="512" viewBox="0 0 512.012 512.012" width="512" xmlns="http://www.w3.org/2000/svg"><g><g><g fill="#ffddce"><path d="m150.257 185.252c-5.379 5.444-8.29 12.656-8.195 20.307.189 15.468 12.932 28.052 28.406 28.052h3.5v-56.801h-3.5c-7.654 0-14.832 2.998-20.211 8.442z"/><path d="m363.516 185.252c-5.379-5.444-12.557-8.442-20.211-8.441h-3.5v56.801h3.5c15.473 0 28.216-12.584 28.406-28.052.094-7.653-2.816-14.865-8.195-20.308z"/></g><path d="m441.747 511.995h-371.48c-13.08 0-23.34-11.207-22.18-24.223l4.56-50.916c2.83-31.591 25.74-57.764 56.71-64.772l60.35-13.666 15-3.389 24.53-5.558 95.3.43 22.76 5.149 15 3.389 48.06 10.867 12.28 2.779c30.98 7.008 53.9 33.181 56.73 64.792l4.56 50.896c1.16 13.015-9.1 24.222-22.18 24.222z" fill="#e6f3ff"/><path d="m463.927 487.772c1.16 13.016-9.1 24.223-22.18 24.223h-24c13.08 0 23.34-11.207 22.18-24.223l-4.56-50.896c-2.46-27.502-20.07-56.004-45.01-67.571l12.28 2.779c30.98 7.008 53.9 33.181 56.73 64.792z" fill="#d6dced"/><path d="m244.112 408.921-10.93-28.607 23.955-9.549 23.952 9.549-11.216 28.607z" fill="#ff755a"/><path d="m297.707 512h-81.141l27.546-103.079h25.761z" fill="#f43838"/><g fill="#d6dced"><path d="m132.847 432.447v79.548h-15v-79.548c0-4.139 3.35-7.498 7.5-7.498 4.14.001 7.5 3.36 7.5 7.498z"/><path d="m394.167 432.447v79.548h-15v-79.548c0-4.139 3.36-7.498 7.5-7.498s7.5 3.36 7.5 7.498z"/></g><path d="m304.357 349.241.18.66c-2.74 2.349-5.59 4.719-8.54 7.118-10.98 8.918-24.7 13.776-38.86 13.746-14.16.03-27.9-4.839-38.89-13.776-3.13-2.529-6.13-5.039-9.01-7.518 2.04-7.708 3.22-15.605 3.52-23.543.06-1.42.09-2.829.09-4.249 0-5.358-.39-10.717-1.19-16.045l-2.42-16.206h95.3l-2.46 16.475c-1.01 6.728-1.38 13.516-1.12 20.284.3 7.768 1.44 15.496 3.4 23.054z" fill="#ffece4"/><path d="m302.077 305.903c-1.01 6.728-1.38 13.516-1.12 20.284-2.23 1.91-4.54 3.829-6.94 5.768-10.39 8.438-23.49 13.096-36.9 13.096h-.23c-13.4 0-26.52-4.659-36.93-13.136-2.49-2.019-4.89-4.009-7.2-5.988.06-1.42.09-2.829.09-4.249 0-5.358-.39-10.717-1.19-16.045l-2.42-16.206h95.3z" fill="#ffddce"/><path d="m344.895 157.786c-1.422-1.575-3.445-2.474-5.567-2.474h-164.645c-2.123 0-4.146.899-5.567 2.474-1.422 1.575-2.11 3.679-1.894 5.789 2.137 20.814 2.679 47.408 1.253 61.938-.186 2.127-.28 4.397-.28 6.747 0 22.07 16.936 46.498 51.76 74.664 10.414 8.472 23.535 13.134 36.932 13.133h.23c13.408 0 26.513-4.652 36.901-13.097 34.854-28.193 51.796-52.628 51.796-74.699 0-2.335-.094-4.617-.288-6.876-1.417-14.438-.875-41.011 1.261-61.811.218-2.109-.47-4.212-1.892-5.788z" fill="#ffece4"/><g fill="#5cd9ff"><path d="m132.847 463.975h-90.892c-3.883 0-7.124 2.963-7.47 6.83l-2.938 32.823c-.115 1.283.027 2.593.534 3.778 1.226 2.864 3.977 4.59 6.918 4.59h93.847v-48.021z"/><path d="m479.937 507.401c-1.23 2.869-3.98 4.599-6.92 4.599h-93.85v-48.026h90.89c3.88 0 7.13 2.969 7.47 6.828l2.94 32.821c.11 1.289-.03 2.599-.53 3.778z"/><path d="m257.137 370.765-41.988 30.279c-2.064 1.489-4.981.511-5.731-1.92l-14.325-46.447 17.244-20.477z"/><path d="m257.137 370.765 41.988 30.279c2.064 1.489 4.981.511 5.731-1.92l14.17-45.944-17.624-20.519z"/></g><path d="m479.937 507.412c-1.23 2.87-3.98 4.6-6.92 4.6h-55.27c13.08 0 23.34-11.21 22.18-24.23l-2.13-23.81h32.26c3.88 0 7.13 2.97 7.47 6.83l2.94 32.83c.11 1.29-.03 2.6-.53 3.78z" fill="#5ab1ff"/></g><g><path d="m276.192 256.726h-40.372c-4.142 0-7.5 3.357-7.5 7.498s3.358 7.498 7.5 7.498h40.372c4.143 0 7.5-3.357 7.5-7.498s-3.358-7.498-7.5-7.498z" fill="#ffddce"/></g><g><path d="m351.917 68.651v68.251c0 4.139-3.36 7.498-7.5 7.498h-174.56c-4.14 0-7.5-3.359-7.5-7.498v-68.251c0-12.197 4.7-23.713 13.22-32.431 8.52-8.708 19.9-13.666 32.07-13.966.06-.01.12-.01.18-.01h98.78c12.17.3 23.56 5.259 32.08 13.966 8.53 8.717 13.23 20.244 13.23 32.441z" fill="#fff24a"/><path d="m338.687 36.21c8.53 8.718 13.23 20.244 13.23 32.441v68.251c0 4.139-3.36 7.498-7.5 7.498h-19.35c4.14 0 7.5-3.359 7.5-7.498v-68.251c0-12.197-4.7-23.723-13.23-32.441-8.52-8.708-19.92-13.666-32.08-13.966h19.35c12.17.3 23.56 5.258 32.08 13.966z" fill="#ffbe2c"/><g><g><g><path d="m313.937 7.498v129.404c0 4.139-3.36 7.498-7.5 7.498h-25.64c-4.14 0-7.5-3.359-7.5-7.498v-129.404c0-4.139 3.36-7.498 7.5-7.498h25.64c4.14 0 7.5 3.359 7.5 7.498z" fill="#ffbe2c"/></g><path d="m313.937 7.498v129.404c0 4.139-3.36 7.498-7.5 7.498h-17c4.14 0 7.5-3.359 7.5-7.498v-129.404c0-4.139-3.36-7.498-7.5-7.498h17c4.14 0 7.5 3.359 7.5 7.498z" fill="#ffa02e"/></g><g><path d="m240.979 7.498v129.404c0 4.139-3.36 7.498-7.5 7.498h-25.64c-4.14 0-7.5-3.359-7.5-7.498v-129.404c0-4.139 3.36-7.498 7.5-7.498h25.64c4.14 0 7.5 3.359 7.5 7.498z" fill="#ffbe2c"/><path d="m240.976 7.498v129.404c0 4.139-3.36 7.498-7.5 7.498h-17c4.14 0 7.5-3.359 7.5-7.498v-129.404c0-4.139-3.36-7.498-7.5-7.498h17c4.14 0 7.5 3.359 7.5 7.498z" fill="#ffa02e"/></g></g><path d="m370.357 149.688v21.034c0 2.759-2.24 4.999-5 4.999h-216.44c-2.76 0-5-2.239-5-4.999v-21.034c0-9.807 7.98-17.785 17.79-17.785h190.86c9.81 0 17.79 7.978 17.79 17.785z" fill="#ffbe2c"/><path d="m370.357 149.688v21.034c0 2.759-2.24 4.999-5 4.999h-216.44c-2.76 0-5-2.239-5-4.999v-12.996h201.44c2.76 0 5-2.239 5-4.999v-3.039c0-9.807-7.98-17.785-17.79-17.785h20c9.81 0 17.79 7.978 17.79 17.785z" fill="#ffa02e"/></g></g></svg>