<svg id="Layer_1" enable-background="new 0 0 512.044 512.044" height="512" viewBox="0 0 512.044 512.044" width="512" xmlns="http://www.w3.org/2000/svg"><g><g><g fill="#df9380"><path d="m150.273 185.295c-5.379 5.444-8.29 12.656-8.195 20.307.189 15.468 12.932 28.052 28.406 28.052h3.5v-56.801h-3.5c-7.655 0-14.832 2.999-20.211 8.442z"/><path d="m363.531 185.295c-5.379-5.444-12.557-8.442-20.211-8.441h-3.5v56.801h3.5c15.473 0 28.216-12.584 28.406-28.052.095-7.652-2.816-14.864-8.195-20.308z"/></g><path d="m441.762 512.039h-371.48c-13.08 0-23.34-11.207-22.18-24.223l4.56-50.916c2.83-31.591 25.74-57.764 56.71-64.772l60.35-13.666 15-3.389 24.53-5.558 95.3.43 22.76 5.149 15 3.389 48.06 10.867 12.28 2.779c30.98 7.008 53.9 33.181 56.73 64.792l4.56 50.896c1.16 13.015-9.1 24.222-22.18 24.222z" fill="#5cd9ff"/><path d="m463.942 487.816c1.16 13.016-9.1 24.223-22.18 24.223h-24c13.08 0 23.34-11.207 22.18-24.223l-4.56-50.896c-2.46-27.502-20.07-56.004-45.01-67.571l12.28 2.779c30.98 7.008 53.9 33.181 56.73 64.792z" fill="#5ab1ff"/><path d="m244.128 408.965-10.931-28.607 23.955-9.549 23.952 9.549-11.216 28.607z" fill="#ff755a"/><path d="m297.722 512.044h-81.14l27.546-103.079h25.76z" fill="#f43838"/><g fill="#5ab1ff"><path d="m132.862 432.491v79.548h-15v-79.548c0-4.139 3.35-7.498 7.5-7.498 4.14 0 7.5 3.36 7.5 7.498z"/><path d="m394.182 432.491v79.548h-15v-79.548c0-4.139 3.36-7.498 7.5-7.498s7.5 3.36 7.5 7.498z"/></g><path d="m304.372 349.285.18.66c-2.74 2.349-5.59 4.719-8.54 7.118-10.98 8.918-24.7 13.776-38.86 13.746-14.16.03-27.9-4.839-38.89-13.776-3.13-2.529-6.13-5.039-9.01-7.518 2.04-7.708 3.22-15.605 3.52-23.543.06-1.42.09-2.829.09-4.249 0-5.358-.39-10.717-1.19-16.045l-2.42-16.206h95.3l-2.46 16.475c-1.01 6.728-1.38 13.516-1.12 20.284.3 7.768 1.44 15.496 3.4 23.054z" fill="#f9a58e"/><path d="m302.092 305.947c-1.01 6.728-1.38 13.516-1.12 20.284-2.23 1.91-4.54 3.829-6.94 5.768-10.39 8.438-23.49 13.096-36.9 13.096h-.23c-13.4 0-26.52-4.659-36.93-13.136-2.49-2.019-4.89-4.009-7.2-5.988.06-1.42.09-2.829.09-4.249 0-5.358-.39-10.717-1.19-16.045l-2.42-16.206h95.3z" fill="#df9380"/><path d="m346.804 163.62-90.783-40-88.783 40c2.137 20.814 2.679 47.408 1.253 61.938-.186 2.127-.28 4.397-.28 6.747 0 22.07 16.936 46.498 51.76 74.664 10.414 8.472 23.535 13.134 36.932 13.134h.23c13.408 0 26.513-4.652 36.901-13.097 34.854-28.193 51.796-52.628 51.796-74.699 0-2.335-.094-4.617-.288-6.875-1.416-14.44-.874-41.013 1.262-61.812z" fill="#f9a58e"/><path d="m257.152 370.809-41.988 30.279c-2.064 1.489-4.981.511-5.731-1.92l-14.325-46.447 17.244-20.477z" fill="#e6f3ff"/><path d="m257.152 370.809 41.988 30.279c2.064 1.489 4.981.511 5.731-1.92l14.17-45.944-17.624-20.519z" fill="#e6f3ff"/><g><path d="m276.207 256.769h-40.372c-4.142 0-7.5 3.357-7.5 7.498s3.358 7.498 7.5 7.498h40.372c4.143 0 7.5-3.357 7.5-7.498s-3.358-7.498-7.5-7.498z" fill="#df9380"/></g></g><path d="m390.542 121.71c0 29.28-23.82 53.1-53.11 53.1-10.97 0-21.38-3.4-30.04-9.35h-.01c-8.05-5.51-14.57-13.24-18.61-22.47-9.86 7.39-21.9 11.42-34.3 11.42-11.39 0-22.26-3.29-31.64-9.54-8.61 18.59-27.57 30.85-48.23 30.85-29.28 0-53.1-23.82-53.1-53.1 0-19.23 10.6-37.1 27.27-46.41-3.9-5.44-6.01-11.97-6.01-18.73 0-17.73 14.42-32.16 32.16-32.16 3.4 0 6.73.53 9.92 1.56 5.61-15.96 20.819-26.88 37.97-26.88 12.24 0 23.62 5.48 31.23 14.86 5.85-9.15 16.07-14.86 27.11-14.86 11.11 0 21.26 5.63 27.14 14.89.01.01.01.02.01.02 6.25-3.77 13.36-5.75 20.74-5.75 22.19 0 40.24 18.05 40.24 40.24 0 8.99-2.96 17.61-8.42 24.64 18.15 8.89 29.68 27.22 29.68 47.67z" fill="#49525e"/><path d="m390.542 121.71c0 29.28-23.82 53.1-53.11 53.1-10.97 0-21.38-3.4-30.04-9.35 48.383 1.407 63.15-25.5 63.15-43.75 0-12.74-7.08-24.13-18.48-29.72-5.4-2.65-9.32-7.58-10.68-13.44s-.01-12.02 3.68-16.77c2.76-3.56 4.22-7.84 4.22-12.38 0-11.16-7.8-34.14-40.98-34.49 6.25-3.77 13.36-5.75 20.74-5.75 22.19 0 40.24 18.05 40.24 40.24 0 8.99-2.96 17.61-8.42 24.64 18.15 8.89 29.68 27.22 29.68 47.67z" fill="#31353a"/></g></svg>