<svg id="Layer_1" enable-background="new 0 0 512 512" height="512" viewBox="0 0 512 512" width="512" xmlns="http://www.w3.org/2000/svg"><g><path d="m441.74 512h-371.48c-13.08 0-23.34-11.208-22.18-24.226l4.56-50.921c2.83-31.595 25.74-57.77 56.71-64.779l60.35-13.668 9.44-2.13 5.56-1.26 24.53-5.559 95.3.43 22.76 5.149 6.5 1.47 8.5 1.92 48.06 10.868 12.28 2.78c30.98 7.009 53.9 33.184 56.73 64.799l4.56 50.901c1.16 13.018-9.1 24.226-22.18 24.226z" fill="#37d149"/><path d="m463.92 487.773c1.16 13.018-9.1 24.226-22.18 24.226h-24c13.08 0 23.34-11.208 22.18-24.226l-4.56-50.901c-2.46-27.505-20.07-56.01-45.01-67.579l12.28 2.78c30.98 7.009 53.9 33.184 56.73 64.799z" fill="#00b265"/><g fill="#00b265"><path d="m132.84 432.442v79.557h-15v-79.557c0-4.139 3.35-7.499 7.5-7.499 4.14 0 7.5 3.36 7.5 7.499z"/><path d="m394.16 432.442v79.557h-15v-79.557c0-4.139 3.36-7.499 7.5-7.499s7.5 3.36 7.5 7.499z"/></g><g><g><g fill="#df9380"><path d="m150.251 185.264c-5.379 5.443-8.29 12.654-8.195 20.304.189 15.465 12.932 28.047 28.406 28.047h3.5v-56.792h-3.5c-7.655.001-14.832 2.998-20.211 8.441z"/><path d="m363.509 185.264c-5.379-5.443-12.557-8.441-20.211-8.44h-3.5v56.791h3.5c15.473 0 28.216-12.582 28.406-28.047.095-7.65-2.816-14.861-8.195-20.304z"/></g><path d="m304.35 349.226.18.66c-2.74 2.349-5.59 4.718-8.54 7.117-10.98 8.916-24.7 13.774-38.86 13.744-14.16.03-27.9-4.838-38.89-13.774-3.13-2.529-6.13-5.038-9.01-7.517 2.04-7.706 3.22-15.603 3.52-23.539.06-1.419.09-2.829.09-4.248 0-5.358-.39-10.715-1.19-16.043l-2.42-16.203h95.3l-2.46 16.473c-1.01 6.727-1.38 13.514-1.12 20.281.3 7.766 1.44 15.492 3.4 23.049z" fill="#f9a58e"/><path d="m302.07 305.896c-1.01 6.727-1.38 13.514-1.12 20.281-2.23 1.909-4.54 3.828-6.94 5.767-10.39 8.436-23.49 13.094-36.9 13.094h-.23c-13.4 0-26.52-4.658-36.93-13.134-2.49-2.019-4.89-4.008-7.2-5.987.06-1.419.09-2.829.09-4.248 0-5.358-.39-10.715-1.19-16.043l-2.42-16.203h95.3z" fill="#df9380"/><path d="m346.782 163.592-90.783-39.993-88.783 39.993c2.137 20.811 2.679 47.4 1.253 61.927-.186 2.126-.28 4.396-.28 6.746 0 22.067 16.936 46.49 51.76 74.652 10.414 8.471 23.535 13.132 36.932 13.131h.23c13.408 0 26.513-4.652 36.901-13.095 34.854-28.188 51.796-52.619 51.796-74.686 0-2.335-.094-4.617-.288-6.874-1.416-14.436-.874-41.005 1.262-61.801z" fill="#f9a58e"/><g><path d="m276.185 256.726h-40.372c-4.142 0-7.5 3.356-7.5 7.497 0 4.14 3.358 7.497 7.5 7.497h40.372c4.143 0 7.5-3.356 7.5-7.497 0-4.14-3.358-7.497-7.5-7.497z" fill="#df9380"/></g></g><path d="m390.52 121.689c0 29.275-23.82 53.091-53.11 53.091-10.97 0-21.38-3.4-30.04-9.349h-.01c-8.05-5.509-14.57-13.238-18.61-22.466-9.86 7.389-21.9 11.418-34.3 11.418-11.39 0-22.26-3.289-31.64-9.538-8.61 18.587-27.57 30.845-48.23 30.845-29.28 0-53.1-23.816-53.1-53.091 0-19.227 10.6-37.094 27.27-46.402-3.9-5.439-6.01-11.968-6.01-18.727 0-17.727 14.42-32.154 32.16-32.154 3.4 0 6.73.53 9.92 1.56 5.61-15.958 20.82-26.876 37.97-26.876 12.24 0 23.62 5.479 31.23 14.857 5.85-9.148 16.07-14.857 27.11-14.857 11.11 0 21.26 5.629 27.14 14.888.01.01.01.02.01.02 6.25-3.769 13.36-5.749 20.74-5.749 22.19 0 40.24 18.047 40.24 40.233 0 8.989-2.96 17.607-8.42 24.636 18.15 8.888 29.68 27.215 29.68 47.661z" fill="#49525e"/><path d="m390.52 121.689c0 29.275-23.82 53.091-53.11 53.091-10.97 0-21.38-3.4-30.04-9.349 48.383 1.406 63.15-25.496 63.15-43.743 0-12.738-7.08-24.126-18.48-29.715-5.4-2.649-9.32-7.579-10.68-13.438s-.01-12.018 3.68-16.767c2.76-3.559 4.22-7.839 4.22-12.378 0-11.158-7.8-34.134-40.98-34.484 6.25-3.769 13.36-5.749 20.74-5.749 22.19 0 40.24 18.047 40.24 40.233 0 8.989-2.96 17.607-8.42 24.636 18.15 8.89 29.68 27.217 29.68 47.663z" fill="#31353a"/></g><path d="m209.23 349.457v106.632l-15.04.27-15.05.27v-100.353l5.56-1.26 9.49-2.149z" fill="#e6f3ff"/><path d="m209.23 349.457v106.632l-15.04.27v-103.492z" fill="#d6dced"/><path d="m333.79 356.506v100.553l-14.63-.27-14.63-.27v-106.632l14.63 3.31 8.13 1.839z" fill="#e6f3ff"/><path d="m333.79 356.506v100.553l-14.63-.27v-103.592l8.13 1.839z" fill="#d6dced"/><path d="m276.991 389.371h-41.983c-4.142 0-7.5 3.357-7.5 7.499v26.15c0 4.141 3.358 7.499 7.5 7.499h41.983c4.142 0 7.5-3.357 7.5-7.499v-26.15c0-4.142-3.357-7.499-7.5-7.499z" fill="#31353a"/><path d="m350.99 432.023v64.469c0 8.569-6.94 15.507-15.51 15.507h-155.42c-8.57 0-15.51-6.939-15.51-15.507v-64.469c0-8.559 6.94-15.497 15.51-15.497h155.42c8.57 0 15.51 6.939 15.51 15.497z" fill="#49525e"/><path d="m350.99 432.023v64.469c0 8.569-6.94 15.507-15.51 15.507h-23c8.57 0 15.51-6.939 15.51-15.507v-64.469c0-8.559-6.94-15.497-15.51-15.497h23c8.57 0 15.51 6.939 15.51 15.497z" fill="#31353a"/><path d="m298.02 464.258c0 22.226-18.02 40.243-40.25 40.243-3.09 0-6.11-.35-9-1.01-17.9-4.089-31.25-20.097-31.25-39.233 0-19.137 13.35-35.134 31.25-39.223 2.89-.66 5.91-1.01 9-1.01 22.23 0 40.25 18.007 40.25 40.233z" fill="#5cd9ff"/><g fill="#5ab1ff"><path d="m298.02 464.258c0 22.226-18.02 40.243-40.25 40.243-3.09 0-6.11-.35-9-1.01 17.9-4.089 31.25-20.097 31.25-39.233 0-19.137-13.35-35.134-31.25-39.223 2.89-.66 5.91-1.01 9-1.01 22.23 0 40.25 18.007 40.25 40.233z"/><path d="m257.337 449.309c-4.142 0-7.5 3.357-7.5 7.499v14.903c0 4.141 3.358 7.499 7.5 7.499s7.5-3.357 7.5-7.499v-14.903c0-4.141-3.358-7.499-7.5-7.499z"/></g></g></svg>