<svg id="Layer_1" enable-background="new 0 0 512 512" height="512" viewBox="0 0 512 512" width="512" xmlns="http://www.w3.org/2000/svg"><g><path d="m397.41 370.16-.2.74c-.86 3.3-3.84 5.6-7.25 5.6h-14.91l-258.49-.01c-3.41 0-6.39-2.3-7.26-5.59-8.62-32.78-5.91-49.47-2.12-61.48 4.2-13.31 12.21-24.1 19.95-34.53 4.22-5.68 8.21-11.06 11.61-16.79 9.32-18.78 12-40.19 7.35-58.79h216.35c-4.65 18.6-1.97 40.02 7.35 58.79 3.39 5.73 7.38 11.11 11.6 16.79 7.74 10.43 15.75 21.22 19.95 34.53 6.58 20.82 1.24 41.11-3.93 60.74z" fill="#cc753a"/><path d="m397.41 370.16-.2.74c-.86 3.3-3.84 5.6-7.25 5.6h-14.91l3.02-11.45c4.65-17.63 9.03-34.3 4.2-49.61-3.19-10.11-9.87-19.1-16.93-28.62-4.35-5.85-9.54-13.19-13.47-19.83-10.61-21.37-14.13-45.75-9.9-67.68h20.47c-4.65 18.6-1.97 40.02 7.35 58.79 3.39 5.73 7.38 11.11 11.6 16.79 7.74 10.43 15.75 21.22 19.95 34.53 6.58 20.82 1.24 41.11-3.93 60.74z" fill="#c6542c"/><g><path d="m463.921 487.76-4.56-50.896c-2.83-31.611-25.75-57.784-56.73-64.792l-12.28-2.779-85.82-19.405-95.3-.43-99.88 22.614c-30.97 7.008-53.88 33.18-56.71 64.772l-4.56 50.916c-1.16 13.016 9.1 24.223 22.18 24.223h371.48c13.08 0 23.34-11.206 22.18-24.223z" fill="#e6f3ff"/><path d="m463.921 487.76c1.16 13.016-9.1 24.223-22.18 24.223h-24c13.08 0 23.34-11.207 22.18-24.223l-4.56-50.896c-2.46-27.502-20.07-56.004-45.01-67.571l12.28 2.779c30.98 7.008 53.9 33.181 56.73 64.792z" fill="#d6dced"/><g fill="#d6dced"><path d="m132.841 432.436v79.548h-15v-79.548c0-4.139 3.35-7.498 7.5-7.498 4.14 0 7.5 3.359 7.5 7.498z"/><path d="m394.161 432.436v79.548h-15v-79.548c0-4.139 3.36-7.498 7.5-7.498s7.5 3.359 7.5 7.498z"/></g><path d="m132.841 463.963h-90.892c-3.883 0-7.124 2.963-7.47 6.83l-2.938 32.823c-.115 1.283.027 2.593.534 3.778 1.226 2.864 3.977 4.59 6.918 4.59h93.847v-48.021z" fill="#5cd9ff"/><path d="m479.931 507.39c-1.23 2.869-3.98 4.599-6.92 4.599h-93.85v-48.026h90.89c3.88 0 7.13 2.969 7.47 6.828l2.94 32.821c.11 1.288-.03 2.598-.53 3.778z" fill="#5cd9ff"/><path d="m479.931 507.4c-1.23 2.87-3.98 4.6-6.92 4.6h-55.27c13.08 0 23.34-11.21 22.18-24.23l-2.13-23.81h32.26c3.88 0 7.13 2.97 7.47 6.83l2.94 32.83c.11 1.29-.03 2.6-.53 3.78z" fill="#5ab1ff"/></g><g><path d="m224.655 370.733h59.94v141.25h-59.94z" fill="#d6dced"/><path d="m254.875 370.733h29.72v141.25h-29.72z" fill="#bdc6db"/></g><g><g fill="#ffb185"><path d="m148.241 185.895c-5.379 5.444-8.29 12.656-8.195 20.307.189 15.468 12.932 28.052 28.406 28.052h3.5v-56.801h-3.5c-7.655 0-14.832 2.998-20.211 8.442z"/><path d="m361.499 185.895c-5.379-5.444-12.557-8.442-20.211-8.441h-3.5v56.801h3.5c15.473 0 28.216-12.584 28.406-28.052.095-7.653-2.816-14.864-8.195-20.308z"/></g><path d="m302.34 349.884.18.66c-2.74 2.349-5.59 4.719-8.54 7.118-10.98 8.918-24.7 13.776-38.86 13.746-14.16.03-27.9-4.839-38.89-13.776-3.13-2.529-6.13-5.039-9.01-7.518 2.04-7.708 3.22-15.605 3.52-23.543.06-1.42.09-2.829.09-4.249 0-5.358-.39-10.717-1.19-16.045l-2.42-16.206h95.3l-2.46 16.475c-1.01 6.728-1.38 13.516-1.12 20.284.3 7.768 1.44 15.496 3.4 23.054z" fill="#ffd6ae"/><path d="m300.06 306.546c-1.01 6.728-1.38 13.516-1.12 20.284-2.23 1.909-4.54 3.829-6.94 5.768-10.39 8.438-23.49 13.096-36.9 13.096h-.23c-13.4 0-26.52-4.659-36.93-13.136-2.49-2.019-4.89-4.009-7.2-5.988.06-1.42.09-2.829.09-4.249 0-5.358-.39-10.717-1.19-16.045l-2.42-16.206h95.3z" fill="#ffb185"/><path d="m342.878 158.43c-1.422-1.575-3.445-2.474-5.567-2.474h-164.644c-2.123 0-4.146.899-5.567 2.474-1.422 1.575-2.11 3.679-1.894 5.789 2.137 20.814 2.679 47.408 1.253 61.938-.186 2.127-.28 4.397-.28 6.747 0 22.07 16.936 46.498 51.76 74.664 10.414 8.472 23.535 13.134 36.932 13.134h.23c13.408 0 26.513-4.652 36.901-13.097 34.854-28.193 51.796-52.628 51.796-74.699 0-2.335-.094-4.617-.288-6.876-1.417-14.438-.875-41.011 1.261-61.811.218-2.111-.47-4.214-1.893-5.789z" fill="#ffd6ae"/><g><path d="m274.175 257.369h-40.372c-4.142 0-7.5 3.357-7.5 7.498s3.358 7.498 7.5 7.498h40.372c4.143 0 7.5-3.357 7.5-7.498s-3.358-7.498-7.5-7.498z" fill="#ffb185"/></g></g><g><path d="m349.769 68.651v68.251c0 4.139-3.36 7.498-7.5 7.498h-174.56c-4.14 0-7.5-3.359-7.5-7.498v-68.251c0-12.197 4.7-23.713 13.22-32.431 8.52-8.708 19.9-13.666 32.07-13.966.06-.01.12-.01.18-.01h98.78c12.17.3 23.56 5.259 32.08 13.966 8.53 8.717 13.23 20.244 13.23 32.441z" fill="#fff24a"/><path d="m336.539 36.21c8.53 8.718 13.23 20.244 13.23 32.441v68.251c0 4.139-3.36 7.498-7.5 7.498h-19.35c4.14 0 7.5-3.359 7.5-7.498v-68.251c0-12.197-4.7-23.723-13.23-32.441-8.52-8.708-19.92-13.666-32.08-13.966h19.35c12.17.3 23.56 5.258 32.08 13.966z" fill="#ffbe2c"/><g><g><g><path d="m311.789 7.498v129.404c0 4.139-3.36 7.498-7.5 7.498h-25.64c-4.14 0-7.5-3.359-7.5-7.498v-129.404c0-4.139 3.36-7.498 7.5-7.498h25.64c4.14 0 7.5 3.359 7.5 7.498z" fill="#ffbe2c"/></g><path d="m311.789 7.498v129.404c0 4.139-3.36 7.498-7.5 7.498h-17c4.14 0 7.5-3.359 7.5-7.498v-129.404c0-4.139-3.36-7.498-7.5-7.498h17c4.14 0 7.5 3.359 7.5 7.498z" fill="#ffa02e"/></g><g><path d="m238.831 7.498v129.404c0 4.139-3.36 7.498-7.5 7.498h-25.64c-4.14 0-7.5-3.359-7.5-7.498v-129.404c0-4.139 3.36-7.498 7.5-7.498h25.64c4.14 0 7.5 3.359 7.5 7.498z" fill="#ffbe2c"/><path d="m238.828 7.498v129.404c0 4.139-3.36 7.498-7.5 7.498h-17c4.14 0 7.5-3.359 7.5-7.498v-129.404c0-4.139-3.36-7.498-7.5-7.498h17c4.14 0 7.5 3.359 7.5 7.498z" fill="#ffa02e"/></g></g><path d="m368.209 149.688v21.034c0 2.759-2.24 4.999-5 4.999h-216.44c-2.76 0-5-2.239-5-4.999v-21.034c0-9.807 7.98-17.785 17.79-17.785h190.86c9.81 0 17.79 7.978 17.79 17.785z" fill="#ffbe2c"/><path d="m368.209 149.688v21.034c0 2.759-2.24 4.999-5 4.999h-216.44c-2.76 0-5-2.239-5-4.999v-12.996h201.44c2.76 0 5-2.239 5-4.999v-3.039c0-9.807-7.98-17.785-17.79-17.785h20c9.81 0 17.79 7.978 17.79 17.785z" fill="#ffa02e"/></g><g fill="#5cd9ff"><path d="m204.263 378.724-.914-.914c-11.952-11.952-11.952-31.331 0-43.284l7.391-7.955 44.13 44.83-7.323 7.323c-11.953 11.952-31.331 11.952-43.284 0z"/><path d="m305.477 378.724.914-.914c11.952-11.952 11.952-31.331 0-43.284l-7.451-7.696-44.07 44.57 7.323 7.323c11.952 11.953 31.331 11.953 43.284.001z"/></g></g></svg>