<svg id="Layer_1" enable-background="new 0 0 512 512" height="512" viewBox="0 0 512 512" width="512" xmlns="http://www.w3.org/2000/svg"><g><g><path d="m441.74 511.995h-371.48c-13.08 0-23.34-11.2-22.18-24.22l4.56-50.91c2.83-31.6 25.74-57.77 56.71-64.78l59.17-13.39 40.71-9.22 30.95.14 9.07.04 55.28.25 33.42 7.56 52.4 11.85 12.28 2.77c30.98 7.01 53.9 33.18 56.73 64.8l4.56 50.89c1.16 13.02-9.1 24.22-22.18 24.22z" fill="#e6f3ff"/><g fill="#d6dced"><path d="m463.92 487.777c1.16 13.016-9.1 24.223-22.18 24.223h-24c13.08 0 23.34-11.207 22.18-24.223l-4.56-50.896c-2.46-27.502-20.07-56.004-45.01-67.571l12.28 2.779c30.98 7.008 53.9 33.181 56.73 64.792z"/><g><path d="m132.84 432.452v79.548h-15v-79.548c0-4.139 3.35-7.498 7.5-7.498 4.14 0 7.5 3.36 7.5 7.498z"/><path d="m394.16 432.452v79.548h-15v-79.548c0-4.139 3.36-7.498 7.5-7.498s7.5 3.36 7.5 7.498z"/></g></g></g><path d="m209.23 349.475-40.71 9.22 18.84 16.84c3.07 2.64 6.27 5.32 9.51 7.94 5.41 4.4 11.32 8.22 17.57 11.36l34.81-45.18z" fill="#ff755a"/><path d="m337.95 357.465-14.49 12.84c-2.84 2.44-5.84 4.94-8.92 7.43-15.82 12.87-35.83 19.97-56.29 19.97h-.23c-3.39 0-6.77-.19-10.11-.58l-31.95 39.1v75.77h-29.27v-84.28c0-.96.33-1.89.94-2.64l61.62-75.42 55.28.25z" fill="#f43838"/><g><g fill="#ffb185"><path d="m150.251 185.257c-5.379 5.444-8.29 12.656-8.195 20.307.189 15.468 12.932 28.052 28.406 28.052h3.5v-56.801h-3.5c-7.655 0-14.832 2.998-20.211 8.442z"/><path d="m363.509 185.257c-5.379-5.444-12.557-8.442-20.211-8.441h-3.5v56.801h3.5c15.473 0 28.216-12.584 28.406-28.052.095-7.653-2.816-14.865-8.195-20.308z"/></g><path d="m304.35 349.246.18.66c-2.74 2.349-5.59 4.719-8.54 7.118-10.98 8.918-24.7 13.776-38.86 13.746-14.16.03-27.9-4.839-38.89-13.776-3.13-2.529-6.13-5.039-9.01-7.518 2.04-7.708 3.22-15.605 3.52-23.543.06-1.42.09-2.829.09-4.249 0-5.358-.39-10.717-1.19-16.045l-2.42-16.206h95.3l-2.46 16.475c-1.01 6.728-1.38 13.516-1.12 20.284.3 7.768 1.44 15.496 3.4 23.054z" fill="#ffd6ae"/><path d="m302.07 305.908c-1.01 6.728-1.38 13.516-1.12 20.284-2.23 1.909-4.54 3.829-6.94 5.768-10.39 8.438-23.49 13.096-36.9 13.096h-.23c-13.4 0-26.52-4.659-36.93-13.136-2.49-2.019-4.89-4.009-7.2-5.988.06-1.42.09-2.829.09-4.249 0-5.358-.39-10.717-1.19-16.045l-2.42-16.206h95.3z" fill="#ffb185"/></g><g><g><g><path d="m201.334 289.518c-6.305 5.772-14.705 9.294-23.927 9.294-19.576 0-35.445-15.869-35.445-35.445 0-4.159.716-8.15 2.032-11.858l40.109-23.576 19.342 33.098z" fill="#49525e"/><path d="m130.674 210.121c-8.79-4.775-14.757-14.087-14.757-24.794 0-11.141 6.462-20.773 15.842-25.353l49.797-.624-3.726 53.652z" fill="#49525e"/><path d="m150.737 197.93-6.694 1.615c-13.494 3.254-23.634 14.867-24.269 28.733 0 17.985 14.545 34.079 32.529 34.079 5.104 0 13.978 1.016 23.135-6.907l4.767-27.564z" fill="#31353a"/></g><g><path d="m312.205 289.518c6.305 5.772 14.705 9.294 23.927 9.294 19.576 0 35.445-15.869 35.445-35.445 0-4.159-.716-8.15-2.032-11.858l-40.109-23.576-19.342 33.098z" fill="#49525e"/><path d="m382.865 210.121c8.79-4.775 14.757-14.087 14.757-24.794 0-11.141-6.462-20.773-15.842-25.353l-49.797-.624 3.726 53.652z" fill="#49525e"/><path d="m362.802 197.93 6.694 1.615c13.494 3.254 23.634 14.867 24.269 28.733 0 17.985-14.545 34.079-32.529 34.079-5.104 0-13.978 1.016-23.135-6.907l-4.767-27.564z" fill="#31353a"/></g></g><g fill="#ffb185"><path d="m150.02 184.219c-5.379 5.445-8.29 12.66-8.195 20.313.189 15.472 12.932 28.06 28.406 28.06h3.5v-56.817h-3.5c-7.654-.001-14.832 2.998-20.211 8.444z"/><path d="m363.279 184.219c-5.379-5.445-12.557-8.444-20.211-8.444h-3.5v56.817h3.5c15.473 0 28.216-12.588 28.406-28.06.094-7.654-2.816-14.868-8.195-20.313z"/></g><path d="m344.658 157.746c-1.422-1.575-3.445-2.475-5.567-2.475h-164.645c-2.123 0-4.146.899-5.567 2.475-1.422 1.576-2.11 3.68-1.894 5.791 2.137 20.82 2.679 47.421 1.253 61.955-.186 2.127-.28 4.398-.28 6.749 0 22.077 16.936 46.511 51.76 74.686 10.414 8.475 23.535 13.138 36.932 13.137h.23c13.408 0 26.513-4.654 36.901-13.101 34.854-28.201 51.796-52.643 51.796-74.72 0-2.336-.094-4.619-.288-6.877-1.417-14.442-.875-41.022 1.261-61.828.218-2.113-.47-4.217-1.892-5.792z" fill="#ffd6ae"/><path d="m276.954 256.803h-40.372c-4.142 0-7.5 3.358-7.5 7.5s3.358 7.5 7.5 7.5h40.372c4.142 0 7.5-3.358 7.5-7.5s-3.358-7.5-7.5-7.5z" fill="#ffb185"/></g><path d="m370.65 41.96c0 12.41-5.39 23.56-13.95 31.24v66.515h-199.32v-65.345c-9.35-7.69-15.32-19.36-15.32-32.41 0-23.17 18.79-41.96 41.96-41.96 15.41 0 28.87 8.3 36.17 20.67 7.3-12.37 20.76-20.67 36.17-20.67 15.4 0 28.87 8.3 36.16 20.67 5.24-8.88 13.65-15.66 23.68-18.77 3.94-1.24 8.14-1.9 12.49-1.9 23.17 0 41.96 18.79 41.96 41.96z" fill="#e6f3ff"/><g fill="#d6dced"><path d="m257.148 94.996c-4.143 0-7.5 3.358-7.5 7.5v31.592c0 4.142 3.357 7.5 7.5 7.5s7.5-3.358 7.5-7.5v-31.592c0-4.142-3.357-7.5-7.5-7.5z"/><path d="m210.955 94.996c-4.143 0-7.5 3.358-7.5 7.5v31.592c0 4.142 3.357 7.5 7.5 7.5s7.5-3.358 7.5-7.5v-31.592c0-4.142-3.357-7.5-7.5-7.5z"/><path d="m303.043 94.996c-4.143 0-7.5 3.358-7.5 7.5v31.592c0 4.142 3.357 7.5 7.5 7.5s7.5-3.358 7.5-7.5v-31.592c0-4.142-3.358-7.5-7.5-7.5z"/></g><path d="m370.65 41.96c0 12.41-5.39 23.56-13.95 31.24v66.515h-25v-66.515c8.56-7.68 13.95-18.83 13.95-31.24 0-18.81-12.39-34.74-29.45-40.06 3.94-1.24 8.14-1.9 12.49-1.9 23.17 0 41.96 18.79 41.96 41.96z" fill="#d6dced"/><path d="m383.71 154.125c0 12.08-9.83 21.91-21.91 21.91h-209.6c-12.09 0-21.92-9.83-21.92-21.91s9.83-21.91 21.92-21.91h209.6c12.08 0 21.91 9.83 21.91 21.91z" fill="#ff755a"/><path d="m383.71 154.125c0 12.08-9.83 21.91-21.91 21.91h-30c12.08 0 21.91-9.83 21.91-21.91s-9.83-21.91-21.91-21.91h30c12.08 0 21.91 9.83 21.91 21.91z" fill="#f43838"/><g fill="#49525e"><path d="m341.542 433.647h-37.768c-4.143 0-7.5 3.358-7.5 7.5s3.357 7.5 7.5 7.5h37.768c4.143 0 7.5-3.358 7.5-7.5s-3.357-7.5-7.5-7.5z"/><g><path d="m251.854 448.647h16.808c4.143 0 7.5-3.358 7.5-7.5s-3.357-7.5-7.5-7.5h-16.808c-4.143 0-7.5 3.358-7.5 7.5s3.358 7.5 7.5 7.5z"/><path d="m268.662 465.56h-16.808c-4.143 0-7.5 3.358-7.5 7.5s3.357 7.5 7.5 7.5h16.808c4.143 0 7.5-3.358 7.5-7.5s-3.357-7.5-7.5-7.5z"/></g></g></g></svg>