<svg id="Layer_1" enable-background="new 0 0 512 512" height="512" viewBox="0 0 512 512" width="512" xmlns="http://www.w3.org/2000/svg"><g><g><path d="m460.22 446.41-18.48 65.59h-371.48c-13.08 0-23.34-11.21-22.18-24.23l3.7-41.36.86-9.56c2.83-31.59 25.74-57.77 56.71-64.78l41.75-9.45 31.77-7.19 26.36-5.97 95.3.43 30.4 6.87 31.77 7.19h.01l23.64 5.34 12.28 2.78c30.98 7.01 53.9 33.19 56.73 64.8z" fill="#5cd9ff"/><path d="m459.36 436.871c-2.83-31.615-25.75-57.79-56.73-64.799l-12.28-2.78c24.94 11.568 42.55 40.073 45.01 67.578l4.56 50.901c1.16 13.018-9.1 24.226-22.18 24.226h24l18.475-65.588z" fill="#5ab1ff"/><path d="m233.63 412.81-8.63 11.13-8.83 11.4-65.07-72.719 15.83-3.58 15.94-3.61z" fill="#ff755a"/><path d="m233.63 412.81-8.63 11.13-58.07-64.899 15.94-3.61z" fill="#f43838"/><path d="m366.7 363.951-63.88 71.389-8.5-10.96-8.97-11.57 49.58-56.049 16.01 3.62z" fill="#ff755a"/><path d="m366.7 363.951-63.88 71.389-8.5-10.96 56.62-63.999z" fill="#f43838"/><path d="m125.34 458.19v53.81h-55.08c-13.08 0-23.34-11.21-22.18-24.23l3.7-41.36z" fill="#fff1dd"/><path d="m441.74 512h-55.08v-53.81l49.89-7.99 23.66-3.79 3.71 41.36c1.16 13.02-9.1 24.23-22.18 24.23z" fill="#fff1dd"/><path d="m441.74 512h-24c13.08 0 23.34-11.21 22.18-24.23l-3.37-37.57 23.66-3.79 3.71 41.36c1.16 13.02-9.1 24.23-22.18 24.23z" fill="#ffe4c1"/><g fill="#5ab1ff"><path d="m132.84 432.442v79.556h-15v-79.556c0-4.139 3.35-7.499 7.5-7.499 4.14 0 7.5 3.36 7.5 7.499z"/><path d="m394.16 432.442v79.556h-15v-79.556c0-4.139 3.36-7.499 7.5-7.499s7.5 3.36 7.5 7.499z"/></g><g><g><path d="m304.35 349.227.18.66c-2.74 2.349-5.59 4.718-8.54 7.117-10.98 8.916-24.7 13.774-38.86 13.744-14.16.03-27.9-4.838-38.89-13.774-3.13-2.529-6.13-5.038-9.01-7.517 2.04-7.706 3.22-15.603 3.52-23.539.06-1.419.09-2.829.09-4.248 0-5.358-.39-10.715-1.19-16.043l-2.42-16.203h95.3l-2.46 16.473c-1.01 6.727-1.38 13.514-1.12 20.281.3 7.766 1.44 15.492 3.4 23.049z" fill="#fff1dd"/><path d="m302.07 305.896c-1.01 6.727-1.38 13.514-1.12 20.281-2.23 1.909-4.54 3.828-6.94 5.767-10.39 8.436-23.49 13.094-36.9 13.094h-.23c-13.4 0-26.52-4.658-36.93-13.134-2.49-2.019-4.89-4.008-7.2-5.987.06-1.419.09-2.829.09-4.248 0-5.358-.39-10.715-1.19-16.043l-2.42-16.203h95.3z" fill="#ffe4c1"/></g></g><g><path d="m407.81 294.139c-1.43 1.58-3.45 2.48-5.58 2.48h-12.34c-2.02 0-4.02-.17-5.97-.5-10.16-1.69-19.14-7.64-25.09-15.94-7.09 9.89-18.49 16.44-31.06 16.44h-145.35c-12.57 0-23.97-6.55-31.06-16.44-7.09 9.89-18.49 16.44-31.06 16.44h-10.53c-2.13 0-4.16-.9-5.58-2.48s-2.1-3.69-1.88-5.81l17.69-166.049c7.05-66.2 60.13-116.94 125.5-121.88 3.47-.27 6.97-.4 10.5-.4 70.11 0 128.57 52.57 136 122.28l17.69 166.049c.22 2.12-.46 4.23-1.88 5.81z" fill="#49525e"/><path d="m409.69 288.329c.22 2.12-.46 4.23-1.88 5.81-1.43 1.58-3.45 2.48-5.58 2.48h-12.34c-2.02 0-4.02-.17-5.97-.5 1.09-.42 2.09-1.09 2.89-1.98 1.42-1.58 2.1-3.69 1.88-5.81l-17.69-166.049c-7.06-66.2-60.13-116.94-125.5-121.88 3.47-.27 6.97-.4 10.5-.4 70.11 0 128.57 52.57 136 122.28z" fill="#31353a"/><g fill="#ffe4c1"><path d="m150.251 185.263c-5.379 5.443-8.29 12.654-8.195 20.304.189 15.465 12.932 28.047 28.406 28.047h3.5v-56.792h-3.5c-7.655.001-14.832 2.999-20.211 8.441z"/><path d="m363.509 185.263c-5.379-5.443-12.557-8.441-20.211-8.44h-3.5v56.791h3.5c15.473 0 28.216-12.582 28.406-28.047.095-7.65-2.816-14.861-8.195-20.304z"/></g><path d="m345.52 225.389c.19 2.26.29 4.54.29 6.88 0 22.06-16.94 46.49-51.8 74.68-10.39 8.45-23.49 13.1-36.9 13.1h-.23c-13.4 0-26.52-4.66-36.93-13.13-34.83-28.16-51.76-52.59-51.76-74.66 0-2.34.09-4.61.28-6.74 1.36-13.95.92-39.03-1.01-59.43 4.3 0 10.59.09 17.83.2 10.3.14 21.8.3 32.24.3 11.4 0 21.54-.19 27.47-.81 28.55-2.98 40.3-12.14 49.5-24.42 9.79 15.49 28.55 24.67 52.04 24.73-1.93 20.38-2.38 45.44-1.02 59.3z" fill="#fff1dd"/><g><path d="m276.185 256.725h-40.372c-4.142 0-7.5 3.356-7.5 7.497 0 4.14 3.358 7.497 7.5 7.497h40.372c4.143 0 7.5-3.356 7.5-7.497 0-4.14-3.358-7.497-7.5-7.497z" fill="#ffe4c1"/></g></g></g><path d="m311.59 458.35c0 29.58-24.07 53.65-53.66 53.65-3.42 0-6.76-.32-10-.94-24.82-4.7-43.65-26.55-43.65-52.71 0-26.17 18.83-48.02 43.65-52.72 3.24-.62 6.58-.94 10-.94 29.59 0 53.66 24.07 53.66 53.66z" fill="#fff24a"/><g fill="#ffbe2c"><path d="m311.59 458.35c0 29.58-24.07 53.65-53.66 53.65-3.42 0-6.76-.32-10-.94 24.83-4.69 43.66-26.55 43.66-52.71 0-26.17-18.83-48.03-43.66-52.72 3.24-.62 6.58-.94 10-.94 29.59 0 53.66 24.07 53.66 53.66z"/><circle cx="257.934" cy="458.345" r="23.302"/></g></g></svg>