<svg id="Layer_1" enable-background="new 0 0 512 512" height="512" viewBox="0 0 512 512" width="512" xmlns="http://www.w3.org/2000/svg"><g><g><g><g><g fill="#ffddce"><path d="m150.246 185.252c-5.379 5.444-8.29 12.656-8.195 20.307.189 15.468 12.932 28.052 28.406 28.052h3.5v-56.801h-3.5c-7.654 0-14.832 2.998-20.211 8.442z"/><path d="m363.505 185.252c-5.379-5.444-12.557-8.442-20.211-8.441h-3.5v56.801h3.5c15.473 0 28.216-12.584 28.406-28.052.094-7.653-2.817-14.865-8.195-20.308z"/></g><path d="m457.988 427.95c-.89-4.17-2.14-8.2-3.73-12.08l-7.49-13.89v-.01c-10.19-14.81-25.75-25.73-44.14-29.89l-12.28-2.77-85.82-19.41-95.3-.43-99.88 22.61c-17.99 4.07-33.26 14.61-43.45 28.92l-7.65 13.6c-1.74 4.06-3.12 8.3-4.1 12.68l-6.15 62.77c.14 12.02 9.95 21.94 22.26 21.94h371.48c11.99 0 21.62-9.42 22.24-21.02z" fill="#49525e"/><path d="m457.998 427.948c-.899-4.165-2.153-8.204-3.73-12.082l-7.494-13.89c-10.193-14.807-25.75-25.729-44.149-29.891l-12.28-2.779c24.94 11.567 42.55 40.069 45.01 67.571l4.56 50.896c1.16 13.016-9.1 24.223-22.18 24.223h24c11.994 0 21.618-9.424 22.238-21.025z" fill="#31353a"/><path d="m244.101 408.921-10.93-28.607 23.954-9.549 23.952 9.549-11.215 28.607z" fill="#9ca9b7"/><path d="m297.696 512h-81.141l27.546-103.079h25.761z" fill="#75818e"/><g fill="#31353a"><path d="m132.835 432.447v79.548h-15v-79.548c0-4.139 3.35-7.498 7.5-7.498 4.14.001 7.5 3.36 7.5 7.498z"/><path d="m394.155 432.447v79.548h-15v-79.548c0-4.139 3.36-7.498 7.5-7.498s7.5 3.36 7.5 7.498z"/></g><path d="m304.345 349.241.18.66c-2.74 2.349-5.59 4.719-8.54 7.118-10.98 8.918-24.7 13.776-38.86 13.746-14.16.03-27.9-4.839-38.89-13.776-3.13-2.529-6.13-5.039-9.01-7.518 2.04-7.708 3.22-15.605 3.52-23.543.06-1.42.09-2.829.09-4.249 0-5.358-.39-10.717-1.19-16.045l-2.42-16.206h95.3l-2.46 16.475c-1.01 6.728-1.38 13.516-1.12 20.284.3 7.768 1.44 15.496 3.4 23.054z" fill="#ffece4"/><path d="m302.065 305.903c-1.01 6.728-1.38 13.516-1.12 20.284-2.23 1.91-4.54 3.829-6.94 5.768-10.39 8.438-23.49 13.096-36.9 13.096h-.23c-13.4 0-26.52-4.659-36.93-13.136-2.49-2.019-4.89-4.009-7.2-5.988.06-1.42.09-2.829.09-4.249 0-5.358-.39-10.717-1.19-16.045l-2.42-16.206h95.3z" fill="#ffddce"/><path d="m346.777 163.576-90.783-40-88.783 40c2.137 20.814 2.679 47.408 1.253 61.938-.186 2.127-.28 4.397-.28 6.747 0 22.07 16.936 46.498 51.76 74.664 10.414 8.472 23.535 13.134 36.932 13.134h.23c13.408 0 26.513-4.652 36.901-13.097 34.854-28.193 51.796-52.628 51.796-74.699 0-2.335-.094-4.617-.288-6.875-1.415-14.439-.873-41.012 1.262-61.812z" fill="#ffece4"/><path d="m257.125 370.765-41.988 30.279c-2.064 1.489-4.981.511-5.731-1.92l-14.325-46.447 17.244-20.477z" fill="#31353a"/><path d="m257.125 370.765 41.988 30.279c2.064 1.489 4.981.511 5.731-1.92l14.17-45.944-17.624-20.519z" fill="#31353a"/><g><path d="m276.18 256.726h-40.372c-4.142 0-7.5 3.357-7.5 7.498s3.358 7.498 7.5 7.498h40.372c4.143 0 7.5-3.357 7.5-7.498s-3.357-7.498-7.5-7.498z" fill="#ffddce"/></g></g></g></g><path d="m360.885 127.37-105.09-19.59-104.5 19.59c-3.59 4.95-5.54 10.19-5.54 15.57 0 25.22 42.74 48.05 97.64 51.1 4.1.23 8.27.35 12.5.35 60.77 0 109.93-24.34 109.93-51.45 0-5.08-1.73-10.86-4.94-15.57z" fill="#49525e"/><path d="m365.825 142.94c0 27.11-49.16 51.45-109.93 51.45-4.23 0-8.4-.12-12.5-.35 54.87-3.05 97.42-25.88 97.42-51.09 0-5.05-1.35-10.9-4.51-15.58h24.58c3.21 4.71 4.94 10.49 4.94 15.57z" fill="#31353a"/><path d="m401.388 75.75c0 19.75-15.46 37.59-40.5 51.62h-209.59c-24.15-13.93-38.93-32.31-38.93-51.62 0-38.31 58.12-71.98 132.04-75.45 4.15-.2 8.35-.3 12.6-.3 79.82 0 144.38 35.29 144.38 75.75z" fill="#e6f3ff"/><path d="m401.388 75.75c0 19.75-15.46 37.59-40.5 51.62h-209.59c-24.15-13.93-38.93-32.31-38.93-51.62z" fill="#9ca9b7"/><path d="m401.388 75.75c0 19.75-15.46 37.59-40.5 51.62h-23.32c24.18-13.93 38.81-32.25 38.81-51.62 0-38.33-57.98-72.03-131.97-75.45 4.15-.2 8.35-.3 12.6-.3 79.82 0 144.38 35.29 144.38 75.75z" fill="#d6dced"/><path d="m401.388 75.75c0 19.75-15.46 37.59-40.5 51.62h-23.32c24.18-13.93 38.81-32.25 38.81-51.62z" fill="#75818e"/><path d="m287.178 51.88v23.87c0 17.17-23.59 28.6-28.32 30.72-.98.43-2.02.65-3.07.65-1.04 0-2.09-.22-3.06-.65-1.12-.5-3.28-1.52-5.94-3.01-8.61-4.82-22.38-14.58-22.38-27.71v-23.87c0-4.14 3.36-7.5 7.5-7.5h47.77c4.14 0 7.5 3.36 7.5 7.5z" fill="#fff24a"/><path d="m287.178 51.88v23.87c0 17.17-23.59 28.6-28.32 30.72-.98.43-2.02.65-3.07.65-1.04 0-2.09-.22-3.06-.65-1.12-.5-3.28-1.52-5.94-3.01 8.61-4.82 22.39-14.59 22.39-27.71v-23.87c0-4.14-3.36-7.5-7.5-7.5h18c4.14 0 7.5 3.36 7.5 7.5z" fill="#ffbe2c"/><path d="m89.288 443.13-5.4 23.26c-3.88 16.72-29.39 22.53-34.46 23.52-.48.09-.95.14-1.43.14-.02-.75.01-1.51.08-2.28l4.56-50.91c.29-3.26.8-6.45 1.51-9.58l29.53 6.85c1.93.45 3.61 1.65 4.67 3.34 1.05 1.69 1.39 3.73.94 5.66z" fill="#fff24a"/><path d="m96.968 416.07c-.82 3.45-3.89 5.77-7.29 5.77-.57 0-1.15-.07-1.74-.2l-29.69-7.04c2.07-4.82 4.64-9.37 7.65-13.6l25.5 6.04c4.03.96 6.53 5 5.57 9.03z" fill="#e6f3ff"/><path d="m463.978 490.97c-.77-.09-1.3-.15-1.41-.17-3.17-.62-14.31-3.12-23.18-8.99-5.32-3.52-9.82-8.26-11.28-14.53l-5.4-23.26c-.45-1.93-.11-3.97.94-5.66 1.06-1.69 2.74-2.89 4.67-3.34l6.65-1.58 23.02-5.49c.64 2.92 1.1 5.9 1.37 8.93l4.56 50.89c.1 1.08.11 2.15.06 3.2z" fill="#fff24a"/><path d="m454.258 415.87-21.99 5.02-7.21 1.64c-.59.13-1.17.2-1.74.2-3.4 0-6.47-2.32-7.29-5.77-.96-4.03 1.54-8.07 5.57-9.03l5.13-1.21 20.04-4.74c2.98 4.32 5.5 8.98 7.49 13.89z" fill="#e6f3ff"/><path d="m177.876 356.533c-1.928-8.131-10.086-13.161-18.221-11.233l-31.38 6.921c-8.135 1.927-13.167 10.081-11.239 18.213 1.928 8.131 10.086 13.161 18.221 11.233l31.38-6.921c8.136-1.928 13.167-10.082 11.239-18.213z" fill="#31353a"/><path d="m333.509 356.533c1.928-8.131 10.086-13.161 18.221-11.233l31.38 6.921c8.135 1.927 13.167 10.081 11.239 18.213-1.928 8.131-10.086 13.161-18.221 11.233l-31.38-6.921c-8.136-1.928-13.167-10.082-11.239-18.213z" fill="#31353a"/><g fill="#e6f3ff"><path d="m339.285 425.84h-28.654c-4.143 0-7.5 3.358-7.5 7.5s3.357 7.5 7.5 7.5h28.654c4.143 0 7.5-3.358 7.5-7.5s-3.357-7.5-7.5-7.5z"/><path d="m200.95 425.84h-28.654c-4.143 0-7.5 3.358-7.5 7.5s3.357 7.5 7.5 7.5h28.654c4.143 0 7.5-3.358 7.5-7.5s-3.357-7.5-7.5-7.5z"/></g><path d="m454.258 415.87-21.99 5.02c-1.43-4.84-3.29-9.6-5.54-14.17l20.04-4.74c2.98 4.32 5.5 8.98 7.49 13.89z" fill="#d6dced"/><path d="m463.978 490.97c-.77-.09-1.3-.15-1.41-.17-3.17-.62-14.31-3.12-23.18-8.99l-4.03-44.93c-.1-1.15-.23-2.3-.39-3.44l23.02-5.49c.64 2.92 1.1 5.9 1.37 8.93l4.56 50.89c.1 1.08.11 2.15.06 3.2z" fill="#ffbe2c"/></g></svg>