<svg id="Layer_1" enable-background="new 0 0 512 512" height="512" viewBox="0 0 512 512" width="512" xmlns="http://www.w3.org/2000/svg"><g><g><path d="m441.74 512h-371.48c-13.08 0-23.34-11.21-22.18-24.23l4.56-50.92c2.83-31.59 25.74-57.77 56.71-64.78l39.39-8.92 60.49-13.69 95.3.43 58.73 13.28 27.09 6.12 12.28 2.78c30.98 7.01 53.9 33.19 56.73 64.8l4.56 50.9c1.16 13.02-9.1 24.23-22.18 24.23z" fill="#fff1dd"/><path d="m463.92 487.773c1.16 13.018-9.1 24.226-22.18 24.226h-24c13.08 0 23.34-11.208 22.18-24.226l-4.56-50.901c-2.46-27.505-20.07-56.01-45.01-67.579l12.28 2.78c30.98 7.009 53.9 33.184 56.73 64.799z" fill="#ffe4c1"/><path d="m379.16 468.09v43.9h-246.32v-43.9c17.15-14.57 27.07-37.23 27.07-61.54 0-15.19-3.87-30.82-11.17-43.4l60.49-13.69 95.3.43 43.53 9.84 15.2 3.44c-7.32 12.57-11.17 28.2-11.17 43.38 0 24.31 9.91 46.97 27.07 61.54z" fill="#37d149"/><path d="m379.16 468.09v43.9h-246.32v-15h231.32v-22.35c-17.29-17.34-27.07-41.75-27.07-68.09 0-16.55 3.87-32.98 10.97-46.82l15.2 3.44c-7.32 12.57-11.17 28.2-11.17 43.38 0 24.31 9.91 46.97 27.07 61.54z" fill="#00b265"/><path d="m132.84 468.09h246.32v43.9h-246.32z" fill="#fff24a"/><path d="m379.16 468.09v43.9h-246.32v-15h231.32v-22.35c-2.08-2.08-4.05-4.27-5.9-6.55z" fill="#ffbe2c"/><g fill="#ffe4c1"><path d="m132.84 432.442v79.557h-15v-79.557c0-4.139 3.35-7.499 7.5-7.499 4.14 0 7.5 3.36 7.5 7.499z"/><path d="m394.16 432.442v79.557h-15v-79.557c0-4.139 3.36-7.499 7.5-7.499s7.5 3.36 7.5 7.499z"/></g><g><g><g fill="#ffe4c1"><path d="m150.251 185.264c-5.379 5.443-8.29 12.654-8.195 20.304.189 15.465 12.932 28.047 28.406 28.047h3.5v-56.792h-3.5c-7.655.001-14.832 2.998-20.211 8.441z"/><path d="m363.509 185.264c-5.379-5.443-12.557-8.441-20.211-8.44h-3.5v56.791h3.5c15.473 0 28.216-12.582 28.406-28.047.095-7.65-2.816-14.861-8.195-20.304z"/></g><path d="m304.35 349.226.18.66c-2.74 2.349-5.59 4.718-8.54 7.117-10.98 8.916-24.7 13.774-38.86 13.744-14.16.03-27.9-4.838-38.89-13.774-3.13-2.529-6.13-5.038-9.01-7.517 2.04-7.706 3.22-15.603 3.52-23.539.06-1.419.09-2.829.09-4.248 0-5.358-.39-10.715-1.19-16.043l-2.42-16.203h95.3l-2.46 16.473c-1.01 6.727-1.38 13.514-1.12 20.281.3 7.766 1.44 15.492 3.4 23.049z" fill="#fff1dd"/><path d="m302.07 305.896c-1.01 6.727-1.38 13.514-1.12 20.281-2.23 1.909-4.54 3.828-6.94 5.767-10.39 8.436-23.49 13.094-36.9 13.094h-.23c-13.4 0-26.52-4.658-36.93-13.134-2.49-2.019-4.89-4.008-7.2-5.987.06-1.419.09-2.829.09-4.248 0-5.358-.39-10.715-1.19-16.043l-2.42-16.203h95.3z" fill="#ffe4c1"/><path d="m346.782 163.592-90.783-39.993-88.783 39.993c2.137 20.811 2.679 47.4 1.253 61.927-.186 2.126-.28 4.396-.28 6.746 0 22.067 16.936 46.49 51.76 74.652 10.414 8.471 23.535 13.132 36.932 13.131h.23c13.408 0 26.513-4.652 36.901-13.095 34.854-28.188 51.796-52.619 51.796-74.686 0-2.335-.094-4.617-.288-6.874-1.416-14.436-.874-41.005 1.262-61.801z" fill="#fff1dd"/><g><path d="m276.185 256.726h-40.372c-4.142 0-7.5 3.356-7.5 7.497 0 4.14 3.358 7.497 7.5 7.497h40.372c4.143 0 7.5-3.356 7.5-7.497 0-4.14-3.358-7.497-7.5-7.497z" fill="#ffe4c1"/></g></g><path d="m390.52 121.689c0 29.275-23.82 53.091-53.11 53.091-10.97 0-21.38-3.4-30.04-9.349h-.01c-8.05-5.509-14.57-13.238-18.61-22.466-9.86 7.389-21.9 11.418-34.3 11.418-11.39 0-22.26-3.289-31.64-9.538-8.61 18.587-27.57 30.845-48.23 30.845-29.28 0-53.1-23.816-53.1-53.091 0-19.227 10.6-37.094 27.27-46.402-3.9-5.439-6.01-11.968-6.01-18.727 0-17.727 14.42-32.154 32.16-32.154 3.4 0 6.73.53 9.92 1.56 5.61-15.958 20.82-26.876 37.97-26.876 12.24 0 23.62 5.479 31.23 14.857 5.85-9.148 16.07-14.857 27.11-14.857 11.11 0 21.26 5.629 27.14 14.888.01.01.01.02.01.02 6.25-3.769 13.36-5.749 20.74-5.749 22.19 0 40.24 18.047 40.24 40.233 0 8.989-2.96 17.607-8.42 24.636 18.15 8.888 29.68 27.215 29.68 47.661z" fill="#49525e"/><path d="m390.52 121.689c0 29.275-23.82 53.091-53.11 53.091-10.97 0-21.38-3.4-30.04-9.349 48.383 1.406 63.15-25.496 63.15-43.743 0-12.738-7.08-24.126-18.48-29.715-5.4-2.649-9.32-7.579-10.68-13.438s-.01-12.018 3.68-16.767c2.76-3.559 4.22-7.839 4.22-12.378 0-11.158-7.8-34.134-40.98-34.484 6.25-3.769 13.36-5.749 20.74-5.749 22.19 0 40.24 18.047 40.24 40.233 0 8.989-2.96 17.607-8.42 24.636 18.15 8.89 29.68 27.217 29.68 47.663z" fill="#31353a"/></g></g><path d="m318.53 445.37v66.62h-122.8v-66.62c0-5.47 4.44-9.9 9.91-9.9h102.98c5.47 0 9.91 4.43 9.91 9.9z" fill="#e6f3ff"/><path d="m195.73 496.99h122.8v15h-122.8z" fill="#d6dced"/><path d="m263.5 470.12v41.87h-15v-41.87c0-4.15 3.36-7.5 7.5-7.5s7.5 3.35 7.5 7.5z" fill="#9ca9b7"/><path d="m248.5 496.99h15v15h-15z" fill="#75818e"/></g></svg>