<svg id="Layer_1" enable-background="new 0 0 512 512" height="512" viewBox="0 0 512 512" width="512" xmlns="http://www.w3.org/2000/svg"><g><g><g><path d="m441.74 512h-371.48c-13.08 0-23.34-11.21-22.18-24.23l4.56-50.92c2.83-31.59 25.74-57.77 56.71-64.78l39.39-8.92 60.49-13.69 95.3.43 58.73 13.28 27.09 6.12 12.28 2.78c30.98 7.01 53.9 33.19 56.73 64.8l4.56 50.9c1.16 13.02-9.1 24.23-22.18 24.23z" fill="#ffd6ae"/><path d="m463.92 487.772c1.16 13.018-9.1 24.226-22.18 24.226h-24c13.08 0 23.34-11.208 22.18-24.226l-4.56-50.902c-2.46-27.506-20.07-56.011-45.01-67.579l12.28 2.78c30.98 7.009 53.9 33.185 56.73 64.799z" fill="#ffb185"/><path d="m379.16 468.09v43.9h-246.32v-43.9c17.15-14.57 27.07-37.23 27.07-61.54 0-15.19-3.87-30.82-11.17-43.4l60.49-13.69 95.3.43 43.53 9.84 15.2 3.44c-7.32 12.57-11.17 28.2-11.17 43.38 0 24.309 9.91 46.97 27.07 61.54z" fill="#37d149"/><path d="m379.16 468.09v43.9h-246.32v-15h231.32v-22.35c-17.29-17.34-27.07-41.75-27.07-68.091 0-16.55 3.87-32.98 10.97-46.82l15.2 3.44c-7.32 12.57-11.17 28.2-11.17 43.38 0 24.31 9.91 46.971 27.07 61.541z" fill="#00b265"/><path d="m132.84 468.09h246.32v43.9h-246.32z" fill="#fff24a"/><path d="m379.16 468.09v43.9h-246.32v-15h231.32v-22.35c-2.08-2.08-4.05-4.27-5.9-6.55z" fill="#ffbe2c"/><g fill="#ffb185"><path d="m132.84 432.441v79.557h-15v-79.557c0-4.139 3.35-7.499 7.5-7.499 4.14 0 7.5 3.36 7.5 7.499z"/><path d="m394.16 432.441v79.557h-15v-79.557c0-4.139 3.36-7.499 7.5-7.499s7.5 3.36 7.5 7.499z"/></g></g><path d="m318.53 445.37v66.62h-122.8v-66.62c0-5.47 4.44-9.9 9.91-9.9h102.98c5.47-.001 9.91 4.43 9.91 9.9z" fill="#e6f3ff"/><path d="m195.73 496.99h122.8v15h-122.8z" fill="#d6dced"/><path d="m263.5 470.12v41.87h-15v-41.87c0-4.15 3.36-7.5 7.5-7.5s7.5 3.35 7.5 7.5z" fill="#9ca9b7"/><path d="m248.5 496.99h15v15h-15z" fill="#75818e"/></g><g><g><g><path d="m304.35 349.229.18.66c-2.74 2.349-5.59 4.718-8.54 7.117-10.98 8.916-24.7 13.774-38.86 13.744-14.16.03-27.9-4.838-38.89-13.774-3.13-2.529-6.13-5.038-9.01-7.517 2.04-7.707 3.22-15.603 3.52-23.539.06-1.419.09-2.829.09-4.248 0-5.358-.39-10.715-1.19-16.043l-2.42-16.203h95.3l-2.46 16.473c-1.01 6.727-1.38 13.514-1.12 20.281.3 7.766 1.44 15.493 3.4 23.049z" fill="#ffd6ae"/><path d="m302.07 305.899c-1.01 6.727-1.38 13.514-1.12 20.281-2.23 1.909-4.54 3.828-6.94 5.767-10.39 8.436-23.49 13.094-36.9 13.094h-.23c-13.4 0-26.52-4.658-36.93-13.134-2.49-2.019-4.89-4.008-7.2-5.987.06-1.419.09-2.829.09-4.248 0-5.358-.39-10.715-1.19-16.043l-2.42-16.203h95.3z" fill="#ffb185"/></g></g><g><path d="m407.81 294.141c-1.43 1.58-3.45 2.48-5.58 2.48h-12.34c-2.02 0-4.02-.17-5.97-.5-10.16-1.69-19.14-7.64-25.09-15.94-7.09 9.89-18.49 16.44-31.06 16.44h-145.35c-12.57 0-23.97-6.55-31.06-16.44-7.09 9.89-18.49 16.44-31.06 16.44h-10.53c-2.13 0-4.16-.9-5.58-2.48s-2.1-3.69-1.88-5.81l17.69-166.051c7.05-66.2 60.13-116.94 125.5-121.88 3.47-.27 6.97-.4 10.5-.4 70.11 0 128.57 52.57 136 122.28l17.69 166.051c.22 2.12-.46 4.23-1.88 5.81z" fill="#fff24a"/><path d="m409.69 288.331c.22 2.12-.46 4.23-1.88 5.81-1.43 1.58-3.45 2.48-5.58 2.48h-12.34c-2.02 0-4.02-.17-5.97-.5 1.09-.42 2.09-1.09 2.89-1.98 1.42-1.58 2.1-3.69 1.88-5.81l-17.69-166.051c-7.06-66.2-60.13-116.94-125.5-121.88 3.47-.27 6.97-.4 10.5-.4 70.11 0 128.57 52.57 136 122.28z" fill="#ffbe2c"/><g fill="#ffb185"><path d="m150.251 185.265c-5.379 5.443-8.29 12.654-8.195 20.304.189 15.465 12.932 28.048 28.406 28.048h3.5v-56.792h-3.5c-7.655-.001-14.832 2.997-20.211 8.44z"/><path d="m363.509 185.265c-5.379-5.443-12.557-8.441-20.211-8.44h-3.5v56.791h3.5c15.473 0 28.216-12.582 28.406-28.048.095-7.65-2.816-14.86-8.195-20.303z"/></g><path d="m345.52 225.391c.19 2.26.29 4.54.29 6.88 0 22.06-16.94 46.49-51.8 74.68-10.39 8.45-23.49 13.1-36.9 13.1h-.23c-13.4 0-26.52-4.66-36.93-13.13-34.83-28.16-51.76-52.59-51.76-74.66 0-2.34.09-4.61.28-6.74 1.36-13.95.92-39.03-1.01-59.43 4.3 0 10.59.09 17.83.2 10.3.14 21.8.3 32.24.3 11.4 0 21.54-.19 27.47-.81 28.55-2.98 40.3-12.14 49.5-24.42 9.79 15.49 28.55 24.67 52.04 24.73-1.93 20.38-2.38 45.44-1.02 59.3z" fill="#ffd6ae"/><g><path d="m276.185 256.727h-40.372c-4.142 0-7.5 3.356-7.5 7.497s3.358 7.497 7.5 7.497h40.372c4.143 0 7.5-3.356 7.5-7.497s-3.358-7.497-7.5-7.497z" fill="#ffb185"/></g></g></g></g></svg>