<svg id="Layer_1" enable-background="new 0 0 512 512" height="512" viewBox="0 0 512 512" width="512" xmlns="http://www.w3.org/2000/svg"><g><g><g><path d="m441.732 511.99h-371.464c-13.079 0-23.339-11.2-22.179-24.221l4.56-50.912c2.83-31.591 25.739-57.762 56.707-64.763l56.167-12.72 29.569-6.7 14.139-3.2 95.296.43 14.499 3.28 29.429 6.65v.01l41.888 9.47 12.279 2.78c30.979 7 53.898 33.171 56.727 64.783l4.56 50.892c1.162 13.021-9.098 24.221-22.177 24.221z" fill="#cc753a"/><path d="m463.91 487.773c1.16 13.016-9.1 24.222-22.179 24.222h-23.999c13.079 0 23.339-11.206 22.179-24.222l-4.56-50.893c-2.46-27.501-20.069-56.002-45.008-67.568l12.279 2.779c30.979 7.008 53.898 33.179 56.727 64.789z" fill="#c6542c"/><path d="m319.027 353.183-48.998 158.817h-25.799l-49.137-159.327z" fill="#d6dced"/><path d="m244.106 408.925-10.93-28.605 23.954-9.549 23.951 9.549-11.215 28.605z" fill="#ff755a"/><path d="m291.954 490.728-21.925 21.272h-25.799l-21.819-21.89 21.695-81.185h25.76z" fill="#f43838"/><g fill="#c6542c"><path d="m132.846 432.451v79.544h-14.999v-79.544c0-4.139 3.35-7.498 7.5-7.498 4.139 0 7.499 3.359 7.499 7.498z"/><path d="m394.154 432.451v79.544h-14.999v-79.544c0-4.139 3.36-7.498 7.5-7.498s7.499 3.359 7.499 7.498z"/></g></g></g><g><g><g><g><path d="m304.117 349.241.18.66c-2.74 2.349-5.59 4.718-8.54 7.117-10.979 8.916-24.699 13.774-38.858 13.744-14.159.03-27.899-4.838-38.888-13.774-3.13-2.529-6.13-5.038-9.01-7.517 2.04-7.707 3.22-15.603 3.52-23.54.06-1.419.09-2.829.09-4.248 0-5.358-.39-10.716-1.19-16.043l-2.42-16.203h95.296l-2.46 16.473c-1.01 6.727-1.38 13.514-1.12 20.282.301 7.765 1.441 15.492 3.4 23.049z" fill="#ffd6ae"/><path d="m301.838 305.909c-1.01 6.727-1.38 13.514-1.12 20.282-2.23 1.909-4.54 3.828-6.94 5.767-10.39 8.437-23.489 13.095-36.898 13.095h-.23c-13.399 0-26.519-4.658-36.928-13.135-2.49-2.019-4.89-4.008-7.2-5.988.06-1.419.09-2.829.09-4.248 0-5.358-.39-10.716-1.19-16.043l-2.42-16.203h95.296z" fill="#ffb185"/></g></g><g><path d="m407.573 294.151c-1.43 1.58-3.45 2.48-5.58 2.48h-12.339c-2.02 0-4.02-.17-5.97-.5-10.159-1.69-19.139-7.64-25.089-15.941-7.09 9.891-18.489 16.441-31.059 16.441h-145.343c-12.569 0-23.969-6.55-31.059-16.441-7.09 9.891-18.489 16.441-31.059 16.441h-10.53c-2.13 0-4.16-.9-5.58-2.48s-2.1-3.69-1.88-5.81l17.689-166.056c7.052-66.203 60.129-116.945 125.496-121.885 3.47-.27 6.97-.4 10.5-.4 70.107 0 128.564 52.572 135.994 122.285l17.689 166.056c.22 2.12-.46 4.23-1.88 5.81z" fill="#49525e"/><path d="m409.453 288.341c.22 2.12-.46 4.23-1.88 5.81-1.43 1.58-3.45 2.48-5.58 2.48h-12.339c-2.02 0-4.02-.17-5.97-.5 1.09-.42 2.09-1.09 2.89-1.98 1.42-1.58 2.1-3.69 1.88-5.81l-17.689-166.056c-7.06-66.203-60.127-116.945-125.495-121.885 3.47-.27 6.97-.4 10.5-.4 70.107 0 128.564 52.572 135.994 122.285z" fill="#31353a"/><g fill="#ffb185"><path d="m150.025 185.271c-5.379 5.443-8.289 12.654-8.195 20.305.189 15.466 12.932 28.048 28.405 28.048h3.5v-56.794h-3.5c-7.654 0-14.831 2.998-20.21 8.441z"/><path d="m363.274 185.271c-5.379-5.443-12.557-8.441-20.21-8.44h-3.5v56.793h3.5c15.472 0 28.215-12.583 28.405-28.048.094-7.651-2.817-14.862-8.195-20.305z"/></g><path d="m345.286 225.398c.19 2.26.29 4.54.29 6.88 0 22.061-16.939 46.492-51.798 74.683-10.39 8.45-23.489 13.101-36.898 13.101h-.23c-13.399 0-26.519-4.66-36.928-13.131-34.828-28.161-51.758-52.592-51.758-74.663 0-2.34.09-4.61.28-6.74 1.36-13.95.92-39.031-1.01-59.432 4.3 0 10.59.09 17.829.2 10.3.14 21.799.3 32.239.3 11.399 0 21.539-.19 27.469-.81 28.549-2.98 40.298-12.14 49.498-24.421 9.79 15.491 28.549 24.671 52.038 24.731-1.931 20.381-2.381 45.442-1.021 59.302z" fill="#ffd6ae"/><g><path d="m275.954 256.736h-40.37c-4.142 0-7.5 3.357-7.5 7.497s3.358 7.497 7.5 7.497h40.37c4.142 0 7.5-3.357 7.5-7.497-.001-4.141-3.358-7.497-7.5-7.497z" fill="#ffb185"/></g></g></g></g><path d="m257.13 370.771-41.987 30.277c-2.064 1.489-4.981.511-5.731-1.92l-14.325-46.445 17.244-20.476z" fill="#e6f3ff"/><path d="m257.13 370.771 41.987 30.277c2.064 1.489 4.981.511 5.731-1.92l14.17-45.942-17.623-20.519z" fill="#e6f3ff"/><g fill="#9ca9b7"><path d="m208.052 198.047-5.74 13.861-33.109-13.731c-.09-5.37-.29-10.95-.59-16.481z"/><path d="m345.336 182.706c-.29 5.48-.48 11-.56 16.301l-33.569 12.971-5.4-14.001z"/><path d="m242.297 197.809h29.096v15.001h-29.096z"/></g><path d="m244.23 511.99h-35.348l-43.358-152.616 29.569-6.701z" fill="#c6542c"/><path d="m348.456 359.834v.01l-43.228 152.146h-35.199l48.998-158.807z" fill="#c6542c"/><g><path d="m248.08 189.777v30.881c0 8.72-7.09 15.811-15.809 15.811h-21.499c-8.71 0-15.809-7.09-15.809-15.811v-30.881c0-2.76 2.24-5 5-5h43.118c2.76-.001 4.999 2.24 4.999 5z" fill="#e6f3ff"/><path d="m248.08 189.777v30.881c0 8.72-7.09 15.811-15.809 15.811h-16.999c8.73 0 15.809-7.08 15.809-15.811v-30.881c0-2.76-2.24-5-5-5h16.999c2.761-.001 5 2.24 5 5z" fill="#d6dced"/><path d="m319.292 189.777v30.881c0 8.72-7.09 15.811-15.809 15.811h-21.499c-8.71 0-15.809-7.09-15.809-15.811v-30.881c0-2.76 2.24-5 5-5h43.118c2.759-.001 4.999 2.24 4.999 5z" fill="#e6f3ff"/><path d="m319.292 189.777v30.881c0 8.72-7.09 15.811-15.809 15.811h-16.999c8.73 0 15.809-7.08 15.809-15.811v-30.881c0-2.76-2.24-5-5-5h16.999c2.76-.001 5 2.24 5 5z" fill="#d6dced"/></g></g></svg>