<svg id="Layer_1" enable-background="new 0 0 512 512" height="512" viewBox="0 0 512 512" width="512" xmlns="http://www.w3.org/2000/svg"><g><g><path d="m441.739 512h-371.48c-13.08 0-23.34-11.21-22.18-24.23l4.56-50.92c2.83-31.59 25.74-57.77 56.71-64.78l54.38-12.31 23.13-5.23 6.35-1.44 16.02-3.63 95.3.43 16.03 3.62 4.93 1.12 24.63 5.57 40.23 9.09 12.28 2.78c30.98 7.01 53.9 33.19 56.73 64.8l4.56 50.9c1.16 13.02-9.1 24.23-22.18 24.23z" fill="#e6f3ff"/><g fill="#d6dced"><path d="m463.921 487.773c1.16 13.018-9.1 24.226-22.18 24.226h-24c13.08 0 23.34-11.208 22.18-24.226l-4.56-50.901c-2.46-27.505-20.07-56.01-45.01-67.579l12.28 2.78c30.98 7.009 53.9 33.184 56.73 64.799z"/><g><path d="m132.841 432.442v79.557h-15v-79.557c0-4.139 3.35-7.499 7.5-7.499 4.14 0 7.5 3.36 7.5 7.499z"/><path d="m394.161 432.442v79.557h-15v-79.557c0-4.139 3.36-7.499 7.5-7.499s7.5 3.36 7.5 7.499z"/></g></g></g><path d="m320.559 353.51-5.2 158.49h-116.98l-5.17-158.91 109.21.36z" fill="#5cd9ff"/><path d="m320.559 353.51-5.2 158.49h-17.9l-.23-.25 5.19-158.3z" fill="#5ab1ff"/><path d="m320.559 353.51-1.13-.25-14.9-3.37-95.3-.43-14.98 3.39-1.04.24-8.1 16.14 5.72 4.85c2.35 1.99 4.79 4.01 7.23 5.98 4.15 3.38 8.58 6.37 13.23 8.95 6.71 3.74 13.88 6.62 21.32 8.58 7.67 2.03 15.63 3.08 23.67 3.08 8.21 0 16.35-1.11 24.2-3.26 7.64-2.09 15-5.15 21.86-9.14 4.13-2.38 8.08-5.09 11.8-8.12 2.52-2.04 5-4.09 7.37-6.11l5.72-4.85z" fill="#ffd6ae"/><path d="m319.429 353.26-17.09 35.01-39.14 80.21c-.64 2.16-2.22 4.01-4.47 4.89-.9.35-1.82.52-2.73.52-3 0-5.83-1.81-6.99-4.78l-37.72-80.1-17.04-36.16 14.98-3.39 23.38 48.13 23.4 48.18 24.47-48.36 24.05-47.52z" fill="#4d84ff"/><path d="m291.156 451.51v52.99c0 4.14-3.35 7.5-7.5 7.5h-52.99c-4.14 0-7.5-3.36-7.5-7.5v-52.99c0-4.14 3.36-7.5 7.5-7.5h52.99c4.15 0 7.5 3.36 7.5 7.5z" fill="#fff24a"/><path d="m291.156 451.51v52.99c0 4.14-3.35 7.5-7.5 7.5h-20c4.15 0 7.5-3.36 7.5-7.5v-52.99c0-4.14-3.35-7.5-7.5-7.5h20c4.15 0 7.5 3.36 7.5 7.5z" fill="#ffbe2c"/><path d="m193.206 353.09-29.48 6.67-13.03 45.37c-.28.95.04 1.99.81 2.62l13.1 10.75-6.18 31.08c-.11.56-.03 1.14.23 1.64l39.72 60.78z" fill="#d6dced"/><path d="m362.226 407.75-13.1 10.75 6.18 31.08c.11.56.03 1.14-.23 1.64l-39.72 60.78 5.2-158.49 29.56 6.69 12.92 44.93c.28.95-.04 1.99-.81 2.62z" fill="#d6dced"/><g><g><g><path d="m304.349 349.229.18.66c-2.74 2.349-5.59 4.718-8.54 7.117-10.98 8.916-24.7 13.774-38.86 13.744-14.16.03-27.9-4.838-38.89-13.774-3.13-2.529-6.13-5.038-9.01-7.517 2.04-7.707 3.22-15.603 3.52-23.539.06-1.419.09-2.829.09-4.248 0-5.358-.39-10.715-1.19-16.043l-2.42-16.203h95.3l-2.46 16.473c-1.01 6.727-1.38 13.514-1.12 20.281.3 7.766 1.44 15.493 3.4 23.049z" fill="#ffd6ae"/><path d="m302.069 305.899c-1.01 6.727-1.38 13.514-1.12 20.281-2.23 1.909-4.54 3.828-6.94 5.767-10.39 8.436-23.49 13.094-36.9 13.094h-.23c-13.4 0-26.52-4.658-36.93-13.134-2.49-2.019-4.89-4.008-7.2-5.987.06-1.419.09-2.829.09-4.248 0-5.358-.39-10.715-1.19-16.043l-2.42-16.203h95.3z" fill="#ffb185"/></g></g><g><path d="m407.809 294.141c-1.43 1.58-3.45 2.48-5.58 2.48h-12.34c-2.02 0-4.02-.17-5.97-.5-10.16-1.69-19.14-7.64-25.09-15.94-7.09 9.89-18.49 16.44-31.06 16.44h-145.35c-12.57 0-23.97-6.55-31.06-16.44-7.09 9.89-18.49 16.44-31.06 16.44h-10.53c-2.13 0-4.16-.9-5.58-2.48s-2.1-3.69-1.88-5.81l17.69-166.051c7.05-66.2 60.13-116.94 125.5-121.88 3.47-.27 6.97-.4 10.5-.4 70.11 0 128.57 52.57 136 122.28l17.69 166.051c.22 2.12-.46 4.23-1.88 5.81z" fill="#49525e"/><path d="m409.689 288.331c.22 2.12-.46 4.23-1.88 5.81-1.43 1.58-3.45 2.48-5.58 2.48h-12.34c-2.02 0-4.02-.17-5.97-.5 1.09-.42 2.09-1.09 2.89-1.98 1.42-1.58 2.1-3.69 1.88-5.81l-17.69-166.051c-7.06-66.2-60.13-116.94-125.5-121.88 3.47-.27 6.97-.4 10.5-.4 70.11 0 128.57 52.57 136 122.28z" fill="#31353a"/><g fill="#ffb185"><path d="m150.25 185.265c-5.379 5.443-8.29 12.654-8.195 20.304.189 15.465 12.932 28.048 28.406 28.048h3.5v-56.792h-3.5c-7.655-.001-14.833 2.997-20.211 8.44z"/><path d="m363.508 185.265c-5.379-5.443-12.557-8.441-20.211-8.44h-3.5v56.791h3.5c15.473 0 28.216-12.582 28.406-28.048.094-7.65-2.816-14.86-8.195-20.303z"/></g><path d="m345.519 225.391c.19 2.26.29 4.54.29 6.88 0 22.06-16.94 46.49-51.8 74.68-10.39 8.45-23.49 13.1-36.9 13.1h-.23c-13.4 0-26.52-4.66-36.93-13.13-34.83-28.16-51.76-52.59-51.76-74.66 0-2.34.09-4.61.28-6.74 1.36-13.95.92-39.03-1.01-59.43 4.3 0 10.59.09 17.83.2 10.3.14 21.8.3 32.24.3 11.4 0 21.54-.19 27.47-.81 28.55-2.98 40.3-12.14 49.5-24.42 9.79 15.49 28.55 24.67 52.04 24.73-1.93 20.38-2.38 45.44-1.02 59.3z" fill="#ffd6ae"/><g><path d="m276.184 256.727h-40.372c-4.142 0-7.5 3.356-7.5 7.497s3.358 7.497 7.5 7.497h40.372c4.143 0 7.5-3.356 7.5-7.497s-3.358-7.497-7.5-7.497z" fill="#ffb185"/></g></g></g></g></svg>