<svg id="Layer_1" enable-background="new 0 0 512 512" height="512" viewBox="0 0 512 512" width="512" xmlns="http://www.w3.org/2000/svg"><g><g><path d="m401.291 372.687-.2.74c-.86 3.3-3.84 5.6-7.25 5.6h-14.91l-258.49-.01c-3.41 0-6.39-2.3-7.26-5.59-8.62-32.78-5.91-49.47-2.12-61.48 4.2-13.31 12.21-24.1 19.95-34.53 4.22-5.68 8.21-11.06 11.61-16.79 9.32-18.78 12-40.19 7.35-58.79h216.35c-4.65 18.6-1.97 40.02 7.35 58.79 3.39 5.73 7.38 11.11 11.6 16.79 7.74 10.43 15.75 21.22 19.95 34.53 6.58 20.82 1.24 41.11-3.93 60.74z" fill="#cc753a"/><path d="m401.291 372.687-.2.74c-.86 3.3-3.84 5.6-7.25 5.6h-14.91l3.02-11.45c4.65-17.63 9.03-34.3 4.2-49.61-3.19-10.11-9.87-19.1-16.93-28.62-4.35-5.85-9.54-13.19-13.47-19.83-10.61-21.37-14.13-45.75-9.9-67.68h20.47c-4.65 18.6-1.97 40.02 7.35 58.79 3.39 5.73 7.38 11.11 11.6 16.79 7.74 10.43 15.75 21.22 19.95 34.53 6.58 20.82 1.24 41.11-3.93 60.74z" fill="#c6542c"/></g><g><g><g><path d="m441.74 511.995h-371.48c-13.08 0-23.34-11.2-22.18-24.22l4.56-50.91c2.83-31.6 25.74-57.77 56.71-64.78l59.17-13.39 40.71-9.22 30.95.14 9.07.04 55.28.25 33.42 7.56 52.4 11.85 12.28 2.77c30.98 7.01 53.9 33.18 56.73 64.8l4.56 50.89c1.16 13.02-9.1 24.22-22.18 24.22z" fill="#e6f3ff"/><g fill="#d6dced"><path d="m463.92 487.777c1.16 13.016-9.1 24.223-22.18 24.223h-24c13.08 0 23.34-11.207 22.18-24.223l-4.56-50.896c-2.46-27.502-20.07-56.004-45.01-67.571l12.28 2.779c30.98 7.008 53.9 33.181 56.73 64.792z"/><g><path d="m132.84 432.452v79.548h-15v-79.548c0-4.139 3.35-7.498 7.5-7.498 4.14 0 7.5 3.359 7.5 7.498z"/><path d="m394.16 432.452v79.548h-15v-79.548c0-4.139 3.36-7.498 7.5-7.498s7.5 3.359 7.5 7.498z"/></g></g></g><path d="m209.23 349.475-40.71 9.22 18.84 16.84c3.07 2.64 6.27 5.32 9.51 7.94 5.41 4.4 11.32 8.22 17.57 11.36l34.81-45.18z" fill="#ff755a"/><path d="m337.95 357.465-14.49 12.84c-2.84 2.44-5.84 4.94-8.92 7.43-15.82 12.87-35.83 19.97-56.29 19.97h-.23c-3.39 0-6.77-.19-10.11-.58l-31.95 39.1v75.77h-29.27v-84.28c0-.96.33-1.89.94-2.64l61.62-75.42 55.28.25z" fill="#f43838"/><path d="m304.35 349.246.18.66c-2.74 2.349-5.59 4.719-8.54 7.118-10.98 8.918-24.7 13.776-38.86 13.746-14.16.03-27.9-4.839-38.89-13.776-3.13-2.529-6.13-5.039-9.01-7.518 2.04-7.708 3.22-15.605 3.52-23.543.06-1.42.09-2.829.09-4.249 0-5.358-.39-10.717-1.19-16.045l-2.42-16.206h95.3l-2.46 16.475c-1.01 6.728-1.38 13.516-1.12 20.284.3 7.768 1.44 15.496 3.4 23.054z" fill="#ffd6ae"/><path d="m302.07 305.908c-1.01 6.728-1.38 13.516-1.12 20.284-2.23 1.909-4.54 3.829-6.94 5.768-10.39 8.438-23.49 13.096-36.9 13.096h-.23c-13.4 0-26.52-4.659-36.93-13.136-2.49-2.019-4.89-4.009-7.2-5.988.06-1.42.09-2.829.09-4.249 0-5.358-.39-10.717-1.19-16.045l-2.42-16.206h95.3z" fill="#ffb185"/></g><g><path d="m352.66 424.954h-37.769c-4.143 0-7.5 3.358-7.5 7.5s3.357 7.5 7.5 7.5h37.769c4.143 0 7.5-3.358 7.5-7.5s-3.357-7.5-7.5-7.5z" fill="#d6dced"/></g><g fill="#ffb185"><path d="m150.251 182.72c-5.379 5.443-8.29 12.654-8.195 20.304.189 15.465 12.932 28.047 28.406 28.047h3.5v-56.792h-3.5c-7.655 0-14.832 2.998-20.211 8.441z"/><path d="m363.509 182.72c-5.379-5.443-12.557-8.441-20.211-8.44h-3.5v56.791h3.5c15.473 0 28.216-12.582 28.406-28.047.095-7.651-2.816-14.861-8.195-20.304z"/></g><path d="m345.525 225.399c.19 2.25.28 4.53.28 6.87 0 22.07-16.94 46.5-51.79 74.69-10.39 8.44-23.5 13.09-36.9 13.09h-.23c-13.4 0-26.52-4.66-36.94-13.13-34.82-28.16-51.76-52.59-51.76-74.65 0-2.35.1-4.62.28-6.75 1.43-14.52.89-41.11-1.25-61.92l88.78-40 90.79 40c-2.14 20.79-2.68 47.36-1.26 61.8z" fill="#ffd6ae"/><path d="m345.805 232.269c0 22.07-16.94 46.5-51.79 74.69-10.39 8.44-23.5 13.09-36.9 13.09h-.23c-4.69 0-9.35-.57-13.87-1.68-8.39-2.05-16.3-5.95-23.07-11.45-34.82-28.16-51.76-52.59-51.76-74.65z" fill="#e6f3ff"/><path d="m345.805 232.269c0 22.07-16.94 46.5-51.79 74.69-10.39 8.44-23.5 13.09-36.9 13.09h-.23c-4.69 0-9.35-.57-13.87-1.68 8.37-2.05 16.26-5.93 23-11.41 34.85-28.19 51.79-52.62 51.79-74.69z" fill="#d6dced"/><path d="m363.935 166.239c-3.94 4.41-9.26 6.84-14.98 6.84h-183.91c-5.72 0-11.04-2.43-14.98-6.84-3.25-3.64-5.2-8.27-5.64-13.16-.13-1.59-.12-3.2.07-4.82.01-.12.03-.23.05-.35l18.12-111.6c.44-2.73 2.36-4.99 4.97-5.89l87.79-30.02c1.59-.54 3.31-.53 4.9.02l67.24 23.44 18.84 6.57c2.6.91 4.49 3.17 4.93 5.88l18.12 111.6c.02.12.04.23.05.35.76 6.61-1.27 13.16-5.57 17.98z" fill="#e6f3ff"/><path d="m363.935 166.239c-3.94 4.41-9.26 6.84-14.98 6.84h-183.91c-5.72 0-11.04-2.43-14.98-6.84-3.25-3.64-5.2-8.27-5.64-13.16h179.53c5.72 0 11.04-2.43 14.98-6.84 4.3-4.82 6.33-11.37 5.57-17.98-.01-.12-.03-.23-.05-.35l-16.89-104.05 18.84 6.57c2.6.91 4.49 3.17 4.93 5.88l18.12 111.6c.02.12.04.23.05.35.76 6.61-1.27 13.16-5.57 17.98z" fill="#d6dced"/><path d="m285.176 81.279h-19.806v-19.82c0-4.142-3.357-7.5-7.5-7.5s-7.5 3.358-7.5 7.5v19.82h-19.806c-4.143 0-7.5 3.358-7.5 7.5s3.357 7.5 7.5 7.5h19.806v19.82c0 4.142 3.357 7.5 7.5 7.5s7.5-3.358 7.5-7.5v-19.82h19.806c4.143 0 7.5-3.358 7.5-7.5s-3.358-7.5-7.5-7.5z" fill="#ff755a"/></g></g></svg>