<svg id="Layer_1" enable-background="new 0 0 512 512" height="512" viewBox="0 0 512 512" width="512" xmlns="http://www.w3.org/2000/svg"><g><path d="m346.25 89.521v7.43c0 4.14-3.35 7.5-7.5 7.5h-164.05c-4.14 0-7.5-3.36-7.5-7.5v-7.43c0-46.01 34.9-84.021 79.61-88.971 3.26-.36 6.57-.55 9.92-.55 49.36 0 89.52 40.16 89.52 89.521z" fill="#5cd9ff"/><path d="m346.25 89.521v7.43c0 4.14-3.35 7.5-7.5 7.5h-19.85c4.15 0 7.5-3.36 7.5-7.5v-7.43c0-46-34.88-84.021-79.59-88.971 3.26-.36 6.57-.55 9.92-.55 49.36 0 89.52 40.16 89.52 89.521z" fill="#5ab1ff"/><g><path d="m441.74 511.995h-371.48c-13.08 0-23.34-11.2-22.18-24.22l4.56-50.91c2.83-31.6 25.74-57.771 56.71-64.781l63.3-14.33 36.58-8.28 95.3.43 36.28 8.21 49.54 11.2 12.28 2.77c30.98 7.01 53.9 33.18 56.73 64.801l4.56 50.89c1.16 13.02-9.1 24.22-22.18 24.22z" fill="#e6f3ff"/><path d="m340.81 358.113-83.92 95.731-84.24-96.091 36.58-8.28 95.3.43z" fill="#ff755a"/><path d="m256.883 453.846c.181 9.66-8.024 17.567-17.686 17.567h-29.618c-2.567 0-4.241-2.696-3.093-4.992 4.776-9.553 16.71-29.483 33.163-29.483 9.409 0 17.058 7.54 17.234 16.908z" fill="#f43838"/><path d="m256.889 453.846c-.181 9.66 8.024 17.567 17.686 17.567h29.618c2.567 0 4.241-2.696 3.093-4.992-4.776-9.553-16.71-29.483-33.163-29.483-9.41 0-17.059 7.54-17.234 16.908z" fill="#f43838"/><g fill="#d6dced"><path d="m463.92 487.777c1.16 13.016-9.1 24.223-22.18 24.223h-24c13.08 0 23.34-11.207 22.18-24.223l-4.56-50.896c-2.46-27.503-20.07-56.005-45.01-67.572l12.28 2.779c30.98 7.008 53.9 33.181 56.73 64.792z"/><g><path d="m132.84 432.451v79.549h-15v-79.549c0-4.139 3.35-7.498 7.5-7.498 4.14 0 7.5 3.36 7.5 7.498z"/><path d="m394.16 432.451v79.549h-15v-79.549c0-4.139 3.36-7.498 7.5-7.498s7.5 3.36 7.5 7.498z"/></g></g></g><path d="m304.349 349.244.18.66c-2.74 2.349-5.59 4.719-8.54 7.118-10.98 8.918-24.7 13.776-38.86 13.746-14.16.03-27.9-4.839-38.89-13.776-3.13-2.529-6.13-5.039-9.01-7.518 2.04-7.708 3.22-15.606 3.52-23.544.06-1.42.09-2.829.09-4.249 0-5.359-.39-10.717-1.19-16.046l-2.42-16.206h95.3l-2.46 16.476c-1.01 6.728-1.38 13.516-1.12 20.285.301 7.768 1.441 15.496 3.4 23.054z" fill="#ffece4"/><path d="m302.07 305.906c-1.01 6.728-1.38 13.516-1.12 20.285-2.23 1.91-4.54 3.829-6.94 5.768-10.39 8.438-23.49 13.097-36.9 13.097h-.23c-13.4 0-26.52-4.659-36.93-13.136-2.49-2.019-4.89-4.009-7.2-5.988.06-1.42.09-2.829.09-4.249 0-5.359-.39-10.717-1.19-16.046l-2.42-16.206h95.3z" fill="#ffddce"/><g fill="#ffddce"><path d="m150.25 185.263c-5.379 5.444-8.29 12.656-8.195 20.307.189 15.468 12.932 28.052 28.406 28.052h3.5v-56.802h-3.5c-7.654.001-14.832 2.999-20.211 8.443z"/><path d="m363.509 185.263c-5.379-5.444-12.557-8.442-20.211-8.442h-3.5v56.801h3.5c15.473 0 28.216-12.584 28.406-28.052.094-7.652-2.816-14.864-8.195-20.307z"/></g><path d="m346.781 163.587-90.783-40-88.783 40c2.137 20.815 2.679 47.408 1.253 61.938-.186 2.127-.28 4.397-.28 6.747 0 22.071 16.936 46.498 51.76 74.665 10.414 8.472 23.535 13.134 36.932 13.134h.23c13.408 0 26.513-4.653 36.901-13.097 34.854-28.193 51.796-52.628 51.796-74.7 0-2.335-.094-4.617-.288-6.876-1.415-14.438-.873-41.011 1.262-61.811z" fill="#ffece4"/><path d="m276.186 256.751h-40.372c-4.143 0-7.5 3.358-7.5 7.5s3.357 7.5 7.5 7.5h40.372c4.143 0 7.5-3.358 7.5-7.5s-3.357-7.5-7.5-7.5z" fill="#ffddce"/><path d="m376.78 94.761-18.57 42.6-11.43 26.23h-179.56l-11.43-26.23-18.57-42.6c-1.02-2.32-.79-4.99.6-7.1 1.38-2.12 3.74-3.39 6.27-3.39h225.82c2.53 0 4.88 1.27 6.27 3.39 1.39 2.11 1.61 4.78.6 7.1z" fill="#e6f3ff"/><path d="m376.78 94.761-18.57 42.6-11.43 26.23h-23.8l11.43-26.23 18.57-42.6c1.01-2.32.79-4.99-.6-7.1-1.39-2.12-3.74-3.39-6.27-3.39h23.8c2.53 0 4.88 1.27 6.27 3.39 1.39 2.11 1.61 4.78.6 7.1z" fill="#d6dced"/><path d="m358.21 137.361-11.43 26.23h-179.56l-11.43-26.23z" fill="#5cd9ff"/><path d="m358.21 137.361-11.43 26.23h-23.8l11.43-26.23z" fill="#5ab1ff"/></g></svg>