<svg id="Layer_1" enable-background="new 0 0 512 512" height="512" viewBox="0 0 512 512" width="512" xmlns="http://www.w3.org/2000/svg"><g><g><g><path d="m201.564 290.848c-6.305 5.772-14.705 9.293-23.927 9.293-19.576 0-35.445-15.868-35.445-35.442 0-4.158.716-8.149 2.032-11.856l40.109-23.574 19.342 33.095z" fill="#49525e"/><path d="m130.905 211.459c-8.79-4.774-14.757-14.086-14.757-24.791 0-11.14 6.462-20.771 15.842-25.351l49.797-.624-3.726 53.647z" fill="#49525e"/><path d="m150.967 199.269-6.694 1.614c-13.494 3.254-23.634 14.866-24.269 28.731 0 17.983 14.545 34.076 32.529 34.076 5.104 0 13.978 1.016 23.135-6.906l4.767-27.562z" fill="#31353a"/></g><g><path d="m312.436 290.848c6.305 5.772 14.705 9.293 23.927 9.293 19.576 0 35.445-15.868 35.445-35.442 0-4.158-.716-8.149-2.032-11.856l-40.109-23.574-19.342 33.095z" fill="#49525e"/><path d="m383.095 211.459c8.79-4.774 14.757-14.086 14.757-24.791 0-11.14-6.462-20.771-15.842-25.351l-49.797-.624 3.726 53.647z" fill="#49525e"/><path d="m363.033 199.269 6.694 1.614c13.494 3.254 23.634 14.866 24.269 28.731 0 17.983-14.545 34.076-32.529 34.076-5.104 0-13.978 1.016-23.135-6.906l-4.767-27.562z" fill="#31353a"/></g></g><g><g fill="#ffb185"><path d="m150.251 184.196c-5.379 5.445-8.29 12.658-8.195 20.311.189 15.471 12.932 28.057 28.406 28.057h3.5v-56.812h-3.5c-7.655.001-14.832 3-20.211 8.444z"/><path d="m363.509 184.196c-5.379-5.445-12.557-8.444-20.211-8.443h-3.5v56.811h3.5c15.473 0 28.216-12.587 28.406-28.057.095-7.653-2.816-14.866-8.195-20.311z"/></g><g><path d="m441.74 512h-371.48c-13.08 0-23.34-11.209-22.18-24.228l4.56-50.925c2.83-31.597 25.74-57.774 56.71-64.784l60.35-13.669 15-3.39 24.53-5.56 95.3.43 22.76 5.15 15 3.39 48.06 10.869 12.28 2.78c30.98 7.009 53.9 33.187 56.73 64.804l4.56 50.905c1.16 13.019-9.1 24.228-22.18 24.228z" fill="#ff755a"/><path d="m463.92 487.772c1.16 13.019-9.1 24.228-22.18 24.228h-24c13.08 0 23.34-11.209 22.18-24.228l-4.56-50.905c-2.46-27.507-20.07-56.014-45.01-67.583l12.28 2.78c30.98 7.009 53.9 33.187 56.73 64.804z" fill="#f43838"/><g fill="#f43838"><path d="m132.84 432.438v79.562h-15v-79.562c0-4.139 3.35-7.499 7.5-7.499 4.14-.001 7.5 3.359 7.5 7.499z"/><path d="m394.16 432.438v79.562h-15v-79.562c0-4.139 3.36-7.499 7.5-7.499s7.5 3.359 7.5 7.499z"/></g><path d="m379.16 450.586v61.414h-246.32v-61.414c0-4.16 3.4-7.489 7.57-7.499 15.34-.05 29.29-15.589 29.29-32.657v-52.035l15-3.39v47.925h142.59v-47.905l15 3.39v52.015c0 12.229 7.17 23.678 16.87 29.197 3.84 2.19 8.08 3.45 12.43 3.46 4.16.01 7.57 3.339 7.57 7.499z" fill="#5cd9ff"/><path d="m379.16 450.586v61.414h-246.32v-19.998h226.32v-52.375c3.84 2.19 8.08 3.45 12.43 3.46 4.16.01 7.57 3.339 7.57 7.499z" fill="#5ab1ff"/><path d="m350.78 68.663v68.263c0 4.14-3.36 7.499-7.5 7.499h-174.56c-4.14 0-7.5-3.36-7.5-7.499v-68.263c0-12.199 4.7-23.718 13.22-32.437 8.52-8.709 19.9-13.669 32.07-13.969.06-.01.12-.01.18-.01h98.78c12.17.3 23.56 5.259 32.08 13.969 8.53 8.72 13.23 20.248 13.23 32.447z" fill="#fff24a"/><path d="m337.55 36.216c8.53 8.719 13.23 20.248 13.23 32.447v68.263c0 4.14-3.36 7.499-7.5 7.499h-19.35c4.14 0 7.5-3.36 7.5-7.499v-68.263c0-12.199-4.7-23.728-13.23-32.447-8.52-8.709-19.92-13.669-32.08-13.969h19.35c12.17.301 23.56 5.26 32.08 13.969z" fill="#ffbe2c"/><g><g><g><path d="m312.8 7.499v129.427c0 4.14-3.36 7.499-7.5 7.499h-25.64c-4.14 0-7.5-3.36-7.5-7.499v-129.427c0-4.139 3.36-7.499 7.5-7.499h25.64c4.14 0 7.5 3.36 7.5 7.499z" fill="#ffbe2c"/></g><path d="m312.8 7.499v129.427c0 4.14-3.36 7.499-7.5 7.499h-17c4.14 0 7.5-3.36 7.5-7.499v-129.427c0-4.139-3.36-7.499-7.5-7.499h17c4.14 0 7.5 3.36 7.5 7.499z" fill="#ffa02e"/></g><g><path d="m239.842 7.499v129.427c0 4.14-3.36 7.499-7.5 7.499h-25.64c-4.14 0-7.5-3.36-7.5-7.499v-129.427c0-4.139 3.36-7.499 7.5-7.499h25.64c4.14 0 7.5 3.36 7.5 7.499z" fill="#ffbe2c"/><path d="m239.84 7.499v129.427c0 4.14-3.36 7.499-7.5 7.499h-17c4.14 0 7.5-3.36 7.5-7.499v-129.427c0-4.139-3.36-7.499-7.5-7.499h17c4.14 0 7.5 3.36 7.5 7.499z" fill="#ffa02e"/></g></g><path d="m304.35 349.216.18.66c-2.74 2.35-5.59 4.72-8.54 7.119-10.98 8.919-24.7 13.779-38.86 13.749-14.16.03-27.9-4.839-38.89-13.779-3.13-2.53-6.13-5.04-9.01-7.519 2.04-7.709 3.22-15.608 3.52-23.548.06-1.42.09-2.83.09-4.25 0-5.359-.39-10.719-1.19-16.048l-2.42-16.208h95.3l-2.46 16.478c-1.01 6.729-1.38 13.519-1.12 20.288.3 7.769 1.44 15.499 3.4 23.058z" fill="#ffd6ae"/><path d="m302.07 305.87c-1.01 6.729-1.38 13.519-1.12 20.288-2.23 1.91-4.54 3.83-6.94 5.769-10.39 8.439-23.49 13.099-36.9 13.099h-.23c-13.4 0-26.52-4.66-36.93-13.139-2.49-2.02-4.89-4.01-7.2-5.989.06-1.42.09-2.83.09-4.25 0-5.359-.39-10.719-1.19-16.048l-2.42-16.208h95.3z" fill="#ffb185"/><path d="m344.888 157.726c-1.422-1.575-3.445-2.474-5.567-2.474h-164.644c-2.123 0-4.146.899-5.567 2.474-1.422 1.576-2.11 3.679-1.894 5.79 2.137 20.818 2.679 47.417 1.253 61.949-.186 2.127-.28 4.398-.28 6.748 0 22.075 16.936 46.507 51.76 74.678 10.414 8.474 23.535 13.136 36.932 13.136h.23c13.408 0 26.513-4.653 36.901-13.099 34.854-28.198 51.796-52.637 51.796-74.713 0-2.336-.094-4.618-.288-6.877-1.417-14.44-.875-41.018 1.261-61.822.218-2.111-.47-4.214-1.893-5.79z" fill="#ffd6ae"/><path d="m277.185 256.773h-40.372c-4.142 0-7.5 3.358-7.5 7.499 0 4.142 3.358 7.499 7.5 7.499h40.372c4.142 0 7.5-3.358 7.5-7.499s-3.358-7.499-7.5-7.499z" fill="#ffb185"/><path d="m382.01 149.715v21.038c0 2.76-2.24 5-5 5h-239.977c-2.76 0-5-2.24-5-5v-21.038c0-9.809 7.98-17.788 17.79-17.788h214.397c9.81 0 17.79 7.979 17.79 17.788z" fill="#ffbe2c"/><path d="m382.01 149.715v21.038c0 2.76-2.24 5-5 5h-239.977c-2.76 0-5-2.24-5-5v-12.999h212.187c2.76 0 5-2.24 5-5v-3.04c0-9.809-7.98-17.788-17.79-17.788h32.79c9.81.001 17.79 7.98 17.79 17.789z" fill="#ffa02e"/></g></g></g></svg>