<svg id="Layer_1" enable-background="new 0 0 512 512" height="512" viewBox="0 0 512 512" width="512" xmlns="http://www.w3.org/2000/svg"><g><g><g><path d="m459.36 436.871c-2.83-31.609-25.75-57.789-56.73-64.799l-12.28-2.78-85.82-19.4-95.3-.43-99.88 22.61c-30.97 7.01-53.88 33.189-56.71 64.779l-.86 9.56-3.7 41.359c-1.16 13.02 9.1 24.23 22.18 24.23h371.48l18.48-65.589z" fill="#9ca9b7"/><path d="m459.36 436.872c-2.83-31.614-25.75-57.789-56.73-64.798l-12.28-2.78c24.94 11.568 42.55 40.072 45.01 67.577l4.56 50.9c1.16 13.018-9.1 24.225-22.18 24.225h24l18.475-65.587z" fill="#75818e"/><path d="m125.34 458.191v53.809h-55.08c-13.08 0-23.34-11.21-22.18-24.23l3.7-41.359z" fill="#ffd6ae"/><path d="m441.74 512h-55.08v-53.809l49.89-7.99 23.66-3.79 3.71 41.359c1.16 13.02-9.1 24.23-22.18 24.23z" fill="#ffd6ae"/><path d="m441.74 512h-24c13.08 0 23.34-11.21 22.18-24.23l-3.37-37.569 23.66-3.79 3.71 41.359c1.16 13.02-9.1 24.23-22.18 24.23z" fill="#ffb185"/><g fill="#75818e"><path d="m132.84 432.443v79.555h-15v-79.555c0-4.139 3.35-7.499 7.5-7.499 4.14.001 7.5 3.36 7.5 7.499z"/><path d="m394.16 432.443v79.555h-15v-79.555c0-4.139 3.36-7.499 7.5-7.499s7.5 3.36 7.5 7.499z"/></g><g><g><path d="m304.35 349.229.18.66c-2.74 2.349-5.59 4.718-8.54 7.117-10.98 8.916-24.7 13.774-38.86 13.744-14.16.03-27.9-4.838-38.89-13.774-3.13-2.529-6.13-5.038-9.01-7.516 2.04-7.706 3.22-15.603 3.52-23.539.06-1.419.09-2.829.09-4.248 0-5.357-.39-10.715-1.19-16.042l-2.42-16.202h95.3l-2.46 16.472c-1.01 6.727-1.38 13.514-1.12 20.281.3 7.764 1.44 15.491 3.4 23.047z" fill="#ffd6ae"/><path d="m302.07 305.9c-1.01 6.727-1.38 13.514-1.12 20.281-2.23 1.909-4.54 3.828-6.94 5.767-10.39 8.436-23.49 13.094-36.9 13.094h-.23c-13.4 0-26.52-4.658-36.93-13.134-2.49-2.019-4.89-4.008-7.2-5.987.06-1.419.09-2.829.09-4.248 0-5.357-.39-10.715-1.19-16.042l-2.42-16.202h95.3z" fill="#ffb185"/></g></g></g></g><g><path d="m407.805 294.145c-1.43 1.58-3.45 2.48-5.58 2.48h-12.339c-2.02 0-4.02-.17-5.97-.5-10.16-1.69-19.139-7.64-25.089-15.94-7.09 9.89-18.489 16.44-31.059 16.44h-145.343c-12.569 0-23.969-6.55-31.059-16.44-7.09 9.89-18.489 16.44-31.059 16.44h-10.53c-2.13 0-4.16-.9-5.58-2.48s-2.1-3.69-1.88-5.81l17.689-166.053c7.052-66.201 60.129-116.942 125.496-121.882 3.47-.27 6.97-.4 10.5-.4 70.107 0 128.564 52.571 135.994 122.282l17.689 166.053c.22 2.12-.46 4.23-1.88 5.81z" fill="#cc753a"/><path d="m409.685 288.335c.22 2.12-.46 4.23-1.88 5.81-1.43 1.58-3.45 2.48-5.58 2.48h-12.339c-2.02 0-4.02-.17-5.97-.5 1.09-.42 2.09-1.09 2.89-1.98 1.42-1.58 2.1-3.69 1.88-5.81l-17.689-166.053c-7.06-66.201-60.128-116.942-125.495-121.882 3.47-.27 6.97-.4 10.5-.4 70.107 0 128.564 52.571 135.994 122.282z" fill="#c6542c"/><g fill="#ffb185"><path d="m150.257 185.268c-5.379 5.443-8.289 12.654-8.195 20.304.189 15.465 12.932 28.048 28.405 28.048h3.5v-56.793h-3.5c-7.654 0-14.831 2.998-20.21 8.441z"/><path d="m363.505 185.268c-5.379-5.443-12.557-8.441-20.21-8.44h-3.5v56.792h3.5c15.472 0 28.215-12.582 28.405-28.048.095-7.651-2.816-14.861-8.195-20.304z"/></g><path d="m345.517 225.394c.19 2.26.29 4.54.29 6.88 0 22.06-16.939 46.491-51.798 74.681-10.39 8.45-23.489 13.1-36.898 13.1h-.23c-13.399 0-26.519-4.66-36.928-13.13-34.828-28.16-51.758-52.591-51.758-74.661 0-2.34.09-4.61.28-6.74 1.36-13.95.92-39.031-1.01-59.431 4.3 0 10.59.09 17.829.2 10.3.14 21.799.3 32.239.3 11.399 0 21.539-.19 27.469-.81 28.549-2.98 40.298-12.14 49.498-24.42 9.79 15.49 28.549 24.67 52.038 24.731-1.93 20.379-2.38 45.44-1.021 59.3z" fill="#ffd6ae"/><g><path d="m276.185 256.731h-40.37c-4.142 0-7.5 3.356-7.5 7.497 0 4.14 3.358 7.497 7.5 7.497h40.37c4.142 0 7.5-3.356 7.5-7.497s-3.357-7.497-7.5-7.497z" fill="#ffb185"/></g></g><g fill="#e6f3ff"><path d="m229.39 405.472c-2.929-2.928-7.678-2.928-10.606 0l-31.636 31.636c-1.407 1.407-2.197 3.314-2.197 5.304s.79 3.896 2.197 5.304l31.636 31.635c1.464 1.464 3.384 2.196 5.303 2.196s3.839-.732 5.303-2.196c2.929-2.93 2.929-7.678 0-10.607l-26.333-26.332 26.333-26.332c2.929-2.931 2.929-7.679 0-10.608z"/><path d="m326.612 437.108-31.636-31.636c-2.929-2.927-7.678-2.929-10.606 0-2.929 2.93-2.929 7.678 0 10.607l26.333 26.332-26.333 26.332c-2.929 2.93-2.929 7.678 0 10.607 1.464 1.464 3.384 2.196 5.303 2.196s3.839-.732 5.303-2.196l31.636-31.635c1.407-1.407 2.197-3.314 2.197-5.304s-.79-3.896-2.197-5.303z"/><path d="m265.65 403.444c-4.046-.875-8.04 1.7-8.913 5.749l-13.65 63.271c-.874 4.05 1.701 8.04 5.75 8.913.533.115 1.065.171 1.589.171 3.457 0 6.565-2.404 7.324-5.92l13.65-63.271c.874-4.049-1.7-8.039-5.75-8.913z"/></g><path d="m345.21 185.386c-.27 5.67-.43 11.34-.47 16.71l-30.37 13.89c-.98.45-2.05.68-3.12.68h-110.17c-1.1 0-2.19-.24-3.19-.71l-28.64-13.47c-.03-5.39-.18-11.08-.44-16.78l33.95 15.96h106.85z" fill="#9ca9b7"/><g><path d="m252.21 209.166c0 16.63-13.52 30.149-30.15 30.149-2.77 0-5.44-.37-7.99-1.09-12.76-3.5-22.15-15.2-22.15-29.059 0-13.85 9.39-25.549 22.15-29.049 2.55-.72 5.22-1.09 7.99-1.09 16.63-.001 30.15 13.519 30.15 30.139z" fill="#e6f3ff"/><path d="m252.21 209.166c0 16.63-13.52 30.149-30.15 30.149-2.77 0-5.44-.37-7.99-1.09 12.75-3.51 22.14-15.2 22.14-29.059 0-13.85-9.39-25.549-22.14-29.049 2.55-.72 5.22-1.09 7.99-1.09 16.63-.001 30.15 13.519 30.15 30.139z" fill="#d6dced"/><path d="m289.934 179.022c-16.624 0-30.148 13.524-30.148 30.148s13.524 30.148 30.148 30.148 30.148-13.524 30.148-30.148-13.524-30.148-30.148-30.148z" fill="#e6f3ff"/><path d="m320.082 209.166c0 16.63-13.52 30.149-30.15 30.149-2.77 0-5.44-.37-7.99-1.09 12.75-3.51 22.14-15.2 22.14-29.059 0-13.85-9.39-25.549-22.14-29.049 2.55-.72 5.22-1.09 7.99-1.09 16.63-.001 30.15 13.519 30.15 30.139z" fill="#d6dced"/></g></g></svg>