<svg id="Layer_1" enable-background="new 0 0 512 512" height="512" viewBox="0 0 512 512" width="512" xmlns="http://www.w3.org/2000/svg"><g><g><g><g><path d="m463.92 487.775-4.56-50.889c-2.83-31.62-25.75-57.79-56.73-64.799l-12.28-2.77-85.82-19.41-95.3-.43-99.88 22.61c-30.97 7.01-53.88 33.18-56.71 64.779l-4.56 50.909c-1.16 13.02 9.1 24.22 22.18 24.22h371.48c13.08 0 23.34-11.2 22.18-24.22z" fill="#5cd9ff"/><path d="m463.92 487.777c1.16 13.016-9.1 24.223-22.18 24.223h-24c13.08 0 23.34-11.207 22.18-24.223l-4.56-50.895c-2.46-27.502-20.07-56.004-45.01-67.57l12.28 2.779c30.98 7.008 53.9 33.18 56.73 64.791z" fill="#5ab1ff"/><g fill="#d6dced"><path d="m132.84 432.453v79.547h-15v-79.547c0-4.139 3.35-7.498 7.5-7.498 4.14 0 7.5 3.359 7.5 7.498z"/><path d="m394.16 432.453v79.547h-15v-79.547c0-4.139 3.36-7.498 7.5-7.498s7.5 3.359 7.5 7.498z"/></g></g><path d="m337.2 357.268-9.88 8.48c-2.91 2.5-5.97 5.05-9.08 7.57-17.16 13.95-38.84 21.64-61.02 21.64-22.35 0-44.15-7.71-61.37-21.73-3.26-2.64-6.47-5.31-9.51-7.94l-9.79-8.43 32.68-7.4 95.3.43z" fill="#e6f3ff"/><g fill="#5ab1ff"><path d="m132.843 432.438v79.555h-15v-79.555c0-4.139 3.35-7.499 7.5-7.499 4.14 0 7.5 3.36 7.5 7.499z"/><path d="m394.163 432.438v79.555h-15v-79.555c0-4.139 3.36-7.499 7.5-7.499s7.5 3.36 7.5 7.499z"/></g><path d="m304.353 349.224.18.66c-2.74 2.349-5.59 4.718-8.54 7.117-10.98 8.916-24.7 13.774-38.86 13.744-14.16.03-27.9-4.838-38.89-13.774-3.13-2.529-6.13-5.038-9.01-7.516 2.04-7.706 3.22-15.603 3.52-23.539.06-1.419.09-2.829.09-4.248 0-5.357-.39-10.715-1.19-16.042l-2.42-16.202h95.3l-2.46 16.472c-1.01 6.727-1.38 13.514-1.12 20.281.3 7.764 1.44 15.49 3.4 23.047z" fill="#ffd6ae"/><path d="m302.073 305.894c-1.01 6.727-1.38 13.514-1.12 20.281-2.23 1.909-4.54 3.828-6.94 5.767-10.39 8.436-23.49 13.094-36.9 13.094h-.23c-13.4 0-26.52-4.658-36.93-13.134-2.49-2.019-4.89-4.008-7.2-5.987.06-1.419.09-2.829.09-4.248 0-5.357-.39-10.715-1.19-16.042l-2.42-16.202h95.3z" fill="#ffb185"/></g><path d="m329.7 424.939c-4.143 0-7.5 3.357-7.5 7.5v17.399c0 4.143 3.357 7.5 7.5 7.5s7.5-3.357 7.5-7.5v-17.399c0-4.142-3.357-7.5-7.5-7.5z" fill="#5ab1ff"/></g><g><path d="m407.352 294.138c-1.43 1.58-3.45 2.48-5.58 2.48h-12.34c-2.02 0-4.02-.17-5.97-.5-10.16-1.69-19.14-7.64-25.09-15.94-7.09 9.89-18.49 16.44-31.06 16.44h-145.35c-12.57 0-23.97-6.55-31.06-16.44-7.09 9.89-18.49 16.44-31.06 16.44h-10.53c-2.13 0-4.16-.9-5.58-2.48s-2.1-3.69-1.88-5.81l17.69-166.049c7.05-66.2 60.13-116.939 125.5-121.879 3.47-.27 6.97-.4 10.5-.4 70.11 0 128.57 52.57 136 122.279l17.69 166.049c.22 2.12-.46 4.23-1.88 5.81z" fill="#ff755a"/><path d="m409.232 288.329c.22 2.12-.46 4.23-1.88 5.81-1.43 1.58-3.45 2.48-5.58 2.48h-12.34c-2.02 0-4.02-.17-5.97-.5 1.09-.42 2.09-1.09 2.89-1.98 1.42-1.58 2.1-3.69 1.88-5.81l-17.69-166.049c-7.06-66.2-60.13-116.939-125.5-121.879 3.47-.27 6.97-.4 10.5-.4 70.11 0 128.57 52.57 136 122.279z" fill="#f43838"/><g fill="#ffb185"><path d="m149.793 185.263c-5.379 5.443-8.29 12.654-8.195 20.304.189 15.465 12.932 28.047 28.406 28.047h3.5v-56.791h-3.5c-7.655 0-14.832 2.997-20.211 8.44z"/><path d="m363.051 185.263c-5.379-5.443-12.557-8.44-20.211-8.44h-3.5v56.791h3.5c15.473 0 28.216-12.582 28.406-28.047.095-7.65-2.816-14.861-8.195-20.304z"/></g><path d="m345.062 225.389c.19 2.26.29 4.54.29 6.88 0 22.06-16.94 46.49-51.8 74.68-10.39 8.45-23.49 13.1-36.9 13.1h-.23c-13.4 0-26.52-4.66-36.93-13.13-34.83-28.16-51.76-52.59-51.76-74.66 0-2.34.09-4.61.28-6.74 1.36-13.95.92-39.03-1.01-59.43 4.3 0 10.59.09 17.83.2 10.3.14 21.8.3 32.24.3 11.4 0 21.54-.19 27.47-.81 28.55-2.98 40.3-12.14 49.5-24.42 9.79 15.49 28.55 24.67 52.04 24.73-1.93 20.38-2.38 45.44-1.02 59.3z" fill="#ffd6ae"/><g><path d="m275.727 256.725h-40.372c-4.142 0-7.5 3.356-7.5 7.497s3.358 7.497 7.5 7.497h40.372c4.143 0 7.5-3.356 7.5-7.497s-3.358-7.497-7.5-7.497z" fill="#ffb185"/></g></g></g></svg>