<svg id="Layer_1" enable-background="new 0 0 512 512" height="512" viewBox="0 0 512 512" width="512" xmlns="http://www.w3.org/2000/svg"><g><g><g><g><g fill="#ffb185"><path d="m149.121 185.264c-5.379 5.443-8.29 12.654-8.195 20.304.189 15.465 12.932 28.047 28.406 28.047h3.5v-56.792h-3.5c-7.655.001-14.832 2.998-20.211 8.441z"/><path d="m362.379 185.264c-5.379-5.443-12.557-8.441-20.211-8.44h-3.5v56.791h3.5c15.473 0 28.216-12.582 28.406-28.047.095-7.65-2.816-14.861-8.195-20.304z"/></g><path d="m303.22 349.226.18.66c-2.74 2.349-5.59 4.718-8.54 7.117-10.98 8.916-24.7 13.774-38.86 13.744-14.16.03-27.9-4.838-38.89-13.774-3.13-2.529-6.13-5.038-9.01-7.517 2.04-7.706 3.22-15.603 3.52-23.539.06-1.419.09-2.829.09-4.248 0-5.358-.39-10.715-1.19-16.043l-2.42-16.203h95.3l-2.46 16.473c-1.01 6.727-1.38 13.514-1.12 20.281.3 7.766 1.44 15.492 3.4 23.049z" fill="#ffd6ae"/><path d="m300.94 305.896c-1.01 6.727-1.38 13.514-1.12 20.281-2.23 1.909-4.54 3.828-6.94 5.767-10.39 8.436-23.49 13.094-36.9 13.094h-.23c-13.4 0-26.52-4.658-36.93-13.134-2.49-2.019-4.89-4.008-7.2-5.987.06-1.419.09-2.829.09-4.248 0-5.358-.39-10.715-1.19-16.043l-2.42-16.203h95.3z" fill="#ffb185"/><path d="m345.652 163.592-90.783-39.993-88.783 39.993c2.137 20.811 2.679 47.4 1.253 61.927-.186 2.126-.28 4.396-.28 6.746 0 22.067 16.936 46.49 51.76 74.652 10.414 8.471 23.535 13.132 36.932 13.131h.23c13.408 0 26.513-4.652 36.901-13.095 34.854-28.188 51.796-52.619 51.796-74.686 0-2.335-.094-4.617-.288-6.874-1.416-14.436-.874-41.005 1.262-61.801z" fill="#ffd6ae"/><g><path d="m275.055 256.726h-40.372c-4.142 0-7.5 3.356-7.5 7.497 0 4.14 3.358 7.497 7.5 7.497h40.372c4.143 0 7.5-3.356 7.5-7.497 0-4.14-3.358-7.497-7.5-7.497z" fill="#ffb185"/></g></g><path d="m389.39 121.689c0 29.275-23.82 53.091-53.11 53.091-10.97 0-21.38-3.4-30.04-9.349h-.01c-8.05-5.509-14.57-13.238-18.61-22.466-9.86 7.389-21.9 11.418-34.3 11.418-11.39 0-22.26-3.289-31.64-9.538-8.61 18.587-27.57 30.845-48.23 30.845-29.28 0-53.1-23.816-53.1-53.091 0-19.227 10.6-37.094 27.27-46.402-3.9-5.439-6.01-11.968-6.01-18.727 0-17.727 14.42-32.154 32.16-32.154 3.4 0 6.73.53 9.92 1.56 5.61-15.958 20.82-26.876 37.97-26.876 12.24 0 23.62 5.479 31.23 14.857 5.85-9.148 16.07-14.857 27.11-14.857 11.11 0 21.26 5.629 27.14 14.888.01.01.01.02.01.02 6.25-3.769 13.36-5.749 20.74-5.749 22.19 0 40.24 18.047 40.24 40.233 0 8.989-2.96 17.607-8.42 24.636 18.15 8.888 29.68 27.215 29.68 47.661z" fill="#49525e"/><path d="m389.39 121.689c0 29.275-23.82 53.091-53.11 53.091-10.97 0-21.38-3.4-30.04-9.349 48.383 1.406 63.15-25.496 63.15-43.743 0-12.738-7.08-24.126-18.48-29.715-5.4-2.649-9.32-7.579-10.68-13.438s-.01-12.018 3.68-16.767c2.76-3.559 4.22-7.839 4.22-12.378 0-11.158-7.8-34.134-40.98-34.484 6.25-3.769 13.36-5.749 20.74-5.749 22.19 0 40.24 18.047 40.24 40.233 0 8.989-2.96 17.607-8.42 24.636 18.15 8.89 29.68 27.217 29.68 47.663z" fill="#31353a"/></g></g><g><g><path d="m441.74 512h-371.48c-13.08 0-23.34-11.21-22.18-24.23l.95-10.66 3.53-39.32.08-.94c2.83-31.6 25.74-57.78 56.71-64.79l99.88-22.61 71.34.32 23.96.11 98.1 22.18c30.98 7.01 53.9 33.19 56.73 64.81l.08.91v.01l3.53 39.32.95 10.66c1.16 13.02-9.1 24.23-22.18 24.23z" fill="#e6f3ff"/><g><path d="m441.74 512h-29.99c13.07 0 23.34-11.21 22.18-24.23l-4.56-50.9c-2.83-31.62-25.75-57.8-56.74-64.81l-92.06-22.29 23.96.11 98.1 22.18c30.98 7.01 53.9 33.19 56.73 64.81l.08.91v.01l3.53 39.32.95 10.66c1.16 13.02-9.1 24.23-22.18 24.23z" fill="#d6dced"/></g><path d="m125.344 449.43v39.89l-76.31-12.21 3.53-39.32z" fill="#9ca9b7"/><path d="m462.97 477.11-29.57 4.73-46.74 7.48v-39.89l43.22-6.91 29.56-4.73z" fill="#9ca9b7"/><g fill="#d6dced"><path d="m132.841 432.438v79.562h-15v-79.562c0-4.139 3.35-7.499 7.5-7.499 4.14-.001 7.5 3.359 7.5 7.499z"/><path d="m394.161 432.438v79.562h-15v-79.562c0-4.139 3.36-7.499 7.5-7.499s7.5 3.359 7.5 7.499z"/></g></g><path d="m421.95 362.68c-3.39 4.96-8.51 8.31-14.41 9.42-7.49 1.41-15 2.72-22.53 3.93-.01 0-.01 0-.02 0-15.57 2.49-31.2 4.53-46.86 6.12-27.36 2.79-54.81 4.19-82.13 4.19-27.31 0-54.76-1.4-82.12-4.19-23.25-2.36-46.43-5.71-69.41-10.05-5.91-1.11-11.02-4.46-14.41-9.42-3.39-4.97-4.64-10.96-3.52-16.86 1.11-5.91 4.46-11.02 9.42-14.41 4.97-3.39 10.95-4.64 16.86-3.52 20.3 3.84 40.66 6.85 61.06 9.04 27.33 2.94 54.73 4.41 82.12 4.41s54.79-1.47 82.13-4.42c12.69-1.36 25.37-3.04 38.03-5.04 7.68-1.22 15.36-2.55 23.03-4 5.9-1.11 11.89.14 16.86 3.53 4.96 3.39 8.31 8.5 9.42 14.41 1.12 5.91-.13 11.89-3.52 16.86z" fill="#5cd9ff"/><path d="m425.47 345.82c1.12 5.91-.13 11.89-3.52 16.86-3.39 4.96-8.51 8.31-14.41 9.42-7.49 1.41-15 2.72-22.53 3.93 5.89-1.12 11.07-4.47 14.46-9.42 3.39-4.97 4.64-10.95 3.52-16.86-1.11-5.91-4.46-11.02-9.42-14.41-4.97-3.39-10.96-4.64-16.86-3.53-.27.05-.46.07-.55.07 7.68-1.22 15.36-2.55 23.03-4 5.9-1.11 11.89.14 16.86 3.53 4.96 3.39 8.31 8.5 9.42 14.41z" fill="#5ab1ff"/><path d="m256 341.34v45c-27.31 0-54.76-1.4-82.12-4.19v-45.22c27.33 2.94 54.73 4.41 82.12 4.41z" fill="#9ca9b7"/><path d="m338.13 336.92v45.23c-27.36 2.79-54.81 4.19-82.13 4.19v-45c27.39 0 54.79-1.47 82.13-4.42z" fill="#75818e"/><g><path d="m462.97 477.11-29.57 4.73-3.52-39.32 29.56-4.73z" fill="#75818e"/></g></g><path d="m347.93 414.71v97.29h-183.95v-97.29c0-4.14 3.36-7.5 7.5-7.5h168.95c4.14 0 7.5 3.36 7.5 7.5z" fill="#5cd9ff"/><path d="m347.93 414.71v97.29h-20v-97.29c0-4.14-3.36-7.5-7.5-7.5h20c4.14 0 7.5 3.36 7.5 7.5z" fill="#5ab1ff"/><g><g fill="#5ab1ff"><path d="m213.29 441.302h-11.771c-4.142 0-7.5 3.357-7.5 7.5s3.358 7.5 7.5 7.5h11.771c4.142 0 7.5-3.357 7.5-7.5s-3.358-7.5-7.5-7.5z"/><path d="m254.388 441.302h-11.771c-4.142 0-7.5 3.357-7.5 7.5s3.358 7.5 7.5 7.5h11.771c4.142 0 7.5-3.357 7.5-7.5s-3.358-7.5-7.5-7.5z"/><path d="m213.29 471.055h-11.771c-4.142 0-7.5 3.357-7.5 7.5s3.358 7.5 7.5 7.5h11.771c4.142 0 7.5-3.357 7.5-7.5s-3.358-7.5-7.5-7.5z"/><path d="m254.388 471.055h-11.771c-4.142 0-7.5 3.357-7.5 7.5s3.358 7.5 7.5 7.5h11.771c4.142 0 7.5-3.357 7.5-7.5s-3.358-7.5-7.5-7.5z"/></g><circle cx="296.795" cy="463.555" fill="#ff755a" r="22.5"/></g></g></svg>