<svg id="Layer_1" enable-background="new 0 0 512 512" height="512" viewBox="0 0 512 512" width="512" xmlns="http://www.w3.org/2000/svg"><g><g><g><g><path d="m303.22 349.229.18.66c-2.74 2.349-5.59 4.718-8.54 7.117-10.98 8.916-24.7 13.774-38.86 13.744-14.16.03-27.9-4.838-38.89-13.774-3.13-2.529-6.13-5.038-9.01-7.517 2.04-7.707 3.22-15.603 3.52-23.539.06-1.419.09-2.829.09-4.248 0-5.358-.39-10.715-1.19-16.043l-2.42-16.203h95.3l-2.46 16.473c-1.01 6.727-1.38 13.514-1.12 20.281.3 7.766 1.44 15.493 3.4 23.049z" fill="#f9a58e"/><path d="m300.94 305.899c-1.01 6.727-1.38 13.514-1.12 20.281-2.23 1.909-4.54 3.828-6.94 5.767-10.39 8.436-23.49 13.094-36.9 13.094h-.23c-13.4 0-26.52-4.658-36.93-13.134-2.49-2.019-4.89-4.008-7.2-5.987.06-1.419.09-2.829.09-4.248 0-5.358-.39-10.715-1.19-16.043l-2.42-16.203h95.3z" fill="#df9380"/></g></g><g><path d="m406.68 294.141c-1.43 1.58-3.45 2.48-5.58 2.48h-12.34c-2.02 0-4.02-.17-5.97-.5-10.16-1.69-19.14-7.64-25.09-15.94-7.09 9.89-18.49 16.44-31.06 16.44h-145.35c-12.57 0-23.97-6.55-31.06-16.44-7.09 9.89-18.49 16.44-31.06 16.44h-10.53c-2.13 0-4.16-.9-5.58-2.48s-2.1-3.69-1.88-5.81l17.69-166.051c7.05-66.2 60.13-116.94 125.5-121.88 3.47-.27 6.97-.4 10.5-.4 70.11 0 128.57 52.57 136 122.28l17.69 166.051c.22 2.12-.46 4.23-1.88 5.81z" fill="#49525e"/><path d="m408.56 288.331c.22 2.12-.46 4.23-1.88 5.81-1.43 1.58-3.45 2.48-5.58 2.48h-12.34c-2.02 0-4.02-.17-5.97-.5 1.09-.42 2.09-1.09 2.89-1.98 1.42-1.58 2.1-3.69 1.88-5.81l-17.69-166.051c-7.06-66.2-60.13-116.94-125.5-121.88 3.47-.27 6.97-.4 10.5-.4 70.11 0 128.57 52.57 136 122.28z" fill="#31353a"/><g fill="#df9380"><path d="m149.121 185.265c-5.379 5.443-8.29 12.654-8.195 20.304.189 15.465 12.932 28.048 28.406 28.048h3.5v-56.792h-3.5c-7.655-.001-14.832 2.997-20.211 8.44z"/><path d="m362.379 185.265c-5.379-5.443-12.557-8.441-20.211-8.44h-3.5v56.791h3.5c15.473 0 28.216-12.582 28.406-28.048.095-7.65-2.816-14.86-8.195-20.303z"/></g><path d="m344.39 225.391c.19 2.26.29 4.54.29 6.88 0 22.06-16.94 46.49-51.8 74.68-10.39 8.45-23.49 13.1-36.9 13.1h-.23c-13.4 0-26.52-4.66-36.93-13.13-34.83-28.16-51.76-52.59-51.76-74.66 0-2.34.09-4.61.28-6.74 1.36-13.95.92-39.03-1.01-59.43 4.3 0 10.59.09 17.83.2 10.3.14 21.8.3 32.24.3 11.4 0 21.54-.19 27.47-.81 28.55-2.98 40.3-12.14 49.5-24.42 9.79 15.49 28.55 24.67 52.04 24.73-1.93 20.38-2.38 45.44-1.02 59.3z" fill="#f9a58e"/><g><path d="m275.055 256.727h-40.372c-4.142 0-7.5 3.356-7.5 7.497s3.358 7.497 7.5 7.497h40.372c4.143 0 7.5-3.356 7.5-7.497s-3.358-7.497-7.5-7.497z" fill="#df9380"/></g></g></g><g><g><g><path d="m441.74 512h-371.48c-13.08 0-23.34-11.21-22.18-24.23l.95-10.66 3.53-39.32.08-.94c2.83-31.6 25.74-57.78 56.71-64.79l99.88-22.61 71.34.32 23.96.11 98.1 22.18c30.98 7.01 53.9 33.19 56.73 64.81l.08.91v.01l3.53 39.32.95 10.66c1.16 13.02-9.1 24.23-22.18 24.23z" fill="#e6f3ff"/><g><path d="m441.74 512h-29.99c13.07 0 23.34-11.21 22.18-24.23l-4.56-50.9c-2.83-31.62-25.75-57.8-56.74-64.81l-92.06-22.29 23.96.11 98.1 22.18c30.98 7.01 53.9 33.19 56.73 64.81l.08.91v.01l3.53 39.32.95 10.66c1.16 13.02-9.1 24.23-22.18 24.23z" fill="#d6dced"/></g><path d="m125.344 449.43v39.89l-76.31-12.21 3.53-39.32z" fill="#9ca9b7"/><path d="m462.97 477.11-29.57 4.73-46.74 7.48v-39.89l43.22-6.91 29.56-4.73z" fill="#9ca9b7"/><g fill="#d6dced"><path d="m132.841 432.438v79.562h-15v-79.562c0-4.139 3.35-7.499 7.5-7.499 4.14-.001 7.5 3.359 7.5 7.499z"/><path d="m394.161 432.438v79.562h-15v-79.562c0-4.139 3.36-7.499 7.5-7.499s7.5 3.359 7.5 7.499z"/></g></g><path d="m421.95 362.68c-3.39 4.96-8.51 8.31-14.41 9.42-7.49 1.41-15 2.72-22.53 3.93-.01 0-.01 0-.02 0-15.57 2.49-31.2 4.53-46.86 6.12-27.36 2.79-54.81 4.19-82.13 4.19-27.31 0-54.76-1.4-82.12-4.19-23.25-2.36-46.43-5.71-69.41-10.05-5.91-1.11-11.02-4.46-14.41-9.42-3.39-4.97-4.64-10.96-3.52-16.86 1.11-5.91 4.46-11.02 9.42-14.41 4.97-3.39 10.95-4.64 16.86-3.52 20.3 3.84 40.66 6.85 61.06 9.04 27.33 2.94 54.73 4.41 82.12 4.41s54.79-1.47 82.13-4.42c12.69-1.36 25.37-3.04 38.03-5.04 7.68-1.22 15.36-2.55 23.03-4 5.9-1.11 11.89.14 16.86 3.53 4.96 3.39 8.31 8.5 9.42 14.41 1.12 5.91-.13 11.89-3.52 16.86z" fill="#5cd9ff"/><path d="m425.47 345.82c1.12 5.91-.13 11.89-3.52 16.86-3.39 4.96-8.51 8.31-14.41 9.42-7.49 1.41-15 2.72-22.53 3.93 5.89-1.12 11.07-4.47 14.46-9.42 3.39-4.97 4.64-10.95 3.52-16.86-1.11-5.91-4.46-11.02-9.42-14.41-4.97-3.39-10.96-4.64-16.86-3.53-.27.05-.46.07-.55.07 7.68-1.22 15.36-2.55 23.03-4 5.9-1.11 11.89.14 16.86 3.53 4.96 3.39 8.31 8.5 9.42 14.41z" fill="#5ab1ff"/><path d="m256 341.34v45c-27.31 0-54.76-1.4-82.12-4.19v-45.22c27.33 2.94 54.73 4.41 82.12 4.41z" fill="#9ca9b7"/><path d="m338.13 336.92v45.23c-27.36 2.79-54.81 4.19-82.13 4.19v-45c27.39 0 54.79-1.47 82.13-4.42z" fill="#75818e"/><g><path d="m462.97 477.11-29.57 4.73-3.52-39.32 29.56-4.73z" fill="#75818e"/></g></g><path d="m347.93 414.71v97.29h-183.95v-97.29c0-4.14 3.36-7.5 7.5-7.5h168.95c4.14 0 7.5 3.36 7.5 7.5z" fill="#5cd9ff"/><path d="m347.93 414.71v97.29h-20v-97.29c0-4.14-3.36-7.5-7.5-7.5h20c4.14 0 7.5 3.36 7.5 7.5z" fill="#5ab1ff"/><g><g fill="#5ab1ff"><path d="m213.29 441.302h-11.771c-4.142 0-7.5 3.357-7.5 7.5s3.358 7.5 7.5 7.5h11.771c4.142 0 7.5-3.357 7.5-7.5s-3.358-7.5-7.5-7.5z"/><path d="m254.388 441.302h-11.771c-4.142 0-7.5 3.357-7.5 7.5s3.358 7.5 7.5 7.5h11.771c4.142 0 7.5-3.357 7.5-7.5s-3.358-7.5-7.5-7.5z"/><path d="m213.29 471.055h-11.771c-4.142 0-7.5 3.357-7.5 7.5s3.358 7.5 7.5 7.5h11.771c4.142 0 7.5-3.357 7.5-7.5s-3.358-7.5-7.5-7.5z"/><path d="m254.388 471.055h-11.771c-4.142 0-7.5 3.357-7.5 7.5s3.358 7.5 7.5 7.5h11.771c4.142 0 7.5-3.357 7.5-7.5s-3.358-7.5-7.5-7.5z"/></g><circle cx="296.795" cy="463.555" fill="#ff755a" r="22.5"/></g></g></g></svg>