<svg id="Layer_1" enable-background="new 0 0 512 512" height="512" viewBox="0 0 512 512" width="512" xmlns="http://www.w3.org/2000/svg"><g><g><g><g><g><path d="m489.73 511.997h-371.48c-13.08 0-23.34-11.209-22.18-24.227l4.56-50.924c2.83-31.596 25.74-57.773 56.71-64.783l60.35-13.668 15-3.39 24.53-5.559 95.3.43 22.76 5.149 15 3.39 48.06 10.869 12.28 2.78c30.98 7.009 53.9 33.186 56.73 64.802l4.56 50.904c1.16 13.018-9.1 24.227-22.18 24.227z" fill="#ff755a"/><path d="m511.91 487.77c1.16 13.018-9.1 24.227-22.18 24.227h-24c13.08 0 23.34-11.209 22.18-24.227l-4.56-50.904c-2.46-27.507-20.07-56.013-45.01-67.582l12.28 2.78c30.98 7.009 53.9 33.186 56.73 64.802z" fill="#f43838"/><g fill="#f43838"><path d="m180.83 432.436v79.561h-15v-79.561c0-4.139 3.35-7.499 7.5-7.499 4.14 0 7.5 3.36 7.5 7.499z"/><path d="m442.15 432.436v79.561h-15v-79.561c0-4.139 3.36-7.499 7.5-7.499s7.5 3.36 7.5 7.499z"/></g><path d="m427.15 450.584v61.413h-270.843v-61.413l32.094-7.499c15.34-.05 29.29-15.588 29.29-32.656v-52.034l15-3.39v47.924h142.59v-47.904l15 3.39v52.014c0 12.229 7.17 23.677 16.87 29.197 3.84 2.19 8.08 3.45 12.43 3.46 4.159.009 7.569 3.338 7.569 7.498z" fill="#5cd9ff"/><path d="m427.15 450.584v61.413h-270.843v-19.998h250.843v-52.374c3.84 2.19 8.08 3.45 12.43 3.46 4.16.01 7.57 3.339 7.57 7.499z" fill="#5ab1ff"/></g></g></g><g><g fill="#ffb185"><path d="m198.241 185.259c-5.379 5.443-8.29 12.654-8.195 20.303.189 15.465 12.932 28.047 28.406 28.047h3.5v-56.79h-3.5c-7.654 0-14.832 2.997-20.211 8.44z"/><path d="m411.5 185.259c-5.379-5.443-12.557-8.44-20.211-8.44h-3.5v56.79h3.5c15.473 0 28.216-12.582 28.406-28.047.094-7.65-2.816-14.86-8.195-20.303z"/></g><path d="m352.34 349.216.18.66c-2.74 2.349-5.59 4.718-8.54 7.117-10.98 8.916-24.7 13.773-38.86 13.743-14.16.03-27.9-4.838-38.89-13.773-3.13-2.529-6.13-5.038-9.01-7.516 2.04-7.706 3.22-15.602 3.52-23.539.06-1.419.09-2.829.09-4.248 0-5.357-.39-10.715-1.19-16.042l-2.42-16.202h95.3l-2.46 16.472c-1.01 6.727-1.38 13.514-1.12 20.28.3 7.765 1.44 15.491 3.4 23.048z" fill="#ffd6ae"/><path d="m350.06 305.887c-1.01 6.727-1.38 13.514-1.12 20.28-2.23 1.909-4.54 3.828-6.94 5.767-10.39 8.436-23.49 13.094-36.9 13.094h-.23c-13.4 0-26.52-4.658-36.93-13.134-2.49-2.019-4.89-4.008-7.2-5.987.06-1.419.09-2.829.09-4.248 0-5.357-.39-10.715-1.19-16.042l-2.42-16.202h95.3z" fill="#ffb185"/><path d="m394.541 163.562-90.783-39.999-88.783 39.999c2.137 20.814 2.679 47.407 1.253 61.936-.186 2.127-.28 4.397-.28 6.747 0 22.07 16.936 46.497 51.76 74.663 10.414 8.472 23.535 13.134 36.932 13.133h.23c13.408 0 26.513-4.652 36.901-13.097 34.854-28.193 51.796-52.627 51.796-74.697 0-2.335-.094-4.617-.288-6.875-1.415-14.439-.873-41.011 1.262-61.81z" fill="#ffd6ae"/><g><path d="m324.175 256.719h-40.372c-4.142 0-7.5 3.356-7.5 7.496s3.358 7.496 7.5 7.496h40.372c4.143 0 7.5-3.356 7.5-7.496s-3.357-7.496-7.5-7.496z" fill="#ffb185"/></g></g><path d="m438.51 121.686c0 29.274-23.82 53.09-53.11 53.09-10.97 0-21.38-3.399-30.04-9.348h-.01c-8.05-5.509-14.57-13.237-18.61-22.466-9.86 7.389-21.9 11.418-34.3 11.418-11.39 0-22.26-3.289-31.64-9.538-8.61 18.586-27.57 30.844-48.23 30.844-29.28 0-53.1-23.815-53.1-53.089 0-19.226 10.6-37.093 27.27-46.401-3.9-5.439-6.01-11.968-6.01-18.726 0-17.726 14.42-32.154 32.16-32.154 3.4 0 6.73.53 9.92 1.56 5.61-15.958 20.82-26.876 37.97-26.876 12.24 0 23.62 5.479 31.23 14.857 5.85-9.148 16.07-14.857 27.11-14.857 11.11 0 21.26 5.629 27.14 14.887.01.01.01.02.01.02 6.25-3.769 13.36-5.749 20.74-5.749 22.19 0 40.24 18.046 40.24 40.232 0 8.988-2.96 17.607-8.42 24.635 18.15 8.889 29.68 27.215 29.68 47.661z" fill="#fff24a"/><path d="m438.51 121.686c0 29.274-23.82 53.09-53.11 53.09-10.97 0-21.38-3.399-30.04-9.348 48.383 1.406 63.15-25.495 63.15-43.741 0-12.737-7.08-24.125-18.48-29.714-5.4-2.649-9.32-7.579-10.68-13.437-1.36-5.859-.01-12.018 3.68-16.767 2.76-3.559 4.22-7.839 4.22-12.378 0-11.158-7.8-34.133-40.98-34.483 6.25-3.769 13.36-5.749 20.74-5.749 22.19 0 40.24 18.046 40.24 40.232 0 8.988-2.96 17.607-8.42 24.635 18.15 8.888 29.68 27.214 29.68 47.66z" fill="#ffbe2c"/></g><path d="m195.669 319.136-.329 153.834c0 21.52-17.51 39.03-39.03 39.03h-117.27c-21.53 0-39.04-17.51-39.04-39.03l.329-153.834c0-12.42 10.11-22.53 22.53-22.53h150.28c12.43 0 22.53 10.11 22.53 22.53z" fill="#49525e"/><path d="m195.669 319.136-.329 153.834c0 21.52-17.51 39.03-39.03 39.03h-20c21.56 0 39.03-17.48 39.03-39.04l.329-153.824c0-12.44-10.08-22.53-22.52-22.53h19.99c12.43 0 22.53 10.11 22.53 22.53z" fill="#31353a"/><path d="m166.459 333.976v29.92c0 4.14-3.36 7.5-7.5 7.5h-121.92c-4.14 0-7.5-3.36-7.5-7.5v-29.92c0-4.14 3.36-7.5 7.5-7.5h121.92c4.14 0 7.5 3.36 7.5 7.5z" fill="#5cd9ff"/><path d="m166.459 333.976v29.92c0 4.14-3.36 7.5-7.5 7.5h-20c4.14 0 7.5-3.36 7.5-7.5v-29.92c0-4.14-3.36-7.5-7.5-7.5h20c4.14 0 7.5 3.36 7.5 7.5z" fill="#5ab1ff"/><g fill="#75818e"><path d="m36.712 449.841c-4.142 0-7.5 3.357-7.5 7.5v14.003c0 4.143 3.358 7.5 7.5 7.5s7.5-3.357 7.5-7.5v-14.003c0-4.142-3.358-7.5-7.5-7.5z"/><path d="m97.671 449.841c-4.142 0-7.5 3.357-7.5 7.5v14.003c0 4.143 3.358 7.5 7.5 7.5s7.5-3.357 7.5-7.5v-14.003c0-4.142-3.358-7.5-7.5-7.5z"/><path d="m67.192 449.841c-4.142 0-7.5 3.357-7.5 7.5v14.003c0 4.143 3.358 7.5 7.5 7.5s7.5-3.357 7.5-7.5v-14.003c0-4.142-3.358-7.5-7.5-7.5z"/><path d="m128.151 449.841c-4.142 0-7.5 3.357-7.5 7.5v14.003c0 4.143 3.358 7.5 7.5 7.5s7.5-3.357 7.5-7.5v-14.003c0-4.142-3.358-7.5-7.5-7.5z"/><path d="m158.631 449.841c-4.142 0-7.5 3.357-7.5 7.5v14.003c0 4.143 3.358 7.5 7.5 7.5s7.5-3.357 7.5-7.5v-14.003c0-4.142-3.358-7.5-7.5-7.5z"/></g></g></svg>