<svg id="Layer_1" enable-background="new 0 0 512 512" height="512" viewBox="0 0 512 512" width="512" xmlns="http://www.w3.org/2000/svg"><g><g><g><g><g><g><path d="m489.73 511.997h-371.48c-13.08 0-23.34-11.208-22.18-24.227l4.56-50.923c2.83-31.596 25.74-57.772 56.71-64.781l60.35-13.668 15-3.39 24.53-5.559 95.3.43 22.76 5.149 15 3.39 48.06 10.869 12.28 2.78c30.98 7.009 53.9 33.186 56.73 64.801l4.56 50.903c1.16 13.017-9.1 24.226-22.18 24.226z" fill="#ff755a"/><path d="m511.91 487.77c1.16 13.018-9.1 24.227-22.18 24.227h-24c13.08 0 23.34-11.208 22.18-24.227l-4.56-50.903c-2.46-27.506-20.07-56.013-45.01-67.581l12.28 2.78c30.98 7.009 53.9 33.186 56.73 64.801z" fill="#f43838"/><g fill="#f43838"><path d="m180.83 432.437v79.56h-15v-79.56c0-4.139 3.35-7.499 7.5-7.499 4.14 0 7.5 3.36 7.5 7.499z"/><path d="m442.15 432.437v79.56h-15v-79.56c0-4.139 3.36-7.499 7.5-7.499s7.5 3.36 7.5 7.499z"/></g><path d="m427.15 450.585v61.412h-270.843v-61.412l32.094-7.499c15.34-.05 29.29-15.588 29.29-32.656v-52.033l15-3.39v47.924h142.59v-47.904l15 3.39v52.013c0 12.228 7.17 23.677 16.87 29.196 3.84 2.19 8.08 3.45 12.43 3.46 4.159.01 7.569 3.339 7.569 7.499z" fill="#5cd9ff"/><path d="m427.15 450.585v61.412h-270.843v-19.997h250.843v-52.373c3.84 2.19 8.08 3.45 12.43 3.46 4.16.009 7.57 3.338 7.57 7.498z" fill="#5ab1ff"/></g></g></g></g><path d="m195.669 319.139-.329 153.832c0 21.52-17.51 39.029-39.03 39.029h-117.27c-21.53 0-39.04-17.51-39.04-39.029l.329-153.832c0-12.42 10.11-22.53 22.53-22.53h150.28c12.43.001 22.53 10.111 22.53 22.53z" fill="#49525e"/><path d="m195.669 319.139-.329 153.832c0 21.52-17.51 39.029-39.03 39.029h-20c21.56 0 39.03-17.48 39.03-39.039l.329-153.822c0-12.44-10.08-22.53-22.52-22.53h19.99c12.43.001 22.53 10.111 22.53 22.53z" fill="#31353a"/><path d="m166.459 333.979v29.919c0 4.14-3.36 7.5-7.5 7.5h-121.92c-4.14 0-7.5-3.36-7.5-7.5v-29.919c0-4.14 3.36-7.5 7.5-7.5h121.92c4.14 0 7.5 3.36 7.5 7.5z" fill="#5cd9ff"/><path d="m166.459 333.979v29.919c0 4.14-3.36 7.5-7.5 7.5h-20c4.14 0 7.5-3.36 7.5-7.5v-29.919c0-4.14-3.36-7.5-7.5-7.5h20c4.14 0 7.5 3.36 7.5 7.5z" fill="#5ab1ff"/><g fill="#75818e"><path d="m36.712 449.842c-4.142 0-7.5 3.357-7.5 7.5v14.003c0 4.142 3.358 7.5 7.5 7.5s7.5-3.357 7.5-7.5v-14.003c0-4.142-3.358-7.5-7.5-7.5z"/><path d="m97.671 449.842c-4.142 0-7.5 3.357-7.5 7.5v14.003c0 4.142 3.358 7.5 7.5 7.5s7.5-3.357 7.5-7.5v-14.003c0-4.142-3.358-7.5-7.5-7.5z"/><path d="m67.192 449.842c-4.142 0-7.5 3.357-7.5 7.5v14.003c0 4.142 3.358 7.5 7.5 7.5s7.5-3.357 7.5-7.5v-14.003c0-4.142-3.358-7.5-7.5-7.5z"/><path d="m128.151 449.842c-4.142 0-7.5 3.357-7.5 7.5v14.003c0 4.142 3.358 7.5 7.5 7.5s7.5-3.357 7.5-7.5v-14.003c0-4.142-3.358-7.5-7.5-7.5z"/><path d="m158.631 449.842c-4.142 0-7.5 3.357-7.5 7.5v14.003c0 4.142 3.358 7.5 7.5 7.5s7.5-3.357 7.5-7.5v-14.003c0-4.142-3.358-7.5-7.5-7.5z"/></g></g><g><path d="m352.34 349.218.18.66c-2.74 2.349-5.59 4.718-8.54 7.117-10.98 8.916-24.7 13.773-38.86 13.743-14.16.03-27.9-4.838-38.89-13.773-3.13-2.529-6.13-5.038-9.01-7.516 2.04-7.706 3.22-15.602 3.52-23.539.06-1.419.09-2.829.09-4.248 0-5.357-.39-10.715-1.19-16.042l-2.42-16.202h95.3l-2.46 16.472c-1.01 6.727-1.38 13.513-1.12 20.28.3 7.766 1.44 15.492 3.4 23.048z" fill="#ffd6ae"/><path d="m350.06 305.889c-1.01 6.727-1.38 13.513-1.12 20.28-2.23 1.909-4.54 3.828-6.94 5.767-10.39 8.436-23.49 13.094-36.9 13.094h-.23c-13.4 0-26.52-4.658-36.93-13.134-2.49-2.019-4.89-4.008-7.2-5.987.06-1.419.09-2.829.09-4.248 0-5.357-.39-10.715-1.19-16.042l-2.42-16.202h95.3z" fill="#ffb185"/><g><path d="m455.34 294.134c-1.43 1.58-3.45 2.48-5.58 2.48h-12.34c-2.02 0-4.02-.17-5.97-.5-10.16-1.69-19.14-7.64-25.09-15.94-7.09 9.89-18.49 16.44-31.06 16.44h-145.35c-12.57 0-23.97-6.55-31.06-16.44-7.09 9.89-18.49 16.44-31.06 16.44h-10.53c-2.13 0-4.16-.9-5.58-2.48s-2.1-3.69-1.88-5.81l17.69-166.047c7.05-66.198 60.13-116.937 125.5-121.877 3.47-.27 6.97-.4 10.5-.4 70.11 0 128.57 52.569 136 122.277l17.69 166.047c.22 2.12-.46 4.23-1.88 5.81z" fill="#49525e"/><path d="m457.22 288.324c.22 2.12-.46 4.23-1.88 5.81-1.43 1.58-3.45 2.48-5.58 2.48h-12.34c-2.02 0-4.02-.17-5.97-.5 1.09-.42 2.09-1.09 2.89-1.98 1.42-1.58 2.1-3.69 1.88-5.81l-17.69-166.047c-7.06-66.198-60.13-116.937-125.5-121.877 3.47-.27 6.97-.4 10.5-.4 70.11 0 128.57 52.569 136 122.277z" fill="#31353a"/><g fill="#ffb185"><path d="m197.781 185.26c-5.379 5.443-8.29 12.654-8.195 20.303.189 15.465 12.932 28.047 28.406 28.047h3.5v-56.79h-3.5c-7.655 0-14.833 2.998-20.211 8.44z"/><path d="m411.039 185.26c-5.379-5.443-12.557-8.44-20.211-8.44h-3.5v56.79h3.5c15.473 0 28.216-12.582 28.406-28.047.094-7.649-2.816-14.86-8.195-20.303z"/></g><path d="m393.05 225.385c.19 2.26.29 4.54.29 6.88 0 22.06-16.94 46.489-51.8 74.678-10.39 8.45-23.49 13.1-36.9 13.1h-.23c-13.4 0-26.52-4.66-36.93-13.13-34.83-28.159-51.76-52.589-51.76-74.658 0-2.34.09-4.61.28-6.74 1.36-13.95.92-39.029-1.01-59.429 4.3 0 10.59.09 17.83.2 10.3.14 21.8.3 32.24.3 11.4 0 21.54-.19 27.47-.81 28.55-2.98 40.3-12.14 49.5-24.42 9.79 15.49 28.55 24.67 52.04 24.73-1.93 20.38-2.38 45.44-1.02 59.299z" fill="#ffd6ae"/><g><path d="m323.715 256.721h-40.372c-4.142 0-7.5 3.356-7.5 7.496s3.358 7.496 7.5 7.496h40.372c4.143 0 7.5-3.356 7.5-7.496s-3.358-7.496-7.5-7.496z" fill="#ffb185"/></g></g></g></g></svg>