<?xml version="1.0" encoding="iso-8859-1"?>
<!-- Generator: Adobe Illustrator 19.0.0, SVG Export Plug-In . SVG Version: 6.00 Build 0)  -->
<svg xmlns="http://www.w3.org/2000/svg" xmlns:xlink="http://www.w3.org/1999/xlink" version="1.1" id="Layer_1" x="0px" y="0px" viewBox="0 0 512.001 512.001" style="enable-background:new 0 0 512.001 512.001;" xml:space="preserve">
<path style="fill:#A57D48;" d="M293.956,33.251c-14.92-4.072-29.917-6.008-44.672-6.017c-14.755,0.008-29.752,1.944-44.672,6.017  c-18.253,4.982-34.99,12.763-49.88,22.751c-13.321-16.765-33.87-27.527-56.946-27.527H75.972c-13.386,0-24.237,10.851-24.237,24.237  v23.025c0,27.533,15.306,51.488,37.871,63.83c-11.412,31.685-13.538,67.07-3.997,102.025c0.281,1.029,0.571,2.053,0.869,3.072  l8.148,27.822l46.345,158.243c13.983,47.746,58.56,80.974,108.311,81.269c49.751-0.294,94.328-33.523,108.311-81.269l46.345-158.243  l8.148-27.822c0.298-1.019,0.588-2.043,0.869-3.072C437.627,151.201,384.35,57.923,293.956,33.251z"/>
<g>
	<path style="opacity:0.5;fill:#8D663D;enable-background:new    ;" d="M293.956,33.251c-14.92-4.072-29.917-6.008-44.672-6.017   v484.765c49.751-0.294,94.328-33.523,108.311-81.269l46.345-158.243l8.148-27.822c0.298-1.019,0.588-2.043,0.869-3.072   C437.627,151.201,384.35,57.923,293.956,33.251z"/>
	<path style="fill:#8D663D;" d="M141.828,118.161c-5.663-3.792-9.063-10.159-9.063-16.974c0-20.079-16.276-36.355-36.355-36.355l0,0   c-5.354,0-9.695,4.341-9.695,9.695v1.212c0,17.086,11.814,31.754,27.725,35.627c0.005-0.027,0.01-0.055,0.001,0   c-1.802,12.331-2.851,25.005-2.883,36.869l-0.005,0.088l0.005,0.587c0.115,45.523,17.323,91.459,47.767,128.808   c2.286,2.804,3.692,6.262,3.735,9.879c0.118,10.215-8.203,18.168-18.382,18.395c-5.241,0.116-9.388,4.669-8.833,10.052   c0.496,4.8,4.879,8.204,9.703,8.117c9.639-0.175,18.372-4.12,24.785-10.421c6.582-6.466,16.87-7.218,24.118-1.51   c37.249,29.333,82.054,45.23,128.719,45.23c0.051,0,0.102,0,0.151,0c8.222,0,14.142,7.899,11.831,15.79l-0.86,2.936   c-3.502,11.958-15.184,19.36-27.561,17.912c-0.075-0.008-0.15-0.017-0.227-0.025c-1.355-0.149-2.728-0.225-4.08-0.225   c-10.753,0-20.897,4.735-27.834,12.992c-3.017,3.593-7.252,5.653-11.616,5.653c-0.291,0-0.584-0.01-0.876-0.027   c-4.684-0.292-9.431-0.44-14.111-0.44c-4.72,0-9.508,0.15-14.232,0.447c-0.299,0.019-0.599,0.028-0.896,0.028   c-4.391,0-8.653-2.072-11.694-5.686c-6.934-8.241-17.071-12.967-27.811-12.967c-1.423,0-2.865,0.084-4.29,0.248   c-15.72,1.825-28.663,13.973-31.478,29.556l-0.061,0.351c-0.782,4.58-3.628,8.459-7.613,10.376   c-2.626,1.263-4.038,2.121-6.592,3.476c16.284,43.635,57.501,73.867,104.565,74.146c0.238-0.001,0.474-0.016,0.711-0.018   c0.228,0.007,0.454,0.017,0.683,0.018c49.751-0.294,94.328-33.523,108.311-81.269l46.234-157.867L141.828,118.161z"/>
</g>
<g>
	<circle style="fill:#563F32;" cx="193.352" cy="430.205" r="9.089"/>
	<circle style="fill:#563F32;" cx="302.418" cy="430.205" r="9.089"/>
</g>
<path style="fill:#C9AD80;" d="M444.553,187.228c-2.345-48.048-22.054-93.175-56.162-127.989  C351.911,22.003,303.312,0.978,251.542,0.03c-0.699-0.012-1.397-0.023-2.088-0.027C249.157,0.001,248.862,0,248.566,0  c-47.263,0-89.976,29.528-106.473,73.711c-7.464,19.989-12.315,49.32-12.358,74.722c-0.008,5.019,4.054,9.096,9.073,9.105h0.017  c0.208,0,0.412-0.017,0.617-0.032c7.655,95.177,86.828,172.687,183.728,172.687c33.786,0,67.308,0.031,67.308,0.031  c28.123-32.786,53.994-86.51,54.074-132.973C444.558,193.89,444.724,190.549,444.553,187.228z"/>
<path style="fill:#DAC69C;" d="M381.193,106.034c0-23.924-5.554-46.548-15.432-66.666C332.857,14.586,293.23,0.794,251.541,0.032  c-0.699-0.012-1.397-0.023-2.088-0.027C249.157,0.001,248.862,0,248.566,0c-47.263,0-89.976,29.528-106.473,73.711  c-7.464,19.989-12.315,49.32-12.358,74.722c-0.008,5.019,4.054,9.096,9.073,9.105h0.017c0.208,0,0.412-0.017,0.617-0.032  c2.564,31.872,13.157,61.756,29.74,87.418c18.54,8.091,39.009,12.59,60.53,12.59C313.373,257.515,381.193,189.695,381.193,106.034z"/>
<g>
	<path style="fill:#B69362;" d="M446.632,193.867l-121.812-0.006c-27.433-0.948-49.711-24.081-49.664-51.566   c0.008-5.015,4.077-9.073,9.089-9.073c0.006,0,0.011,0,0.016,0c5.021,0.008,9.083,4.085,9.073,9.105   c-0.03,17.738,14.296,32.674,31.968,33.363h121.33c5.019,0,9.089,4.068,9.089,9.089   C455.721,189.799,451.652,193.867,446.632,193.867z"/>
	<path style="fill:#B69362;" d="M451.177,230.223l-126.804-0.002c-47.267-1.199-85.654-40.67-85.572-87.987v-18.02   c0-5.021,4.069-9.089,9.089-9.089c5.019,0,9.089,4.068,9.089,9.089v18.036c-0.064,37.508,30.314,68.789,67.745,69.797h126.454   c5.019,0,9.089,4.068,9.089,9.089C460.266,226.156,456.196,230.223,451.177,230.223z"/>
	<path style="fill:#B69362;" d="M441.785,266.578l-117.79-0.002c-67.139-1.407-121.664-57.216-121.549-124.406v-30.077   c0-5.021,4.069-9.089,9.089-9.089c5.019,0,9.089,4.068,9.089,9.089v30.091c-0.099,57.342,46.393,104.963,103.659,106.215h117.503   c5.019,0,9.089,4.068,9.089,9.089S446.805,266.578,441.785,266.578z"/>
	<path style="fill:#B69362;" d="M429.667,302.934l-106-0.001c-87.038-1.591-157.727-73.737-157.576-160.825V99.975   c0-5.021,4.069-9.089,9.089-9.089c5.019,0,9.089,4.068,9.089,9.089v42.147c-0.133,77.218,62.509,141.178,139.652,142.633h105.747   c5.019,0,9.089,4.068,9.089,9.089S434.686,302.934,429.667,302.934z"/>
	<path style="fill:#B69362;" d="M415.927,330.227c-0.004,5.019-4.065,9.085-9.084,9.083c-17.854-0.008-58.022-0.028-83.673-0.028   c-50.98,0-99.61-20.862-136.933-58.742c-35.817-36.353-56.399-84.351-56.501-131.737c-0.01-4.657,3.328-8.814,7.951-9.375   c5.527-0.671,10.227,3.625,10.227,9.02c0,91.975,81.895,172.656,175.257,172.656c25.654,0,65.826,0.018,83.683,0.028   C411.872,321.134,415.93,325.206,415.927,330.227L415.927,330.227z"/>
</g>
<path style="fill:#A57D48;" d="M421.184,28.476H399.37c-40.157,0-72.711,32.554-72.711,72.711v23.025  c0,13.386,10.851,24.237,24.237,24.237h12.118h9.695c40.157,0,72.711-32.554,72.711-72.711V52.713  C445.421,39.327,434.57,28.476,421.184,28.476z"/>
<path style="fill:#8D663D;" d="M363.015,102.399v-1.212c0-20.079,16.276-36.355,36.355-36.355l0,0c5.354,0,9.695,4.341,9.695,9.695  v1.212c0,20.079-16.276,36.355-36.355,36.355l0,0C367.356,112.093,363.015,107.752,363.015,102.399z"/>
<circle style="fill:#47423F;" cx="144.878" cy="287.813" r="18.178"/>
<g>
</g>
<g>
</g>
<g>
</g>
<g>
</g>
<g>
</g>
<g>
</g>
<g>
</g>
<g>
</g>
<g>
</g>
<g>
</g>
<g>
</g>
<g>
</g>
<g>
</g>
<g>
</g>
<g>
</g>
</svg>
