<?xml version="1.0" encoding="iso-8859-1"?>
<!-- Generator: Adobe Illustrator 19.0.0, SVG Export Plug-In . SVG Version: 6.00 Build 0)  -->
<svg xmlns="http://www.w3.org/2000/svg" xmlns:xlink="http://www.w3.org/1999/xlink" version="1.1" id="Layer_1" x="0px" y="0px" viewBox="0 0 512 512" style="enable-background:new 0 0 512 512;" xml:space="preserve">
<path style="fill:#848075;" d="M144.696,61.218c-44.01,0-82.052,25.542-100.116,62.61L5.591,203.84C2.01,211.19,0,219.447,0,228.174  c0,14.195,5.314,27.148,14.061,36.979l52.84,59.386c8.155,9.166,20.04,14.939,33.273,14.939c10.659,0,20.441-3.745,28.105-9.991  l86.68-70.639c25.046-20.41,41.04-51.501,41.04-86.327C256,111.05,206.167,61.218,144.696,61.218z"/>
<path style="fill:#989487;" d="M144.696,61.218c-44.01,0-82.052,25.542-100.116,62.61L5.591,203.84  c-1.234,2.533-2.267,5.182-3.111,7.913l31.029,34.874c4.043,4.545,9.003,8.254,14.59,10.841c0.237,0.109,0.488,0.217,0.75,0.323  c9.218,3.702,19.483-2.323,21.186-12.11c0.732-4.211,1.486-8.169,2.18-11.807c4.5-23.608,12.525-47.781,23.207-69.906l0.163-0.332  c14.145-28.227,33.687-51.714,47.59-66.445c3.611-3.826,7.351-7.446,11.211-10.857c9.852-8.701,3.836-25.071-9.308-25.116  C144.949,61.218,144.823,61.218,144.696,61.218z"/>
<path style="fill:#706B63;" d="M367.304,61.218c44.01,0,82.052,25.542,100.116,62.61l38.989,80.011  c3.581,7.352,5.591,15.608,5.591,24.336c0,14.195-5.314,27.148-14.061,36.979l-52.84,59.386  c-8.155,9.166-20.04,14.939-33.273,14.939c-10.659,0-20.441-3.745-28.105-9.991l-86.68-70.639  c-25.046-20.41-41.04-51.501-41.04-86.327C256,111.05,305.833,61.218,367.304,61.218z"/>
<g>
	<path style="fill:#848075;" d="M367.304,61.218c44.01,0,82.052,25.542,100.116,62.61l38.989,80.011   c1.234,2.533,2.267,5.182,3.111,7.913l-31.029,34.874c-4.043,4.545-9.003,8.254-14.59,10.841c-0.237,0.109-0.488,0.217-0.75,0.323   c-9.218,3.702-19.483-2.323-21.186-12.11c-0.732-4.211-1.487-8.169-2.18-11.807c-4.5-23.608-12.525-47.781-23.207-69.906   l-0.163-0.332c-14.145-28.227-33.687-51.714-47.59-66.445c-3.611-3.826-7.351-7.446-11.211-10.857   c-9.852-8.701-3.836-25.071,9.308-25.116C367.051,61.218,367.177,61.218,367.304,61.218z"/>
	<path style="fill:#848075;" d="M414.397,234.609c-6.455-31.015-19.588-60.239-37.722-86.214   c-22.682-32.492-26.124-35.812-37.355-45.247C316.397,83.889,288.135,72.366,256,72.348L138.911,192.082l-13.449,158.32   c1.062,0.628,2.128,1.252,3.228,1.848C167.768,373.406,211.883,383.989,256,384c44.117-0.011,88.232-10.594,127.309-31.748   c1.1-0.595,2.166-1.22,3.228-1.848c41.299-24.441,37.088-67.562,28.648-111.841C414.935,237.248,414.672,235.93,414.397,234.609z"/>
</g>
<path style="fill:#989487;" d="M322.783,261.565c-19.142,0-34.573-16.19-33.32-35.596c1.072-16.597,14.57-30.071,31.169-31.118  c0.185-0.011,0.37-0.022,0.554-0.03c12.346-0.579,20.564-13.025,16.03-24.524c-15.217-38.599-40.2-75.254-73.672-97.716  c-2.489-0.148-5.002-0.232-7.543-0.233c-20.658,0.011-39.583,4.94-56.641,13.47c-14.27,7.137-27.02,16.957-37.971,28.561  c-11.784,12.487-30.334,34.374-43.414,60.477c-10.021,20.756-17.15,42.671-21.159,63.707c-8.44,44.279-12.652,87.4,28.648,111.841  c1.062,0.628,2.128,1.252,3.228,1.848c2.422,1.311,4.863,2.58,7.323,3.81c18.226,3.764,36.825,5.673,55.43,5.678  c44.117-0.011,88.232-10.594,127.309-31.748c1.1-0.595,2.166-1.22,3.228-1.848c13.933-8.245,22.686-18.617,27.844-30.442  c7.77-17.81-6.071-37.07-25.481-36.172C323.827,261.553,323.306,261.565,322.783,261.565z"/>
<path style="fill:#848075;" d="M189.589,194.783L189.589,194.783v0.01c-0.125-0.002-0.247-0.01-0.372-0.01  c-18.412,0-33.391,14.979-33.391,33.391s14.979,33.391,33.391,33.391c0.125,0,0.247-0.008,0.371-0.01v0.01  c18.237,0,33.021,14.783,33.021,33.021v145.066c0,6.147,4.983,11.13,11.13,11.13h44.522c6.147,0,11.13-4.983,11.13-11.13V294.586  C289.391,239.466,244.708,194.783,189.589,194.783z"/>
<path style="fill:#706B63;" d="M247.096,407.003l-24.487,32.649c0,6.147,4.983,11.13,11.13,11.13h44.522  c6.147,0,11.13-4.983,11.13-11.13l-24.487-32.649C260.452,401.066,251.548,401.066,247.096,407.003z"/>
<path style="fill:#848075;" d="M215.779,306.087c-6.184-8.115-15.957-13.357-26.733-13.357c-0.963,0-1.938,0.042-2.899,0.124  c-8.932,0.766-17.032,4.953-22.809,11.792c-0.058,0.069-0.116,0.137-0.173,0.206c-8.004,9.626-0.893,24.255,11.627,24.255  l28.536-0.001c11.246,0,18.654-12.093,13.166-21.91C216.259,306.776,216.021,306.403,215.779,306.087z"/>
<path style="fill:#D5D2BD;" d="M211.395,328.151c-0.494,6.174-1.18,12.321-2.094,18.435c-0.954,6.113-2.121,12.189-3.532,18.217  c-2.888,12.05-6.706,23.924-11.959,35.409c-2.638,5.739-5.628,11.38-9.106,16.848c-3.494,5.459-7.425,10.773-12.178,15.694  c-4.766,4.886-10.241,9.494-16.93,12.929c-3.306,1.741-6.981,3.07-10.759,4.017c-3.833,0.88-7.82,1.213-11.75,1.037  c-6.154-0.276-10.919-5.469-10.642-11.6c0.24-5.319,4.196-9.597,9.258-10.456l1.384-0.233c1.719-0.293,3.354-0.745,4.949-1.44  c1.586-0.786,3.15-1.646,4.659-2.857c3.034-2.321,5.855-5.589,8.37-9.263c5.025-7.463,8.684-16.708,11.271-26.282  c2.58-9.626,4.063-19.732,4.757-29.883c0.317-5.089,0.434-10.193,0.376-15.294c-0.097-5.107-0.384-10.206-0.823-15.28  c-1.063-12.309,8.092-23.147,20.448-24.205c12.356-1.06,23.235,8.061,24.298,20.371c0.105,1.207,0.11,2.4,0.024,3.571  L211.395,328.151z"/>
<path style="fill:#E7E4CD;" d="M186.375,320.62c-11.546,0.57-18.115,4.659-19.763,6.52c0.014,0.337,0.007,0.671,0.036,1.011  c0.439,5.074,0.726,10.173,0.823,15.28c0.058,5.101-0.059,10.206-0.376,15.294c-0.695,10.151-2.177,20.256-4.757,29.883  c-2.587,9.573-6.245,18.818-11.271,26.282c-2.515,3.674-5.336,6.942-8.37,9.263c-1.51,1.211-3.073,2.071-4.659,2.857  c-1.594,0.696-3.23,1.148-4.949,1.44l-1.384,0.233c-5.208,0.884-9.245,5.385-9.271,10.917c0.006,0.006,0.009,0.009,0.014,0.014  c3.77,0.128,7.584-0.199,11.258-1.043c3.778-0.948,7.453-2.276,10.759-4.017c6.691-3.435,12.164-8.043,16.931-12.929  c4.752-4.92,8.683-10.233,12.178-15.694c3.479-5.468,6.468-11.109,9.106-16.848c5.252-11.487,9.071-23.359,11.959-35.409  c1.41-6.028,2.578-12.104,3.532-18.217c0.081-0.542,0.16-1.085,0.238-1.627c1.018-7.13-4.683-13.542-11.877-13.215  C186.479,320.615,186.427,320.617,186.375,320.62z"/>
<path style="fill:#848075;" d="M296.221,306.087c6.184-8.115,15.957-13.357,26.733-13.357c0.963,0,1.938,0.042,2.9,0.124  c8.932,0.766,17.032,4.953,22.809,11.792c0.058,0.069,0.116,0.137,0.173,0.206c8.004,9.626,0.893,24.255-11.627,24.255  l-28.536-0.001c-11.246,0-18.654-12.093-13.166-21.91C295.741,306.776,295.979,306.403,296.221,306.087z"/>
<path style="fill:#E7E4CD;" d="M300.605,328.151c0.494,6.174,1.18,12.321,2.094,18.435c0.954,6.113,2.121,12.189,3.532,18.217  c2.888,12.05,6.706,23.924,11.959,35.409c2.638,5.739,5.628,11.38,9.106,16.848c3.494,5.459,7.425,10.773,12.178,15.694  c4.766,4.886,10.241,9.494,16.93,12.929c3.306,1.741,6.981,3.07,10.759,4.017c3.833,0.88,7.82,1.213,11.75,1.037  c6.154-0.276,10.919-5.469,10.642-11.6c-0.24-5.319-4.196-9.597-9.258-10.456l-1.384-0.233c-1.719-0.293-3.354-0.745-4.949-1.44  c-1.586-0.786-3.15-1.646-4.659-2.857c-3.034-2.321-5.855-5.589-8.37-9.263c-5.025-7.463-8.684-16.708-11.271-26.282  c-2.58-9.626-4.063-19.732-4.757-29.883c-0.317-5.089-0.434-10.193-0.376-15.294c0.097-5.107,0.384-10.206,0.823-15.28  c1.063-12.309-8.092-23.147-20.448-24.205c-12.356-1.06-23.235,8.061-24.298,20.371c-0.105,1.207-0.11,2.4-0.024,3.571  L300.605,328.151z"/>
<path style="fill:#D5D2BD;" d="M380.295,428.682l-1.384-0.233c-1.719-0.292-3.354-0.745-4.949-1.44  c-1.586-0.786-3.15-1.646-4.659-2.857c-3.034-2.321-5.855-5.589-8.37-9.263c-5.025-7.463-8.684-16.708-11.271-26.282  c-2.58-9.626-4.063-19.732-4.757-29.883c-0.317-5.089-0.434-10.193-0.376-15.294c0.097-5.107,0.384-10.205,0.823-15.28  c1.063-12.309-8.092-23.147-20.448-24.205c-12.356-1.06-23.235,8.061-24.298,20.371c-0.105,1.207-0.11,2.4-0.024,3.571l0.024,0.265  c0.006,0.066,0.012,0.131,0.018,0.197l0,0c7.347,0,13.595,5.407,14.598,12.686c0.673,4.887,1.508,9.929,2.142,12.638  c2.888,12.051,6.706,23.924,11.959,35.409c2.638,5.739,5.626,11.38,9.106,16.848c3.494,5.459,7.425,10.773,12.178,15.694  c4.766,4.886,10.241,9.494,16.931,12.929c3.306,1.741,6.981,3.07,10.759,4.017c3.674,0.844,7.489,1.171,11.258,1.043  c0.006-0.006,0.009-0.009,0.014-0.014C389.54,434.066,385.503,429.566,380.295,428.682z"/>
<g>
	<circle style="fill:#47423F;" cx="322.783" cy="228.174" r="16.696"/>
	<circle style="fill:#47423F;" cx="189.217" cy="228.174" r="16.696"/>
</g>
<path style="fill:#E7E4CD;" d="M305.435,73.264c-14.404-5.641-29.657-8.736-45.309-9.196c-0.011,0-0.121-0.004-0.132-0.004  c-1.326-0.038-2.655-0.065-3.997-0.065c-16.939,0.009-33.503,3.166-49.231,9.382c-3.062,1.21-5.127,4.106-5.271,7.396  c-0.145,3.289,1.657,6.357,4.601,7.831c16.16,8.094,28.878,21.727,35.81,38.383c2.365,5.683,7.836,9.355,13.938,9.355h0.317  c6.102,0,11.572-3.671,13.938-9.354c6.962-16.732,19.751-30.399,36.01-38.481c2.956-1.469,4.769-4.543,4.624-7.842  C310.585,77.371,308.508,74.468,305.435,73.264z"/>
<path style="fill:#8D472E;" d="M305.266,73.198c-3.69-1.439-7.438-2.704-11.232-3.807l0,0c0,4.008-2.025,7.732-5.363,9.952  c-9.208,6.122-17.214,13.837-23.653,22.754c-4.445,6.156-13.596,6.148-18.041-0.008c-6.392-8.849-14.329-16.516-23.451-22.617  c-3.324-2.223-5.337-5.937-5.337-9.935v-0.085c-3.792,1.117-7.546,2.402-11.252,3.861c-2.455,0.966-4.418,2.987-5.131,5.528  c-1.115,3.97,0.772,8.005,4.29,9.767c16.16,8.094,28.878,21.727,35.81,38.383c2.365,5.683,7.836,9.355,13.938,9.355h0.317  c6.102,0,11.572-3.671,13.938-9.354c6.962-16.732,19.751-30.399,36.01-38.481c3.529-1.754,5.428-5.795,4.313-9.774  C309.704,76.189,307.732,74.16,305.266,73.198z"/>
<path style="fill:#67A0C0;" d="M260.126,64.069c-0.011,0-0.121-0.004-0.132-0.004c-1.326-0.038-2.655-0.065-3.997-0.065  c-7.116,0.003-14.163,0.57-21.112,1.678v0.002c0,0.839,0.408,1.622,1.09,2.113c3.189,2.298,6.24,4.758,9.146,7.374  c6.165,5.547,15.528,5.619,21.689,0.066c2.99-2.695,6.133-5.1,9.422-7.435c0.692-0.491,1.107-1.284,1.107-2.133l0,0  C271.671,64.776,265.926,64.239,260.126,64.069z"/>
<path style="opacity:0.2;fill:#47423F;enable-background:new    ;" d="M305.435,73.264c-14.404-5.641-29.657-8.736-45.309-9.196  c-0.011,0-0.121-0.004-0.132-0.004c-1.325-0.038-2.652-0.065-3.992-0.065v72.348h0.159c6.102,0,11.572-3.671,13.938-9.354  c6.962-16.732,19.751-30.399,36.01-38.481c2.956-1.469,4.769-4.543,4.624-7.842C310.585,77.371,308.508,74.468,305.435,73.264z"/>
<g>
</g>
<g>
</g>
<g>
</g>
<g>
</g>
<g>
</g>
<g>
</g>
<g>
</g>
<g>
</g>
<g>
</g>
<g>
</g>
<g>
</g>
<g>
</g>
<g>
</g>
<g>
</g>
<g>
</g>
</svg>
