<?xml version="1.0" encoding="iso-8859-1"?>
<!-- Generator: Adobe Illustrator 19.0.0, SVG Export Plug-In . SVG Version: 6.00 Build 0)  -->
<svg xmlns="http://www.w3.org/2000/svg" xmlns:xlink="http://www.w3.org/1999/xlink" version="1.1" id="Layer_1" x="0px" y="0px" viewBox="0 0 512 512" style="enable-background:new 0 0 512 512;" xml:space="preserve">
<g>
	<path style="fill:#47423F;" d="M107.952,202.085H83.277c-18.707,0-33.928-15.221-33.928-33.928c0-8.504-6.918-15.422-15.422-15.422   C15.221,152.736,0,137.515,0,118.808V94.134c0-5.111,4.142-9.253,9.253-9.253s9.253,4.142,9.253,9.253v24.675   c0,8.504,6.918,15.422,15.422,15.422c18.707,0,33.928,15.221,33.928,33.928c0,8.504,6.918,15.422,15.422,15.422h24.675   c5.111,0,9.253,4.142,9.253,9.253C117.205,197.944,113.063,202.085,107.952,202.085z"/>
	<path style="fill:#47423F;" d="M502.747,300.784c-5.111,0-9.253-4.142-9.253-9.253v-24.675c0-8.504-6.918-15.422-15.422-15.422   c-18.707,0-33.928-15.221-33.928-33.928c0-8.504-6.918-15.422-15.422-15.422h-24.675c-5.111,0-9.253-4.142-9.253-9.253   c0-5.111,4.142-9.253,9.253-9.253h24.675c18.707,0,33.928,15.221,33.928,33.928c0,8.504,6.918,15.422,15.422,15.422   c18.707,0,33.928,15.221,33.928,33.928v24.675C512,296.641,507.858,300.784,502.747,300.784z"/>
</g>
<path style="fill:#7F8383;" d="M427.139,254.404c0-42.783-15.561-86.888-41.326-122.527c-3.21-4.441-7.872-7.623-13.143-9.121  c-34.589-9.828-70.945-15.453-108.484-16.285L256,121.65l-49.349,198.257L256,427.115c47.345-0.274,94.631-12.833,136.568-37.693  C440.17,361.204,454.816,301.387,427.139,254.404z"/>
<path style="fill:#A4A49E;" d="M383.363,242.828c-4.011-9.753-6.304-20.112-7.321-30.608c-2.945-30.418-13.333-60.821-29.246-87.744  c-3.653-6.182-9.84-10.481-16.916-11.702c-24.007-4.14-48.692-6.303-73.881-6.303l-49.349,211.093L256,397.582  c30.054-5.808,59.306-16.699,86.333-32.72C385.643,339.187,401.673,287.354,383.363,242.828z"/>
<ellipse style="fill:#B8B7AC;" cx="385.542" cy="285.362" rx="30.843" ry="18.506"/>
<path style="fill:#BB9430;" d="M112.763,387.227c1.151,0.746,2.308,1.488,3.501,2.195c42.872,25.415,91.335,37.973,139.735,37.693  V121.65L112.763,387.227z"/>
<path style="fill:#D9B43A;" d="M83.275,254.519C56.292,300.325,67.971,358.2,112.763,387.227  c45.572,15.936,96.181,19.45,143.237,10.355V106.471L83.275,254.519z"/>
<path style="fill:#E2C35A;" d="M315.953,187.811l-0.025-0.249c-2.181-22.529-8.452-45.046-18.022-66.149  c-3.816-8.415-12.038-13.984-21.267-14.43c-6.841-0.331-13.724-0.502-20.648-0.502c-40.995,0-80.652,5.72-118.225,16.393  c-5.284,1.501-9.962,4.681-13.18,9.132c-25.76,35.643-41.32,79.744-41.32,122.523c-14.841,25.193-17.499,54.066-9.434,79.779  c7.773,24.784,30.202,41.884,56.144,43.203c0.213,0.011,0.428,0.021,0.642,0.032c18.855,0.914,36.947-7.559,48.535-22.459l0,0  c0.439-0.565,0.867-1.136,1.284-1.715c12.061-16.721,13.328-38.939,4.096-57.372l-4.358-8.7  c-4.471-8.926-11.326-16.363-19.597-21.953c-8.127-5.491-13.027-15.248-12.472-25.649c1.302-24.354,21.526-43.767,46.198-43.767  c16.479,0,30.967,8.663,39.16,21.673c4.849,7.699,13.427,12.244,22.526,12.244l0,0c9.138,0,17.693-4.62,22.585-12.34  c6.745-10.646,17.714-18.36,30.535-20.77C313.369,195.934,316.374,192.123,315.953,187.811z"/>
<path style="fill:#B8B7AC;" d="M315.953,187.811l-0.025-0.249c-2.181-22.528-8.452-45.045-18.022-66.148  c-3.816-8.417-12.039-13.986-21.27-14.431c-0.412-0.02-0.825-0.039-1.237-0.058c-10.56-0.48-19.4,7.922-19.4,18.492v104.427  c9.136-0.002,17.687-4.623,22.576-12.34c6.75-10.653,17.73-18.372,30.562-20.775C313.386,195.934,316.374,192.112,315.953,187.811z"/>
<g>
	<ellipse style="fill:#EBD37A;" cx="126.458" cy="285.362" rx="30.843" ry="18.506"/>
	
		<ellipse transform="matrix(-0.7071 -0.7071 0.7071 -0.7071 134.2207 379.5729)" style="fill:#EBD37A;" cx="145.722" cy="161.988" rx="18.506" ry="30.843"/>
</g>
<path style="fill:#9E7325;" d="M250.637,290.602v0.19l-0.123-0.123c-0.354,0.387-0.714,0.771-1.089,1.146  c-13.228,13.228-34.753,13.228-47.981,0c-3.614-3.614-9.473-3.614-13.086,0c-3.614,3.614-3.614,9.473,0,13.086  c18.396,18.395,47.167,20.228,67.643,5.518l12.337-18.073L256,286.196C254.142,287.534,252.344,288.993,250.637,290.602z"/>
<path style="fill:#7F8383;" d="M323.643,291.691c-18.399-18.399-47.168-20.214-67.643-5.494v24.222  c2.28-1.637,4.461-3.47,6.509-5.518c0.375-0.375,0.729-0.764,1.089-1.146l-0.162-0.162l0.286,0.095  c13.297-12.125,33.981-11.764,46.834,1.091c3.614,3.614,9.473,3.614,13.086,0C327.257,301.165,327.257,295.305,323.643,291.691z"/>
<path style="fill:#9E7325;" d="M212.819,251.435c-5.111,0-9.253-4.143-9.253-9.253c0-5.103-4.15-9.253-9.253-9.253  c-5.103,0-9.253,4.15-9.253,9.253c0,5.11-4.142,9.253-9.253,9.253s-9.253-4.143-9.253-9.253c0-15.307,12.453-27.759,27.759-27.759  s27.759,12.452,27.759,27.759C222.072,247.292,217.931,251.435,212.819,251.435z"/>
<path style="fill:#7F8383;" d="M336.193,251.435c-5.111,0-9.253-4.143-9.253-9.253c0-5.103-4.15-9.253-9.253-9.253  c-5.103,0-9.253,4.15-9.253,9.253c0,5.11-4.142,9.253-9.253,9.253c-5.111,0-9.253-4.143-9.253-9.253  c0-15.307,12.453-27.759,27.759-27.759c15.306,0,27.759,12.452,27.759,27.759C345.446,247.292,341.304,251.435,336.193,251.435z"/>
<g>
</g>
<g>
</g>
<g>
</g>
<g>
</g>
<g>
</g>
<g>
</g>
<g>
</g>
<g>
</g>
<g>
</g>
<g>
</g>
<g>
</g>
<g>
</g>
<g>
</g>
<g>
</g>
<g>
</g>
</svg>
