<?xml version="1.0" encoding="iso-8859-1"?>
<!-- Generator: Adobe Illustrator 19.0.0, SVG Export Plug-In . SVG Version: 6.00 Build 0)  -->
<svg xmlns="http://www.w3.org/2000/svg" xmlns:xlink="http://www.w3.org/1999/xlink" version="1.1" id="Layer_1" x="0px" y="0px" viewBox="0 0 512 512" style="enable-background:new 0 0 512 512;" xml:space="preserve">
<circle style="fill:#FEF9C1;" cx="256" cy="251.893" r="251.893"/>
<circle style="fill:#F6EEA4;" cx="256" cy="251.893" r="197.134"/>
<path style="fill:#47423F;" d="M256,512c-2.102,0-4.204-0.802-5.809-2.405L85.913,345.317c-3.208-3.209-3.208-8.409,0-11.617  c3.209-3.207,8.409-3.207,11.617,0l164.278,164.278c3.208,3.209,3.208,8.409,0,11.617C260.204,511.198,258.102,512,256,512z"/>
<path style="fill:#5B5751;" d="M344.962,61.813c-8.335-3.903-18.248-0.314-22.142,8.016l-0.709,1.517l-3.581,7.663l-1.764,3.778  c-0.59,1.252-1.339,2.405-1.995,3.602l-4.004,7.033l-4.464,6.448c-6.079,8.279-12.891,15.135-20.004,19.64  c-7.113,4.55-14.321,6.718-21.231,7.255c-3.425,0.355-6.927,0.078-10.29-0.327c-3.408-0.498-6.774-1.383-9.957-2.451  c-6.488-2.148-13.758-2.959-20.982-1.958c-25.206,3.49-42.787,26.757-39.268,51.967c0.412,2.954,1.119,5.791,2.045,8.514  c-2.723-0.927-5.56-1.633-8.514-2.045c-25.21-3.519-48.476,14.062-51.967,39.268c-1,7.224-0.188,14.494,1.958,20.982  c1.068,3.185,1.953,6.55,2.451,9.957c0.405,3.363,0.682,6.866,0.327,10.29c-0.537,6.911-2.704,14.118-7.255,21.231  c-4.505,7.112-11.361,13.924-19.64,20.004l-6.448,4.464l-7.033,4.004c-1.197,0.655-2.351,1.405-3.602,1.995l-3.778,1.764  l-7.663,3.581l-1.517,0.709c-8.33,3.893-11.919,13.807-8.016,22.142c2.968,6.338,9.456,9.931,16.037,9.581l9.93-0.557l5.018-0.306  c1.678-0.11,3.357-0.411,5.046-0.614l10.206-1.418c3.413-0.697,6.849-1.495,10.316-2.28c13.787-3.474,28.032-8.875,41.543-17.812  c13.484-8.848,25.943-21.461,35.047-36.631c4.66-7.538,8.254-15.695,11.198-24.093c2.845-8.42,4.793-17.095,6.02-25.961l1.148-8.288  c1.025-7.4,0.188-14.617-2.083-21.236c6.618,2.271,13.835,3.107,21.236,2.083l8.288-1.148c8.867-1.228,17.542-3.175,25.961-6.02  c8.397-2.944,16.555-6.538,24.093-11.198c15.169-9.104,27.784-21.563,36.631-35.047c8.937-13.51,14.338-27.755,17.812-41.543  c0.785-3.466,1.584-6.903,2.28-10.316l1.418-10.206c0.203-1.689,0.504-3.368,0.614-5.046l0.306-5.018l0.557-9.93  C354.894,71.268,351.301,64.781,344.962,61.813z"/>
<path style="fill:#47423F;" d="M353.681,92.797l0.306-5.018l0.557-9.93c0.361-6.785-3.47-13.47-10.178-16.302  c-8.319-3.512-17.928,0.542-21.751,8.723l-0.429,0.92c0.663,1.611,1.495,3.154,2.486,4.6c3.109,4.533,4.741,9.915,4.421,15.402l0,0  c-0.023,0.268-0.123,0.971-0.195,1.488c-0.092,0.657-0.183,1.314-0.265,1.974l-1.279,9.206c-0.48,2.297-1.018,4.667-1.586,7.163  l-0.361,1.591c-3.31,13.028-8.022,24.055-14.453,33.776c-7.124,10.858-17.319,20.603-28.709,27.438  c-0.046,0.027-0.09,0.058-0.136,0.087c-0.047,0.028-0.095,0.054-0.142,0.083c-5.354,3.311-11.62,6.208-19.149,8.856  c-6.579,2.213-13.762,3.868-21.355,4.917c-5.488,0.759-11.058,0.759-16.546,0.004l-16.836-2.314  c-10.779-1.482-19.994,7.734-18.512,18.512l2.314,16.83c0.755,5.489,0.755,11.059-0.003,16.547  c-1.049,7.593-2.703,14.778-4.917,21.358c-2.647,7.53-5.545,13.797-8.856,19.152l-0.169,0.277  c-6.835,11.389-16.58,21.585-27.514,28.76c-9.645,6.381-20.669,11.092-33.698,14.402l-1.592,0.361  c-2.495,0.567-4.865,1.106-7.163,1.586l-9.212,1.28c-0.657,0.081-1.313,0.172-1.968,0.264c-0.521,0.072-1.232,0.173-1.477,0.194l0,0  c-5.493,0.321-10.881-1.313-15.42-4.423c-1.445-0.989-2.985-1.819-4.595-2.482l-0.917,0.428  c-8.181,3.823-12.235,13.432-8.723,21.753c2.832,6.708,9.517,10.539,16.302,10.178l9.93-0.557l5.018-0.306  c1.678-0.109,3.357-0.411,5.046-0.614l10.206-1.418c3.413-0.697,6.849-1.495,10.316-2.28c13.787-3.474,28.032-8.875,41.543-17.812  c13.484-8.848,25.943-21.461,35.047-36.631c4.66-7.538,8.254-15.695,11.198-24.093c2.845-8.42,4.793-17.095,6.02-25.961l1.148-8.288  c0.61-4.406,0.561-8.748-0.059-12.936c-0.546-3.695,2.579-6.822,6.275-6.275c4.189,0.62,8.53,0.669,12.936,0.059l8.288-1.148  c8.867-1.228,17.542-3.175,25.961-6.02c8.397-2.944,16.555-6.538,24.093-11.198c15.169-9.104,27.784-21.563,36.632-35.047  c8.937-13.51,14.338-27.755,17.812-41.543c0.784-3.466,1.584-6.903,2.28-10.316l1.418-10.206  C353.269,96.154,353.57,94.476,353.681,92.797z"/>
<g>
</g>
<g>
</g>
<g>
</g>
<g>
</g>
<g>
</g>
<g>
</g>
<g>
</g>
<g>
</g>
<g>
</g>
<g>
</g>
<g>
</g>
<g>
</g>
<g>
</g>
<g>
</g>
<g>
</g>
</svg>
