<?xml version="1.0" encoding="iso-8859-1"?>
<!-- Generator: Adobe Illustrator 19.0.0, SVG Export Plug-In . SVG Version: 6.00 Build 0)  -->
<svg xmlns="http://www.w3.org/2000/svg" xmlns:xlink="http://www.w3.org/1999/xlink" version="1.1" id="Layer_1" x="0px" y="0px" viewBox="0 0 512 512" style="enable-background:new 0 0 512 512;" xml:space="preserve">
<circle style="fill:#C6DCD1;" cx="256" cy="267.868" r="244.132"/>
<path style="fill:#B69362;" d="M201.854,427.232c-2.425,0-4.858-0.861-6.802-2.612c-42.574-38.315-78.655-82.897-107.241-132.503  C59.471,242.935,39.09,189.858,27.234,134.36c-1.173-5.494,2.329-10.899,7.823-12.072c5.497-1.169,10.899,2.33,12.072,7.824  C70.314,238.645,126.17,335.256,208.661,409.5c4.176,3.758,4.515,10.19,0.757,14.366  C207.41,426.097,204.637,427.232,201.854,427.232z"/>
<path style="fill:#ADA999;" d="M201.857,376.371c-22.471,0-40.689,18.218-40.689,40.689c0,22.471,18.218,40.689,40.689,40.689  h81.377v-81.377H201.857z"/>
<path style="fill:#AB5034;" d="M283.234,376.371c-22.471,0-40.689,18.218-40.689,40.689c0,22.471,18.218,40.689,40.689,40.689  h81.378v-81.377H283.234z"/>
<path style="fill:#ADA999;" d="M364.612,376.371c-22.471,0-40.689,18.218-40.689,40.689c0,22.471,18.218,40.689,40.689,40.689  h81.377v-81.377H364.612z"/>
<path style="opacity:0.2;fill:#47423F;enable-background:new    ;" d="M161.168,417.06c0,22.471,18.218,40.689,40.689,40.689h81.377  h81.378h81.377V417.06H161.168z"/>
<path style="opacity:0.1;fill:#FEFBE1;enable-background:new    ;" d="M445.989,396.715H166.626  c-3.464,5.987-5.458,12.931-5.458,20.344h284.821V396.715z"/>
<circle style="fill:#848075;" cx="445.989" cy="417.06" r="40.689"/>
<path style="fill:#B69362;" d="M445.987,427.232c-2.425,0-4.858-0.861-6.802-2.612C321.809,318.982,256.317,167.846,259.502,9.966  C259.613,4.42,264.145,0,269.667,0c0.069,0,0.14,0,0.209,0.003c5.616,0.113,10.079,4.758,9.965,10.374  c-3.065,151.966,59.974,297.44,172.953,399.121c4.176,3.758,4.515,10.19,0.757,14.366  C451.542,426.097,448.77,427.232,445.987,427.232z"/>
<g>
</g>
<g>
</g>
<g>
</g>
<g>
</g>
<g>
</g>
<g>
</g>
<g>
</g>
<g>
</g>
<g>
</g>
<g>
</g>
<g>
</g>
<g>
</g>
<g>
</g>
<g>
</g>
<g>
</g>
</svg>
