<?xml version="1.0" encoding="iso-8859-1"?>
<!-- Generator: Adobe Illustrator 19.0.0, SVG Export Plug-In . SVG Version: 6.00 Build 0)  -->
<svg xmlns="http://www.w3.org/2000/svg" xmlns:xlink="http://www.w3.org/1999/xlink" version="1.1" id="Layer_1" x="0px" y="0px" viewBox="0 0 512 512" style="enable-background:new 0 0 512 512;" xml:space="preserve">
<path style="fill:#B69362;" d="M252.407,471.663l-37.363-177.476h-38.07c-13.576,0-27.153,8.013-31.719,24.04l-43.716,153.436  c-4.646,16.307,7.529,32.549,24.398,32.549h51.035h38.07h12.964C244.878,504.211,257.053,487.968,252.407,471.663z"/>
<path style="fill:#A57D48;" d="M100.551,479.328c0.312,13.37,11.185,24.882,25.386,24.882h51.035h38.07h12.964  c14.201,0,25.074-11.512,25.386-24.882H100.551z"/>
<path style="fill:#8D663D;" d="M183.325,318.226l-43.714,153.436c-4.646,16.307,7.529,32.549,24.398,32.549h102.069  c16.869,0,29.044-16.242,24.398-32.549l-43.714-153.436C237.63,286.173,192.457,286.173,183.325,318.226z"/>
<path style="fill:#7F8383;" d="M363.53,247.187L168.386,106.458l-95.188,95.188L220.358,390.36c2.287,2.84,4.749,5.585,7.386,8.222  c39.767,39.767,104.242,39.767,144.009,0s39.767-104.242,0-144.009C369.115,251.936,366.37,249.475,363.53,247.187z"/>
<path style="fill:#91928F;" d="M363.53,247.187L168.386,106.458l0,0c-19.079,19.079-20.712,49.47-3.787,70.484l106.173,137.824  c2.287,2.84,4.749,5.585,7.387,8.221c33.226,33.226,83.693,38.669,122.593,16.372c3.792-30.138-5.855-61.645-28.997-84.786  C369.115,251.936,366.37,249.475,363.53,247.187z"/>
<path style="fill:#7F8383;" d="M117.201,150.461c-19.779,19.779-40.256,27.268-50.912,25.856l-9.664-1.279l-1.283-9.664  c-1.414-10.655,6.074-31.133,25.856-50.915s40.26-27.27,50.915-25.856l9.664,1.283l1.279,9.664  C144.468,110.207,136.98,130.683,117.201,150.461z"/>
<path style="fill:#91928F;" d="M64.471,97.731c-32.285,32.285-42.34,74.578-22.456,94.461s62.175,9.829,94.461-22.456  s42.34-74.578,22.456-94.461S96.756,65.446,64.471,97.731z M109.473,142.734c-18.034,18.034-34.928,22.942-40.239,22.238  c-0.705-5.313,4.204-22.205,22.238-40.239s34.928-22.944,40.239-22.238C132.415,107.806,127.507,124.7,109.473,142.734z"/>
<path style="fill:#B69362;" d="M472.932,471.663L435.57,294.187h-38.07c-13.576,0-27.153,8.013-31.719,24.04l-43.714,153.436  c-4.646,16.307,7.529,32.549,24.398,32.549h51.035h38.07h12.964C465.403,504.211,477.578,487.968,472.932,471.663z"/>
<path style="fill:#A57D48;" d="M321.077,479.328c0.312,13.37,11.185,24.882,25.386,24.882h51.035h38.07h12.964  c14.201,0,25.074-11.512,25.386-24.882H321.077z"/>
<path style="fill:#8D663D;" d="M403.851,318.226l-43.714,153.436c-4.646,16.307,7.529,32.549,24.398,32.549h102.069  c16.869,0,29.044-16.242,24.398-32.549l-43.714-153.436C458.156,286.173,412.982,286.173,403.851,318.226z"/>
<ellipse style="fill:#7A5436;" cx="435.565" cy="345.102" rx="9.547" ry="19.093"/>
<path style="fill:#8D472E;" d="M6.35,71.432c0,35.149,28.495,63.644,63.644,63.644V33.246L6.35,71.432z"/>
<path style="fill:#D5A150;" d="M126,103.254c0,31.635-25.645,57.279-57.279,57.279s-57.279-25.645-57.279-57.279  s25.645-70.008,57.279-70.008S126,71.621,126,103.254z"/>
<path style="fill:#E1B872;" d="M68.721,109.685c-0.015-10.571-8.522-19.158-19.093-19.158H24.276  c-6.998,0-12.819,5.606-12.834,12.604c0,0.042,0,0.083,0,0.125c0,31.635,25.645,57.279,57.279,57.279c0.112,0,0.225,0,0.337-0.001  c11.472-0.066,17.51-13.63,10.108-22.395C72.664,130.439,68.736,120.512,68.721,109.685z"/>
<g>
	<circle style="fill:#47423F;" cx="60.448" cy="94.562" r="9.547"/>
	<circle style="fill:#47423F;" cx="31.171" cy="94.562" r="9.547"/>
</g>
<path style="fill:#BD7155;" d="M107.923,12.885L81.449,7.789H68.721c-33.867,0-62.106,24.054-68.591,56.007  c-0.801,3.945,2.22,7.637,6.245,7.637h12.729h17.796h12.729c21.09,0,38.186,17.097,38.186,38.186  c0,22.291,26.906,33.671,42.783,18.024c12.878-12.692,20.861-30.335,20.861-49.846C151.458,48.504,133.467,23.246,107.923,12.885z"/>
<path style="fill:#E7E4CD;" d="M43.383,63.796c6.471-31.879,30.795-50.823,64.54-50.911c-6.298-2.555-13.047-4.217-20.109-4.795  c-1.587-0.13-4.086-0.3-6.364-0.3c-33.867,0-62.106,24.054-68.591,56.007c-0.801,3.945,2.22,7.637,6.245,7.637h30.525  C45.603,71.432,42.582,67.741,43.383,63.796z"/>
<path style="opacity:0.2;fill:#493023;enable-background:new    ;" d="M137.494,35.77c-5.762,1.497-9.903,6.616-9.903,12.892  c0,6.972-1.353,13.82-3.867,20.215c-4.013,10.207-17.666,12.094-24.238,3.312C88.114,56.997,70.181,47.566,50.73,47.566H16.731  c-3.456,0-6.74-1.51-8.992-4.132c-3.514,6.228-6.115,13.042-7.591,20.267c-0.815,3.984,2.159,7.733,6.226,7.733h12.729h17.796  h12.729c21.076,0,38.212,17.076,38.186,38.153c-0.027,22.313,26.898,33.712,42.783,18.058  c12.878-12.692,20.861-30.335,20.861-49.846C151.458,62.06,146.259,47.493,137.494,35.77z"/>
<g>
</g>
<g>
</g>
<g>
</g>
<g>
</g>
<g>
</g>
<g>
</g>
<g>
</g>
<g>
</g>
<g>
</g>
<g>
</g>
<g>
</g>
<g>
</g>
<g>
</g>
<g>
</g>
<g>
</g>
</svg>
