<?xml version="1.0" encoding="iso-8859-1"?>
<!-- Generator: Adobe Illustrator 19.0.0, SVG Export Plug-In . SVG Version: 6.00 Build 0)  -->
<svg xmlns="http://www.w3.org/2000/svg" xmlns:xlink="http://www.w3.org/1999/xlink" version="1.1" id="Layer_1" x="0px" y="0px" viewBox="0 0 512 512" style="enable-background:new 0 0 512 512;" xml:space="preserve">
<g>
	<polygon style="fill:#91928F;" points="398.884,336.372 277.56,336.372 363.349,250.584 350.719,237.954 256,332.673    161.281,237.954 148.651,250.584 234.44,336.372 113.116,336.372 113.116,354.233 234.44,354.233 148.651,440.021 161.281,452.651    256,357.932 350.719,452.651 363.349,440.021 277.56,354.233 398.884,354.233  "/>
	<path style="fill:#91928F;" d="M256,503.07c-86.994,0-157.767-70.774-157.767-157.767S169.006,187.535,256,187.535   s157.767,70.774,157.767,157.767S342.994,503.07,256,503.07z M256,241.116c-57.449,0-104.186,46.737-104.186,104.186   S198.551,449.488,256,449.488s104.186-46.737,104.186-104.186S313.449,241.116,256,241.116z"/>
</g>
<g>
	<path style="opacity:0.4;fill:#47423F;enable-background:new    ;" d="M136.952,343.041   c1.181-63.661,53.128-115.608,116.79-116.787c29.651-0.55,56.887,9.742,78.009,27.176c4.996,4.123,12.283,3.841,16.864-0.739   l18.894-18.894c-29.342-29.342-70.156-47.214-115.052-46.223c-84.02,1.854-152.329,70.163-154.183,154.181   c-0.991,44.896,16.879,85.711,46.222,115.054l18.894-18.894c4.581-4.581,4.863-11.868,0.739-16.864   C146.693,399.929,136.402,372.693,136.952,343.041z"/>
	<path style="fill:#47423F;" d="M256,512c-91.917,0-166.698-74.781-166.698-166.698S164.083,178.605,256,178.605   s166.698,74.781,166.698,166.698S347.917,512,256,512z M256,214.326c-72.221,0-130.977,58.756-130.977,130.977   S183.779,476.279,256,476.279s130.977-58.756,130.977-130.977S328.221,214.326,256,214.326z"/>
</g>
<path style="fill:#5B5751;" d="M105.68,343.991c0.695-81.618,67.397-148.316,149.015-149.009  c36.441-0.31,69.919,12.349,96.094,33.64c6.85,5.571,16.786,5.107,23.029-1.137l0,0c-31.003-31.003-74.128-49.885-121.567-48.838  c-88.774,1.96-160.949,74.136-162.908,162.91c-1.047,47.437,17.835,90.561,48.839,121.564l0,0  c6.244-6.244,6.708-16.179,1.137-23.029C118.028,413.914,105.37,380.435,105.68,343.991z"/>
<rect x="238.14" y="23.814" style="fill:#6F7475;" width="35.721" height="95.256"/>
<path style="fill:#91928F;" d="M238.14,46.095v72.974H256V53.474C250.197,50.655,244.237,48.193,238.14,46.095z"/>
<path style="fill:#7F8383;" d="M247.07,49.47c-2.942-1.212-5.919-2.339-8.93-3.374v72.974h8.93V49.47z"/>
<path style="fill:#5D7A9A;" d="M273.86,107.163H238.14c-4.932,0-8.93,3.998-8.93,8.93v50.605h53.581v-50.605  C282.791,111.161,278.792,107.163,273.86,107.163z"/>
<path style="fill:#668BB7;" d="M238.14,107.163c-4.932,0-8.93,3.998-8.93,8.93v50.605H256v-59.535H238.14z"/>
<rect x="244.093" y="107.163" style="opacity:0.5;fill:#A0B7CB;enable-background:new    ;" width="11.907" height="59.535"/>
<path style="fill:#5D7A9A;" d="M256,151.814c-5.371,0-10.691,0.225-15.952,0.661c-6.142,0.508-10.839,5.701-10.839,11.863v177.345  c0,14.527,11.296,26.899,25.813,27.416c15.241,0.542,27.768-11.653,27.768-26.773V164.338c0-6.163-4.697-11.354-10.839-11.863  C266.691,152.039,261.371,151.814,256,151.814z"/>
<path style="fill:#668BB7;" d="M256,318.512h0.094c4.86,0,8.836-3.977,8.836-8.836V178.605c0-6.181-4.726-11.359-10.887-11.868  c-2.314-0.191-4.639-0.335-6.974-0.443c-2.335,0.108-4.662,0.251-6.975,0.443c-6.159,0.508-10.885,5.687-10.885,11.868v148.837h0.14  c3.908,0,7.643-1.384,10.785-3.705C244.578,320.455,250.064,318.512,256,318.512z"/>
<path style="fill:#91928F;" d="M264.93,464.372h-17.86v-119.07c0-4.932,3.998-8.93,8.93-8.93l0,0c4.932,0,8.93,3.998,8.93,8.93  V464.372z"/>
<path style="fill:#8D663D;" d="M315.535,0h-83.349h-42.659h-4.969c-6.576,0-11.907,5.331-11.907,11.907l0,0  c0,6.576,5.331,11.907,11.907,11.907l0,0c37.127,0,73.44,11.476,103.487,33.285c4.203,3.051,8.33,6.213,12.376,9.486  c15.636,12.649,38.927,1.73,38.927-18.382V23.814C339.349,10.662,328.687,0,315.535,0z"/>
<path style="fill:#A57D48;" d="M315.535,0h-83.349h-42.659h-4.969c-0.304,0-0.605,0.012-0.903,0.033  c-6.548,0.491-5.983,10.385,0.582,10.385h0.32c40.544,0,79.052,12.393,111.355,35.84c1.961,1.423,3.917,2.878,5.858,4.358  c4.441,3.385,10.403,4.003,15.465,1.646l0,0c5.316-2.477,8.716-7.81,8.716-13.674V10.622c0-5.744-4.563-10.595-10.307-10.622  C315.61,0,315.572,0,315.535,0z"/>
<g>
</g>
<g>
</g>
<g>
</g>
<g>
</g>
<g>
</g>
<g>
</g>
<g>
</g>
<g>
</g>
<g>
</g>
<g>
</g>
<g>
</g>
<g>
</g>
<g>
</g>
<g>
</g>
<g>
</g>
</svg>
