<?xml version="1.0" encoding="iso-8859-1"?>
<!-- Generator: Adobe Illustrator 19.0.0, SVG Export Plug-In . SVG Version: 6.00 Build 0)  -->
<svg xmlns="http://www.w3.org/2000/svg" xmlns:xlink="http://www.w3.org/1999/xlink" version="1.1" id="Layer_1" x="0px" y="0px" viewBox="0 0 512 512" style="enable-background:new 0 0 512 512;" xml:space="preserve">
<path style="opacity:0.5;fill:#FEFBE1;enable-background:new    ;" d="M256,512c-68.381,0-132.668-26.629-181.019-74.981  C26.629,388.668,0,324.381,0,256S26.629,123.332,74.981,74.981S187.619,0,256,0s132.668,26.629,181.019,74.981  C485.371,123.332,512,187.619,512,256s-26.629,132.668-74.981,181.019C388.668,485.371,324.381,512,256,512z"/>
<circle style="fill:#F3E29A;" cx="256" cy="256" r="241.116"/>
<circle style="fill:#FEF9C1;" cx="256" cy="256" r="178.605"/>
<circle style="opacity:0.5;fill:#FEFBE1;enable-background:new    ;" cx="256" cy="256" r="89.302"/>
<path style="fill:#D5A150;" d="M247.951,379.38c-0.619-11.883-2.739-24.385-7.12-36.971c-1.834-5.251-4.06-10.502-6.727-15.741  h-0.012c-2.453-4.81-5.287-9.609-8.549-14.348c-1.179-1.703-2.405-3.405-3.691-5.096c-11.228-14.777-19.658-35.638-25.124-54.582  c-3.989-13.824-19.754-20.301-32.292-13.241c-0.048,0.036-0.191,0.107-0.226,0.131c-1.619-9.466-2.87-19.813-3.465-30.863  c-0.536-9.847-10.478-18.658-20.349-18.134c-4.56,0.25-8.633,2.191-11.645,5.18c-1.988-10.026-11.014-17.444-21.552-17.098  c-7.37,0.226-13.753,4.179-17.408,9.99c-2.167,3.465-3.382,7.585-3.239,11.978v3.239v0.012c-2.762-1.048-5.787-1.548-8.93-1.381  c-6.727,0.357-12.586,3.703-16.36,8.68c-3.024,3.989-4.703,9.037-4.417,14.431c1.584,29.767,6.62,54.415,12.371,73.692  c-3.191,1.393-5.894,3.536-7.942,6.156h-0.012c-3.691,4.703-5.311,10.943-3.917,17.206l13.991,63.012  c3.536,15.896,12.395,30.113,25.112,40.281l21.742,17.42c4.06,3.255,8.341,6.186,12.813,8.772c3.672,2.123,5.928,6.045,5.928,10.286  v9.236c0,6.888,3.945,13.195,10.178,16.13c20.122,9.473,41.679,16.4,64.255,20.366c10.881,1.911,20.823-6.568,20.823-17.615V461.1  c0-1.696,0.356-3.37,1.061-4.912C237.081,447.792,249.899,416.647,247.951,379.38z"/>
<g>
	<path style="opacity:0.6;fill:#ECCE93;enable-background:new    ;" d="M196.727,252.642c5.465,18.944,13.895,39.805,25.124,54.582   c1.286,1.691,2.512,3.394,3.691,5.096c-11.419-6.406-23.433-9.109-23.433-9.109s0,0-0.012-0.012   c-7.751-13.395-13.336-28.029-17.206-40.305c-0.25-0.798-1.072-3.977-2.024-7.692c-2.215-8.692-9.728-14.991-18.658-15.67   c0.036-0.024,0.179-0.095,0.226-0.131C176.973,232.341,192.738,238.818,196.727,252.642z"/>
	<path style="opacity:0.6;fill:#ECCE93;enable-background:new    ;" d="M164.209,239.533c6.215,36.471,17.801,59.809,17.944,60.035   c-6.108-0.524-11.847-0.691-17.206-0.583c-5.965-14.372-15.979-44.032-19.099-81.289c-0.024-0.25-0.036-0.607-0.06-1.06   c-0.512-9.942-7.406-18.408-17.039-20.921c3.012-2.989,7.085-4.929,11.645-5.18c9.871-0.524,19.813,8.287,20.349,18.134   C161.34,219.719,162.59,230.067,164.209,239.533z"/>
	<path style="opacity:0.6;fill:#ECCE93;enable-background:new    ;" d="M129.167,199.263c1.405,45.223,11.847,80.432,19.742,100.935   c-5.62,0.762-10.692,1.81-15.205,3.012c0,0-0.298-0.738-0.393-0.988c-6.573-15.896-15.134-42.544-17.122-79.812   c-0.845-16.086-11.812-29.291-26.398-33.804c3.655-5.811,10.038-9.764,17.408-9.99c10.538-0.345,19.563,7.073,21.552,17.098   C128.988,196.87,129.131,198.049,129.167,199.263z"/>
	<path style="opacity:0.6;fill:#ECCE93;enable-background:new    ;" d="M100.733,223.232c2.119,39.817,11.3,68.453,18.325,85.028   c-8.704,3.786-13.05,7.275-13.05,7.275c-3.001-7.763-9.168-13.622-16.61-16.408C81.98,282.195,76.49,250.618,74.728,229.9   c-0.083-0.905-0.191-2.239-0.31-3.751c-0.572-7.37-5.93-13.479-13.157-15.015c3.775-4.977,9.633-8.323,16.36-8.68   c3.143-0.167,6.168,0.333,8.93,1.381C94.47,206.824,100.257,214.242,100.733,223.232z"/>
	<path style="opacity:0.9;fill:#ECCE93;enable-background:new    ;" d="M69.215,299.258c1.024-0.441,2.108-0.81,3.239-1.095   c2.322-0.583,4.656-0.857,6.954-0.857c3.465,0,6.835,0.631,9.99,1.822c7.442,2.786,13.61,8.644,16.61,16.408   c0.488,1.238,0.893,2.524,1.203,3.858l3.477,14.908l3.189,13.663c2.112,9.052-8.057,16.247-15.674,10.921   c-4.641-3.245-8.149-8.147-9.542-14.094l-4.275-18.289c-2.751-11.05-11.859-19.361-23.111-21.087   C63.321,302.794,66.024,300.651,69.215,299.258z"/>
	<path style="opacity:0.6;fill:#ECCE93;enable-background:new    ;" d="M119.058,308.26c3.965-1.727,8.847-3.513,14.646-5.049   c4.513-1.203,9.585-2.25,15.205-3.012c4.918-0.667,10.264-1.107,16.039-1.215c5.358-0.107,11.097,0.06,17.206,0.583   c0.095,0.012,0.179,0.012,0.274,0.024c1.905,0.167,3.858,0.333,5.834,0.607c9.109,1.274,13.562,2.905,13.836,3.001   c0.012,0.012,0.012,0.012,0.012,0.012s12.014,2.703,23.433,9.109c3.263,4.739,6.096,9.538,8.549,14.348   c-48.092,32.97-123.404,7.632-123.404,7.632l-3.477-14.908c-0.31-1.334-0.714-2.62-1.203-3.858   C106.008,315.535,110.354,312.046,119.058,308.26z"/>
	<path style="opacity:0.6;fill:#ECCE93;enable-background:new    ;" d="M245.202,358.137c-1.779-8.434-11.753-12.172-18.689-7.055   c-4.937,3.642-10.165,8.262-15.037,14.032c-9.137,10.82-24.538,13.437-36.889,6.51c-0.452-0.254-0.899-0.494-1.34-0.722   c-13.881-7.151-29.238-8.986-40.347-9.173c-8.438-0.143-14.384,8.249-11.364,16.13c7.324,19.112,26.36,48.786,73.334,44.042   c34.828-3.513,48.354-23.231,53.081-42.52C247.591,372.473,246.724,365.357,245.202,358.137z"/>
</g>
<path style="fill:#D5A150;" d="M254.524,309.129c0.619-11.883,2.739-24.385,7.12-36.971c1.834-5.251,4.06-10.502,6.727-15.741h0.012  c2.453-4.81,5.287-9.609,8.549-14.348c1.179-1.703,2.405-3.405,3.691-5.096c11.228-14.777,19.658-35.638,25.124-54.582  c3.989-13.824,19.754-20.301,32.292-13.241c0.048,0.036,0.191,0.107,0.226,0.131c1.619-9.466,2.87-19.813,3.465-30.863  c0.536-9.847,10.478-18.658,20.349-18.134c4.56,0.25,8.633,2.191,11.645,5.18c1.988-10.026,11.014-17.444,21.552-17.098  c7.37,0.226,13.753,4.179,17.408,9.99c2.167,3.465,3.382,7.585,3.239,11.978v3.239v0.012c2.762-1.048,5.787-1.548,8.93-1.381  c6.727,0.357,12.586,3.703,16.36,8.68c3.024,3.989,4.703,9.037,4.417,14.431c-1.584,29.767-6.62,54.415-12.371,73.692  c3.191,1.393,5.894,3.536,7.942,6.156h0.012c3.691,4.703,5.31,10.943,3.917,17.206L431.14,315.38  c-3.536,15.896-12.395,30.113-25.112,40.281l-21.742,17.42c-4.06,3.255-8.341,6.186-12.813,8.772  c-3.672,2.123-5.928,6.045-5.928,10.286v79.487c0,6.888-3.945,13.195-10.178,16.13c-20.122,9.473-41.679,16.399-64.255,20.366  c-10.881,1.911-20.823-6.568-20.823-17.615v-99.659c0-1.696-0.356-3.37-1.061-4.912  C265.393,377.539,252.576,346.394,254.524,309.129z"/>
<g>
	<path style="opacity:0.6;fill:#ECCE93;enable-background:new    ;" d="M305.747,182.391c-5.465,18.944-13.895,39.805-25.124,54.582   c-1.286,1.691-2.512,3.393-3.691,5.096c11.419-6.406,23.433-9.109,23.433-9.109s0,0,0.012-0.012   c7.751-13.395,13.336-28.029,17.206-40.305c0.25-0.798,1.072-3.977,2.024-7.692c2.215-8.692,9.728-14.991,18.658-15.67   c-0.036-0.024-0.179-0.095-0.226-0.131C325.501,162.09,309.736,168.567,305.747,182.391z"/>
	<path style="opacity:0.6;fill:#ECCE93;enable-background:new    ;" d="M338.265,169.281c-6.215,36.471-17.801,59.809-17.944,60.035   c6.108-0.524,11.847-0.691,17.206-0.583c5.965-14.372,15.979-44.032,19.099-81.289c0.024-0.25,0.036-0.607,0.06-1.06   c0.512-9.942,7.406-18.408,17.039-20.921c-3.012-2.989-7.085-4.929-11.645-5.18c-9.871-0.524-19.813,8.287-20.349,18.134   C341.135,149.468,339.885,159.815,338.265,169.281z"/>
	<path style="opacity:0.6;fill:#ECCE93;enable-background:new    ;" d="M373.308,129.012   c-1.405,45.223-11.847,80.432-19.742,100.935c5.62,0.762,10.692,1.81,15.205,3.012c0,0,0.298-0.738,0.393-0.988   c6.573-15.896,15.134-42.544,17.122-79.812c0.845-16.086,11.812-29.291,26.398-33.804c-3.655-5.811-10.038-9.764-17.408-9.99   c-10.538-0.345-19.563,7.073-21.552,17.098C373.486,126.619,373.343,127.798,373.308,129.012z"/>
	<path style="opacity:0.6;fill:#ECCE93;enable-background:new    ;" d="M401.741,152.981c-2.119,39.817-11.3,68.453-18.325,85.028   c8.704,3.786,13.05,7.275,13.05,7.275c3.001-7.763,9.168-13.622,16.61-16.408c7.418-16.932,12.907-48.509,14.669-69.227   c0.083-0.905,0.191-2.239,0.31-3.751c0.572-7.37,5.93-13.479,13.157-15.015c-3.775-4.977-9.633-8.323-16.36-8.68   c-3.143-0.167-6.168,0.333-8.93,1.381C408.004,136.573,402.218,143.991,401.741,152.981z"/>
	<path style="opacity:0.9;fill:#ECCE93;enable-background:new    ;" d="M433.259,229.007c-1.024-0.441-2.108-0.81-3.239-1.095   c-2.322-0.583-4.656-0.857-6.954-0.857c-3.465,0-6.835,0.631-9.99,1.822c-7.442,2.786-13.61,8.644-16.61,16.408   c-0.488,1.238-0.893,2.524-1.203,3.858l-3.477,14.908l-3.189,13.663c-2.112,9.052,8.057,16.247,15.674,10.921   c4.641-3.245,8.149-8.147,9.542-14.094l4.275-18.289c2.751-11.05,11.859-19.361,23.111-21.087   C439.153,232.543,436.45,230.4,433.259,229.007z"/>
	<path style="opacity:0.6;fill:#ECCE93;enable-background:new    ;" d="M383.417,238.009c-3.965-1.727-8.847-3.513-14.646-5.049   c-4.513-1.203-9.585-2.25-15.205-3.012c-4.918-0.667-10.264-1.107-16.039-1.215c-5.358-0.107-11.097,0.06-17.206,0.583   c-0.095,0.012-0.179,0.012-0.274,0.024c-1.905,0.167-3.858,0.333-5.834,0.607c-9.109,1.274-13.562,2.905-13.836,3.001   c-0.012,0.012-0.012,0.012-0.012,0.012s-12.014,2.703-23.433,9.109c-3.263,4.739-6.096,9.537-8.549,14.348   c48.092,32.97,123.404,7.632,123.404,7.632l3.477-14.908c0.31-1.334,0.714-2.62,1.203-3.858   C396.467,245.284,392.121,241.795,383.417,238.009z"/>
	<path style="opacity:0.6;fill:#ECCE93;enable-background:new    ;" d="M257.273,287.886c1.779-8.434,11.753-12.173,18.689-7.055   c4.937,3.642,10.165,8.262,15.037,14.032c9.137,10.82,24.538,13.437,36.889,6.51c0.452-0.254,0.899-0.494,1.34-0.722   c13.881-7.151,29.238-8.986,40.347-9.173c8.438-0.143,14.384,8.249,11.364,16.13c-7.324,19.112-26.36,48.786-73.334,44.042   c-34.828-3.513-48.354-23.231-53.081-42.52C254.883,302.222,255.75,295.106,257.273,287.886z"/>
</g>
<circle style="fill:#AB5034;" cx="203.609" cy="144.074" r="47.628"/>
<path style="fill:#BD7155;" d="M203.611,96.447c-26.182-0.001-47.633,21.452-47.629,47.634c0,0.212,0.001,0.424,0.005,0.636  c0.254,19.135,15.941,34.822,35.076,35.074c0.213,0.002,0.426,0.005,0.639,0.005c26.181,0.001,47.63-21.449,47.629-47.629  c0-0.213-0.001-0.426-0.005-0.639c-0.254-19.136-15.942-34.823-35.078-35.076C204.037,96.448,203.824,96.447,203.611,96.447z"/>
<circle style="fill:#CE9276;" cx="191.702" cy="132.167" r="23.814"/>
<circle style="fill:#668BB7;" cx="298.865" cy="48.819" r="47.628"/>
<path style="fill:#83A1C1;" d="M298.866,1.191c-26.181-0.001-47.633,21.452-47.629,47.634c0,0.212,0.001,0.424,0.005,0.636  c0.254,19.135,15.941,34.822,35.076,35.074c0.213,0.002,0.426,0.005,0.639,0.005c26.181,0.001,47.63-21.449,47.629-47.629  c0-0.213-0.001-0.426-0.005-0.639c-0.254-19.136-15.942-34.823-35.078-35.076C299.293,1.192,299.079,1.191,298.866,1.191z"/>
<circle style="fill:#A0B7CB;" cx="286.958" cy="36.912" r="23.814"/>
<g>
</g>
<g>
</g>
<g>
</g>
<g>
</g>
<g>
</g>
<g>
</g>
<g>
</g>
<g>
</g>
<g>
</g>
<g>
</g>
<g>
</g>
<g>
</g>
<g>
</g>
<g>
</g>
<g>
</g>
</svg>
