<?xml version="1.0" encoding="iso-8859-1"?>
<!-- Generator: Adobe Illustrator 19.0.0, SVG Export Plug-In . SVG Version: 6.00 Build 0)  -->
<svg xmlns="http://www.w3.org/2000/svg" xmlns:xlink="http://www.w3.org/1999/xlink" version="1.1" id="Layer_1" x="0px" y="0px" viewBox="0 0 512 512" style="enable-background:new 0 0 512 512;" xml:space="preserve">
<path style="fill:#E5A430;" d="M97.226,365.105c-4.131,0-8.133-1.542-11.273-4.342C31.44,312.119,0,242.381,0,169.393  c0-1.933,0-3.783,0-5.643c0-63.74,51.952-115.597,115.81-115.597c0.924,0,1.863,0.011,2.793,0.033  c62.963,1.484,113.659,53.868,113.009,116.776c-0.489,47.545-29.573,89.205-73.281,106.339l0,0l-8.627,3.013  c-28.773,8.778-45.093,39.169-36.564,67.908c1.9,5.038,1.32,10.62-1.613,15.115C108.399,362.129,102.921,365.105,97.226,365.105  C97.228,365.105,97.228,365.105,97.226,365.105z"/>
<path style="fill:#E7D96B;" d="M117.883,78.654c-0.69-0.017-1.387-0.026-2.074-0.026c-47.054,0-85.333,38.281-85.333,85.333  c0,1.459,0.038,2.953,0.113,4.437l0.023,0.466v0.467c-0.021,29.225,5.619,57.865,16.261,84.45  c9.64,24.081,40.831,30.334,59.401,12.223c2.682-2.615,5.548-5.064,8.585-7.324c5.644-4.201,11.893-7.522,18.431-10.122l4.914-1.954  c1.729-0.688,3.49-1.29,5.25-1.891c34.249-11.682,57.311-43.426,57.687-79.851C201.617,118.422,164.269,79.748,117.883,78.654z"/>
<g>
	<path style="fill:#E5A430;" d="M182.857,404.715c-10.764,0.705-21.793-0.313-32.474-3.132   c-10.684-2.809-21.009-7.403-30.419-13.584l-0.235-0.155c-6.2-4.073-7.925-12.401-3.852-18.601s12.401-7.925,18.601-3.852   c0.536,0.352,1.096,0.789,1.564,1.201c6.273,5.594,13.535,10.235,21.461,13.618c7.923,3.389,16.507,5.508,25.354,6.221l0.138,0.011   c5.043,0.406,8.803,4.825,8.397,9.868C191.021,400.901,187.324,404.428,182.857,404.715z"/>
	<circle style="fill:#E5A430;" cx="216.381" cy="398.629" r="9.143"/>
</g>
<path style="fill:#706B63;" d="M100.005,217.1l-36.96-36.944c-8.825-8.823-14.282-21.014-14.282-34.48  c0-26.93,21.832-48.762,48.762-48.762c13.466,0,25.656,5.458,34.48,14.282l36.946,36.959L100.005,217.1z"/>
<path style="fill:#5B5751;" d="M178.998,201.29c2.484-5.85,3.859-12.286,3.859-19.043c0-26.93-21.832-48.762-48.762-48.762  s-48.762,21.832-48.762,48.762s21.832,48.762,48.762,48.762c6.757,0,13.191-1.375,19.043-3.861L178.998,201.29z"/>
<path style="fill:#91928F;" d="M268.929,291.223l-89.933-89.933l-31.972-31.972c-7.14-7.14-18.718-7.14-25.86,0  s-7.141,18.718,0,25.86l31.972,31.972l89.933,89.933c3.571,3.571,8.251,5.357,12.929,5.357s9.36-1.786,12.929-5.357  C276.072,309.942,276.072,298.363,268.929,291.223z"/>
<path style="fill:#7F8383;" d="M121.166,195.177l31.972,31.972l89.933,89.933c3.571,3.571,8.251,5.357,12.929,5.357  c4.679,0,9.36-1.786,12.929-5.357L121.166,169.318C114.024,176.458,114.024,188.037,121.166,195.177z"/>
<circle style="fill:#6F7475;" cx="256" cy="304.152" r="18.286"/>
<path style="fill:#91928F;" d="M243.071,220.777l89.933,89.933l31.972,31.972c7.14,7.14,18.719,7.14,25.86,0s7.141-18.719,0-25.86  l-31.972-31.972l-89.933-89.933c-3.571-3.571-8.251-5.356-12.929-5.356s-9.36,1.786-12.929,5.356  C235.928,202.058,235.928,213.637,243.071,220.777z"/>
<path style="fill:#7F8383;" d="M390.834,316.823l-31.972-31.972l-89.933-89.933c-3.571-3.571-8.251-5.356-12.929-5.356  s-9.36,1.786-12.929,5.356l147.764,147.764C397.976,335.542,397.976,323.963,390.834,316.823z"/>
<path style="fill:#E5A430;" d="M414.774,146.895c4.131,0,8.133,1.542,11.273,4.342C480.56,199.881,512,269.619,512,342.607  c0,1.933,0,3.783,0,5.643c0,63.74-51.952,115.597-115.81,115.597c-0.924,0-1.863-0.011-2.793-0.033  c-62.963-1.484-113.659-53.868-113.009-116.776c0.489-47.545,29.573-89.205,73.281-106.339l0,0l8.627-3.013  c28.773-8.778,45.093-39.169,36.564-67.908c-1.9-5.038-1.32-10.622,1.613-15.115C403.601,149.871,409.079,146.895,414.774,146.895  C414.772,146.895,414.772,146.895,414.774,146.895z"/>
<path style="fill:#E7D96B;" d="M481.41,343.601l-0.023-0.466v-0.467c0.021-29.225-5.619-57.865-16.261-84.45  c-9.64-24.082-40.832-30.327-59.405-12.219c-2.673,2.606-5.528,5.047-8.553,7.3c-5.651,4.209-11.909,7.537-18.456,10.141  l-5.065,2.014c-1.631,0.649-3.291,1.217-4.953,1.781c-1.658,0.562-3.289,1.172-4.893,1.826c-8.999,3.675-19.343,1.384-26.217-5.491  l-9.154-9.154c-10.036,7.192-18.782,15.899-25.963,25.755l9.526,9.526c6.868,6.868,8.748,17.158,5.102,26.162  c-3.935,9.716-6.121,20.281-6.234,31.276c-0.479,46.441,36.869,85.114,83.255,86.209c0.69,0.017,1.387,0.026,2.074,0.026  c47.054,0,85.333-38.281,85.333-85.333C481.524,346.579,481.486,345.086,481.41,343.601z"/>
<g>
	<path style="fill:#E5A430;" d="M329.143,107.285c10.764-0.705,21.793,0.313,32.474,3.132c10.684,2.809,21.009,7.403,30.419,13.584   l0.235,0.155c6.2,4.073,7.925,12.401,3.852,18.601s-12.401,7.925-18.601,3.852c-0.536-0.352-1.096-0.789-1.564-1.201   c-6.273-5.594-13.535-10.235-21.461-13.618c-7.923-3.389-16.507-5.508-25.354-6.221l-0.138-0.011   c-5.043-0.406-8.803-4.825-8.397-9.868C320.979,111.099,324.676,107.572,329.143,107.285z"/>
	<circle style="fill:#E5A430;" cx="295.619" cy="113.371" r="9.143"/>
</g>
<path style="fill:#706B63;" d="M380.386,401.176l-36.96-36.944c-8.825-8.823-14.282-21.014-14.282-34.48  c0-26.93,21.832-48.762,48.762-48.762c13.466,0,25.656,5.458,34.48,14.282l36.946,36.959L380.386,401.176z"/>
<circle style="fill:#5B5751;" cx="414.476" cy="366.324" r="48.762"/>
<g>
</g>
<g>
</g>
<g>
</g>
<g>
</g>
<g>
</g>
<g>
</g>
<g>
</g>
<g>
</g>
<g>
</g>
<g>
</g>
<g>
</g>
<g>
</g>
<g>
</g>
<g>
</g>
<g>
</g>
</svg>
