<?xml version="1.0" encoding="iso-8859-1"?>
<!-- Generator: Adobe Illustrator 19.0.0, SVG Export Plug-In . SVG Version: 6.00 Build 0)  -->
<svg xmlns="http://www.w3.org/2000/svg" xmlns:xlink="http://www.w3.org/1999/xlink" version="1.1" id="Layer_1" x="0px" y="0px" viewBox="0 0 512.001 512.001" style="enable-background:new 0 0 512.001 512.001;" xml:space="preserve">
<g style="opacity:0.6;">
	<circle style="fill:#AEB2D3;" cx="224.865" cy="287.134" r="224.714"/>
	<circle style="fill:#EFE388;" cx="399.643" cy="112.357" r="112.357"/>
</g>
<path style="fill:#6F7475;" d="M330.799,110.583L4.178,437.203c-9.75,9.75-1.846,33.464,17.655,52.965s43.215,27.406,52.965,17.655  l326.621-326.621L330.799,110.583z"/>
<path style="fill:#4E565A;" d="M348.454,163.548L21.833,490.169c19.501,19.501,43.215,27.406,52.965,17.655l326.621-326.621  L348.454,163.548z"/>
<path style="fill:#5F6568;" d="M330.799,110.583L4.178,437.203c-6.534,6.534-5.13,19.338,2.368,32.943l341.908-341.908  L330.799,110.583z"/>
<path style="fill:#E7E4CD;" d="M374.937,66.444l-44.138,44.138c-9.75,9.75-1.846,33.464,17.655,52.965s43.215,27.406,52.965,17.655  l44.138-44.137L374.937,66.444z"/>
<path style="fill:#C1BDAB;" d="M410.248,101.755l-61.793,61.793c19.501,19.501,43.215,27.406,52.965,17.655l44.138-44.137  L410.248,101.755z"/>
<ellipse transform="matrix(0.7071 -0.7071 0.7071 0.7071 48.2013 319.8911)" style="fill:#D5D2BD;" cx="410.243" cy="101.761" rx="24.968" ry="49.936"/>
<g>
</g>
<g>
</g>
<g>
</g>
<g>
</g>
<g>
</g>
<g>
</g>
<g>
</g>
<g>
</g>
<g>
</g>
<g>
</g>
<g>
</g>
<g>
</g>
<g>
</g>
<g>
</g>
<g>
</g>
</svg>
