<?xml version="1.0" encoding="iso-8859-1"?>
<!-- Generator: Adobe Illustrator 19.0.0, SVG Export Plug-In . SVG Version: 6.00 Build 0)  -->
<svg xmlns="http://www.w3.org/2000/svg" xmlns:xlink="http://www.w3.org/1999/xlink" version="1.1" id="Layer_1" x="0px" y="0px" viewBox="0 0 512 512" style="enable-background:new 0 0 512 512;" xml:space="preserve">
<g>
	<path style="fill:#656890;" d="M198.305,439.659c-4.579-4.579-8.243-10.068-10.766-16.242c-4.988-12.203-4.924-25.618,0.178-37.773   l7.639-18.203c2.11-5.026,7.895-7.391,12.921-5.281c5.029,2.108,7.39,7.895,5.281,12.921l-7.64,18.203   c-3.061,7.294-3.099,15.343-0.107,22.663c2.991,7.321,8.657,13.043,15.951,16.101l36.407,15.281   c15.056,6.32,32.444-0.79,38.764-15.844l7.64-18.203c2.11-5.026,7.895-7.391,12.921-5.281c5.029,2.114,7.391,7.895,5.281,12.921   l-7.64,18.203c-10.531,25.093-39.514,36.939-64.607,26.407l-36.407-15.281C208.119,447.73,202.776,444.129,198.305,439.659z"/>
	<path style="fill:#656890;" d="M387.212,497.025c-12.815-12.815-21.723-36.659-8.293-65.144   c4.941-10.475,12.635-21.093,22.251-30.71c9.617-9.617,20.235-17.311,30.708-22.25c28.487-13.433,52.331-4.525,65.145,8.29   c12.815,12.815,21.723,36.659,8.293,65.143c-4.941,10.475-12.635,21.093-22.251,30.711c-9.617,9.617-20.235,17.311-30.708,22.25   C423.869,518.748,400.025,509.839,387.212,497.025z"/>
</g>
<path style="fill:#797DAF;" d="M491.357,438.397c4.073-8.64,6.092-16.851,6.569-24.457c1.471-23.466-18.123-43.06-41.589-41.587  c-7.607,0.478-15.818,2.495-24.458,6.57l4.516,77.89c0.948,16.355,20.802,24.132,32.422,12.582c0.096-0.096,0.192-0.192,0.288-0.288  C478.723,459.49,486.417,448.871,491.357,438.397z"/>
<path style="fill:#656890;" d="M30.264,298.148L422.46,462.757c2.118,1.144,7.945,3.542,15.104,0.196  c4.72-2.206,9.919-6.022,14.644-10.747c4.725-4.725,8.541-9.926,10.747-14.644c3.346-7.158,0.948-12.986-0.196-15.104  L298.149,30.263L30.264,298.148z"/>
<path style="fill:#535572;" d="M257.145,257.147c13.246-13.246,28.172-32.586,41.819-51.894  c28.328-40.078,34.057-91.903,15.063-137.157l-15.879-37.832L164.205,164.207L30.264,298.148L422.46,462.757  c2.118,1.145,7.945,3.542,15.104,0.196c4.72-2.204,9.919-6.022,14.644-10.747L257.145,257.147z"/>
<path style="fill:#797DAF;" d="M161.072,272.746L441.821,460.6c3.476-2.183,7.049-5.054,10.387-8.391  c3.338-3.338,6.208-6.912,8.391-10.387L272.745,161.073L161.072,272.746z"/>
<path style="fill:#656890;" d="M161.072,272.746l44.19,29.569c17.657-13.262,35.195-28.479,51.884-45.168  c13.246-13.246,28.172-32.586,41.819-51.894c0.578-0.817,1.13-1.646,1.689-2.473l-27.908-41.708L161.072,272.746z"/>
<path style="fill:#797DAF;" d="M19.96,308.452c-14.436-14.436-34.225-48.136-4.551-111.635  c15.738-33.675,43.011-70.826,76.797-104.611s70.936-61.059,104.612-76.797c63.499-29.674,97.199-9.885,111.635,4.551  c14.436,14.436,34.225,48.136,4.551,111.635c-15.738,33.676-43.011,70.827-76.797,104.612s-70.936,61.059-104.612,76.797  C68.096,342.677,34.396,322.888,19.96,308.452z"/>
<ellipse transform="matrix(0.7071 -0.7071 0.7071 0.7071 -68.0176 164.2091)" style="fill:#535572;" cx="164.209" cy="164.209" rx="160.286" ry="58.184"/>
<g>
</g>
<g>
</g>
<g>
</g>
<g>
</g>
<g>
</g>
<g>
</g>
<g>
</g>
<g>
</g>
<g>
</g>
<g>
</g>
<g>
</g>
<g>
</g>
<g>
</g>
<g>
</g>
<g>
</g>
</svg>
