<?xml version="1.0" encoding="iso-8859-1"?>
<!-- Generator: Adobe Illustrator 19.0.0, SVG Export Plug-In . SVG Version: 6.00 Build 0)  -->
<svg xmlns="http://www.w3.org/2000/svg" xmlns:xlink="http://www.w3.org/1999/xlink" version="1.1" id="Layer_1" x="0px" y="0px" viewBox="0 0 511.998 511.998" style="enable-background:new 0 0 511.998 511.998;" xml:space="preserve">
<path style="fill:#D5A150;" d="M247.928,262.678H136.624l21.975,52.739c25.394,12.878,71.512,51.132,71.512,51.132l-2.06,115.549  l9.604,23.05c3.805,9.133,16.744,9.133,20.549,0l101.029-242.471H247.928z"/>
<path style="fill:#E1B872;" d="M136.624,262.678l92.326,221.581c1.382,3.318,4.625,5.479,8.22,5.479l0,0  c5.943,0,10.759-4.817,10.759-10.759V352.674c0-8.781-6.807-15.98-15.563-16.656c-25.991-2.008-50.957-9.033-73.767-20.601  L136.624,262.678z"/>
<path style="fill:#D5A150;" d="M201.18,375.651h-11.13c-4.611,0-8.348-3.738-8.348-8.348c0-4.61,3.736-8.348,8.348-8.348h11.13  c4.611,0,8.348,3.738,8.348,8.348C209.528,371.914,205.791,375.651,201.18,375.651z"/>
<path style="fill:#C98A2E;" d="M305.807,375.651h-11.13c-4.611,0-8.348-3.738-8.348-8.348c0-4.61,3.736-8.348,8.348-8.348h11.13  c4.611,0,8.348,3.738,8.348,8.348C314.154,371.914,310.417,375.651,305.807,375.651z"/>
<circle style="fill:#A57D48;" cx="214.538" cy="345.043" r="16.696"/>
<circle style="fill:#8D663D;" cx="281.321" cy="345.043" r="16.696"/>
<path style="fill:#C78489;" d="M402.912,136.277c-7.975-41.81-24.982-74.862-50.548-98.236  C330.571,18.116,303.507,6.06,271.706,2.052c-7.101-1.235-14.382-1.934-21.802-2.038c-77.749-1.08-141.106,61.614-141.106,139.116  c0,24.946,6.568,48.363,18.072,68.615c1.141,2.009,0.733,4.5-0.903,6.132c-0.01,0.009-0.019,0.019-0.029,0.028  c-13.045,13.034-13.045,34.182,0,47.215c33.636,33.637,77.813,50.454,121.99,50.454s88.353-16.817,121.99-50.454  c13.045-13.034,13.045-34.182,0-47.215c-0.01-0.01-0.019-0.02-0.029-0.028c-1.637-1.633-2.041-4.127-0.899-6.137  c8.962-15.781,14.911-33.488,17.109-52.336c0.314,0.019,0.626,0.041,0.943,0.041c1.003,0,2.02-0.095,3.042-0.289  C398.838,153.485,404.581,145.032,402.912,136.277z"/>
<g>
	<path style="fill:#DBA8A5;" d="M322.088,266.315c-2.247-3.82-7.076-5.203-11.022-3.189c-18.947,9.672-40.401,15.134-63.137,15.134   c-39.351,0-74.876-16.335-100.175-42.588c-0.977-1.014-1.94-2.044-2.887-3.088c-3.817-4.207-11.007-2.33-11.918,3.277   c-0.028,0.173-0.048,0.339-0.059,0.501c-0.026,0.381-0.039,0.765-0.039,1.15c0,4.458,1.736,8.648,4.893,11.803   c29.382,29.382,68.513,45.565,110.185,45.565c25.03,0,49.139-5.847,70.773-16.879C322.983,275.815,324.525,270.458,322.088,266.315   L322.088,266.315z"/>
	<path style="fill:#DBA8A5;" d="M321.377,95.06c-0.327-23.651-7.182-45.725-18.846-64.5C290.539,11.257,269.224-0.242,246.5,0.006   c-0.449,0.004-0.897,0.011-1.346,0.02c-75.556,1.48-136.573,63.941-136.357,139.51c0.001,0.538,0.006,1.075,0.013,1.611   c0.551,38.735,27.925,71.914,65.29,79.505c2.849,0.579,4.929,3.03,4.929,5.937l0,0c0,8.99,6.909,16.726,15.889,17.149   c9.588,0.452,17.503-7.188,17.503-16.677l0,0c0-3.184,2.296-5.878,5.429-6.443c14.395-2.6,27.954-7.674,40.224-14.759   c4.333-2.502,9.707-0.227,11.114,4.575c0.031,0.107,0.063,0.203,0.096,0.286c2.359,5.999,7.934,10.441,14.678,10.759   c9.588,0.452,17.503-7.188,17.503-16.677v-31.146c0-5.737,1.519-11.353,4.296-16.373   C315.978,138.814,321.688,117.566,321.377,95.06z"/>
</g>
<g>
</g>
<g>
</g>
<g>
</g>
<g>
</g>
<g>
</g>
<g>
</g>
<g>
</g>
<g>
</g>
<g>
</g>
<g>
</g>
<g>
</g>
<g>
</g>
<g>
</g>
<g>
</g>
<g>
</g>
</svg>
