<?xml version="1.0" encoding="iso-8859-1"?>
<!-- Generator: Adobe Illustrator 19.0.0, SVG Export Plug-In . SVG Version: 6.00 Build 0)  -->
<svg xmlns="http://www.w3.org/2000/svg" xmlns:xlink="http://www.w3.org/1999/xlink" version="1.1" id="Layer_1" x="0px" y="0px" viewBox="0 0 512 512" style="enable-background:new 0 0 512 512;" xml:space="preserve">
<path style="fill:#B69362;" d="M256,512c-9.22,0-16.696-7.475-16.696-16.696v-90.128c4.911-2.846,10.611-4.481,16.696-4.481  s11.785,1.635,16.696,4.481v90.128C272.696,504.525,265.22,512,256,512z"/>
<path style="fill:#C9AD80;" d="M239.304,495.304c0,0.383,0.013,0.764,0.038,1.14c0.712,10.562,16.658,9.746,16.658-0.839V443.39  c0-3.593-2.845-6.502-6.433-6.671c-3.45-0.161-6.873-0.452-10.262-0.866V495.304z"/>
<path style="fill:#CF8575;" d="M361.842,76.792C347.316,32.217,305.424,0,256,0c-23.128,0-44.594,7.061-62.391,19.137  l-43.451,315.897c14.525,44.575,56.418,76.792,105.842,76.792s91.316-32.217,105.842-76.792  c37.31-30.62,61.115-77.088,61.115-129.121S399.152,107.412,361.842,76.792z"/>
<path style="fill:#E1A996;" d="M205.913,333.913c-9.489,0-17.129-7.915-16.677-17.503c0.423-8.98,8.159-15.889,17.149-15.889h32.876  c44.66,0,84.045-29.71,95.823-72.79c0.08-0.293,0.159-0.587,0.238-0.882c0.286-1.07,0.56-2.14,0.821-3.211  c14.708-60.101-31.659-117.9-93.535-117.9h-20c-9.488,0-17.128-7.915-16.677-17.503c0.423-8.98,8.159-15.889,17.149-15.889h27.479  c29.084,0,41.058-37.589,17.152-54.152c-0.191-0.132-0.384-0.265-0.578-0.396c-1.028-0.701-2.244-1.431-3.594-2.176  c-22.042-12.146-49.103-10.61-69.933,3.514c-20.241,13.724-35.721,33.937-43.451,57.656c-37.308,30.619-61.113,77.087-61.113,129.12  s23.805,98.501,61.115,129.121c0.001,0.001,0.002,0.002,0.002,0.002c8.754,27.384,40.814,39.479,65.609,25.085  c0.115-0.067,0.229-0.134,0.343-0.2c12.254-7.177,7.004-26.007-7.196-26.007L205.913,333.913L205.913,333.913z"/>
<path style="fill:#CF8575;" d="M175.861,286.609h-11.13c-4.611,0-8.348-3.738-8.348-8.348s3.736-8.348,8.348-8.348h11.13  c4.611,0,8.348,3.738,8.348,8.348S180.472,286.609,175.861,286.609z"/>
<path style="opacity:0.5;fill:#BE6054;enable-background:new    ;" d="M347.27,286.609h-11.13c-4.611,0-8.348-3.738-8.348-8.348  s3.736-8.348,8.348-8.348h11.13c4.611,0,8.348,3.738,8.348,8.348S351.881,286.609,347.27,286.609z"/>
<g>
	<circle style="fill:#CF8575;" cx="200.348" cy="256" r="16.696"/>
	<circle style="fill:#CF8575;" cx="311.652" cy="256" r="16.696"/>
</g>
<g>
</g>
<g>
</g>
<g>
</g>
<g>
</g>
<g>
</g>
<g>
</g>
<g>
</g>
<g>
</g>
<g>
</g>
<g>
</g>
<g>
</g>
<g>
</g>
<g>
</g>
<g>
</g>
<g>
</g>
</svg>
