<?xml version="1.0" encoding="iso-8859-1"?>
<!-- Generator: Adobe Illustrator 19.0.0, SVG Export Plug-In . SVG Version: 6.00 Build 0)  -->
<svg xmlns="http://www.w3.org/2000/svg" xmlns:xlink="http://www.w3.org/1999/xlink" version="1.1" id="Layer_1" x="0px" y="0px" viewBox="0 0 512.001 512.001" style="enable-background:new 0 0 512.001 512.001;" xml:space="preserve">
<path style="fill:#796093;" d="M497.041,179.943l-25.854-25.854c-10.348-10.348-24.033-15.313-37.591-14.924  c0.315-2.293,0.491-4.629,0.491-7.008V95.595c0-28.207-22.866-51.073-51.073-51.073c-28.207,0-51.073,22.866-51.073,51.073v36.562  c0,14.797,6.299,28.117,16.354,37.444L287.496,230.4c-7.276,7.276-11.859,16.219-13.771,25.6h-95.638  c-11.057,0-21.272,3.591-29.558,9.659c-0.674-0.76-1.368-1.509-2.097-2.237l-25.854-25.854c-13.16-13.158-31.711-17.63-48.54-13.426  l-5.692-22.002c19.679-6.618,33.828-24.895,33.828-46.424v-6.46c0-27.108-22.424-49.083-50.087-49.083S0,122.148,0,149.257v6.46  c0,27.01,22.264,48.917,49.789,49.075l6.756,26.116c-2.898,1.896-5.649,4.113-8.194,6.658c-19.945,19.946-19.946,52.283,0,72.229  l25.854,25.854c12.002,12.002,28.489,16.771,44.067,14.329c-1.774,1.359-3.486,2.836-5.11,4.459l-25.854,25.854  c-19.946,19.946-19.945,52.283,0,72.229s52.283,19.946,72.229,0l25.854-25.854c19.377-19.378,19.925-50.449,1.651-70.492h81.712  c-18.273,20.044-17.726,51.114,1.651,70.492l25.854,25.854c19.946,19.946,52.283,19.945,72.229,0  c19.946-19.945,19.946-52.283,0-72.229l-25.854-25.854c-7.824-7.824-17.556-12.564-27.698-14.25  c6.067-6.521,10.417-14.658,12.327-23.699c11.557-0.919,22.857-5.787,31.697-14.626l57.773-57.773l8.083,8.083  c19.946,19.946,52.283,19.945,72.229,0C516.988,232.227,516.986,199.888,497.041,179.943z M141.323,340.108  c0.003-0.002,0.007-0.004,0.01-0.008c0.001,0.001,0.003,0.003,0.004,0.006C141.333,340.107,141.328,340.108,141.323,340.108z"/>
<g>
	<path style="opacity:0.2;fill:#FEFBE1;enable-background:new    ;" d="M392.083,71.296c0-9.387-7.637-17.024-17.024-17.024   c-9.387,0-17.024,7.638-17.024,17.024v2.513c0,9.387,7.637,17.024,17.024,17.024s17.024-7.638,17.024-17.024V71.296z"/>
	<path style="opacity:0.2;fill:#FEFBE1;enable-background:new    ;" d="M166.957,300.521c-9.206,0-16.696-7.49-16.696-16.696   c0-9.206,7.49-16.696,16.696-16.696h66.783c9.206,0,16.696,7.49,16.696,16.696c0,9.206-7.49,16.696-16.696,16.696H166.957z"/>
	<path style="opacity:0.2;fill:#FEFBE1;enable-background:new    ;" d="M307.006,276.735c-6.567,6.567-17.252,6.568-23.82,0   c-6.568-6.568-6.567-17.253,0-23.82l47.64-47.64c6.567-6.567,17.252-6.568,23.82,0c6.568,6.568,6.567,17.253,0,23.82   L307.006,276.735z"/>
	<path style="opacity:0.2;fill:#FEFBE1;enable-background:new    ;" d="M157.3,382.526c6.638-6.638,6.638-17.438,0-24.076   s-17.438-6.638-24.076,0l-1.778,1.778c-6.638,6.638-6.638,17.438,0,24.076c6.638,6.638,17.438,6.638,24.076,0L157.3,382.526z"/>
	<path style="opacity:0.2;fill:#FEFBE1;enable-background:new    ;" d="M295.748,366.957c-6.638-6.638-17.438-6.638-24.076,0   c-6.638,6.638-6.638,17.438,0,24.076l1.778,1.778c6.638,6.638,17.438,6.638,24.076,0s6.638-17.438,0-24.076L295.748,366.957z"/>
	<path style="opacity:0.2;fill:#FEFBE1;enable-background:new    ;" d="M424.304,166.609c-6.638-6.638-17.438-6.638-24.076,0   c-6.638,6.638-6.638,17.438,0,24.076l1.777,1.778c6.638,6.638,17.438,6.638,24.076,0s6.638-17.438,0-24.076L424.304,166.609z"/>
	<path style="opacity:0.2;fill:#FEFBE1;enable-background:new    ;" d="M73.696,250.087c-6.638-6.638-17.438-6.638-24.076,0   c-6.638,6.638-6.638,17.438,0,24.076l1.778,1.778c6.638,6.638,17.438,6.638,24.076,0c6.638-6.638,6.638-17.438,0-24.076   L73.696,250.087z"/>
	<path style="opacity:0.2;fill:#FEFBE1;enable-background:new    ;" d="M77.913,145.212v-4.306c0-18.072-14.95-32.722-33.391-32.722   s-33.391,14.65-33.391,32.722v4.306c0,18.072,14.95,32.722,33.391,32.722S77.913,163.284,77.913,145.212z"/>
	<path style="opacity:0.2;fill:#FEFBE1;enable-background:new    ;" d="M49.003,310.449c-19.718-19.718-20.756-51.826-1.509-72.004   c2.451-2.57,5.102-4.823,7.905-6.763c6.489-4.492,15.356-3.784,20.95,1.782c0.03,0.03,0.061,0.06,0.091,0.091l25.202,25.202   c19.718,19.718,20.756,51.826,1.509,72.004c-5.526,5.794-12.074,9.982-19.075,12.595c-3.517-2.11-6.839-4.674-9.87-7.706   L49.003,310.449z"/>
	<path style="opacity:0.2;fill:#FEFBE1;enable-background:new    ;" d="M331.941,96.517c0-27.885,21.969-51.322,49.847-51.981   c3.549-0.083,7.018,0.198,10.372,0.807c7.765,1.411,13.533,8.182,13.554,16.073c0,0.042,0,0.086,0,0.129v35.64   c0,27.885-21.969,51.322-49.847,51.981c-8.005,0.189-15.596-1.479-22.394-4.581c-0.995-3.979-1.53-8.141-1.53-12.428v-35.64   H331.941z"/>
	<path style="opacity:0.2;fill:#FEFBE1;enable-background:new    ;" d="M254.35,256h-75.359c-27.347,0-50.332,21.545-50.977,48.885   c-0.186,7.85,1.451,15.294,4.493,21.963c3.902,0.976,7.984,1.501,12.188,1.501H244.87c0.096,0,0.191,0,0.287-0.001   c12.34-0.069,20.053-13.147,14.783-24.306C252.829,288.984,250.969,272.046,254.35,256z"/>
	<path style="opacity:0.2;fill:#FEFBE1;enable-background:new    ;" d="M358.957,190.203c0-9.738,1.818-19.198,5.29-27.991   c1.26-3.191-2.686-5.848-5.126-3.436l-0.075,0.073c-0.03,0.03-0.06,0.06-0.09,0.09l-70.815,70.815   c-19.509,19.509-20.536,51.277-1.491,71.24c5.467,5.732,11.945,9.874,18.871,12.461c3.48-2.087,6.766-4.625,9.766-7.624   l39.309-39.309c12.669-12.669,16.277-31.625,9.677-48.282C360.783,209.434,358.957,199.96,358.957,190.203z"/>
	<path style="opacity:0.2;fill:#FEFBE1;enable-background:new    ;" d="M113.161,354.437c19.946-19.946,52.283-19.945,72.229,0   c5.341,5.341,9.238,11.576,11.718,18.218c-2.11,3.517-4.674,6.839-7.706,9.87l-25.854,25.854   c-19.946,19.946-52.283,19.945-72.229,0c-5.341-5.341-9.238-11.576-11.718-18.218c2.11-3.517,4.674-6.839,7.706-9.87   L113.161,354.437z"/>
	<path style="opacity:0.2;fill:#FEFBE1;enable-background:new    ;" d="M271.055,427.318c-19.718-19.718-20.756-51.826-1.509-72.004   c2.451-2.57,5.102-4.823,7.905-6.763c6.489-4.492,15.356-3.784,20.95,1.782c0.03,0.03,0.061,0.06,0.091,0.091l25.202,25.202   c19.718,19.718,20.756,51.826,1.509,72.004c-5.526,5.795-12.074,9.982-19.075,12.595c-3.517-2.11-6.839-4.674-9.87-7.706   L271.055,427.318z"/>
	<path style="opacity:0.2;fill:#FEFBE1;enable-background:new    ;" d="M399.612,226.97c-19.718-19.718-20.756-51.826-1.509-72.004   c2.451-2.57,5.102-4.823,7.905-6.763c6.489-4.492,15.356-3.784,20.95,1.782c0.03,0.03,0.061,0.06,0.091,0.091l25.202,25.202   c19.718,19.718,20.756,51.826,1.509,72.004c-5.526,5.794-12.074,9.982-19.075,12.595c-3.517-2.11-6.839-4.674-9.87-7.706   L399.612,226.97z"/>
	<path style="opacity:0.2;fill:#FEFBE1;enable-background:new    ;" d="M55.652,136.94c0-9.021-7.49-16.361-16.696-16.361   s-16.696,7.339-16.696,16.361v2.415c0,9.021,7.49,16.361,16.696,16.361s16.696-7.339,16.696-16.361V136.94z"/>
</g>
<g>
</g>
<g>
</g>
<g>
</g>
<g>
</g>
<g>
</g>
<g>
</g>
<g>
</g>
<g>
</g>
<g>
</g>
<g>
</g>
<g>
</g>
<g>
</g>
<g>
</g>
<g>
</g>
<g>
</g>
</svg>
