<?xml version="1.0" encoding="iso-8859-1"?>
<!-- Generator: Adobe Illustrator 19.0.0, SVG Export Plug-In . SVG Version: 6.00 Build 0)  -->
<svg xmlns="http://www.w3.org/2000/svg" xmlns:xlink="http://www.w3.org/1999/xlink" version="1.1" id="Layer_1" x="0px" y="0px" viewBox="0 0 511.999 511.999" style="enable-background:new 0 0 511.999 511.999;" xml:space="preserve">
<path style="fill:#47423F;" d="M466.61,511.999c-5.015,0-9.078-4.064-9.078-9.078c0-44.408-17.293-86.156-48.692-117.556  c-3.546-3.545-3.546-9.292-0.001-12.837c3.546-3.545,9.294-3.546,12.837,0c34.83,34.829,54.012,81.137,54.012,130.393  C475.688,507.935,471.625,511.999,466.61,511.999z"/>
<path style="fill:#6A9093;" d="M422.077,358.158l-35.223-19.987l-12.37,12.37l19.987,35.223c2.955,6.894,11.449,9.537,17.705,5.4  c6.076-4.018,11.283-9.224,15.302-15.302C431.613,369.607,428.971,361.112,422.077,358.158z"/>
<circle style="fill:#5B7676;" cx="376.392" cy="340.08" r="18.156"/>
<path style="fill:#6A9093;" d="M345.807,52.735C275.25-17.822,160.575-17.541,89.672,53.36S18.49,238.939,89.046,309.495  c75.178,75.178,191.021,90.843,283.783,39.392c0.027-0.014,0.052-0.029,0.079-0.044c5.144-2.855,9.393-7.104,12.248-12.248  c0.015-0.027,0.029-0.052,0.044-0.079C436.65,243.756,420.985,127.911,345.807,52.735z"/>
<path style="fill:#78ABB1;" d="M89.046,309.495c26.687,26.686,58.497,45.87,92.58,57.215  c46.813,15.582,97.478-11.388,108.882-59.391c0.117-0.491,0.226-0.973,0.327-1.444c16.659-77.363-5.874-159.93-64.072-218.128  c-25.341-25.341-56.372-41.537-89.022-48.61c-17.265-3.74-35.361,1.553-47.871,14.025c-0.067,0.067-0.132,0.132-0.199,0.199  C18.769,124.263,18.49,238.939,89.046,309.495z"/>
<ellipse style="fill:#92BCBC;" cx="105.932" cy="191.155" rx="48.415" ry="72.623"/>
<g>
	<circle style="fill:#6A9093;" cx="175.324" cy="233.676" r="18.156"/>
	<circle style="fill:#6A9093;" cx="260.91" cy="148.09" r="18.156"/>
</g>
<path style="fill:#92BCBC;" d="M200.998,259.352c-14.158,14.158-37.194,14.158-51.352,0c-3.545-3.545-3.545-9.293,0-12.839  s9.292-3.545,12.839,0c7.08,7.08,18.598,7.078,25.676,0c3.545-3.545,9.292-3.545,12.839,0  C204.546,250.058,204.543,255.806,200.998,259.352z"/>
<path style="fill:#78ABB1;" d="M286.585,173.764c-3.545,3.545-9.292,3.545-12.839,0c-3.546-3.545-3.545-9.292,0-12.839  c7.079-7.08,7.079-18.596,0-25.676c-3.545-3.545-3.545-9.292,0-12.839c3.545-3.546,9.292-3.545,12.839,0  C300.742,136.569,300.742,159.606,286.585,173.764z"/>
<g>
</g>
<g>
</g>
<g>
</g>
<g>
</g>
<g>
</g>
<g>
</g>
<g>
</g>
<g>
</g>
<g>
</g>
<g>
</g>
<g>
</g>
<g>
</g>
<g>
</g>
<g>
</g>
<g>
</g>
</svg>
