<?xml version="1.0" encoding="iso-8859-1"?>
<!-- Generator: Adobe Illustrator 19.0.0, SVG Export Plug-In . SVG Version: 6.00 Build 0)  -->
<svg xmlns="http://www.w3.org/2000/svg" xmlns:xlink="http://www.w3.org/1999/xlink" version="1.1" id="Layer_1" x="0px" y="0px" viewBox="0 0 511.994 511.994" style="enable-background:new 0 0 511.994 511.994;" xml:space="preserve">
<circle style="fill:#FEF9C1;" cx="255.997" cy="255.997" r="255.997"/>
<circle style="fill:#F6EEA4;" cx="255.997" cy="255.997" r="200.346"/>
<circle style="fill:#EFE388;" cx="255.997" cy="255.997" r="144.694"/>
<path style="fill:#5B5751;" d="M382.954,509.215c-2.876,0-5.675-1.488-7.225-4.154l-58.414-100.518  c-2.317-3.986-0.963-9.096,3.023-11.412c3.985-2.318,9.095-0.964,11.412,3.023l58.414,100.518c2.317,3.986,0.963,9.096-3.023,11.412  C385.821,508.851,384.378,509.215,382.954,509.215z"/>
<path style="fill:#D5D2BD;" d="M392.57,361.647c-0.191-1.348-0.486-2.668-0.889-3.952c-0.523-1.671-1.213-3.232-2.056-4.683  L237.817,91.787c0.843,1.45,1.533,3.012,2.056,4.683c0.403,1.284,0.698,2.604,0.889,3.952c0.276,1.948,0.336,3.956,0.193,6.009  c-0.118,1.678-0.372,3.386-0.757,5.115c-0.356,1.601-0.823,3.219-1.397,4.848c-0.555,1.577-1.21,3.164-1.96,4.755  c-0.758,1.608-1.613,3.22-2.56,4.829c-0.993,1.686-2.086,3.368-3.276,5.04c-1.329,1.868-2.777,3.723-4.337,5.553  c-1.913,2.244-3.994,4.452-6.229,6.604c-7.838,7.547-17.569,14.409-28.58,19.736c-1.822,0.882-3.641,1.702-5.452,2.463  c-2.978,1.251-5.937,2.341-8.858,3.27c-2.382,0.758-4.739,1.41-7.062,1.958c-2.134,0.502-4.237,0.916-6.303,1.243  c-1.996,0.315-3.957,0.549-5.877,0.701c-1.936,0.154-3.828,0.226-5.672,0.216c-1.929-0.01-3.803-0.109-5.615-0.296  c-2.007-0.207-3.938-0.522-5.782-0.944c-2.234-0.511-4.339-1.179-6.296-2.001c-5.503-2.311-9.837-5.84-12.566-10.536  l151.809,261.225c2.729,4.696,7.063,8.225,12.566,10.536c1.958,0.823,4.063,1.489,6.296,2.001c1.843,0.422,3.774,0.737,5.782,0.945  c1.812,0.187,3.686,0.286,5.615,0.296c1.843,0.01,3.736-0.062,5.672-0.216c1.92-0.152,3.881-0.386,5.877-0.701  c2.067-0.326,4.171-0.74,6.303-1.243c2.323-0.548,4.68-1.199,7.062-1.958c2.922-0.929,5.88-2.019,8.858-3.27  c1.812-0.761,3.631-1.582,5.452-2.463c11.011-5.327,20.742-12.188,28.58-19.735c2.235-2.153,4.315-4.36,6.229-6.604  c1.56-1.831,3.009-3.685,4.337-5.553c1.19-1.672,2.283-3.355,3.276-5.041c0.947-1.609,1.802-3.221,2.56-4.829  c0.75-1.59,1.405-3.178,1.96-4.755c0.573-1.629,1.041-3.248,1.397-4.848c0.384-1.729,0.639-3.437,0.757-5.116  C392.906,365.603,392.846,363.595,392.57,361.647z"/>
<g>
	<path style="fill:#AB5034;" d="M338.447,264.949c17.006,29.263,34.011,58.524,51.017,87.787c0.843,1.45,1.533,3.012,2.056,4.683   c4.201,13.408-3.313,30.591-18.078,45.377C373.018,382.884,371.729,322.289,338.447,264.949"/>
	<path style="fill:#AB5034;" d="M247.931,375.037c-9.857-19.113-6.477-41.521,2.109-90.383   c6.345-36.112,18.158-103.331-9.017-179.766c0.058-2.924-0.314-5.747-1.151-8.419c-0.523-1.671-1.213-3.232-2.056-4.683   c15.335,26.39,30.672,52.778,46.007,79.168c7.241,13.046,29.279,52.748,33.743,111.574c0.671,8.845,2.454,32.341-0.045,59.701   c-2.809,30.762-10.352,60.807-13.763,91.479c-13.682-0.187-24.578-4.896-29.737-13.773L247.931,375.037"/>
	<path style="fill:#AB5034;" d="M126.553,166.174c-0.638-1.238-1.506-2.881-2.064-4.156c11.325,13.703,38.984,14.627,67.371,0.895   c0.185-0.089,0.368-0.179,0.552-0.269c-11.865,68.729-15.447,89.471-5.17,107.962C167.013,235.795,145.908,201.494,126.553,166.174   "/>
</g>
<path style="opacity:0.2;fill:#47423F;enable-background:new    ;" d="M217.063,218.127c-5.272-9.072-2.332-20.663,6.578-26.206  c0.049-0.031,0.098-0.061,0.147-0.091c5.01-3.142,9.74-6.503,14.171-10.05c20.555-16.453,25.603-45.691,12.375-68.455  l-12.516-21.537l-115.44,67.199l151.806,261.224c2.729,4.696,7.063,8.225,12.566,10.536c1.958,0.823,4.063,1.489,6.296,2.001  c1.843,0.422,3.774,0.737,5.782,0.945c1.812,0.187,3.686,0.286,5.615,0.296c1.843,0.01,3.736-0.062,5.672-0.216  c1.92-0.152,3.881-0.386,5.877-0.701c2.067-0.326,4.171-0.74,6.303-1.243c2.323-0.548,4.68-1.199,7.062-1.958  c2.922-0.929,5.88-2.019,8.858-3.27L217.063,218.127z"/>
<path style="opacity:0.2;fill:#FEFBE1;enable-background:new    ;" d="M220.44,143.177l151.807,261.225  c-7.838,7.549-17.569,14.409-28.58,19.736c-1.822,0.882-3.641,1.702-5.452,2.463L186.408,165.376  c1.812-0.761,3.631-1.582,5.452-2.463C202.871,157.586,212.602,150.724,220.44,143.177"/>
<path style="fill:#AB5034;" d="M254.037,90.347c-3.458-11.09-11.396-20.078-22.409-25.408c-0.134-0.069-0.267-0.138-0.403-0.205  L126.797,13.043c-5.722-2.833-12.495-2.495-17.912,0.89c-5.416,3.386-8.709,9.342-8.709,15.753v116.95  c0,0.997,0.08,1.983,0.236,2.948c0.298,2.941,0.88,5.812,1.737,8.563c3.659,11.734,12.263,21.061,24.23,26.263  c7.413,3.222,15.981,4.808,25.197,4.808c14.42,0,30.422-3.888,46.036-11.476C239.037,157.603,263.294,120.033,254.037,90.347z"/>
<path style="opacity:0.1;fill:#FEFBE1;enable-background:new    ;" d="M243.762,102.104L128.059,20.112  c-0.056-0.04-0.112-0.08-0.168-0.12c-7.789-5.53-17.911,3.144-13.724,11.729c1.181,2.422,2.538,4.763,4.063,7.004l72.29,106.268  c3.092,4.546,6.315,9.001,9.666,13.359c5.631,7.326,16.256,8.661,23.378,2.775c12.335-10.194,21.652-22.045,27.063-34.178  C254.509,118.117,251.689,107.721,243.762,102.104z"/>
<path style="opacity:0.2;fill:#47423F;enable-background:new    ;" d="M254.037,90.347c-1.987-6.37-5.457-12.042-10.134-16.73  c0.453,1.103,0.872,2.224,1.23,3.374c9.257,29.686-15,67.257-56.425,87.394c-15.614,7.589-31.616,11.476-46.036,11.476  c-9.215,0-17.784-1.587-25.197-4.808c-5.443-2.365-10.18-5.593-14.082-9.503c4.165,10.129,12.204,18.172,22.986,22.859  c7.413,3.222,15.981,4.808,25.197,4.808c14.42,0,30.422-3.888,46.036-11.476C239.037,157.603,263.294,120.033,254.037,90.347z"/>
<g>
</g>
<g>
</g>
<g>
</g>
<g>
</g>
<g>
</g>
<g>
</g>
<g>
</g>
<g>
</g>
<g>
</g>
<g>
</g>
<g>
</g>
<g>
</g>
<g>
</g>
<g>
</g>
<g>
</g>
</svg>
