<?xml version="1.0" encoding="iso-8859-1"?>
<!-- Generator: Adobe Illustrator 19.0.0, SVG Export Plug-In . SVG Version: 6.00 Build 0)  -->
<svg xmlns="http://www.w3.org/2000/svg" xmlns:xlink="http://www.w3.org/1999/xlink" version="1.1" id="Layer_1" x="0px" y="0px" viewBox="0 0 512 512" style="enable-background:new 0 0 512 512;" xml:space="preserve">
<rect x="137.432" y="282.947" style="fill:#C98A2E;" width="43.116" height="64.674"/>
<path style="fill:#AD712C;" d="M180.547,312.185v-29.238h-43.116v29.238c6.953-1.496,14.164-2.291,21.558-2.291  C166.384,309.895,173.594,310.689,180.547,312.185z"/>
<rect x="331.453" y="282.947" style="fill:#C98A2E;" width="43.116" height="64.674"/>
<path style="fill:#AD712C;" d="M353.01,309.895c7.394,0,14.604,0.794,21.558,2.291v-29.238h-43.116v29.238  C338.406,310.689,345.616,309.895,353.01,309.895z"/>
<path style="fill:#C98A2E;" d="M220.968,404.21h-42.463l30.025-30.025l-11.432-11.432l-30.025,30.025v-42.463h-16.168v42.463  l-30.025-30.025l-11.432,11.432l30.025,30.025H97.011v16.168h42.463l-30.025,30.025l11.432,11.432l30.025-30.025v42.463h16.168  v-42.463l30.025,30.025l11.432-11.432l-30.025-30.025h42.463V404.21z"/>
<path style="fill:#AD712C;" d="M196.716,412.295c0-2.776-0.31-5.478-0.882-8.084h-17.328l12.241-12.241  c-2.944-4.583-6.849-8.488-11.432-11.432l-12.241,12.241V375.45c-2.606-0.571-5.309-0.882-8.084-0.882s-5.478,0.31-8.084,0.882  v17.328l-12.241-12.241c-4.583,2.944-8.488,6.849-11.432,11.432l12.241,12.241h-17.328c-0.571,2.606-0.882,5.309-0.882,8.084  c0,2.776,0.31,5.478,0.882,8.084h17.328l-12.241,12.241c2.944,4.583,6.849,8.488,11.432,11.432l12.241-12.241v17.328  c2.606,0.571,5.309,0.882,8.084,0.882s5.478-0.31,8.084-0.882v-17.328l12.241,12.241c4.583-2.944,8.488-6.849,11.432-11.432  l-12.241-12.241h17.328C196.405,417.772,196.716,415.07,196.716,412.295z"/>
<path style="fill:#5F6568;" d="M208.508,362.776l4.376-4.376l7.052-7.052c-15.614-15.614-37.172-25.285-60.946-25.285  c-47.548,0-86.232,38.684-86.232,86.232c0,23.774,9.671,45.332,25.285,60.946l11.428-11.428l-15.155-49.518l21.558-43.116  l43.116-21.558L208.508,362.776z"/>
<path style="fill:#4E565A;" d="M219.936,351.348l-0.115,0.115c-6.033,6.033-15.428,6.836-22.568,2.163  c-12.19-7.977-27.004-12.261-42.842-11.249c-34.909,2.231-63.106,30.428-65.338,65.337c-1.013,15.839,3.271,30.653,11.249,42.843  c4.673,7.14,3.87,16.534-2.163,22.568l-0.115,0.115c16.496,16.496,39.626,26.358,64.994,25.193  c44.235-2.033,80.057-37.856,82.091-82.091C246.295,390.974,236.432,367.844,219.936,351.348z M105.095,412.295  c0-29.765,24.13-53.895,53.895-53.895s53.895,24.13,53.895,53.895c0,29.765-24.13,53.895-53.895,53.895  S105.095,442.06,105.095,412.295z"/>
<circle style="fill:#C98A2E;" cx="158.989" cy="412.295" r="21.558"/>
<path style="fill:#D5A150;" d="M137.432,412.295c0,3.161,0.697,6.154,1.92,8.859c2.706,1.222,5.698,1.92,8.859,1.92  c11.906,0,21.558-9.651,21.558-21.558c0-3.161-0.697-6.154-1.92-8.859c-2.706-1.222-5.698-1.92-8.859-1.92  C147.083,390.737,137.432,400.388,137.432,412.295z"/>
<circle style="fill:#E1B872;" cx="150.905" cy="404.21" r="8.084"/>
<path style="fill:#C98A2E;" d="M414.989,404.21h-42.463l30.025-30.025l-11.432-11.432l-30.025,30.025v-42.463h-16.168v42.463  l-30.025-30.025l-11.432,11.432l30.025,30.025h-42.463v16.168h42.463l-30.025,30.025l11.432,11.432l30.025-30.025v42.463h16.168  v-42.463l30.025,30.025l11.432-11.432l-30.025-30.025h42.463V404.21z"/>
<path style="fill:#AD712C;" d="M390.737,412.295c0-2.776-0.31-5.478-0.882-8.084h-17.328l12.241-12.241  c-2.944-4.583-6.849-8.488-11.432-11.432l-12.241,12.241V375.45c-2.606-0.571-5.309-0.882-8.084-0.882  c-2.776,0-5.478,0.31-8.084,0.882v17.328l-12.241-12.241c-4.583,2.944-8.488,6.849-11.432,11.432l12.241,12.241h-17.328  c-0.571,2.606-0.882,5.309-0.882,8.084c0,2.776,0.31,5.478,0.882,8.084h17.328l-12.241,12.241  c2.944,4.583,6.849,8.488,11.432,11.432l12.241-12.241v17.328c2.606,0.571,5.309,0.882,8.084,0.882c2.776,0,5.478-0.31,8.084-0.882  v-17.328l12.241,12.241c4.583-2.944,8.488-6.849,11.432-11.432l-12.241-12.241h17.328  C390.426,417.772,390.737,415.07,390.737,412.295z"/>
<path style="fill:#5F6568;" d="M402.529,362.776l4.376-4.376l7.052-7.052c-15.614-15.614-37.172-25.285-60.946-25.285  c-47.548,0-86.232,38.684-86.232,86.232c0,23.774,9.671,45.332,25.285,60.946l11.428-11.428l-15.155-49.518l21.558-43.116  l43.116-21.558L402.529,362.776z"/>
<path style="fill:#4E565A;" d="M413.957,351.348l-0.115,0.115c-6.033,6.033-15.428,6.836-22.568,2.163  c-12.19-7.977-27.004-12.261-42.842-11.249c-34.909,2.231-63.106,30.428-65.338,65.337c-1.013,15.839,3.271,30.653,11.249,42.843  c4.673,7.14,3.87,16.534-2.163,22.568l-0.115,0.115c16.496,16.496,39.626,26.358,64.994,25.193  c44.235-2.033,80.057-37.856,82.091-82.091C440.316,390.974,430.453,367.844,413.957,351.348z M299.116,412.295  c0-29.765,24.13-53.895,53.895-53.895c29.765,0,53.895,24.13,53.895,53.895c0,29.765-24.13,53.895-53.895,53.895  C323.246,466.189,299.116,442.06,299.116,412.295z"/>
<circle style="fill:#C98A2E;" cx="353.01" cy="412.295" r="21.558"/>
<path style="fill:#D5A150;" d="M331.453,412.295c0,3.161,0.697,6.154,1.92,8.859c2.706,1.222,5.698,1.92,8.859,1.92  c11.906,0,21.558-9.651,21.558-21.558c0-3.161-0.697-6.154-1.92-8.859c-2.706-1.222-5.698-1.92-8.859-1.92  C341.104,390.737,331.453,400.388,331.453,412.295z"/>
<circle style="fill:#E1B872;" cx="344.926" cy="404.21" r="8.084"/>
<path style="fill:#7F8383;" d="M503.916,307.2h-32.337c-4.465,0-8.084-3.618-8.084-8.084s3.62-8.084,8.084-8.084h32.337  c4.465,0,8.084,3.618,8.084,8.084S508.38,307.2,503.916,307.2z"/>
<path style="fill:#6F7475;" d="M40.421,323.368H8.084C3.62,323.368,0,319.75,0,315.284v-21.558c0-4.466,3.62-8.084,8.084-8.084  s8.084,3.618,8.084,8.084V307.2h24.253c4.465,0,8.084,3.618,8.084,8.084C48.505,319.75,44.886,323.368,40.421,323.368z"/>
<path style="fill:#55687D;" d="M256,13.474c-29.765,0-53.895,24.13-53.895,53.895h107.789C309.895,37.603,285.765,13.474,256,13.474  z"/>
<path style="fill:#D5A150;" d="M256,29.642l-21.558,26.947L256,88.926L290.083,51.2C284.018,38.465,271.02,29.642,256,29.642z"/>
<path style="fill:#E1B872;" d="M221.917,51.2L256,88.926V29.642C240.98,29.642,227.982,38.465,221.917,51.2z"/>
<rect x="83.537" y="88.926" style="fill:#668BB7;" width="344.926" height="194.021"/>
<g>
	<rect x="126.653" y="88.926" style="opacity:0.5;fill:#55687D;enable-background:new    ;" width="43.116" height="194.021"/>
	<rect x="212.884" y="88.926" style="opacity:0.5;fill:#55687D;enable-background:new    ;" width="43.116" height="194.021"/>
	<rect x="299.116" y="88.926" style="opacity:0.5;fill:#55687D;enable-background:new    ;" width="43.116" height="194.021"/>
	<rect x="385.347" y="88.926" style="opacity:0.5;fill:#55687D;enable-background:new    ;" width="43.116" height="194.021"/>
	<rect x="83.537" y="88.926" style="opacity:0.5;fill:#55687D;enable-background:new    ;" width="344.926" height="32.337"/>
</g>
<g>
	<path style="fill:#E1B872;" d="M384.269,172.463h-4.312c-1.485,0-2.695-1.208-2.695-2.695c0-1.486,1.209-2.695,2.695-2.695h8.623   c4.465,0,8.084-3.618,8.084-8.084c0-4.466-3.62-8.084-8.084-8.084h-8.623c-10.401,0-18.863,8.463-18.863,18.863   c0,10.401,8.463,18.863,18.863,18.863h4.312c1.485,0,2.695,1.208,2.695,2.695s-1.209,2.695-2.695,2.695h-15.091   c-4.465,0-8.084,3.618-8.084,8.084s3.62,8.084,8.084,8.084h15.091c10.401,0,18.863-8.463,18.863-18.863   S394.67,172.463,384.269,172.463z"/>
	<path style="fill:#E1B872;" d="M347.422,150.905c-4.461,0-8.077,3.616-8.077,8.077v21.565h-0.001v0.001   c0,3.574-1.393,6.936-3.92,9.463c-5.218,5.218-8.32,5.218-13.539,0c-2.528-2.528-3.92-5.889-3.92-9.464v-0.001l0,0v-21.565   c0-4.46-3.616-8.077-8.077-8.077s-8.077,3.617-8.077,8.078v21.565c0,7.568,2.88,15.136,8.641,20.897   c11.523,11.522,24.881,11.522,36.404,0c5.761-5.761,8.643-13.329,8.643-20.897l0,0v-21.565   C355.498,154.521,351.882,150.905,347.422,150.905z"/>
	<path style="fill:#E1B872;" d="M270.447,167.163c3.575,0,6.936,1.393,9.464,3.92c3.157,3.157,8.276,3.157,11.432,0   c3.157-3.157,3.157-8.276,0-11.432c-11.522-11.523-30.271-11.522-41.793,0c-11.522,11.523-11.522,30.271,0,41.793   c5.761,5.761,13.329,8.643,20.897,8.643s15.136-2.881,20.896-8.643c3.157-3.157,3.157-8.276,0-11.432   c-3.157-3.157-8.276-3.157-11.432,0c-2.528,2.528-5.889,3.92-9.464,3.92c-3.574,0-6.936-1.393-9.463-3.92   c-5.218-5.218-5.218-13.71,0-18.929C263.512,168.556,266.873,167.163,270.447,167.163z"/>
	<path style="fill:#E1B872;" d="M233.15,195.894l-9.908-8.257c7.444-2.527,12.817-9.582,12.817-17.869   c0-10.401-8.463-18.863-18.863-18.863h-15.091c-0.554,0-1.094,0.056-1.617,0.163c-0.523-0.106-1.063-0.163-1.617-0.163   c-4.465,0-8.084,3.62-8.084,8.084v43.116c0,4.465,3.62,8.084,8.084,8.084c4.465,0,8.084-3.62,8.084-8.084v-6.992l15.844,13.203   c1.511,1.26,3.346,1.873,5.171,1.873c2.315,0,4.616-0.991,6.215-2.908C237.044,203.85,236.58,198.753,233.15,195.894z    M217.196,172.463h-10.24v-5.389h10.24c1.485,0,2.695,1.208,2.695,2.695C219.891,171.255,218.681,172.463,217.196,172.463z"/>
	<path style="fill:#E1B872;" d="M173.002,150.905c-4.465,0-8.084,3.62-8.084,8.084v43.116c0,4.465,3.62,8.084,8.084,8.084   c4.465,0,8.084-3.62,8.084-8.084v-43.116C181.086,154.525,177.467,150.905,173.002,150.905z"/>
	<path style="fill:#E1B872;" d="M134.632,167.163c3.575,0,6.936,1.393,9.464,3.92c3.157,3.157,8.276,3.157,11.432,0   c3.157-3.157,3.157-8.276,0-11.432c-11.522-11.523-30.271-11.522-41.793,0c-11.522,11.523-11.522,30.271,0,41.793   c5.761,5.761,13.329,8.643,20.897,8.643c7.568,0,15.136-2.881,20.896-8.643c3.157-3.157,3.157-8.276,0-11.432   c-3.157-3.157-8.276-3.157-11.432,0c-2.528,2.528-5.889,3.92-9.464,3.92c-3.574,0-6.936-1.393-9.463-3.92   c-5.218-5.218-5.218-13.71,0-18.929C127.697,168.556,131.058,167.163,134.632,167.163z"/>
</g>
<path style="fill:#5D7A9A;" d="M94.316,250.61V110.484c0-5.953,4.826-10.779,10.779-10.779H256V67.368l-15.579-15.579  c-10.121-10.121-25.384-13.061-38.54-7.422l0,0c-34.273,14.688-73.067,14.688-107.34,0l-11.902-5.101  c-15.198-6.514-33.127,0.195-39.628,15.399c-1.667,3.9-2.59,8.193-2.59,12.703v16.168v5.389v10.779v172.463v62.451  c0,6.017,4.052,11.457,9.936,12.716c4.926,1.054,9.945-0.863,12.826-4.809c21.583-29.558,56.487-48.801,95.807-48.801  c34.722,0,66.003,15.005,87.706,38.869c4.984,5.48,13.626,5.48,18.61,0l33.81-71.206H105.095  C99.142,261.389,94.316,256.564,94.316,250.61z"/>
<path style="fill:#55687D;" d="M471.546,65.888c-0.975-21.645-24.457-34.779-43.837-25.09l0,0  c-33.886,16.943-73.297,19.011-108.769,5.709l-9.497-3.561c-12.853-4.82-27.336-1.683-37.043,8.024L256,67.368l-0.486,0.753  c-0.03,0.047-0.06,0.094-0.091,0.141c-5.972,9.377-16.109,15.274-27.225,15.274H61.124c-8.246,0-15.974-4.024-20.703-10.779l0,0  v16.168c0,5.953,4.826,10.779,10.779,10.779h355.705c5.953,0,10.779,4.826,10.779,10.779V250.61c0,5.953-4.826,10.779-10.779,10.779  H272.168c-8.892,0-16.208,7.18-16.168,16.071c0.07,15.734-16.885,25.467-30.544,17.71c-20.096-11.413-42.993-17.613-66.465-17.613  c-37.47,0-73.312,15.866-98.666,43.087c-1.677,1.8-4.327,5.008-6.689,7.934c-3.232,4.002-8.076,6.339-13.213,6.401v0.012  c0,4.499,2.311,8.779,6.247,10.957c5.934,3.282,12.903,1.523,16.513-3.421c21.583-29.558,56.487-48.801,95.807-48.801  c34.722,0,66.002,15.005,87.705,38.869c4.984,5.48,13.627,5.48,18.611,0c21.703-23.864,52.984-38.869,87.705-38.869  c23.854,0,46.075,7.091,64.69,19.262c2.992,1.956,5.891,4.044,8.688,6.254c0.034,0.028,0.07,0.055,0.106,0.083  c2.76,2.186,5.421,4.493,7.975,6.91c0.061,0.058,0.124,0.115,0.185,0.174c1.215,1.154,2.402,2.337,3.567,3.541  c0.577,0.597,1.124,1.221,1.81,1.726c0.786,0.579,1.347,1.372,1.85,2.208c0.057,0.095,0.137,0.172,0.21,0.255  c1.063,1.209,2.094,2.448,3.108,3.699c0.218,0.269,0.434,0.539,0.65,0.811c1.012,1.274,2.008,2.562,2.969,3.877  c1.583,2.168,3.818,3.705,6.323,4.492c0.098,0.032,0.197,0.059,0.296,0.088c0.302,0.087,0.605,0.167,0.913,0.232  c0.224,0.049,0.451,0.084,0.679,0.12c0.225,0.035,0.449,0.069,0.677,0.091c0.089,0.009,0.176,0.029,0.264,0.036  c0.189,0.014,0.373,0.006,0.56,0.013c0.14,0.004,0.278,0.025,0.419,0.025c0.069,0,0.137-0.01,0.206-0.011  c0.205-0.003,0.405-0.017,0.607-0.03c0.238-0.015,0.475-0.031,0.709-0.059c0.199-0.024,0.396-0.057,0.593-0.091  c0.23-0.039,0.457-0.08,0.682-0.13c0.194-0.044,0.385-0.095,0.576-0.148c0.22-0.061,0.439-0.125,0.653-0.197  c0.186-0.063,0.37-0.132,0.552-0.203c0.21-0.082,0.417-0.168,0.622-0.261c0.178-0.081,0.354-0.165,0.526-0.253  c0.199-0.101,0.395-0.208,0.587-0.32c0.168-0.097,0.333-0.197,0.496-0.302c0.188-0.121,0.371-0.247,0.551-0.377  c0.156-0.112,0.31-0.225,0.461-0.345c0.175-0.138,0.344-0.283,0.511-0.43c0.143-0.126,0.287-0.252,0.424-0.386  c0.161-0.155,0.315-0.317,0.467-0.481c0.129-0.139,0.26-0.277,0.384-0.421c0.147-0.171,0.284-0.35,0.42-0.529  c0.114-0.15,0.231-0.299,0.34-0.454c0.13-0.186,0.249-0.382,0.369-0.574c0.099-0.16,0.201-0.317,0.293-0.482  c0.113-0.203,0.213-0.413,0.315-0.622c0.081-0.166,0.167-0.33,0.241-0.5c0.096-0.221,0.177-0.448,0.26-0.676  c0.063-0.169,0.13-0.335,0.185-0.508c0.077-0.241,0.136-0.489,0.198-0.737c0.042-0.167,0.093-0.33,0.128-0.5  c0.058-0.279,0.097-0.566,0.136-0.853c0.021-0.143,0.051-0.283,0.066-0.429c0.045-0.434,0.07-0.875,0.07-1.323v-62.821V88.926  v-5.389V67.368C471.579,66.872,471.568,66.379,471.546,65.888z"/>
<g>
	<path style="fill:#E1B872;" d="M191.326,279.803L191.326,279.803c0,1.022,0.692,1.905,1.68,2.164   c20.631,5.416,39.841,15.688,55.879,30.053c4.037,3.615,10.193,3.615,14.228,0c16.038-14.365,35.248-24.636,55.879-30.053   c0.988-0.26,1.68-1.143,1.68-2.164l0,0c0-1.241-1.006-2.245-2.245-2.245H193.572C192.332,277.558,191.326,278.563,191.326,279.803z   "/>
	<path style="fill:#E1B872;" d="M56.589,288.337v11.034c0,9.031,10.483,14.112,17.497,8.425   c14.939-12.112,32.317-20.932,50.883-25.82c0.99-0.261,1.683-1.145,1.683-2.169l0,0c0-1.242-1.007-2.25-2.25-2.25H67.368   C61.415,277.558,56.589,282.383,56.589,288.337z"/>
</g>
<g>
	<path style="fill:#D5A150;" d="M385.347,279.807L385.347,279.807c0,1.023,0.693,1.908,1.683,2.169   c18.566,4.888,35.946,13.708,50.883,25.82c7.014,5.688,17.497,0.606,17.497-8.425v-11.034c0-5.953-4.826-10.779-10.779-10.779   h-57.035C386.354,277.558,385.347,278.564,385.347,279.807z"/>
	<path style="fill:#D5A150;" d="M225.426,295.154l0.014,0.025c8.35,4.74,16.222,10.37,23.445,16.841   c4.037,3.615,10.193,3.615,14.228,0c16.038-14.365,35.248-24.636,55.879-30.053c0.988-0.26,1.68-1.143,1.68-2.164   c0-1.241-1.006-2.245-2.245-2.245H256C256,293.25,239.073,302.9,225.426,295.154z"/>
</g>
<path style="fill:#E1B872;" d="M61.979,83.537c-2.976,0-5.389-2.413-5.389-5.389V67.368c0-2.201,0.429-4.328,1.277-6.32  c2.093-4.921,7.075-8.101,12.691-8.101c1.962,0,3.877,0.395,5.692,1.172l10.507,4.503c18.634,7.986,38.607,12.575,58.877,12.909  c21.582,0.356,42.587-3.755,62.389-12.205c1.58-0.675,3.23-1.199,4.932-1.434c6.024-0.832,11.843,1.141,16.034,5.33l9.274,9.274  c4.074,4.074,1.189,11.041-4.574,11.041H61.979V83.537z"/>
<path style="fill:#D5A150;" d="M275.708,83.537c-4.801,0-7.206-5.806-3.811-9.2l11.934-11.934c4.05-4.05,9.62-6.029,15.427-5.405  c1.635,0.176,3.233,0.61,4.773,1.188l9.23,3.461c17.172,6.439,35.176,9.704,53.513,9.704c23.541,0,47.112-5.564,68.165-16.091  c2.032-1.016,4.181-1.531,6.389-1.531c6.629,0,13.702,4.82,14.065,12.887c0.011,0.248,0.017,0.499,0.017,0.752v10.779  c0,2.976-2.413,5.389-5.389,5.389H275.708V83.537z"/>
<g>
</g>
<g>
</g>
<g>
</g>
<g>
</g>
<g>
</g>
<g>
</g>
<g>
</g>
<g>
</g>
<g>
</g>
<g>
</g>
<g>
</g>
<g>
</g>
<g>
</g>
<g>
</g>
<g>
</g>
</svg>
