<?xml version="1.0" encoding="iso-8859-1"?>
<!-- Generator: Adobe Illustrator 19.0.0, SVG Export Plug-In . SVG Version: 6.00 Build 0)  -->
<svg xmlns="http://www.w3.org/2000/svg" xmlns:xlink="http://www.w3.org/1999/xlink" version="1.1" id="Layer_1" x="0px" y="0px" viewBox="0 0 512 512" style="enable-background:new 0 0 512 512;" xml:space="preserve">
<rect x="137.432" y="271.295" style="fill:#6F7475;" width="43.116" height="64.674"/>
<path style="fill:#5F6568;" d="M180.547,300.533v-29.238h-43.116v29.238c6.953-1.496,14.164-2.291,21.558-2.291  C166.384,298.243,173.594,299.037,180.547,300.533z"/>
<rect x="331.453" y="271.295" style="fill:#6F7475;" width="43.116" height="64.674"/>
<path style="fill:#5F6568;" d="M353.01,298.243c7.394,0,14.604,0.794,21.558,2.291v-29.238h-43.116v29.238  C338.406,299.037,345.616,298.243,353.01,298.243z"/>
<path style="fill:#6F7475;" d="M220.968,392.559h-42.463l30.025-30.025l-11.432-11.432l-30.025,30.024v-42.462h-16.168v42.463  l-30.025-30.025l-11.432,11.432l30.025,30.025H97.011v16.168h42.463l-30.025,30.025l11.432,11.432l30.025-30.025v42.463h16.168  v-42.463l30.025,30.025l11.432-11.432l-30.025-30.025h42.463V392.559z"/>
<path style="fill:#5F6568;" d="M196.716,400.643c0-2.776-0.31-5.478-0.882-8.084h-17.328l12.241-12.241  c-2.944-4.583-6.849-8.488-11.432-11.432l-12.241,12.239v-17.328c-2.606-0.571-5.309-0.882-8.084-0.882s-5.478,0.31-8.084,0.882  v17.328l-12.241-12.241c-4.583,2.944-8.488,6.849-11.432,11.432l12.241,12.241h-17.328c-0.571,2.606-0.882,5.309-0.882,8.084  c0,2.776,0.31,5.478,0.882,8.084h17.328l-12.241,12.241c2.944,4.583,6.849,8.488,11.432,11.432l12.241-12.239v17.328  c2.606,0.571,5.309,0.882,8.084,0.882s5.478-0.31,8.084-0.882v-17.328l12.241,12.241c4.583-2.944,8.488-6.849,11.432-11.432  l-12.241-12.241h17.328C196.405,406.121,196.716,403.418,196.716,400.643z"/>
<path style="fill:#827061;" d="M208.508,351.123l4.376-4.376l7.052-7.052c-15.614-15.614-37.172-25.285-60.946-25.285  c-47.548,0-86.232,38.684-86.232,86.232c0,23.774,9.671,45.332,25.285,60.946l11.428-11.428l-15.155-49.517l21.558-43.116  l43.116-21.558L208.508,351.123z"/>
<path style="fill:#6D5B4D;" d="M219.936,339.696l-0.115,0.115c-6.033,6.033-15.428,6.836-22.568,2.163  c-12.19-7.978-27.004-12.261-42.842-11.249c-34.909,2.231-63.106,30.428-65.338,65.337c-1.013,15.839,3.271,30.653,11.249,42.843  c4.673,7.14,3.87,16.534-2.163,22.568l-0.115,0.115c16.496,16.496,39.626,26.358,64.994,25.193  c44.235-2.033,80.057-37.856,82.091-82.091C246.295,379.322,236.432,356.193,219.936,339.696z M105.095,400.643  c0-29.765,24.13-53.895,53.895-53.895s53.895,24.13,53.895,53.895c0,29.765-24.13,53.895-53.895,53.895  S105.095,430.408,105.095,400.643z"/>
<circle style="fill:#7F8383;" cx="158.989" cy="400.643" r="21.558"/>
<path style="fill:#91928F;" d="M137.432,400.643c0,3.161,0.697,6.154,1.92,8.859c2.706,1.222,5.698,1.92,8.859,1.92  c11.906,0,21.558-9.651,21.558-21.558c0-3.161-0.697-6.154-1.92-8.859c-2.706-1.222-5.698-1.92-8.859-1.92  C147.083,379.085,137.432,388.736,137.432,400.643z"/>
<circle style="fill:#A4A49E;" cx="150.905" cy="392.559" r="8.084"/>
<path style="fill:#6F7475;" d="M414.989,392.559h-42.463l30.025-30.025l-11.432-11.432l-30.025,30.024v-42.462h-16.168v42.463  l-30.025-30.025l-11.432,11.432l30.025,30.025h-42.463v16.168h42.463l-30.025,30.025l11.432,11.432l30.025-30.025v42.463h16.168  v-42.463l30.025,30.025l11.432-11.432l-30.025-30.025h42.463V392.559z"/>
<path style="fill:#5F6568;" d="M390.737,400.643c0-2.776-0.31-5.478-0.882-8.084h-17.328l12.241-12.241  c-2.944-4.583-6.849-8.488-11.432-11.432l-12.241,12.239v-17.328c-2.606-0.571-5.309-0.882-8.084-0.882  c-2.776,0-5.478,0.31-8.084,0.882v17.328l-12.241-12.241c-4.583,2.944-8.488,6.849-11.432,11.432l12.241,12.241h-17.328  c-0.571,2.606-0.882,5.309-0.882,8.084c0,2.776,0.31,5.478,0.882,8.084h17.328l-12.241,12.241  c2.944,4.583,6.849,8.488,11.432,11.432l12.241-12.239v17.328c2.606,0.571,5.309,0.882,8.084,0.882c2.776,0,5.478-0.31,8.084-0.882  v-17.328l12.241,12.241c4.583-2.944,8.488-6.849,11.432-11.432l-12.241-12.241h17.328  C390.426,406.121,390.737,403.418,390.737,400.643z"/>
<path style="fill:#827061;" d="M402.529,351.123l4.376-4.376l7.052-7.052c-15.614-15.614-37.172-25.285-60.946-25.285  c-47.548,0-86.232,38.684-86.232,86.232c0,23.774,9.671,45.332,25.285,60.946l11.428-11.428l-15.155-49.518l21.558-43.116  l43.116-21.558L402.529,351.123z"/>
<path style="fill:#6D5B4D;" d="M413.957,339.696l-0.115,0.115c-6.033,6.033-15.428,6.836-22.568,2.163  c-12.19-7.978-27.004-12.261-42.842-11.249c-34.909,2.231-63.106,30.428-65.338,65.337c-1.013,15.839,3.271,30.653,11.249,42.843  c4.673,7.14,3.87,16.534-2.163,22.568l-0.115,0.115c16.496,16.496,39.626,26.358,64.994,25.193  c44.235-2.033,80.057-37.856,82.091-82.091C440.316,379.322,430.453,356.193,413.957,339.696z M299.116,400.643  c0-29.765,24.13-53.895,53.895-53.895c29.765,0,53.895,24.13,53.895,53.895c0,29.765-24.13,53.895-53.895,53.895  C323.246,454.537,299.116,430.408,299.116,400.643z"/>
<circle style="fill:#7F8383;" cx="353.01" cy="400.643" r="21.558"/>
<path style="fill:#91928F;" d="M331.453,400.643c0,3.161,0.697,6.154,1.92,8.859c2.706,1.222,5.698,1.92,8.859,1.92  c11.906,0,21.558-9.651,21.558-21.558c0-3.161-0.697-6.154-1.92-8.859c-2.706-1.222-5.698-1.92-8.859-1.92  C341.104,379.085,331.453,388.736,331.453,400.643z"/>
<circle style="fill:#A4A49E;" cx="344.926" cy="392.559" r="8.084"/>
<g>
	<path style="fill:#6F7475;" d="M61.979,257.822c-4.465,0-8.084-3.62-8.084-8.084V88.053c0-4.465,3.62-8.084,8.084-8.084   s8.084,3.62,8.084,8.084v161.684C70.063,254.202,66.444,257.822,61.979,257.822z"/>
	<path style="fill:#6F7475;" d="M105.095,257.822c-4.465,0-8.084-3.62-8.084-8.084V88.053c0-4.465,3.62-8.084,8.084-8.084   s8.084,3.62,8.084,8.084v161.684C113.179,254.202,109.559,257.822,105.095,257.822z"/>
	<path style="fill:#6F7475;" d="M148.211,257.822c-4.465,0-8.084-3.62-8.084-8.084V88.053c0-4.465,3.62-8.084,8.084-8.084   c4.465,0,8.084,3.62,8.084,8.084v161.684C156.295,254.202,152.675,257.822,148.211,257.822z"/>
	<path style="fill:#6F7475;" d="M191.326,257.822c-4.465,0-8.084-3.62-8.084-8.084V88.053c0-4.465,3.62-8.084,8.084-8.084   c4.465,0,8.084,3.62,8.084,8.084v161.684C199.411,254.202,195.791,257.822,191.326,257.822z"/>
	<path style="fill:#6F7475;" d="M234.442,257.822c-4.465,0-8.084-3.62-8.084-8.084V88.053c0-4.465,3.62-8.084,8.084-8.084   c4.465,0,8.084,3.62,8.084,8.084v161.684C242.526,254.202,238.907,257.822,234.442,257.822z"/>
	<path style="fill:#6F7475;" d="M277.558,257.822c-4.465,0-8.084-3.62-8.084-8.084V88.053c0-4.465,3.62-8.084,8.084-8.084   c4.465,0,8.084,3.62,8.084,8.084v161.684C285.642,254.202,282.023,257.822,277.558,257.822z"/>
	<path style="fill:#6F7475;" d="M320.674,257.822c-4.465,0-8.084-3.62-8.084-8.084V88.053c0-4.465,3.62-8.084,8.084-8.084   s8.084,3.62,8.084,8.084v161.684C328.758,254.202,325.138,257.822,320.674,257.822z"/>
	<path style="fill:#6F7475;" d="M363.789,257.822c-4.465,0-8.084-3.62-8.084-8.084V88.053c0-4.465,3.62-8.084,8.084-8.084   s8.084,3.62,8.084,8.084v161.684C371.874,254.202,368.254,257.822,363.789,257.822z"/>
	<path style="fill:#6F7475;" d="M406.905,257.822c-4.465,0-8.084-3.62-8.084-8.084V88.053c0-4.465,3.62-8.084,8.084-8.084   s8.084,3.62,8.084,8.084v161.684C414.989,254.202,411.37,257.822,406.905,257.822z"/>
	<path style="fill:#6F7475;" d="M450.021,257.822c-4.465,0-8.084-3.62-8.084-8.084V88.053c0-4.465,3.62-8.084,8.084-8.084   s8.084,3.62,8.084,8.084v161.684C458.105,254.202,454.486,257.822,450.021,257.822z"/>
	<path style="fill:#6F7475;" d="M40.421,311.716H8.084c-4.465,0-8.084-3.62-8.084-8.084v-21.558c0-4.465,3.62-8.084,8.084-8.084   s8.084,3.62,8.084,8.084v13.474h24.253c4.465,0,8.084,3.62,8.084,8.084S44.886,311.716,40.421,311.716z"/>
</g>
<path style="fill:#7F8383;" d="M503.916,295.548h-32.337c-4.465,0-8.084-3.62-8.084-8.084c0-4.465,3.62-8.084,8.084-8.084h32.337  c4.465,0,8.084,3.62,8.084,8.084C512,291.928,508.38,295.548,503.916,295.548z"/>
<path style="fill:#AB5034;" d="M40.421,260.516v62.822c0,6.976,5.655,12.631,12.631,12.631l0,0c3.993,0,7.776-1.87,10.131-5.094  c21.583-29.558,56.487-48.801,95.807-48.801c34.722,0,66.003,15.005,87.706,38.869c4.984,5.48,13.626,5.48,18.61,0  c21.703-23.864,52.984-38.869,87.706-38.869c39.319,0,74.224,19.242,95.807,48.801c2.355,3.225,6.138,5.094,10.131,5.094l0,0  c6.976,0,12.631-5.655,12.631-12.631v-62.822c0-5.953-4.826-10.779-10.779-10.779h-409.6  C45.247,249.737,40.421,254.563,40.421,260.516z"/>
<path style="fill:#8D472E;" d="M460.8,249.737H272.168c-8.929,0-16.168,7.239-16.168,16.168l0,0  c0,15.677-16.913,25.354-30.545,17.613c-20.096-11.413-42.993-17.613-66.465-17.613c-37.47,0-73.312,15.866-98.666,43.087  c-1.677,1.8-4.327,5.008-6.689,7.934c-3.232,4.002-8.076,6.339-13.213,6.401v0.012c0,4.499,2.311,8.779,6.249,10.957  c5.934,3.282,12.903,1.523,16.513-3.421c21.583-29.558,56.487-48.801,95.807-48.801c34.722,0,66.003,15.005,87.706,38.869  c4.984,5.48,13.626,5.48,18.61,0c21.703-23.864,52.984-38.869,87.706-38.869c39.206,0,74.023,19.132,95.62,48.546  c2.212,3.012,5.613,5.032,9.338,5.312c7.418,0.559,13.609-5.295,13.609-12.593v-62.823  C471.579,254.563,466.753,249.737,460.8,249.737z"/>
<g>
	<path style="fill:#D5A150;" d="M191.326,268.151L191.326,268.151c0,1.022,0.692,1.905,1.68,2.164   c20.631,5.416,39.841,15.688,55.879,30.053c4.037,3.615,10.193,3.615,14.228,0c16.038-14.365,35.248-24.636,55.879-30.053   c0.988-0.26,1.68-1.143,1.68-2.164l0,0c0-1.241-1.006-2.245-2.245-2.245H193.572C192.332,265.906,191.326,266.91,191.326,268.151z"/>
	<path style="fill:#D5A150;" d="M56.589,276.685v11.034c0,9.031,10.483,14.112,17.497,8.425   c14.939-12.112,32.317-20.932,50.883-25.82c0.99-0.261,1.683-1.145,1.683-2.169l0,0c0-1.242-1.007-2.25-2.25-2.25H67.368   C61.415,265.906,56.589,270.732,56.589,276.685z"/>
</g>
<g>
	<path style="fill:#C98A2E;" d="M385.347,268.154L385.347,268.154c0,1.023,0.693,1.908,1.683,2.169   c18.566,4.888,35.946,13.708,50.883,25.82c7.014,5.688,17.497,0.606,17.497-8.425v-11.033c0-5.953-4.826-10.779-10.779-10.779   h-57.035C386.354,265.906,385.347,266.913,385.347,268.154z"/>
	<path style="fill:#C98A2E;" d="M225.426,283.503l0.014,0.025c8.35,4.74,16.222,10.37,23.445,16.841   c4.037,3.615,10.193,3.615,14.228,0c16.038-14.365,35.248-24.636,55.879-30.053c0.988-0.26,1.68-1.143,1.68-2.164   c0-1.241-1.006-2.245-2.245-2.245H256C256,281.597,239.073,291.248,225.426,283.503z"/>
</g>
<path style="fill:#AB5034;" d="M240.421,40.137c-10.121-10.121-25.384-13.061-38.54-7.422l0,0  c-34.273,14.688-73.067,14.688-107.34,0L82.62,27.605c-15.216-6.521-33.15,0.229-39.63,15.461c-1.655,3.886-2.569,8.161-2.569,12.65  v21.558c0,5.953,4.826,10.779,10.779,10.779H256V55.716L240.421,40.137z"/>
<path style="fill:#8D472E;" d="M471.546,54.236c-0.975-21.645-24.457-34.779-43.837-25.09l0,0  c-33.886,16.943-73.297,19.011-108.769,5.709l-9.497-3.561c-12.853-4.82-27.336-1.683-37.043,8.024L256,55.716l0,0  c0,8.929-7.239,16.168-16.168,16.168h-2.695H40.421v5.389c0,5.953,4.826,10.779,10.779,10.779H256h204.8  c5.953,0,10.779-4.826,10.779-10.779v-5.389V55.716C471.579,55.221,471.568,54.727,471.546,54.236z"/>
<path style="fill:#D5A150;" d="M61.979,71.885c-2.976,0-5.389-2.413-5.389-5.389V55.716c0-2.201,0.429-4.328,1.277-6.32  c2.093-4.921,7.075-8.101,12.691-8.101c1.962,0,3.877,0.395,5.692,1.172l10.507,4.503c18.634,7.986,38.607,12.575,58.877,12.909  c21.582,0.356,42.587-3.755,62.389-12.205c1.58-0.675,3.23-1.199,4.932-1.434c6.024-0.832,11.843,1.141,16.034,5.33l9.274,9.274  c4.074,4.074,1.189,11.041-4.574,11.041H61.979V71.885z"/>
<path style="fill:#C98A2E;" d="M275.708,71.885c-4.801,0-7.206-5.806-3.811-9.2l11.934-11.934c4.05-4.05,9.62-6.029,15.427-5.405  c1.635,0.176,3.233,0.61,4.773,1.188l9.23,3.461c17.172,6.439,35.176,9.704,53.513,9.704c23.541,0,47.112-5.564,68.165-16.091  c2.032-1.016,4.181-1.531,6.389-1.531c6.629,0,13.702,4.82,14.065,12.887c0.011,0.248,0.017,0.499,0.017,0.752v10.779  c0,2.976-2.413,5.389-5.389,5.389H275.708V71.885z"/>
<g>
</g>
<g>
</g>
<g>
</g>
<g>
</g>
<g>
</g>
<g>
</g>
<g>
</g>
<g>
</g>
<g>
</g>
<g>
</g>
<g>
</g>
<g>
</g>
<g>
</g>
<g>
</g>
<g>
</g>
</svg>
