<?xml version="1.0" encoding="iso-8859-1"?>
<!-- Generator: Adobe Illustrator 19.0.0, SVG Export Plug-In . SVG Version: 6.00 Build 0)  -->
<svg xmlns="http://www.w3.org/2000/svg" xmlns:xlink="http://www.w3.org/1999/xlink" version="1.1" id="Layer_1" x="0px" y="0px" viewBox="0 0 512 512" style="enable-background:new 0 0 512 512;" xml:space="preserve">
<path style="fill:#848075;" d="M50.361,391.694v97.923c0,12.362,10.021,22.383,22.383,22.383s22.383-10.021,22.383-22.383v-97.923  H50.361z"/>
<path style="fill:#ADA999;" d="M50.361,391.694v97.923c0,12.362,10.021,22.383,22.383,22.383V391.694H50.361z"/>
<path style="fill:#8D472E;" d="M492.987,497.914L370.954,365.711c-3.957-4.287-3.957-10.895,0-15.182l122.033-132.202l-17.59-5.693  H360.918V111.913l-41.967-33.574h-192.17l-93.208,30.704v25.78l20.424,63.822v128.699L17.744,350.21  c-0.15,0.619-0.282,1.243-0.398,1.875c-0.01,0.054-0.018,0.107-0.028,0.162c-0.104,0.577-0.194,1.159-0.267,1.747  c-0.021,0.167-0.036,0.335-0.051,0.501c-0.045,0.467-0.124,1.229-0.152,1.697c-0.038,0.639-0.059,1.28-0.059,1.928  c0,25.939,23.533,44.765,55.956,44.765c22.416,0,40.576-9,49.652-23.127c4.154-6.465,11.241-10.447,18.926-10.447h110.482v125.902  v8.393V512H486.82c0,0,0,0,0.001,0h0.001c2.036,0,4.077-0.736,5.691-2.226C495.919,506.63,496.131,501.32,492.987,497.914z"/>
<g>
	<path style="fill:#AB5034;" d="M486.82,204.24H252.421c-13.637,0-25.265-10.584-25.78-24.21   c-0.542-14.325,10.955-26.151,25.162-26.151h66.361c22.917,0,42.201-18.046,42.743-40.957   c0.557-23.601-18.479-42.978-41.956-42.978H144.75c-9.56,0-18.385-4.85-23.779-12.742c-0.635-0.928-1.255-1.729-1.831-2.319   c-6.094-6.244-14.6-10.119-24.014-10.119H50.361c-18.543,0-33.574,15.031-33.574,33.574c0,25.939,23.533,44.765,55.956,44.765   c3.867,0,7.602-0.275,11.191-0.791c18.086-2.599,32.332-11.489,39.557-24.133c3.983-6.969,11.211-11.448,19.238-11.448h175.603   c13.637,0,25.265,10.582,25.78,24.209c0.542,14.325-10.955,26.152-25.162,26.152h-66.361c-22.917,0-42.201,18.046-42.743,40.957   c-0.008,0.345,0.002,0.686,0.002,1.03l-0.012-0.019v290.973c0,23.141,18.826,41.967,41.967,41.967v-8.393v-8.393V232.219   c0-6.181,5.01-11.191,11.191-11.191h223.473c4.596,0,8.604-3.541,8.741-8.135C495.352,208.138,491.541,204.24,486.82,204.24z"/>
	<path style="fill:#AB5034;" d="M72.743,386.098c0.188,0,0.376-0.001,0.564-0.002c15.633-0.131,23.193-19.051,12.247-30.214   c-0.041-0.043-0.079-0.087-0.12-0.129c-0.511-0.526-1.014-1.062-1.5-1.613c-6.96-7.89-11.191-18.245-11.191-29.593V157.977   c0-5.177-3.652-9.533-8.693-10.709c-17.359-4.053-30.476-19.729-30.476-38.225V329.05c-8.367,4.842-14.438,13.191-16.228,23.036   c0.116-0.631,0.248-1.256,0.398-1.875C22.425,371.978,44.063,386.144,72.743,386.098z"/>
</g>
<path style="fill:#848075;" d="M72.743,89.53c4.081,0,7.897-0.555,11.191-1.51c6.683-1.936,11.191-5.542,11.191-9.682V67.148V44.765  V22.383C95.126,10.021,85.105,0,72.743,0S50.361,10.021,50.361,22.383v22.383v33.574C50.361,84.52,60.381,89.53,72.743,89.53z"/>
<path style="fill:#ADA999;" d="M72.743,89.53V22.037c0-14.291-21.517-15.237-22.344-0.969c-0.026,0.435-0.038,0.873-0.038,1.315  v22.383v33.574C50.361,84.52,60.381,89.53,72.743,89.53z"/>
<g>
</g>
<g>
</g>
<g>
</g>
<g>
</g>
<g>
</g>
<g>
</g>
<g>
</g>
<g>
</g>
<g>
</g>
<g>
</g>
<g>
</g>
<g>
</g>
<g>
</g>
<g>
</g>
<g>
</g>
</svg>
