<?xml version="1.0" encoding="iso-8859-1"?>
<!-- Generator: Adobe Illustrator 19.0.0, SVG Export Plug-In . SVG Version: 6.00 Build 0)  -->
<svg xmlns="http://www.w3.org/2000/svg" xmlns:xlink="http://www.w3.org/1999/xlink" version="1.1" id="Layer_1" x="0px" y="0px" viewBox="0 0 511.997 511.997" style="enable-background:new 0 0 511.997 511.997;" xml:space="preserve">
<circle style="fill:#C6DCD1;" cx="260.106" cy="255.999" r="251.892"/>
<path style="fill:#8D663D;" d="M106.347,275.178c-33.425,0-66.92-3.709-99.941-11.165c-4.426-1-7.202-5.396-6.203-9.822  s5.398-7.204,9.822-6.203c163.35,36.887,335.751-24.27,439.216-155.801c2.805-3.565,7.97-4.181,11.533-1.377  c3.566,2.805,4.182,7.969,1.378,11.533c-52.455,66.685-122.505,117.183-202.578,146.037  C210.122,266.2,158.328,275.178,106.347,275.178z"/>
<path style="fill:#78ABB1;" d="M163.679,279.772c0.396-0.05,0.793-0.1,1.189-0.151c5.098-0.651,8.655-5.385,7.896-10.468  l-2.138-14.323c-0.738-4.945-5.295-8.377-10.255-7.744c-28.099,3.589-56.541,4.373-84.782,2.337  c-4.987-0.359-9.348,3.318-9.813,8.296l-1.359,14.548c-0.473,5.064,3.29,9.509,8.363,9.88l0.093,0.007l39.877,87.727  c1.945,4.28,8.024,4.28,9.971,0L163.679,279.772z"/>
<g>
	<path style="opacity:0.5;fill:#6A9093;enable-background:new    ;" d="M72.779,282.148l7.804,16.971   c8.588,0.465,17.18,0.701,25.769,0.701c16.502,0,32.985-0.875,49.389-2.587l7.938-17.463   C164.074,279.721,67.707,281.779,72.779,282.148z"/>
	<path style="fill:#6A9093;" d="M164.867,279.621c5.098-0.651,8.655-5.385,7.896-10.468l-2.138-14.323   c-0.738-4.946-5.295-8.377-10.255-7.744c-28.099,3.589-56.541,4.373-84.782,2.337c-4.987-0.359-9.348,3.318-9.813,8.296   l-1.359,14.548c-0.473,5.064,3.29,9.509,8.363,9.88l0.093,0.007l0.004,0.009c11.152,0.813,22.315,1.228,33.472,1.228   c19.168,0,38.309-1.217,57.324-3.608l0.005-0.012C164.074,279.721,164.471,279.671,164.867,279.621z"/>
</g>
<path style="fill:#92BCBC;" d="M160.371,247.087c-28.099,3.589-56.54,4.373-84.782,2.337c-4.987-0.359-9.348,3.318-9.813,8.296  v0.001c-0.379,4.062,2.654,7.636,6.721,7.947c30.972,2.37,61.735,1.45,91.861-2.533c4.043-0.534,6.871-4.271,6.269-8.305l0,0  C169.888,249.885,165.331,246.453,160.371,247.087z"/>
<path style="fill:#AB5034;" d="M228.611,266.803l75.603,65.85c3.543,3.086,9.072,0.569,9.072-4.129v-94.309c0,0,0,0,0-0.001  c4.237-2.078,5.896-7.252,3.704-11.418l-7.492-14.241c-2.126-4.039-7.089-5.631-11.169-3.585  c-25.782,12.938-52.863,23.269-80.713,30.789c-4.407,1.189-7.05,5.683-5.945,10.112l3.894,15.61  c1.305,5.232,7.25,8.054,12.322,5.255C228.155,266.76,228.346,266.778,228.611,266.803z"/>
<g>
	<path style="opacity:0.5;fill:#8D472E;enable-background:new    ;" d="M228.611,266.803l14.744,12.842   c8.243-2.476,16.441-5.152,24.573-8.082c15.492-5.583,30.626-11.942,45.358-19.027v-18.321L228.611,266.803z"/>
	<path style="fill:#8D472E;" d="M313.286,234.213c4.237-2.078,5.896-7.252,3.704-11.418l-7.492-14.241   c-2.126-4.039-7.089-5.631-11.169-3.583c-25.782,12.938-52.863,23.269-80.713,30.789c-4.407,1.189-7.05,5.683-5.945,10.112   l3.894,15.61c1.305,5.232,7.25,8.054,12.322,5.255c0.262,0.024,0.452,0.042,0.712,0.066c11.352-3.131,22.616-6.68,33.758-10.694   c17.471-6.295,34.469-13.611,50.927-21.876L313.286,234.213C313.286,234.214,313.286,234.213,313.286,234.213z"/>
</g>
<path style="fill:#BD7155;" d="M298.33,204.97c-25.782,12.938-52.863,23.269-80.713,30.789c-4.407,1.189-7.05,5.684-5.945,10.112  l0,0c1.092,4.375,5.565,7.003,9.919,5.831c29.205-7.861,57.483-18.662,84.391-32.193c4.028-2.026,5.615-6.964,3.516-10.955l0,0  C307.374,204.514,302.409,202.923,298.33,204.97z"/>
<path style="fill:#D9B43A;" d="M440.361,140.025l0.069-0.072c3.755-3.947,3.531-10.209-0.497-13.877l-9.899-9.014  c-3.924-3.574-9.973-3.339-13.634,0.504c-19.734,20.714-41.563,39.447-65.081,55.849c-4.354,3.037-5.502,8.98-2.564,13.401  l7.446,11.202c3.003,4.518,9.103,5.679,13.556,2.578l0.082-0.057l90.715,42.239c4.259,1.983,8.875-1.967,7.573-6.481  L440.361,140.025z"/>
<g>
	<path style="opacity:0.5;fill:#BB9430;enable-background:new    ;" d="M440.361,140.025l0.069-0.072l-70.673,60.64l0.082-0.057   l17.166,7.993c20.836-15.133,40.432-31.954,58.604-50.312L440.361,140.025z"/>
	<path style="fill:#BB9430;" d="M440.43,139.953c3.755-3.947,3.531-10.209-0.497-13.877l-9.899-9.014   c-3.924-3.574-9.973-3.339-13.634,0.504c-19.734,20.714-41.563,39.447-65.081,55.849c-4.354,3.037-5.502,8.98-2.564,13.402   l7.446,11.202c3.003,4.518,9.103,5.679,13.556,2.578l0.082-0.057l0.045,0.021c25.433-17.71,49.043-37.978,70.482-60.522   l-0.003-0.01L440.43,139.953z"/>
</g>
<path style="fill:#E2C35A;" d="M430.034,117.062L430.034,117.062c-3.925-3.575-9.973-3.34-13.635,0.503  c-19.734,20.714-41.563,39.447-65.081,55.849c-4.354,3.037-5.502,8.98-2.564,13.402l0,0c2.09,3.143,6.344,3.946,9.455,1.808  c26.054-17.904,50.282-38.635,72.178-61.939C432.971,123.932,432.825,119.603,430.034,117.062z"/>
<g>
</g>
<g>
</g>
<g>
</g>
<g>
</g>
<g>
</g>
<g>
</g>
<g>
</g>
<g>
</g>
<g>
</g>
<g>
</g>
<g>
</g>
<g>
</g>
<g>
</g>
<g>
</g>
<g>
</g>
</svg>
