<?xml version="1.0" encoding="iso-8859-1"?>
<!-- Generator: Adobe Illustrator 19.0.0, SVG Export Plug-In . SVG Version: 6.00 Build 0)  -->
<svg xmlns="http://www.w3.org/2000/svg" xmlns:xlink="http://www.w3.org/1999/xlink" version="1.1" id="Layer_1" x="0px" y="0px" viewBox="0 0 512.002 512.002" style="enable-background:new 0 0 512.002 512.002;" xml:space="preserve">
<path style="fill:#E1B872;" d="M380.949,481.485c0.285-0.148,0.566-0.302,0.851-0.452c3.573-1.88,7.104-3.831,10.581-5.863  c-9.764-36.235-33.786-66.832-65.455-85.332c-20.75-11.977-45.246-19.081-70.926-19.081s-50.176,7.103-70.924,19.081  c-31.669,18.499-55.69,49.096-65.455,85.332c40.041,23.399,86.621,36.823,136.343,36.83c0.001,0,0.001,0,0.002,0  c0.012,0,0.022,0,0.034,0c0.012,0,0.022,0,0.034,0c0.001,0,0.001,0,0.002,0C301.097,511.994,343.577,500.968,380.949,481.485z"/>
<g>
	<path style="fill:#D5A150;" d="M326.926,389.839c-20.75-11.977-45.246-19.081-70.926-19.081l-45.909,30.097l45.909,28.753   c29.769,0,58.376-10.906,80.553-30.708c0.591-0.527,1.204-1.084,1.802-1.622C334.672,394.62,330.859,392.135,326.926,389.839z"/>
	<path style="fill:#D5A150;" d="M331.329,437.53v63.838c9.764-2.825,19.302-6.188,28.579-10.048   C355.799,470.57,345.636,451.999,331.329,437.53z"/>
</g>
<path style="fill:#ECCE93;" d="M179.086,393.529c-28.778,18.722-50.304,47.644-59.465,81.641  c40.05,23.405,86.645,36.83,136.379,36.83v-58.253c0-11.182-7.859-20.858-18.822-23.055  C213.442,425.935,192.895,412.357,179.086,393.529z"/>
<path style="fill:#E1B872;" d="M152.094,491.318c8.772,3.651,17.783,6.838,26.992,9.564l23.54-20.961l-23.54-40.73  C165.621,453.411,156.048,471.35,152.094,491.318z"/>
<path style="fill:#C1BDAB;" d="M223.679,374.541c-13.765,3.249-26.792,8.479-38.602,15.296c-1.487,0.869-4.537,2.77-5.99,3.691  v107.373c23.902,6.915,50.748,11.093,76.878,11.097c0.001,0,0.001,0,0.002,0c0.012,0,0.022,0,0.034,0c0.012,0,0.022,0,0.034,0  c0.001,0,0.001,0,0.002,0c26.287-0.004,51.687-3.782,75.716-10.778C283.679,471.544,245.59,427.256,223.679,374.541z"/>
<path style="fill:#D5D2BD;" d="M256.001,453.747c0-11.182-7.859-20.858-18.822-23.054c-23.737-4.757-44.283-18.335-58.093-37.163  v45.663v61.692v0.019c0.341,0.101,0.686,0.194,1.028,0.294c0.186,0.054,0.372,0.106,0.558,0.16  c23.915,6.92,49.184,10.644,75.329,10.644V453.747z"/>
<path style="fill:#E1B872;" d="M438.437,188.321c-8.637,0-16.783,2.081-23.986,5.747c-19.03-71.986-78.915-136.562-150.826-140.864  c-2.528-0.152-5.068-0.24-7.625-0.24c-58.07,0-109.114,39.626-138.46,91.95c-0.001,0-0.001-0.001-0.002-0.001h-0.001  c-0.027,0.049-0.053,0.099-0.08,0.147c-1.006,1.798-1.987,3.611-2.941,5.438c-0.058,0.112-0.118,0.221-0.177,0.333  c-0.976,1.876-1.924,3.766-2.844,5.67c-0.029,0.06-0.059,0.12-0.088,0.18c-0.943,1.955-1.856,3.923-2.738,5.904  c-0.007,0.015-0.013,0.029-0.02,0.045c-0.893,2.007-1.756,4.025-2.585,6.057c-0.052,0.128-0.106,0.257-0.158,0.385  c-0.77,1.894-1.509,3.798-2.222,5.711c-0.082,0.221-0.165,0.443-0.246,0.664c-0.69,1.869-1.354,3.746-1.988,5.632  c-0.082,0.245-0.162,0.491-0.244,0.736c-0.63,1.893-1.236,3.792-1.809,5.7c-0.058,0.193-0.113,0.386-0.169,0.579  c-0.591,1.984-1.156,3.974-1.684,5.971l112,200.219c14.158,7.679,30.111,11.784,46.457,11.784c23.93,0,47.025-8.789,64.875-24.727  c26.846-23.972,65.489-61.851,85.956-97.552c8.823,6.571,19.76,10.462,31.606,10.462c29.252,0,52.966-23.713,52.966-52.966  S467.69,188.321,438.437,188.321z"/>
<path style="fill:#ECCE93;" d="M256.001,214.804c-37.169,0-73.262,7.177-107.276,21.333l-0.579,0.095  c-10.883,1.783-21.317-4.424-25.423-14.66c-4.788-11.933-13.795-21.716-25.179-27.508c-8.231-4.188-17.693-6.305-27.71-5.614  c-26.825,1.85-48.237,24.022-49.199,50.893c-1.078,30.137,23.033,54.909,52.93,54.909c11.847,0,22.783-3.891,31.606-10.462  c20.467,35.701,59.11,73.58,85.956,97.552c5.658,5.052,11.845,9.38,18.416,12.942c23.707-0.151,46.559-8.912,64.253-24.713  c32.42-28.949,82.035-78.174,96.077-119.357c1.933-5.668-0.969-11.75-6.503-14.041c-0.031-0.013-0.062-0.026-0.093-0.039  C329.262,221.981,293.169,214.804,256.001,214.804z"/>
<circle style="fill:#D5A150;" cx="438.437" cy="241.287" r="17.655"/>
<circle style="fill:#E1B872;" cx="73.564" cy="241.287" r="17.655"/>
<g>
	<path style="fill:#474641;" d="M197.15,267.77c-14.602,0-26.483-11.88-26.483-26.483c0-4.875,3.951-8.828,8.828-8.828   c4.876,0,8.828,3.952,8.828,8.828c0,4.868,3.959,8.828,8.828,8.828s8.828-3.959,8.828-8.828c0-4.875,3.951-8.828,8.828-8.828   c4.876,0,8.828,3.952,8.828,8.828C223.633,255.89,211.752,267.77,197.15,267.77z"/>
	<path style="fill:#474641;" d="M314.851,267.77c-14.602,0-26.483-11.88-26.483-26.483c0-4.875,3.951-8.828,8.828-8.828   c4.876,0,8.828,3.952,8.828,8.828c0,4.868,3.959,8.828,8.828,8.828s8.828-3.959,8.828-8.828c0-4.875,3.951-8.828,8.828-8.828   s8.828,3.952,8.828,8.828C341.334,255.89,329.453,267.77,314.851,267.77z"/>
</g>
<path style="fill:#C1BDAB;" d="M438.437,48.807c-0.079-0.08-0.153-0.164-0.233-0.242c-64.419-64.752-299.99-64.752-364.409,0  c-0.079,0.079-0.154,0.162-0.233,0.242C37.913,84.929,36.499,151.98,53.566,192.24c6.172-2.519,12.92-3.918,19.997-3.918  c0.947,0,1.889,0.027,2.825,0.077c0.306,0.016,0.606,0.048,0.91,0.069c0.629,0.044,1.258,0.087,1.881,0.153  c0.353,0.038,0.701,0.089,1.052,0.134c0.569,0.072,1.136,0.142,1.698,0.232c0.365,0.058,0.725,0.128,1.086,0.194  c0.543,0.098,1.085,0.197,1.622,0.311c0.363,0.078,0.722,0.165,1.08,0.25c0.531,0.125,1.06,0.252,1.585,0.393  c0.351,0.094,0.698,0.197,1.045,0.297c0.528,0.153,1.055,0.312,1.576,0.481c0.332,0.108,0.663,0.221,0.992,0.335  c0.532,0.184,1.059,0.375,1.583,0.577c0.308,0.119,0.616,0.239,0.922,0.364c0.54,0.219,1.076,0.447,1.607,0.683  c0.279,0.124,0.558,0.248,0.835,0.378c0.557,0.259,1.106,0.53,1.653,0.806c0.241,0.122,0.483,0.244,0.722,0.37  c0.585,0.308,1.161,0.631,1.733,0.96c0.191,0.111,0.384,0.217,0.573,0.33c0.636,0.377,1.259,0.77,1.877,1.171  c0.117,0.077,0.237,0.149,0.353,0.226c0.73,0.484,1.447,0.983,2.15,1.501c0.002,0.001,0.005,0.004,0.007,0.005  c2.926,2.156,5.621,4.607,8.045,7.307c0.021,0.025,0.045,0.045,0.067,0.069c6.442,7.119,16.634,9.387,25.503,5.696  c36.167-15.052,75.838-23.367,117.454-23.367s81.287,8.316,117.452,23.366c8.87,3.691,19.063,1.423,25.503-5.696  c0.021-0.024,0.045-0.045,0.067-0.069c2.423-2.7,5.119-5.151,8.045-7.307c0.002-0.001,0.005-0.004,0.007-0.005  c0.704-0.518,1.421-1.018,2.15-1.501c0.117-0.078,0.237-0.151,0.353-0.226c0.618-0.403,1.242-0.794,1.877-1.171  c0.189-0.113,0.383-0.22,0.573-0.33c0.571-0.33,1.148-0.651,1.733-0.96c0.239-0.126,0.48-0.247,0.722-0.37  c0.546-0.278,1.096-0.547,1.652-0.806c0.277-0.128,0.556-0.253,0.835-0.378c0.532-0.235,1.066-0.464,1.607-0.683  c0.306-0.124,0.613-0.245,0.922-0.364c0.524-0.201,1.052-0.392,1.583-0.577c0.33-0.114,0.659-0.227,0.992-0.335  c0.521-0.169,1.048-0.327,1.576-0.481c0.347-0.101,0.694-0.202,1.045-0.297c0.525-0.14,1.055-0.268,1.585-0.393  c0.36-0.085,0.718-0.172,1.081-0.25c0.537-0.114,1.079-0.213,1.622-0.311c0.363-0.065,0.723-0.137,1.086-0.194  c0.563-0.089,1.131-0.16,1.698-0.232c0.351-0.045,0.699-0.097,1.052-0.134c0.623-0.066,1.251-0.109,1.881-0.153  c0.304-0.021,0.605-0.053,0.91-0.069c0.936-0.049,1.877-0.077,2.825-0.077c7.077,0,13.825,1.398,19.996,3.918  C475.501,151.98,474.087,84.929,438.437,48.807z"/>
<path style="fill:#D5D2BD;" d="M375.707,15.601c3.223,0.965,6.376,1.977,9.458,3.032C290.296-13.835,125.954-3.864,73.797,48.564  c-0.079,0.079-0.154,0.162-0.233,0.242c-21.678,21.967-30.679,55.368-30.581,87.228c-0.004-0.953-0.008-1.907,0.006-2.864  C139.594,68.045,253.177,26.181,375.707,15.601z"/>
<path style="fill:#ADA999;" d="M464.022,95.912c-8.875-0.374-17.795-0.574-26.762-0.574c-124.649,0-240.753,36.566-338.186,99.547  c0.299,0.166,0.603,0.327,0.898,0.498c0.191,0.111,0.384,0.217,0.573,0.33c0.636,0.377,1.259,0.77,1.877,1.171  c0.117,0.077,0.237,0.149,0.353,0.226c0.73,0.484,1.447,0.983,2.15,1.501c0.002,0.001,0.005,0.004,0.007,0.005  c2.926,2.156,5.621,4.607,8.045,7.307c0.021,0.025,0.045,0.045,0.067,0.069c6.442,7.119,16.634,9.387,25.503,5.696  c36.165-15.049,75.836-23.365,117.452-23.365s81.287,8.316,117.452,23.366c8.87,3.691,19.063,1.423,25.503-5.696  c0.021-0.024,0.045-0.045,0.067-0.069c2.423-2.7,5.119-5.151,8.045-7.307c0.002-0.001,0.005-0.004,0.007-0.005  c0.704-0.518,1.421-1.018,2.15-1.501c0.117-0.078,0.237-0.151,0.353-0.226c0.618-0.403,1.242-0.794,1.877-1.171  c0.189-0.113,0.383-0.22,0.573-0.33c0.571-0.33,1.148-0.651,1.733-0.96c0.239-0.126,0.48-0.247,0.722-0.37  c0.546-0.278,1.096-0.547,1.652-0.806c0.277-0.128,0.556-0.253,0.835-0.378c0.532-0.235,1.066-0.464,1.607-0.683  c0.306-0.124,0.613-0.245,0.922-0.364c0.524-0.201,1.052-0.392,1.583-0.577c0.33-0.114,0.659-0.227,0.992-0.335  c0.521-0.169,1.048-0.327,1.576-0.481c0.347-0.101,0.694-0.202,1.045-0.297c0.525-0.14,1.055-0.268,1.585-0.393  c0.36-0.085,0.718-0.172,1.081-0.25c0.537-0.114,1.079-0.213,1.622-0.311c0.363-0.065,0.723-0.137,1.086-0.194  c0.563-0.089,1.131-0.16,1.698-0.232c0.351-0.045,0.699-0.097,1.052-0.134c0.623-0.066,1.251-0.109,1.881-0.153  c0.304-0.021,0.605-0.053,0.91-0.069c0.936-0.049,1.877-0.077,2.825-0.077c7.077,0,13.825,1.398,19.996,3.918  C469.496,166.145,472.778,128.801,464.022,95.912z"/>
<path style="opacity:0.1;fill:#47423F;enable-background:new    ;" d="M438.437,48.807c-0.079-0.08-0.153-0.164-0.233-0.242  C406.028,16.221,331.153,0.035,256.232,0.001c51.987,0.074,94.082,42.266,94.027,94.259c-0.001,0.919-0.015,1.836-0.042,2.748  c-1.145,38.528-34.737,67.895-73.208,65.487c-6.968-0.437-13.972-0.656-21.01-0.656c-39.283,0-77.577,6.753-114.047,20.092  c-6.608,2.416-13.943,1.09-19.483-3.246c-0.029-0.024-0.06-0.047-0.089-0.069l-1.535-1.166c-0.066-0.049-0.133-0.099-0.199-0.148  l-2.003-1.476l-0.242-0.118c-0.326-0.222-0.656-0.445-0.985-0.664c-0.197-0.129-0.395-0.259-0.607-0.393  c-0.904-0.586-1.815-1.156-2.708-1.688c-0.27-0.161-0.543-0.318-0.884-0.512c-0.87-0.503-1.747-0.991-2.595-1.437  c-0.313-0.166-0.627-0.326-0.943-0.487l-0.177-0.089c-0.806-0.41-1.617-0.807-2.454-1.197c-0.417-0.194-0.838-0.383-1.274-0.577  c-0.8-0.355-1.609-0.699-2.386-1.012c-0.468-0.191-0.94-0.377-1.396-0.551c-0.802-0.308-1.609-0.603-2.346-0.857  c-0.511-0.178-1.024-0.353-1.552-0.524c-0.79-0.257-1.585-0.498-2.385-0.729c-0.511-0.148-1.022-0.295-1.514-0.427  c-0.81-0.218-1.627-0.417-2.382-0.594l-0.169-0.04c-0.497-0.119-0.993-0.233-1.459-0.332c-0.77-0.166-1.548-0.312-2.327-0.453  l-0.395-0.073c-0.468-0.086-0.938-0.171-1.364-0.237c-0.852-0.135-1.711-0.248-2.581-0.358l-0.142-0.02  c-0.481-0.065-0.964-0.125-1.425-0.173c-0.932-0.098-1.874-0.169-2.748-0.23c-0.472-0.04-0.943-0.075-1.447-0.102  c-1.428-0.074-2.838-0.112-4.19-0.112c-9.488,0-18.759,1.683-27.606,4.969c1.8,9.178,4.369,17.789,7.609,25.432  c6.171-2.519,12.919-3.918,19.996-3.918c0.947,0,1.889,0.027,2.825,0.077c0.306,0.016,0.606,0.048,0.91,0.069  c0.629,0.044,1.258,0.087,1.881,0.153c0.353,0.038,0.701,0.089,1.052,0.134c0.569,0.072,1.136,0.142,1.698,0.232  c0.365,0.058,0.725,0.128,1.086,0.194c0.543,0.098,1.085,0.197,1.622,0.311c0.363,0.078,0.722,0.165,1.08,0.25  c0.531,0.125,1.06,0.252,1.585,0.393c0.351,0.094,0.698,0.197,1.045,0.297c0.528,0.153,1.055,0.312,1.576,0.481  c0.332,0.108,0.663,0.221,0.992,0.335c0.532,0.184,1.059,0.375,1.583,0.577c0.308,0.119,0.616,0.239,0.922,0.364  c0.54,0.219,1.076,0.447,1.607,0.683c0.279,0.124,0.558,0.248,0.835,0.378c0.557,0.259,1.106,0.53,1.653,0.806  c0.241,0.122,0.483,0.244,0.722,0.37c0.585,0.308,1.161,0.631,1.733,0.96c0.191,0.111,0.384,0.217,0.573,0.33  c0.636,0.377,1.259,0.77,1.877,1.171c0.117,0.077,0.237,0.149,0.353,0.226c0.73,0.484,1.447,0.983,2.15,1.501  c0.002,0.001,0.005,0.004,0.007,0.005c2.926,2.156,5.654,4.641,8.078,7.341c6.442,7.119,16.666,9.421,25.538,5.73  c36.167-15.05,75.838-23.366,117.454-23.366s81.287,8.316,117.452,23.366c8.87,3.691,19.096,1.389,25.538-5.73  c2.423-2.7,5.152-5.185,8.078-7.341c0.002-0.001,0.005-0.004,0.007-0.005c0.704-0.518,1.421-1.018,2.15-1.501  c0.117-0.078,0.237-0.151,0.353-0.226c0.618-0.403,1.242-0.794,1.877-1.171c0.189-0.113,0.383-0.22,0.573-0.33  c0.571-0.33,1.148-0.651,1.733-0.96c0.239-0.126,0.48-0.247,0.722-0.37c0.546-0.278,1.096-0.547,1.652-0.806  c0.277-0.128,0.556-0.253,0.835-0.378c0.532-0.235,1.066-0.464,1.607-0.683c0.306-0.124,0.613-0.245,0.922-0.364  c0.524-0.201,1.052-0.392,1.583-0.577c0.33-0.114,0.659-0.227,0.992-0.335c0.521-0.169,1.048-0.327,1.576-0.481  c0.347-0.101,0.694-0.202,1.045-0.297c0.525-0.14,1.055-0.268,1.585-0.393c0.36-0.085,0.718-0.172,1.081-0.25  c0.537-0.114,1.079-0.213,1.622-0.311c0.363-0.065,0.723-0.137,1.086-0.194c0.563-0.089,1.131-0.16,1.698-0.232  c0.351-0.045,0.699-0.097,1.052-0.134c0.623-0.066,1.251-0.109,1.881-0.153c0.304-0.021,0.605-0.053,0.91-0.069  c0.936-0.049,1.877-0.077,2.825-0.077c7.077,0,13.825,1.398,19.996,3.918c0.48-1.131,0.94-2.29,1.39-3.464  c0.141-0.368,0.279-0.744,0.417-1.117c0.31-0.832,0.612-1.674,0.906-2.525c0.146-0.421,0.292-0.843,0.434-1.269  c0.314-0.944,0.619-1.899,0.915-2.864c0.092-0.3,0.191-0.594,0.281-0.897c0.354-1.184,0.691-2.387,1.017-3.599  c0.145-0.54,0.282-1.086,0.423-1.633c0.19-0.743,0.375-1.489,0.556-2.241c0.144-0.604,0.286-1.208,0.424-1.816  c0.172-0.764,0.334-1.536,0.496-2.308c0.118-0.566,0.241-1.128,0.353-1.697v-0.002C473.727,127.635,467.319,78.072,438.437,48.807z"/>
<path style="fill:#848075;" d="M264.24,260.413c-3.821,0-7.063,2.431-8.293,5.826c-1.306-3.241-4.476-5.532-8.185-5.532  c-19.47,0-35.31,15.84-35.31,35.31c0,4.875,3.951,8.828,8.828,8.828c17.342,0,31.795-12.57,34.748-29.077  c3.072,16.362,17.456,28.783,34.696,28.783c4.876,0,8.828-3.952,8.828-8.828C299.55,276.253,283.71,260.413,264.24,260.413z"/>
<path style="fill:#989487;" d="M269.078,324.434L269.078,324.434c-8.11-4.61-18.047-4.61-26.157,0l0,0  c-40.628,23.098-40.628,60.548,0,83.646l0,0c7.223,4.107,18.933,4.107,26.156,0l0,0  C309.708,384.982,309.708,347.532,269.078,324.434z"/>
<path style="fill:#848075;" d="M223.802,393.128c4.834,5.387,11.193,10.445,19.121,14.953l0,0c7.223,4.107,18.933,4.107,26.156,0  l0,0c27.867-15.843,36.613-38.436,26.254-58.52C287.388,390.767,258.355,398.614,223.802,393.128z"/>
<g>
</g>
<g>
</g>
<g>
</g>
<g>
</g>
<g>
</g>
<g>
</g>
<g>
</g>
<g>
</g>
<g>
</g>
<g>
</g>
<g>
</g>
<g>
</g>
<g>
</g>
<g>
</g>
<g>
</g>
</svg>
