<?xml version="1.0" encoding="iso-8859-1"?>
<!-- Generator: Adobe Illustrator 19.0.0, SVG Export Plug-In . SVG Version: 6.00 Build 0)  -->
<svg xmlns="http://www.w3.org/2000/svg" xmlns:xlink="http://www.w3.org/1999/xlink" version="1.1" id="Layer_1" x="0px" y="0px" viewBox="0 0 512 512" style="enable-background:new 0 0 512 512;" xml:space="preserve">
<path style="fill:#E7E4CD;" d="M185.993,361.778c-31.167,18.206-54.602,48.196-64.212,83.858  c39.416,23.034,85.272,36.247,134.219,36.247s94.803-13.212,134.219-36.247c-9.61-35.662-33.045-65.652-64.212-83.858  L185.993,361.778L185.993,361.778z"/>
<g>
	<path style="fill:#BD7155;" d="M256,481.882c38.751,0,75.559-8.288,108.773-23.167H147.227   C180.441,473.594,217.249,481.882,256,481.882z"/>
	<path style="fill:#BD7155;" d="M124.921,435.548H387.08c-2.861-8.095-6.457-15.84-10.696-23.167H135.616   C131.378,419.708,127.782,427.453,124.921,435.548z"/>
	<path style="fill:#BD7155;" d="M332.832,366.045H179.168c-9.881,6.567-18.876,14.358-26.761,23.167h207.186   C351.708,380.403,342.713,372.612,332.832,366.045z"/>
</g>
<g>
	<path style="opacity:0.2;fill:#47423F;enable-background:new    ;" d="M360.253,389.962c-2.59-2.935-5.302-5.759-8.128-8.468   c-6.358-6.09-13.29-11.584-20.713-16.387c-1.775-1.149-3.576-2.261-5.405-3.33h-12.089H185.993   c-14.538,8.492-27.391,19.55-37.946,32.549c37.724,13.702,81.358,18.054,108.236,18.054c12.242,0,27.984-0.917,45.064-3.224   c6.65-0.898,12.572,4.269,12.572,10.979v55.427c5.472-1.214,10.878-2.601,16.217-4.146c7.703-2.229,15.26-4.797,22.659-7.686   c1.833-0.715,3.655-1.45,5.466-2.204c0.665-0.277,1.33-0.554,1.991-0.836c10.34-4.403,20.346-9.435,29.966-15.057   C384.582,424.712,374.179,405.746,360.253,389.962z"/>
	<path style="opacity:0.2;fill:#47423F;enable-background:new    ;" d="M181.864,471.418v-62.827   c-14.079,14.241-24.083,32.517-28.126,52.936C162.868,465.328,172.254,468.638,181.864,471.418z"/>
</g>
<g>
	<path style="fill:#CE9276;" d="M186.883,361.778c3.656,34.945,33.202,62.186,69.117,62.186s65.461-27.241,69.117-62.186H186.883z"/>
	<path style="fill:#CE9276;" d="M360.253,389.962c-2.59-2.935-5.302-5.759-8.128-8.468c-8.41,8.056-15.811,17.155-21.989,27.097   c14.08,14.241,24.083,32.517,28.126,52.936c0.665-0.277,1.33-0.554,1.991-0.836c10.34-4.403,20.346-9.435,29.966-15.056   C384.582,424.712,374.179,405.746,360.253,389.962z"/>
</g>
<path style="fill:#DFB296;" d="M159.875,381.496c-18.022,17.263-31.408,39.326-38.094,64.14  c10.237,5.982,20.911,11.294,31.958,15.893c4.043-20.42,14.046-38.697,28.126-52.936  C175.686,398.651,168.285,389.551,159.875,381.496z"/>
<path style="fill:#CE9276;" d="M435.548,163.33c-8.497,0-16.511,2.046-23.599,5.653c-8.457-31.993-25.117-62.499-47.362-86.727  L104.334,300.254c4.343,17.702,10.065,32.721,17.237,39.657c26.415,25.551,89.445,37.718,134.712,37.718  s107.731-12.166,134.146-37.718c11.917-11.527,19.839-45.358,24.064-76.77c6.441,2.848,13.56,4.442,21.055,4.442  c28.789,0,52.127-23.338,52.127-52.127S464.337,163.33,435.548,163.33z"/>
<path style="fill:#DFB296;" d="M104.334,300.254c31.019,17.045,80.067,25.248,117.197,25.248  c45.267,0,107.731-12.166,134.146-37.718c18.887-18.269,27.743-92.567,27.743-124.454c0-27.421-6.82-55.416-18.834-81.074  C335.84,50.945,297.765,30.118,256,30.118c-74.084,0-136.562,65.527-155.948,138.866c-7.088-3.607-15.103-5.653-23.599-5.653  c-28.789,0-52.127,23.338-52.127,52.127s23.338,52.127,52.127,52.127c7.495,0,14.614-1.594,21.055-4.442  C99.19,275.651,101.461,288.539,104.334,300.254z"/>
<path style="opacity:0.2;fill:#5B341A;enable-background:new    ;" d="M414.493,263.144c-18.299-8.09-31.072-26.387-31.072-47.681  l0,0v-0.006c0.163-3.11-1.421-6.125-4.191-7.55c-6.602-3.396-13.185,1.309-13.185,7.55c0,0.002,0,0.003,0,0.006l0,0  c0,19.195-15.562,34.745-34.757,34.745h-14.48c-9.594,0-17.37,7.777-17.37,17.37l0,0c0,14.394-11.669,26.063-26.063,26.063h-34.763  c-14.388,0-26.052-11.664-26.052-26.052v-0.012c0-9.594-7.776-17.37-17.37-17.37h-14.48c-19.195,0-34.757-15.55-34.757-34.745l0,0  v-0.006c0.163-3.11-1.421-6.125-4.191-7.55c-6.602-3.396-13.185,1.309-13.185,7.55c0,0.002,0,0.003,0,0.006l0,0  c0,21.294-12.773,39.592-31.072,47.681c1.683,12.508,3.954,25.396,6.827,37.111c4.343,17.702,10.065,32.721,17.237,39.657  c26.415,25.551,89.445,37.718,134.712,37.718s107.731-12.166,134.146-37.718C402.345,328.384,410.267,294.554,414.493,263.144z"/>
<circle style="fill:#BD7155;" cx="435.548" cy="215.457" r="17.376"/>
<circle style="fill:#CE9276;" cx="76.452" cy="215.457" r="17.376"/>
<path style="opacity:0.4;fill:#AD712C;enable-background:new    ;" d="M402.764,173.641l9.184-4.658l0,0  c-8.457-31.993-25.117-62.499-47.361-86.727C335.84,50.945,297.765,30.118,256,30.118c-74.084,0-136.562,65.527-155.948,138.866  c-0.95-0.483-1.918-0.934-2.901-1.36c0.989,0.429,1.965,0.883,2.92,1.369l9.163,4.649c3.575,1.814,7.911,1.122,10.745-1.712  c0,0,34.35-34.35,45.801-45.801c0.241-0.241,0.482-0.48,0.724-0.718c10.13-9.971,25.644-11.664,37.997-4.631  c15.191,8.651,32.767,13.592,51.499,13.592s36.308-4.942,51.5-13.591c12.353-7.032,27.866-5.34,37.997,4.631  c0.242,0.239,0.483,0.477,0.723,0.718c11.451,11.451,45.801,45.801,45.801,45.801C394.854,174.763,399.19,175.455,402.764,173.641z"/>
<g style="opacity:0.2;">
	<circle style="fill:#47423F;" cx="256" cy="56.181" r="8.688"/>
	<circle style="fill:#47423F;" cx="229.937" cy="85.14" r="8.688"/>
	<circle style="fill:#47423F;" cx="206.769" cy="56.181" r="8.688"/>
	<circle style="fill:#47423F;" cx="172.018" cy="90.932" r="8.688"/>
	<circle style="fill:#47423F;" cx="258.896" cy="119.891" r="8.688"/>
	<circle style="fill:#47423F;" cx="299.439" cy="96.724" r="8.688"/>
	<circle style="fill:#47423F;" cx="311.023" cy="61.973" r="8.688"/>
	<circle style="fill:#47423F;" cx="345.774" cy="108.308" r="8.688"/>
</g>
<g>
	<path style="fill:#AD712C;" d="M264.109,234.281c-3.76,0-6.951,2.392-8.162,5.734c-1.286-3.19-4.405-5.444-8.055-5.444   c-19.162,0-34.751,15.589-34.751,34.751c0,4.798,3.889,8.688,8.688,8.688c17.067,0,31.291-12.371,34.197-28.616   c3.023,16.103,17.18,28.327,34.146,28.327c4.799,0,8.688-3.89,8.688-8.688C298.86,249.87,283.27,234.281,264.109,234.281z"/>
	<path style="fill:#AD712C;" d="M240.25,193.513c-2.687,0-5.339-1.244-7.038-3.586c-5.33-7.344-13.041-12.945-21.717-15.769   c-4.562-1.485-7.057-6.388-5.572-10.95c1.485-4.564,6.393-7.057,10.951-5.572c12.313,4.009,22.826,11.646,30.4,22.087   c2.818,3.884,1.954,9.316-1.93,12.134C243.804,192.974,242.018,193.513,240.25,193.513z"/>
	<path style="fill:#AD712C;" d="M271.753,193.515c-1.769,0-3.554-0.539-5.096-1.658c-3.884-2.818-4.747-8.251-1.929-12.134   c7.585-10.451,18.098-18.089,30.404-22.087c4.558-1.483,9.464,1.014,10.947,5.578c1.483,4.563-1.015,9.465-5.578,10.948   c-8.79,2.857-16.296,8.309-21.709,15.768C277.092,192.271,274.441,193.515,271.753,193.515z"/>
</g>
<g>
	<circle style="fill:#474641;" cx="198.081" cy="215.457" r="17.376"/>
	<circle style="fill:#474641;" cx="313.919" cy="215.457" r="17.376"/>
</g>
<g>
	<path style="fill:#CE9276;" d="M198.081,250.208c-19.162,0-34.751-15.589-34.751-34.751c0-4.799,3.89-8.688,8.688-8.688   c4.798,0,8.688,3.889,8.688,8.688c0,9.581,7.795,17.376,17.376,17.376c4.798,0,8.688,3.889,8.688,8.688   S202.879,250.208,198.081,250.208z"/>
	<path style="fill:#CE9276;" d="M313.919,250.208c-4.799,0-8.688-3.889-8.688-8.688s3.889-8.688,8.688-8.688   c9.581,0,17.376-7.795,17.376-17.376c0-4.799,3.889-8.688,8.688-8.688c4.799,0,8.688,3.889,8.688,8.688   C348.67,234.619,333.08,250.208,313.919,250.208z"/>
</g>
<path style="fill:#47423F;" d="M123.29,405.905l-57.425-80.4c-3.723-5.211-10.965-6.419-16.177-2.697l0,0  c-5.212,3.723-6.42,10.965-2.697,16.177l57.196,80.078c3.59,5.026,10.517,6.706,15.764,3.447  C125.701,418.94,127.16,411.325,123.29,405.905z"/>
<path style="fill:#CE9276;" d="M86.655,354.46l-4.73,22.866l17.444-5.066c4.446,6.224,13.416,6.966,18.826,1.558l0,0  c4.279-4.279,4.837-11.023,1.319-15.947l-12.715-17.801c-4.446-6.224-13.416-6.966-18.826-1.558l0,0  C83.697,342.792,83.139,349.536,86.655,354.46z"/>
<path style="fill:#DFB296;" d="M99.664,408.735L99.664,408.735c-9.796,9.796-25.679,9.796-35.475,0l-6.836-6.836  c-13.571-13.572-13.571-35.575,0-49.145l0,0c8.575-8.575,22.799-7.398,29.848,2.471l15.138,21.192  C109.466,386.394,108.334,400.063,99.664,408.735z"/>
<circle style="fill:#47423F;" cx="132.054" cy="441.339" r="40.543"/>
<path style="fill:#5B5751;" d="M161.014,429.756c0-8.233-2.46-15.887-6.677-22.282c-6.395-4.216-14.05-6.677-22.282-6.677  c-22.391,0-40.543,18.152-40.543,40.543c0,8.233,2.46,15.887,6.677,22.282c6.395,4.216,14.05,6.677,22.282,6.677  C142.862,470.299,161.014,452.147,161.014,429.756z"/>
<circle style="fill:#706B63;" cx="120.471" cy="429.756" r="17.376"/>
<circle style="fill:#47423F;" cx="40.543" cy="310.443" r="40.543"/>
<path style="fill:#5B5751;" d="M69.502,298.86c0-8.233-2.46-15.887-6.677-22.282c-6.395-4.216-14.05-6.677-22.282-6.677  C18.152,269.9,0,288.052,0,310.443c0,8.233,2.46,15.887,6.677,22.282c6.395,4.216,14.05,6.677,22.282,6.677  C51.351,339.403,69.502,321.251,69.502,298.86z"/>
<circle style="fill:#706B63;" cx="28.959" cy="298.86" r="17.376"/>
<path style="fill:#47423F;" d="M388.71,405.905l57.425-80.399c3.723-5.211,10.965-6.419,16.177-2.697l0,0  c5.212,3.723,6.42,10.965,2.697,16.177l-57.196,80.078c-3.59,5.026-10.517,6.706-15.764,3.447  C386.299,418.94,384.84,411.325,388.71,405.905z"/>
<path style="fill:#DFB296;" d="M425.345,354.46l4.73,22.866l-17.444-5.066c-4.446,6.224-13.416,6.966-18.826,1.558l0,0  c-4.279-4.279-4.837-11.023-1.319-15.947l12.715-17.801c4.446-6.224,13.416-6.966,18.826-1.558l0,0  C428.303,342.792,428.861,349.536,425.345,354.46z"/>
<path style="fill:#CE9276;" d="M412.336,408.735L412.336,408.735c9.796,9.796,25.679,9.796,35.475,0l6.836-6.836  c13.571-13.572,13.571-35.575,0-49.145l0,0c-8.575-8.575-22.799-7.398-29.848,2.471l-15.138,21.192  C402.534,386.394,403.666,400.063,412.336,408.735z"/>
<circle style="fill:#47423F;" cx="379.946" cy="441.339" r="40.543"/>
<path style="fill:#5B5751;" d="M408.905,429.756c0-8.233-2.46-15.887-6.677-22.282c-6.395-4.216-14.05-6.677-22.282-6.677  c-22.391,0-40.543,18.152-40.543,40.543c0,8.233,2.46,15.887,6.677,22.282c6.395,4.216,14.05,6.677,22.282,6.677  C390.753,470.299,408.905,452.147,408.905,429.756z"/>
<circle style="fill:#706B63;" cx="368.362" cy="429.756" r="17.376"/>
<circle style="fill:#47423F;" cx="471.457" cy="310.443" r="40.543"/>
<path style="fill:#5B5751;" d="M500.416,298.86c0-8.233-2.46-15.887-6.677-22.282c-6.395-4.216-14.05-6.677-22.282-6.677  c-22.391,0-40.543,18.152-40.543,40.543c0,8.233,2.46,15.887,6.677,22.282c6.395,4.216,14.05,6.677,22.282,6.677  C482.265,339.403,500.416,321.251,500.416,298.86z"/>
<circle style="fill:#706B63;" cx="459.873" cy="298.86" r="17.376"/>
<g>
</g>
<g>
</g>
<g>
</g>
<g>
</g>
<g>
</g>
<g>
</g>
<g>
</g>
<g>
</g>
<g>
</g>
<g>
</g>
<g>
</g>
<g>
</g>
<g>
</g>
<g>
</g>
<g>
</g>
</svg>
