<?xml version="1.0" encoding="iso-8859-1"?>
<!-- Generator: Adobe Illustrator 19.0.0, SVG Export Plug-In . SVG Version: 6.00 Build 0)  -->
<svg xmlns="http://www.w3.org/2000/svg" xmlns:xlink="http://www.w3.org/1999/xlink" version="1.1" id="Layer_1" x="0px" y="0px" viewBox="0 0 512.001 512.001" style="enable-background:new 0 0 512.001 512.001;" xml:space="preserve">
<path style="fill:#656890;" d="M346.604,409.424c-6.341-7.302-13.547-13.828-21.461-19.419  c-19.781-13.975-43.965-22.112-70.032-21.913l-51.875,76.752l52.973,67.148c24.894-0.189,48.984-3.691,71.878-10.049  c0.468-0.13,0.935-0.258,1.401-0.391c3.551-1.006,7.073-2.081,10.564-3.225c6.079-1.992,12.053-4.21,17.938-6.602  c3.592-1.459,7.158-2.969,10.672-4.576c2.42-1.107,4.824-2.241,7.207-3.415C374.87,455.319,363.999,429.455,346.604,409.424z"/>
<path style="fill:#797DAF;" d="M255.112,368.092c-26.067,0.199-50.124,8.704-69.689,22.98c-7.827,5.711-14.934,12.347-21.162,19.744  c-17.087,20.294-27.561,46.322-28.127,74.747c11.59,5.494,23.629,10.188,36.035,14.045c3.508,1.09,7.045,2.111,10.612,3.063  c0.468,0.125,0.938,0.247,1.407,0.369c22.987,6.008,47.129,9.141,72.023,8.952L255.112,368.092z"/>
<path style="opacity:0.3;fill:#5B5751;enable-background:new    ;" d="M286.383,444.609c-3.992-0.036-7.854,0.486-11.514,1.491  c-12.547,3.444-25.724,3.545-38.323,0.293c-3.676-0.949-7.544-1.411-11.535-1.316c-22.704,0.547-41.11,20.432-40.937,43.142  l0.002,0.336l0.11,14.483c22.988,6.008,47.129,9.142,72.023,8.952c24.894-0.189,48.985-3.692,71.878-10.049l-0.11-14.483  l-0.002-0.337C327.8,464.412,309.094,444.811,286.383,444.609z"/>
<path style="fill:#959BC9;" d="M164.26,410.816c-17.087,20.294-27.561,46.322-28.127,74.747  c11.59,5.494,23.629,10.188,36.035,14.045c3.508,1.09,7.045,2.111,10.612,3.063c0.468,0.125,0.938,0.247,1.407,0.369l-0.156-20.479  C183.831,456.374,176.646,431.875,164.26,410.816z"/>
<path style="fill:#535572;" d="M346.604,409.424c-3.282,5.78-6.169,11.812-8.637,18.054c-6.605,16.701-10.181,34.922-10.036,53.984  l0.156,20.479c0.468-0.13,0.935-0.258,1.401-0.391c3.551-1.006,7.073-2.082,10.564-3.225c6.079-1.992,12.053-4.209,17.938-6.602  c3.592-1.459,7.158-2.969,10.672-4.576c2.42-1.107,4.824-2.241,7.207-3.415C374.87,455.319,363.999,429.455,346.604,409.424z"/>
<path style="fill:#AB5034;" d="M304.265,431.015l-4.293-4.293L256,381.286l-15.59,58.761l15.59,59.96l48.264-48.264  C309.988,446.02,309.988,436.739,304.265,431.015z"/>
<path style="fill:#BD7155;" d="M212.03,426.723c-1.058,1.089-4.293,4.293-4.293,4.293c-5.724,5.724-5.724,15.004,0,20.728  l48.264,48.264V381.288C256,381.287,223.193,415.227,212.03,426.723z"/>
<path style="fill:#E2C35A;" d="M256,404.072l-23.402-23.402c-9.066-9.066-24.566-2.645-24.566,10.175v26.453  c0,12.821,15.501,19.241,24.566,10.175L256,404.072z"/>
<path style="fill:#BB9430;" d="M256,404.072l23.402-23.402c9.066-9.066,24.566-2.645,24.566,10.175v26.453  c0,12.821-15.501,19.241-24.566,10.175L256,404.072z"/>
<circle style="fill:#D9B43A;" cx="255.994" cy="404.07" r="17.988"/>
<path style="fill:#B8B7AC;" d="M495.806,234.204c-0.979-27.378-22.796-49.968-50.127-51.853c-10.206-0.704-19.847,1.453-28.233,5.72  c-0.012,0.006-0.023,0.013-0.035,0.019l-0.016-0.06c-1.061-3.978-4.635-6.797-8.752-6.837c-21.328-0.209-42.564,3.183-62.845,9.983  c-28.584,9.585-58.462,14.428-89.198,14.428c-30.768,0-60.669-4.848-89.27-14.448c-20.608-6.917-42.193-10.356-63.863-10.065  c-4.168,0.056-7.78,2.913-8.861,6.939l-0.017,0.061l-0.001,0.007L98.99,323.97c4.496,18.326,10.42,33.874,17.844,41.055  c27.345,26.452,92.597,39.047,139.46,39.047s111.528-12.595,138.875-39.047c12.337-11.933,20.539-46.957,24.912-79.476  c6.668,2.949,14.038,4.599,21.797,4.599C472.337,290.148,496.904,264.909,495.806,234.204z"/>
<path style="fill:#DBD9C7;" d="M359.192,311.06c12.78-12.361,21.122-49.497,25.368-82.96c0.794-6.259-5.43-11.016-11.294-8.687  c-37.064,14.715-76.209,22.166-116.665,22.166c-45.782,0-89.879-9.529-131.17-28.331c-1.338,1.599-2.955,2.948-4.766,4.001  c-2.332-6.224-5.787-11.892-10.11-16.778c-0.103-0.116-0.203-0.235-0.307-0.35c-0.45-0.5-0.913-0.988-1.38-1.47  c-0.128-0.132-0.255-0.265-0.385-0.397c-0.46-0.465-0.932-0.92-1.408-1.368c-0.149-0.139-0.297-0.278-0.447-0.416  c-0.474-0.435-0.956-0.862-1.444-1.281c-0.162-0.139-0.326-0.275-0.489-0.411c-0.489-0.409-0.986-0.812-1.489-1.203  c-0.171-0.133-0.345-0.261-0.518-0.392c-0.511-0.387-1.025-0.769-1.551-1.138c-0.162-0.114-0.326-0.222-0.489-0.333  c-0.549-0.378-1.101-0.751-1.664-1.108c-0.095-0.06-0.193-0.116-0.289-0.176c-1.331-0.832-2.698-1.613-4.105-2.33l0.001-0.007  c-0.012-0.006-0.023-0.013-0.035-0.019c-8.386-4.267-18.026-6.424-28.233-5.72c-27.331,1.885-49.147,24.474-50.127,51.853  c-1.098,30.706,23.468,55.944,53.928,55.944c7.759,0,15.129-1.65,21.797-4.599c1.742,12.95,4.093,26.292,7.068,38.42  c32.112,17.647,82.888,26.138,121.328,26.138C267.18,350.108,331.846,337.511,359.192,311.06z"/>
<circle style="fill:#A4A49E;" cx="441.882" cy="236.182" r="17.988"/>
<circle style="fill:#B8B7AC;" cx="70.13" cy="236.182" r="17.988"/>
<g>
	<path style="fill:#DFB296;" d="M169.66,269.162h-11.992c-4.968,0-8.994-4.027-8.994-8.994c0-4.967,4.026-8.994,8.994-8.994h11.992   c4.968,0,8.994,4.027,8.994,8.994C178.654,265.135,174.629,269.162,169.66,269.162z"/>
	<path style="fill:#DFB296;" d="M354.337,269.162h-11.992c-4.968,0-8.994-4.027-8.994-8.994c0-4.967,4.026-8.994,8.994-8.994h11.992   c4.968,0,8.994,4.027,8.994,8.994C363.331,265.135,359.305,269.162,354.337,269.162z"/>
</g>
<g>
	<circle style="fill:#47423F;" cx="196.034" cy="236.182" r="17.988"/>
	<circle style="fill:#47423F;" cx="315.966" cy="236.182" r="17.988"/>
</g>
<circle style="fill:#8D472E;" cx="255.994" cy="248.174" r="17.988"/>
<path style="fill:#AB5034;" d="M249.405,251.773c-4.96,0-8.994-4.034-8.994-8.994c0-4.96,4.034-8.994,8.994-8.994  s8.994,4.034,8.994,8.994C258.399,247.739,254.365,251.773,249.405,251.773z"/>
<path style="fill:#BD7155;" d="M256.109,288.219c-7.207,0.055-14.004-2.701-19.139-7.758c-3.539-3.486-3.582-9.18-0.096-12.72  c3.485-3.538,9.18-3.581,12.719-0.096c1.711,1.686,3.977,2.605,6.379,2.585c2.402-0.018,4.654-0.971,6.339-2.683  c3.486-3.539,9.181-3.583,12.719-0.097c3.54,3.486,3.583,9.18,0.098,12.72C270.07,285.305,263.317,288.164,256.109,288.219z"/>
<path style="fill:#535572;" d="M431.652,5.624l38.292,61.099c5.005,7.987-0.736,18.36-10.161,18.36h-98.252l49.798-79.459  C416.029-1.875,426.952-1.875,431.652,5.624z"/>
<g>
	<path style="fill:#656890;" d="M80.35,5.624L42.058,66.723c-5.005,7.987,0.736,18.36,10.161,18.36h98.252L100.673,5.624   C95.973-1.875,85.049-1.875,80.35,5.624z"/>
	<path style="fill:#656890;" d="M295.231,11.39C274.949,7.298,256,22.841,256,43.604c0-20.763-18.949-36.306-39.231-32.214   c-71.454,14.414-127.655,67.395-142.678,134.6c-3.785,16.932,4.604,34.115,20.142,41.834c0.164,0.082,0.329,0.164,0.492,0.247   c6.586,3.351,12.397,8.003,17.079,13.635l0,0c1.854-6.918,9.6-10.341,16.039-7.26c39.042,18.676,82.759,29.145,128.926,29.145   c45.982,0,89.532-10.389,128.456-28.925c6.14-2.924,13.43,0.363,15.274,6.91l0.036,0.128c4.682-5.631,10.493-10.283,17.079-13.635   c0.073-0.037,0.146-0.074,0.219-0.11c15.484-7.8,23.877-24.9,20.111-41.823C422.97,78.862,366.738,25.815,295.231,11.39z"/>
</g>
<path style="fill:#797DAF;" d="M142.464,153.765c1.359,0.522,2.703,1.101,4.029,1.735c25.489,12.193,52.361,19.955,80.2,23.19  c0.868,0.101,2.391,0.134,4.472,0.098c71.878-1.208,123.668-69.464,106.026-139.154l-4.176-16.497  c1.116,0.477,2.217,0.98,3.322,1.477c-12.939-5.831-26.694-10.322-41.082-13.224c-20.282-4.092-39.231,11.451-39.231,32.214  c0-20.763-18.949-36.306-39.231-32.214c-57.545,11.608-105.177,48.238-129.396,97.157c0.626,0.983,1.258,1.968,1.894,2.955  C101.885,131.041,120.762,145.427,142.464,153.765z"/>
<path style="opacity:0.5;fill:#959BC9;enable-background:new    ;" d="M142.748,91.243c11.464-12.215,25.204-22.555,40.615-30.457  c16.755-8.591,36.663,3.764,36.663,22.594l0,0c0,13.967-11.323,25.289-25.289,25.289h-44.43  C141.25,108.669,136.55,97.846,142.748,91.243z"/>
<g>
</g>
<g>
</g>
<g>
</g>
<g>
</g>
<g>
</g>
<g>
</g>
<g>
</g>
<g>
</g>
<g>
</g>
<g>
</g>
<g>
</g>
<g>
</g>
<g>
</g>
<g>
</g>
<g>
</g>
</svg>
