<?xml version="1.0" encoding="iso-8859-1"?>
<!-- Generator: Adobe Illustrator 19.0.0, SVG Export Plug-In . SVG Version: 6.00 Build 0)  -->
<svg xmlns="http://www.w3.org/2000/svg" xmlns:xlink="http://www.w3.org/1999/xlink" version="1.1" id="Layer_1" x="0px" y="0px" viewBox="0 0 512 512" style="enable-background:new 0 0 512 512;" xml:space="preserve">
<path style="fill:#67A0C0;" d="M333.358,374.164L333.358,374.164c-38.36-46.436-108.736-48.749-150.063-4.933L256,506.88  c54.367-0.136,106.246-15.322,148.312-40.052L333.358,374.164z"/>
<path style="fill:#E2C35A;" d="M183.295,369.231l-4.653,4.933c-34.44,20.118-60.335,53.257-70.954,92.663  c11.311,6.61,23.107,12.481,35.313,17.562c10.089,4.2,20.46,7.855,31.08,10.927c26.006,7.524,53.49,11.564,81.92,11.564V337.828  C229.574,337.86,203.099,348.234,183.295,369.231z"/>
<path style="fill:#5C889F;" d="M357.481,391.588l-0.083-0.003c0.017-0.009,0.033-0.018,0.049-0.027  c-7.428-6.54-15.492-12.374-24.09-17.395l0,0c-19.978-24.183-48.639-36.37-77.358-36.335L230.4,376.32l25.6,41.6  c28.859,0,56.781-5.819,82.598-17.024c22.806,17.866,39.634,42.938,47.176,70.927l1.179,4.376c5.901-2.936,11.692-6.06,17.359-9.372  C396.348,437.272,379.791,411.243,357.481,391.588z"/>
<path style="fill:#D9B43A;" d="M183.295,369.231l-4.653,4.933c-8.581,5.012-16.631,10.835-24.047,17.361  c30.898,17.28,65.759,26.395,101.405,26.395v-80.092C229.574,337.86,203.099,348.234,183.295,369.231z"/>
<path style="fill:#5C889F;" d="M337.92,495.316c10.619-3.072,20.991-6.729,31.08-10.927c-4.467-22.564-15.521-42.76-31.08-58.495  V495.316z"/>
<path style="opacity:0.6;fill:#BB9430;enable-background:new    ;" d="M143,484.389c10.089,4.2,20.46,7.855,31.08,10.927v-69.423  C158.523,441.629,147.469,461.824,143,484.389z"/>
<path style="fill:#D9B43A;" d="M323.16,373.507l-20.227-20.227H256l-38.4,47.36l38.4,93.44l51.516-51.515  c6.109-6.109,6.109-16.015,0-22.125l0,0c-2.531-2.531-2.531-6.634,0-9.165l15.644-15.644  C329.27,389.522,329.27,379.616,323.16,373.507z"/>
<path style="fill:#84B3C8;" d="M209.066,353.28l-20.227,20.227c-6.109,6.109-6.109,16.015,0,22.125l15.644,15.644  c2.531,2.531,2.531,6.634,0,9.165l0,0c-6.109,6.109-6.109,16.015,0,22.125L256,494.08v-140.8H209.066z"/>
<path style="fill:#BB9430;" d="M323.16,373.507l-20.227-20.227H256l-25.6,31.083L256,417.92c17.491,0,34.637-2.138,51.181-6.31  l15.978-15.978C329.27,389.522,329.27,379.616,323.16,373.507z"/>
<path style="fill:#67A0C0;" d="M209.066,353.28l-20.227,20.227c-6.109,6.109-6.109,16.015,0,22.125l15.869,15.869  c6.243,1.585,12.564,2.87,18.944,3.869c10.651,1.67,21.459,2.55,32.347,2.55v-64.64H209.066z"/>
<polygon style="fill:#D5D2BD;" points="293.12,384.363 256,421.484 218.88,384.363 "/>
<path style="fill:#5C889F;" d="M454.148,103.916C419.119,68.707,337.56,51.101,256,51.101L153.6,197.12L256,332.701  c78.697,0,157.395-14.154,198.148-42.463C492.27,263.757,504.995,155.026,454.148,103.916z"/>
<path style="fill:#67A0C0;" d="M57.852,103.916c-50.847,51.11-38.124,159.841,0,186.323c40.753,28.308,119.45,42.463,198.148,42.463  v-281.6C174.44,51.101,92.881,68.707,57.852,103.916z"/>
<path style="fill:#D5D2BD;" d="M454.4,152.32c-9.389,0-18.245,2.26-26.077,6.246C411.076,93.324,362.963,33.687,302.147,12.913  L161.929,362.46c27.341,16.901,59.565,26.66,94.071,26.66c81.217,0,149.803-54.036,171.799-128.114  c7.959,4.152,17.002,6.514,26.601,6.514c31.812,0,57.6-25.788,57.6-57.6S486.212,152.32,454.4,152.32z"/>
<path style="fill:#E7E4CD;" d="M396.8,190.72c0-68.392-38.318-140.051-94.652-177.809C287.423,7.882,271.956,5.12,256,5.12  c-81.862,0-150.9,72.407-172.323,153.446c-7.832-3.986-16.689-6.246-26.077-6.246c-31.812,0-57.6,25.788-57.6,57.6  s25.788,57.6,57.6,57.6c9.599,0,18.642-2.362,26.601-6.514c12.65,42.605,40.714,78.577,77.727,101.455  c18.972,4.844,37.85,7.459,55.672,7.459C316.57,369.92,396.8,289.69,396.8,190.72z"/>
<circle style="fill:#D5D2BD;" cx="57.6" cy="209.92" r="19.2"/>
<circle style="fill:#C1BDAB;" cx="454.4" cy="209.92" r="19.2"/>
<path style="fill:#CE9276;" d="M256,300.024c-12.82,0-24.874-4.992-33.94-14.058c-11.229-11.232-11.228-29.504,0.001-40.732  c5.44-5.439,12.671-8.433,20.364-8.433c4.815,0,9.449,1.174,13.577,3.386c4.128-2.213,8.763-3.386,13.576-3.386  c7.694,0,14.927,2.996,20.366,8.436c11.227,11.226,11.228,29.496,0,40.726C280.874,295.031,268.82,300.024,256,300.024z"/>
<g>
	<path style="fill:#47423F;" d="M256,280.824c-7.693,0-14.925-2.996-20.365-8.435c-3.749-3.749-3.749-9.828,0.001-13.577   c3.749-3.748,9.828-3.748,13.576,0c1.812,1.814,4.224,2.812,6.788,2.812c2.564,0,4.975-0.998,6.788-2.812   c3.75-3.749,9.829-3.749,13.576,0c3.75,3.749,3.75,9.828,0.001,13.577C270.925,277.828,263.693,280.824,256,280.824z"/>
	<circle style="fill:#47423F;" cx="192" cy="212.48" r="19.2"/>
	<circle style="fill:#47423F;" cx="320" cy="212.48" r="19.2"/>
</g>
<g>
	<path style="fill:#DFB296;" d="M163.84,247.68h-12.8c-5.303,0-9.6-4.298-9.6-9.6s4.297-9.6,9.6-9.6h12.8c5.303,0,9.6,4.298,9.6,9.6   S169.143,247.68,163.84,247.68z"/>
	<path style="fill:#DFB296;" d="M360.96,247.68h-12.8c-5.303,0-9.6-4.298-9.6-9.6s4.297-9.6,9.6-9.6h12.8c5.303,0,9.6,4.298,9.6,9.6   S366.263,247.68,360.96,247.68z"/>
</g>
<circle style="fill:#8D472E;" cx="256" cy="225.28" r="19.2"/>
<path style="fill:#AB5034;" d="M248.96,229.12c-5.294,0-9.6-4.306-9.6-9.6s4.306-9.6,9.6-9.6s9.6,4.306,9.6,9.6  S254.254,229.12,248.96,229.12z"/>
<g>
	<path style="fill:#5C889F;" d="M145.42,188.243c-1.961,0-3.94-0.599-5.646-1.842c-4.285-3.122-5.228-9.126-2.106-13.412   c8.303-11.397,20.223-20.067,33.56-24.411c5.043-1.642,10.459,1.114,12.101,6.154c1.642,5.041-1.112,10.459-6.154,12.102   c-9.526,3.103-18.047,9.304-23.99,17.462C151.308,186.875,148.384,188.243,145.42,188.243z"/>
	<path style="fill:#5C889F;" d="M366.58,188.243c-2.963,0-5.888-1.368-7.766-3.948c-5.944-8.157-14.464-14.358-23.99-17.462   c-5.041-1.642-7.796-7.06-6.154-12.102c1.642-5.041,7.055-7.796,12.101-6.154c13.338,4.346,25.256,13.014,33.56,24.411   c3.122,4.285,2.18,10.29-2.106,13.412C370.52,187.645,368.541,188.243,366.58,188.243z"/>
</g>
<path style="fill:#67A0C0;" d="M133.098,65.975c-12.516,14.198-42.269,47.305-42.269,47.305s-3.037,29.718-7.153,45.286  c11.03,5.613,20.012,14.669,25.526,25.754c4.746,0,8.906-3.224,10.034-7.835c2.779-11.357,6.936-22.171,12.287-32.256  c5.172-9.751,8.276-20.252,9.407-30.948c1.667-15.781-0.968-31.99-7.629-46.851C133.233,66.278,133.166,66.126,133.098,65.975z"/>
<path style="fill:#5C889F;" d="M378.902,65.975c12.516,14.198,42.269,47.305,42.269,47.305s3.037,29.718,7.153,45.286  c-11.03,5.613-20.012,14.669-25.526,25.754c-4.746,0-8.906-3.224-10.034-7.835c-2.779-11.357-6.936-22.171-12.287-32.256  c-5.172-9.751-8.276-20.252-9.407-30.948c-1.667-15.781,0.968-31.99,7.629-46.851C378.767,66.278,378.834,66.126,378.902,65.975z"/>
<g>
</g>
<g>
</g>
<g>
</g>
<g>
</g>
<g>
</g>
<g>
</g>
<g>
</g>
<g>
</g>
<g>
</g>
<g>
</g>
<g>
</g>
<g>
</g>
<g>
</g>
<g>
</g>
<g>
</g>
</svg>
