<?xml version="1.0" encoding="utf-8"?>
<!-- Generator: Adobe Illustrator 16.0.0, SVG Export Plug-In . SVG Version: 6.00 Build 0)  -->
<!DOCTYPE svg PUBLIC "-//W3C//DTD SVG 1.1//EN" "http://www.w3.org/Graphics/SVG/1.1/DTD/svg11.dtd">
<svg version="1.1" id="Layer_1" xmlns="http://www.w3.org/2000/svg" xmlns:xlink="http://www.w3.org/1999/xlink" x="0px" y="0px"
	 width="564.23px" height="374.617px" viewBox="0 0 564.23 374.617" enable-background="new 0 0 564.23 374.617"
	 xml:space="preserve">
<g>
	<g>
		<path fill="#ADA999" d="M145.401,236.772c-0.58,0.071-1.182,0.037-1.781-0.121c-2.522-0.66-4.039-3.226-3.375-5.74
			c4.045-15.296,8.311-30.534,12.793-45.708c0.741-2.507,3.477-3.987,6.098-3.29c2.62,0.696,4.116,3.297,3.359,5.799
			c-4.583,15.136-8.943,30.339-13.089,45.601C148.888,235.227,147.261,236.545,145.401,236.772z"/>
		<path fill="#ADA999" d="M418.828,236.772c-1.859-0.227-3.486-1.545-4.006-3.458c-4.146-15.262-8.509-30.464-13.09-45.601
			c-0.759-2.502,0.742-5.103,3.361-5.798c2.621-0.697,5.356,0.783,6.098,3.291c4.48,15.173,8.753,30.409,12.792,45.706
			c0.666,2.516-0.854,5.081-3.375,5.741C420.009,236.809,419.407,236.843,418.828,236.772z"/>
	</g>
	<path fill="#4D5B59" d="M288.563,198.69c-5.159-0.029-7.737-0.029-12.896,0c-13.896,0.146-25.41,11.481-25.095,25.502l0,0
		c21.041-0.479,42.041-0.478,63.082,0l0,0C313.965,210.178,302.462,198.829,288.563,198.69z"/>
	<path fill="#6A9093" d="M410.256,182.715c-42.638-4.43-85.275-6.752-128.142-6.973c-5.261,6.044-7.858,9.08-12.984,15.182
		c5.256,5.579,7.853,8.383,12.983,14.02c8.953,0,16.404,6.091,18.397,14.218c0.685,2.793,3.146,4.794,6.038,4.856
		c26.455,0.719,52.799,2.21,79.166,4.483c5.771,0.53,11.189-2.853,13.172-8.261c3.946-10.696,7.941-21.369,11.989-32.027
		C411.607,186.304,411.294,184.299,410.256,182.715z"/>
	<path fill="#92BCBC" d="M153.974,182.715c-1.039,1.583-1.352,3.589-0.621,5.499c4.049,10.657,8.044,21.33,11.992,32.024
		c1.981,5.407,7.396,8.793,13.168,8.263c26.368-2.273,52.713-3.765,79.168-4.483c2.891-0.063,5.353-2.065,6.037-4.856
		c1.993-8.126,9.444-14.218,18.396-14.218c0.001-9.734,0.001-19.467-0.001-29.201C239.248,175.963,196.611,178.286,153.974,182.715z
		"/>
	<path fill="#AB5034" d="M282.114,175.742c0,4.156,0.001,6.234,0.001,10.39c0,7.524-0.002,11.286-0.002,18.811
		c8.953,0,16.405,6.09,18.398,14.215c0.686,2.793,3.146,4.797,6.037,4.859c7.891,0.17,11.834,0.289,19.721,0.596
		c-1.472-16.08-3.041-32.152-4.701-48.214c-13.146-0.441-26.301-0.659-39.454-0.659L282.114,175.742z"/>
	<path fill="#6A9093" d="M282.115,186.132c-20.854-0.002-38.554,17.131-37.849,38.254c5.365-0.179,8.048-0.253,13.415-0.369
		c2.892-0.063,5.352-2.064,6.037-4.856c1.993-8.126,9.445-14.218,18.396-14.218c8.953,0,16.404,6.091,18.397,14.218
		c0.685,2.793,3.146,4.794,6.038,4.856c5.366,0.116,8.049,0.189,13.414,0.369C320.653,203.26,302.98,186.135,282.115,186.132z"/>
	<path fill="#AB5034" d="M203.243,178.378c-0.027,16.04-0.01,32.08,0.056,48.12c11.553-0.743,23.095-1.371,34.661-1.884
		c1.477-16.08,3.048-32.15,4.702-48.212C229.513,176.839,216.37,177.499,203.243,178.378z"/>
	<path fill="#8D472E" d="M410.256,182.715c-16.39-1.792-32.817-3.235-49.268-4.337c0.024,16.041,0.005,32.081-0.058,48.121
		c9.921,0.692,14.876,1.092,24.784,2.002c5.771,0.53,11.189-2.852,13.17-8.261c3.946-10.696,7.944-21.369,11.991-32.027
		C411.607,186.304,411.294,184.299,410.256,182.715z"/>
	<path opacity="0.25" fill="#493023" enable-background="new    " d="M410.876,188.213c0.729-1.91,0.419-3.915-0.62-5.498
		c-85.436-8.85-170.847-8.851-256.282,0c-1.039,1.583-1.352,3.589-0.621,5.499c1.745,4.56,2.613,6.842,4.333,11.407
		c14.665,4.981,28.917,5.301,44.147,3.871c13.353,5.502,28.56,5.234,41.709-0.739c12.421,4.675,26.314,4.444,38.572-0.646
		c12.256,5.089,26.152,5.319,38.572,0.646c6.077,2.774,12.548,4.328,19.083,4.655c7.635,0.383,15.358-0.906,22.63-3.916
		c2.389,0.374,4.784,0.65,7.188,0.833c13.265,0.101,24.147-1.291,36.963-4.711C408.269,195.051,409.133,192.77,410.876,188.213z"/>
	<path fill="#C98A2E" d="M405.789,179.848c-48.467-7.862-93.396-39.383-113.521-84.751c-3.235-7.319-4.821-15.141-4.788-23.004
		c-1.768-0.007-2.651-0.01-4.419-0.011c3.862,27.979,12.032,55.567,19.132,82.865c19.8,10.477,39.313,21.595,58.103,33.799
		c16.769,3.645,34.545,1.517,49.961-6.03C409.301,181.261,407.733,180.165,405.789,179.848z"/>
	<path fill="#AB5034" d="M281.167,72.082c-1.768,0.001-2.651,0.004-4.419,0.012c0.033,7.863-1.55,15.683-4.785,23.002
		c-20.128,45.375-65.056,76.884-113.525,84.752c-1.945,0.316-3.51,1.412-4.464,2.867c15.414,7.55,33.196,9.674,49.963,6.03
		c18.782-12.22,38.266-23.379,58.099-33.799C268.901,127.613,277.24,100.021,281.167,72.082z"/>
	<path fill="#D5A150" d="M288.981,123.447c-2.215-17.132-4.505-34.253-6.868-51.365c-1.237,0-1.854,0.001-3.091,0.004
		c0.037,49.001-36.021,91.201-75.088,116.659c12.322,6.682,27.484,5.926,39.074-1.961c12.087,7.095,27.262,6.838,39.106-0.653
		c11.844,7.494,27.019,7.746,39.106,0.652C310.907,165.44,300.174,144.344,288.981,123.447z"/>
	<path fill="#8D472E" d="M285.207,72.086c-1.237-0.003-1.856-0.004-3.094-0.004c0,10.415,0,15.623,0,26.038
		c0.001,14.599,2.904,29.156,8.51,42.636c7.274,17.438,18.009,32.108,30.599,46.028c11.59,7.888,26.751,8.643,39.073,1.96
		C321.231,163.285,285.167,121.088,285.207,72.086z"/>
	<path fill="#AB5034" d="M280.488,123.43c-0.761,0.001-1.412,0.484-1.578,1.161c-1.346,5.49-3.111,10.893-5.304,16.165
		c-7.278,17.438-18.008,32.106-30.598,46.028c12.088,7.094,27.263,6.84,39.108-0.652c0-20.406-0.001-40.812-0.002-61.218
		C282.112,124.093,281.385,123.429,280.488,123.43L280.488,123.43z"/>
	<path fill="#8D472E" d="M282.113,10.56c0,10.033,0.001,15.049,0.001,25.082c19.179-3.644,38.44-6.857,57.764-9.634
		c2.1-0.302,2.212-2.818,0.142-3.301C320.813,18.221,301.503,14.172,282.113,10.56z"/>
	<path fill="#989487" d="M282.114,54.453c-3.002,0-5.448-2.094-5.458-4.691c-0.06-13.063-0.111-26.127-0.165-39.19
		c-0.011-2.597,2.508-4.714,5.622-4.714c3.116,0,5.634,2.118,5.623,4.715c-0.055,13.063-0.111,26.126-0.162,39.19
		C287.563,52.36,285.118,54.453,282.114,54.453z"/>
	<g>
		<path fill="#AB5034" d="M282.284,43.481c-3.105-0.081-5.648,2.068-5.637,4.713c0.04,9.56,0.061,14.339,0.101,23.899
			c4.292-0.018,6.441-0.018,10.733,0c0.04-9.481,0.06-14.222,0.099-23.703C287.591,45.816,285.286,43.56,282.284,43.481z"/>
		<path fill="#AB5034" d="M285.674,77.972c-2.848-0.008-4.271-0.008-7.119,0c-2.949,0.008-5.355-2.08-5.374-4.677
			c-0.018-2.598,2.375-4.72,5.346-4.729c2.869-0.008,4.302-0.008,7.171,0c2.972,0.008,5.37,2.131,5.352,4.729
			S288.624,77.98,285.674,77.972z"/>
	</g>
</g>
<g>
	<g>
		<path fill="#4D5B59" d="M158.281,293.775c-1.618,19.897-4.044,28.146-10.515,27.984c-4.691-0.161-7.441-4.69-9.059-10.837
			c-1.294,6.631-3.559,11.16-7.764,10.999c-8.896-0.323-9.059-18.765-9.059-18.765c-0.162-8.733,1.456-18.925,1.78-23.293
			c0.162-6.146,0.809-14.72-0.647-17.147c-0.323-0.484,0-0.971,0.647-0.971c0.97-0.162,2.103-0.323,3.073,0
			c2.103,0.486,5.176,3.075,4.854,13.751c-0.324,5.823-1.78,16.176-1.619,27.984c0,0,0,11.322,3.074,11.322
			c2.103,0,3.235-9.22,3.882-24.264c0-7.603,0.647-13.587,0.647-13.587s0.323-2.104,2.265-1.781
			c1.293,0.163,5.338,0.325,5.338,9.384c0,10.837-0.809,32.998,2.75,32.353c1.617-0.325,4.368-7.603,5.176-24.75
			c0.484-8.251,0.484-18.44-1.456-31.543c-0.809-6.957-3.72-19.25-3.72-19.25s-0.647-2.104,0.97-2.104
			c8.735-0.323,9.544,27.985,9.544,27.985C159.09,275.82,158.928,284.556,158.281,293.775z"/>
		<path fill="#4D5B59" d="M164.099,269.512c2.265,0.162,7.604,0.808,7.28,6.793c-0.323,7.603-1.618,39.955,1.617,39.794
			c3.236-0.323,4.854-9.059,6.147-22.162c0-0.646,0.647-0.969,1.132-0.646c0.647,0.484,1.618,1.294,1.78,2.586
			c0,0-0.971,24.589-9.544,25.883c0,0-9.544,0.972-10.03-15.853c-0.485-16.338,1.294-25.881,0.485-35.265
			C162.967,269.996,163.453,269.512,164.099,269.512z M163.776,261.746c0,0,0.162-4.529,3.882-4.529c3.721,0,3.721,4.529,3.559,5.5
			c-0.162,1.133-0.486,4.368-3.882,4.368C167.335,267.085,163.129,266.923,163.776,261.746z"/>
		<path fill="#4D5B59" d="M189.17,316.099c3.236-0.323,5.015-9.059,6.148-22.323c0-0.484,0.647-0.808,1.132-0.484
			c0.809,0.484,1.78,1.294,1.78,2.586c0,0-0.971,24.589-9.544,25.883c0,0-9.382,0.162-10.03-15.853
			c-0.484-14.559,1.133-41.086,1.133-41.086c0.323-7.767,1.294-16.34,0-19.413c-0.324-0.484,0-1.131,0.647-1.293
			c0.971-0.324,2.103-0.324,3.074,0c1.94,0.646,4.529,2.426,4.368,12.778c0,0-0.647,28.47-0.809,48.852
			C186.906,311.569,187.715,316.099,189.17,316.099z"/>
		<path fill="#4D5B59" d="M234.3,295.877c0,0-1.133,24.589-9.707,25.883c0,0-6.632,0.162-9.22-9.706
			c-0.97,4.692-3.397,10.839-9.22,10.839c-8.574,0-13.427-11.809-10.677-30.734c2.75-19.089,10.191-22.646,15.529-22.646
			c1.78,0,3.235,0.808,4.367,2.103c0.162-4.206,0.323-6.793,0.323-6.793c0.324-7.767,1.294-16.34,0-19.413
			c-0.162-0.484,0.163-1.131,0.647-1.293c0.971-0.324,2.103-0.324,3.073,0c2.103,0.646,4.691,2.426,4.368,12.778
			c0,0-0.646,28.47-0.809,48.852c-0.161,5.824,0.647,10.354,2.104,10.354c3.235-0.323,5.015-9.059,6.146-22.323
			c0.163-0.484,0.647-0.808,1.133-0.484C233.167,293.775,234.138,294.585,234.3,295.877z M214.565,300.731c0-1.456,0-3.073,0-4.529
			c-0.324,0-0.485,0-0.647,0c-0.486,0.162-0.809-0.161-0.809-0.647c0.485-4.206,2.264-23.131-2.426-22.162
			c0,0-4.854,1.618-7.279,22.81c-1.942,21.029,2.75,23.617,3.72,23.456C207.124,319.658,211.492,320.627,214.565,300.731z"/>
		<path fill="#4D5B59" d="M295.441,321.76c-20.544-1.294-16.985-44.161-16.985-44.161s2.912-37.851,21.353-38.337
			c0,0,9.706-0.808,9.706,14.075c0,0,0.161,1.778-0.647,3.234c-0.646,0.972-1.779,1.779-3.396,1.294c0,0-3.074-0.647-1.779-4.852
			c1.131-3.722-0.971-8.897-4.207-9.222c-3.072-0.323-11.97,13.587-12.617,40.279c0,0-0.97,32.189,8.897,33.161
			c10.029,1.132,11.323-23.133,10.515-26.529c0,0-0.162-1.456,0.162-2.103c0.162-0.325,0.646-0.647,1.456-0.486
			c1.456,0.323,4.205,2.104,4.528,6.472C312.426,294.585,313.883,322.893,295.441,321.76z"/>
		<path fill="#4D5B59" d="M318.084,269.512c2.265,0.162,7.604,0.808,7.279,6.793c-0.323,7.603-1.617,39.955,1.617,39.794
			c3.236-0.323,4.854-9.059,6.148-22.162c0-0.646,0.646-0.969,1.131-0.646c0.647,0.484,1.617,1.294,1.78,2.586
			c0,0-0.972,24.589-9.544,25.883c0,0-9.544,0.972-10.029-15.853c-0.484-16.338,1.294-25.881,0.485-35.265
			C316.952,269.996,317.438,269.512,318.084,269.512z M317.761,261.746c0,0,0.161-4.529,3.882-4.529s3.721,4.529,3.559,5.5
			c-0.161,1.133-0.484,4.368-3.881,4.368C321.32,267.085,317.113,266.923,317.761,261.746z"/>
		<path fill="#4D5B59" d="M360.626,295.877c0,0-0.971,24.589-9.544,25.883c0,0-10.191,0.972-10.676-15.853
			c0,0-1.133-12.455,4.69-30.249c0.324-0.81-0.161-1.456-0.97-1.617c-1.618-0.323-4.529-0.81-7.766-0.81
			c-0.323,0-0.809-0.162-1.132-0.162c2.265,8.897,0.809,22.808,0.809,22.808c-0.485,1.295-1.456,1.942-2.265,2.266
			c-0.646,0.162-1.133-0.323-1.133-0.81c1.133-12.293,0.647-22.969-1.779-25.071c-3.559-1.619-3.396-4.692-2.75-7.766
			c0.324-1.779,0.971-2.425,1.617-2.425c0.972,0,1.78,0.808,1.78,0.808c5.985,6.795,11.323,6.308,16.015,9.059
			c4.205,2.427,2.911,8.573,2.911,8.573s-6.308,36.882,1.133,35.588c3.073-0.646,5.015-9.059,6.146-22.162
			c0-0.646,0.647-0.969,1.133-0.646C359.655,293.775,360.626,294.585,360.626,295.877z"/>
		<path fill="#4D5B59" d="M374.535,282.451c-0.324,0-0.647-0.323-0.647-0.646c0.161-8.25-3.235-7.44-3.235-7.44
			c-4.206,0.808-5.5,23.617-5.5,23.617c0,22.969,6.471,21.677,6.471,21.677c4.529-0.972,8.896-11.485,10.676-25.883
			c0-0.484,0.646-0.808,0.971-0.484c0.809,0.484,1.779,1.294,1.941,2.586c0,0-2.912,25.561-11.162,26.692
			c0,0-15.852,2.587-16.823-20.382c0,0-0.484-7.603,1.294-15.53c1.779-7.603,5.662-15.528,11.486-16.822
			c0,0,7.278-1.456,7.926,9.705c0.161,1.619-0.971,2.911-2.588,3.074C375.02,282.614,374.857,282.614,374.535,282.451z"/>
		<path fill="#4D5B59" d="M417.883,295.877c0,0-0.971,24.589-9.545,25.883c0,0-7.764,0.81-9.705-11.323
			c-1.94,6.31-4.69,11.323-8.896,11.323c-8.573,0-8.25-15.043-8.25-15.043c0-4.206,0-8.251,0.162-12.618
			c0.324-9.705,0.971-16.661,0.324-23.456c0-0.646,0.484-1.131,1.131-1.131c2.266,0.162,7.604,0.808,7.279,6.793
			c-0.161,3.073-0.322,10.353-0.485,17.955c-0.161,2.912-0.161,8.251-0.161,12.618c0,0-0.162,7.118,2.426,7.118
			c2.912,0,5.339-13.751,6.309-24.104c0.324-7.603,0.81-13.427,0.324-19.25c0-0.646,0.485-1.131,1.133-1.131
			c2.426,0.162,7.602,0.808,7.279,6.793c-0.324,7.603-1.617,39.955,1.617,39.794c3.234-0.323,5.015-9.059,6.146-22.162
			c0-0.646,0.647-0.969,1.133-0.646C416.912,293.775,417.883,294.585,417.883,295.877z"/>
		<path fill="#4D5B59" d="M440.688,294.585c0,0.808-0.324,1.617-0.647,2.264c-0.324,0.484-0.809,0.971-1.456,1.133
			c-4.044,1.617-7.44,4.045-10.353,6.795c2.912,5.66,8.896,16.499,7.117,28.308c0,0-0.484,5.499-4.529,8.896
			c-1.779,1.456-4.69,2.751-8.25,2.587c0,0-13.911,0.164-9.867-19.572c0,0,1.618-8.412,7.927-16.984
			c-1.618-3.56-3.074-6.795-4.206-9.706c-3.559-9.059-2.103-17.955-2.103-17.955c1.778-10.515,8.896-10.838,8.896-10.838
			s7.279-1.456,7.927,9.705c0.161,1.617-0.972,2.911-2.589,3.073c-0.323,0-0.647,0-0.809-0.162c-0.484,0-0.647-0.323-0.647-0.646
			c0.163-8.251-3.234-7.441-3.234-7.441s-3.073,0-2.912,10.353c0,6.955,2.912,11.809,5.5,16.822
			c3.559-3.234,8.088-5.823,13.588-7.279C440.364,293.937,440.85,294.26,440.688,294.585z M422.409,311.893
			c-4.529,6.956-5.985,13.103-5.985,13.103c-2.75,12.132,2.265,16.176,6.146,16.176c5.338-0.161,5.501-7.44,5.501-7.44
			C428.717,327.584,425.807,319.658,422.409,311.893z"/>
	</g>
	<path fill="#4D5B59" d="M2.483,308.307c0,0-0.519-0.761-1.278-2.41c-0.357-0.828-0.763-1.881-1.028-3.244
		c-0.246-1.344-0.343-3.101,0.425-5.026c0.754-1.942,2.577-3.618,4.611-4.622c2.047-1.067,4.349-1.566,6.73-1.934
		c2.391-0.368,4.903-0.441,7.512-0.404c2.611,0.023,5.324,0.195,8.124,0.495c5.598,0.59,11.557,1.568,17.714,3.121
		c6.165,1.505,12.534,3.57,19.236,5.095c6.666,1.502,13.816,2.58,20.806,1.892c1.728-0.17,3.43-0.567,4.919-1.167
		c1.5-0.601,2.658-1.562,3.121-2.634c0.124-0.241,0.215-0.617,0.249-0.797c0.09-0.439,0.213-0.948,0.212-1.222
		c0.067-0.65,0.071-1.418-0.067-2.052c-0.25-1.307-0.905-2.405-1.892-3.309c-1.981-1.828-5.127-2.792-8.145-2.938
		c-2.993-0.16-6.168,0.673-7.515,2.162c-0.666,0.719-0.917,1.425-0.942,2.422c-0.016,0.994,0.315,2.26,0.887,3.536
		c1.153,2.588,3.188,5.137,5.28,7.524c2.16,2.393,4.459,4.607,6.876,6.789c2.333,2.086,4.73,4.075,7.134,5.745
		c2.409,1.674,4.82,3.108,7.207,4.018c2.383,0.888,4.672,1.247,6.676,0.933c4.032-0.575,7.078-4.329,8.939-8.003
		c1.934-3.717,3.002-7.427,3.813-10.47c0.767-3.067,1.234-5.027,1.519-6.719c0.295-1.695,0.396-2.089,0.396-2.089h0.744
		c0,0,0.107,0.419,0.202,2.165c0.078,1.746,0.146,4.065-0.112,7.349c-0.261,3.285-0.782,7.17-2.37,11.71
		c-0.838,2.249-1.945,4.594-3.773,6.896c-1.79,2.287-4.563,4.385-7.971,5.274c-3.398,0.935-7.018,0.525-10.256-0.449
		c-3.25-1.006-6.301-2.503-9.157-4.313c-2.882-1.797-5.587-3.851-8.244-6.135c-2.573-2.188-5.177-4.672-7.599-7.434
		c-2.402-2.808-4.726-5.884-6.336-9.859c-0.771-1.99-1.399-4.256-1.235-6.86c0.132-2.589,1.425-5.417,3.422-7.171
		c1.969-1.788,4.262-2.71,6.45-3.186c2.206-0.476,4.39-0.528,6.518-0.279c4.212,0.503,8.483,2.122,11.611,5.682
		c1.517,1.788,2.515,4.183,2.608,6.539c0.064,1.194-0.073,2.28-0.354,3.426c-0.144,0.635-0.299,1.002-0.448,1.446
		c-0.253,0.688-0.496,1.173-0.856,1.712c-1.413,2.129-3.623,3.146-5.546,3.678c-1.971,0.558-3.9,0.666-5.776,0.755
		c-3.757,0.086-7.383-0.203-10.946-0.577c-3.554-0.372-7.066-0.738-10.52-1.098c-6.903-0.712-13.612-1.219-19.874-2.014
		c-6.268-0.751-12.082-1.846-17.426-2.65c-5.334-0.808-10.219-1.397-14.379-1.34c-4.156,0.049-7.528,0.913-8.792,2.887
		c-0.701,0.964-0.956,2.205-1.018,3.327c-0.083,1.133,0.025,2.157,0.141,2.982c0.113,0.837,0.231,1.464,0.328,1.906
		c0.091,0.441,0.139,0.67,0.139,0.67L2.483,308.307z"/>
	<path fill="#4D5B59" d="M561.234,309.898c0.001,0,0.236-0.92,0.467-2.57c0.113-0.824,0.224-1.848,0.142-2.979
		c-0.061-1.12-0.315-2.36-1.011-3.327c-1.256-1.974-4.615-2.843-8.765-2.896c-2.071-0.008-4.333,0.094-6.736,0.33
		c-2.403,0.249-4.947,0.604-7.614,1c-5.334,0.801-11.138,1.894-17.393,2.648c-6.249,0.794-12.946,1.304-19.837,2.01
		c-3.448,0.359-6.952,0.727-10.501,1.099c-3.557,0.374-7.175,0.668-10.922,0.599c-1.871-0.08-3.791-0.182-5.758-0.71
		c-1.916-0.519-4.117-1.442-5.598-3.516c-0.35-0.509-0.665-1.055-0.89-1.629c-0.243-0.702-0.328-0.846-0.496-1.499
		c-0.321-1.166-0.442-2.224-0.423-3.415c0.025-2.344,0.96-4.771,2.449-6.582c1.479-1.835,3.376-3.147,5.336-4.083
		c1.968-0.954,4.055-1.505,6.175-1.778c2.12-0.271,4.296-0.251,6.495,0.185c2.184,0.454,4.465,1.3,6.47,3.007
		c2.02,1.662,3.459,4.427,3.658,7.037c0.248,2.616-0.33,4.933-1.087,6.93c-1.566,4.006-3.863,7.112-6.251,9.93
		c-2.401,2.784-4.995,5.248-7.568,7.465c-2.618,2.256-5.323,4.349-8.17,6.149c-2.84,1.819-5.843,3.346-9.062,4.392
		c-3.196,1.025-6.76,1.534-10.184,0.715c-3.428-0.771-6.296-2.831-8.142-5.095c-1.876-2.286-3.006-4.691-3.857-6.938
		c-1.603-4.54-2.112-8.552-2.359-11.834c-0.248-3.28-0.168-5.849-0.081-7.594c0.104-1.744,0.216-2.674,0.216-2.674l0.744,0.004
		c0,0,0.098,0.907,0.385,2.598c0.277,1.689,0.734,4.162,1.493,7.225c0.799,3.037,1.862,6.742,3.799,10.435
		c1.875,3.66,4.948,7.301,8.982,7.731c2.01,0.249,4.311-0.182,6.685-1.125c2.383-0.942,4.775-2.433,7.179-4.106
		c2.4-1.705,4.757-3.682,7.112-5.795c2.391-2.164,4.69-4.395,6.827-6.783c2.076-2.388,4.077-4.941,5.185-7.518
		c0.565-1.274,0.843-2.518,0.804-3.485c-0.038-0.973-0.33-1.661-1.033-2.378c-1.438-1.467-4.621-2.246-7.611-2.056
		c-3.01,0.179-6.141,1.179-8.061,3.036c-0.973,0.911-1.599,2.023-1.809,3.345c-0.109,0.636-0.117,1.428-0.032,2.048
		c-0.003,0.247,0.194,0.977,0.211,1.149c0.059,0.298,0.165,0.57,0.288,0.842c0.499,1.064,1.712,2.001,3.22,2.582
		c1.501,0.586,3.206,0.964,4.935,1.125c6.985,0.648,14.117-0.428,20.771-1.938c6.689-1.53,13.047-3.591,19.202-5.092
		c6.148-1.543,12.097-2.515,17.687-3.103c2.793-0.298,5.502-0.467,8.109-0.49c2.604-0.034,5.113,0.044,7.5,0.414
		c2.377,0.366,4.676,0.871,6.718,1.94c2.029,1.01,3.845,2.688,4.591,4.629c0.758,1.925,0.662,3.675,0.413,5.016
		c-0.265,1.36-0.671,2.411-1.026,3.237c-0.759,1.646-1.276,2.407-1.276,2.407L561.234,309.898z"/>
</g>
<g>
	<path fill="#AB5034" d="M58.988,374.617c0,0,1.723-0.502,4.957-1.429c3.237-0.883,7.981-2.259,14.039-3.764
		c6.056-1.529,13.411-3.389,21.872-5.218c9.469-2.104,18.95-4.071,28.452-5.763c5.221-0.952,10.664-1.909,16.298-2.855
		c5.635-0.952,11.466-1.76,17.463-2.611c12.587-1.685,25.168-3.199,37.773-4.49c6.557-0.604,13.225-1.163,19.978-1.664
		c6.753-0.464,13.59-0.875,20.483-1.224c13.933-0.686,27.873-0.977,41.812-1.019c13.941,0.035,27.88,0.331,41.814,1.006
		c6.893,0.347,13.727,0.757,20.48,1.219c6.752,0.5,13.42,1.053,19.979,1.655c12.605,1.301,25.186,2.808,37.773,4.499
		c5.998,0.85,11.826,1.723,17.465,2.609c5.635,0.947,11.074,1.902,16.295,2.856c9.502,1.696,18.986,3.643,28.455,5.769
		c8.459,1.833,15.814,3.69,21.871,5.224c6.057,1.509,10.799,2.882,14.035,3.767c3.234,0.927,4.959,1.433,4.959,1.433
		s-1.748-0.191-5.027-0.531c-3.275-0.384-8.088-0.85-14.197-1.555c-6.109-0.682-13.533-1.415-22.033-2.333
		c-9.518-0.956-19.039-1.853-28.559-2.744c-5.23-0.474-10.676-0.936-16.314-1.364c-5.637-0.49-11.463-0.953-17.453-1.381
		c-12.559-0.847-25.117-1.584-37.678-2.262c-6.533-0.352-13.17-0.653-19.895-0.896c-6.723-0.278-13.529-0.502-20.387-0.662
		c-13.861-0.298-27.721-0.488-41.584-0.535c-13.864,0.044-27.722,0.231-41.584,0.522c-6.858,0.159-13.662,0.379-20.384,0.656
		c-6.723,0.241-13.365,0.54-19.897,0.89c-12.562,0.686-25.12,1.419-37.678,2.269c-5.99,0.422-11.814,0.95-17.454,1.374
		c-5.639,0.43-11.086,0.889-16.316,1.363c-9.519,0.911-19.04,1.786-28.556,2.757c-8.501,0.922-15.925,1.65-22.035,2.336
		c-6.108,0.709-10.92,1.173-14.195,1.56C60.736,374.423,58.988,374.617,58.988,374.617z"/>
</g>
</svg>
